<svg viewBox="0 0 105 22" fill="none" xmlns="http://www.w3.org/2000/svg" height="1em"><path opacity=".7" d="M78.18 7.993v13.01h-4.277v-10.79l4.276-2.22ZM20.951 21.33l9.993-5.225-1.232-3.19-6.579 3.067-2.182 5.348Z" fill="#f03e2f"/><path opacity=".5" d="m73.903 10.203 10.841-5.548-1.831-3.098-9.01 4.403v4.243Z" fill="#f03e2f"/><path opacity=".7" d="M43.37 6.962v14.04h-4.077V1.008l4.078 5.955Z" fill="#f03e2f"/><path opacity=".5" d="M27.13 6.186 20.95 21.33l-3.178-2.736 7.362-17.587 1.995 5.18Z" fill="#f03e2f"/><path d="M25.135 1.007h4.213l7.79 19.996h-4.311L25.135 1.007ZM44.001 1.007l8.981 13.661v6.335L39.292 1.007h4.71ZM64.918 1.007h-4.244v20h4.244v-20ZM73.903 4.655H67.37V1.007h15.217l2.157 3.648H73.903Z" fill="#f03e2f"/><path opacity=".5" d="M97.275 13.415v7.588h-4.212v-7.588" fill="#f03e2f"/><path d="m93.063 13.415 7.128-12.408h4.475l-7.39 12.408h-4.213Z" fill="#f03e2f"/><path opacity=".7" d="M93.063 13.415 85.736 1.007h4.61l4.963 8.503-2.246 3.905Z" fill="#f03e2f"/><path d="M1.961 3.315c0 2.784 1.75 4.44 5.254 5.315l3.713.845c3.316.749 5.336 2.607 5.336 5.635a5.687 5.687 0 0 1-1.237 3.648c0-3.021-1.59-4.654-5.427-5.635l-3.646-.814C3.034 11.654.781 10.126.781 6.837c-.015-1.27.4-2.51 1.18-3.522" fill="#f03e2f"/><path opacity=".7" d="M52.982 13.642V1.007h4.078v19.996h-4.078v-7.361ZM12.746 14.369c1.583.995 2.278 2.387 2.278 4.385-1.311 1.65-3.614 2.576-6.32 2.576-4.557 0-7.745-2.203-8.454-6.032h4.375c.564 1.758 2.055 2.572 4.046 2.572 2.43 0 4.046-1.274 4.078-3.508M4.236 7.443a4.614 4.614 0 0 1-1.717-1.756 4.511 4.511 0 0 1-.558-2.372C3.226 1.679 5.426.68 8.108.68c4.641 0 7.327 2.409 7.99 5.799h-4.21C11.424 5.142 10.262 4.1 8.143 4.1c-2.263 0-3.808 1.295-3.897 3.342" fill="#f03e2f"/></svg>