<svg viewBox="31 7 58 24" xmlns="http://www.w3.org/2000/svg"><path fill="rgb(87 52 155)" d="M37.994 19.8c-1.78-.489-3.317-.91-3.317-2.556 0-1.17.934-2.053 2.175-2.053 1.503 0 1.955 1.002 2.392 1.972.361.802.703 1.56 1.623 1.56.77 0 1.35-.563 1.35-1.31 0-1.692-2.068-3.442-5.527-3.442-3.14 0-5.418 1.718-5.418 4.086 0 3.161 2.444 3.814 4.6 4.392 1.766.472 3.292.88 3.292 2.505 0 1.285-.895 2.052-2.392 2.052-1.698 0-2.17-1.024-2.63-2.014-.367-.795-.714-1.546-1.682-1.546-.915 0-1.46.522-1.46 1.396 0 1.637 2.158 3.33 5.772 3.33 3.413 0 5.797-1.646 5.797-4.003 0-3.117-2.43-3.783-4.575-4.37Zm22.562-5.83c-.968 0-1.594.626-1.594 1.593 0 .934.519 1.493 1.07 2.085.607.652 1.234 1.326 1.234 2.596 0 3.544-2.244 6.397-4.1 6.397-.423 0-.766-.136-1.022-.405-.404-.425-.6-1.177-.585-2.235l.054-9.251c0-.278-.08-.486-.236-.62-.181-.156-.453-.2-.81-.13l-2.655.561c-.348.066-.572.304-.572.61v.083c0 .278.2.467.412.667.29.274.618.582.618 1.213V21c0 3.53-1.74 5.64-3.423 5.64-.395 0-.724-.134-.979-.403-.409-.43-.617-1.183-.6-2.18l.053-9.307c0-.249-.063-.425-.193-.542-.212-.19-.565-.167-.848-.124l-2.878.477c-.326.067-.544.312-.544.609v.083c0 .278.2.467.413.667.29.274.618.582.618 1.213v5.69c0 4.853 3.03 5.376 4.333 5.376 1.918 0 3.48-.855 4.531-2.478.614 1.6 1.906 2.478 3.66 2.478 3.366 0 6.775-3.32 6.775-9.665.002-2.815-1.046-4.564-2.732-4.564Zm10.149 6.647c-1.035.214-2.692.248-3.77.173-.047-.39-.07-.808-.07-1.246 0-2.457 1.303-4.239 3.098-4.239 1.375 0 2.56 1.185 2.585 2.586.028 2.027-.916 2.516-1.843 2.727Zm5.265 2.778c-.253-.105-.557-.01-.74.232l-.012.017c-.566 1.17-2.115 1.988-3.763 1.988-1.952 0-3.473-1.233-4.192-3.39 1.633.15 2.97.099 4.081-.157 2.786-.618 4.448-2.188 4.448-4.197 0-1.004-.33-1.851-.982-2.52-.898-.92-2.36-1.418-4.112-1.4-3.861.03-6.665 2.975-6.665 7.003 0 4.323 2.756 7.227 6.857 7.227 1.939 0 3.188-.799 3.894-1.468.794-.755 1.355-1.78 1.496-2.743l.001-.005c.025-.274-.09-.495-.311-.587Zm5.817 3.18c-.308-.256-.627-.52-.627-1.088V7.674c0-.249-.103-.46-.284-.577-.216-.14-.513-.129-.84.033l-2.74 1.401c-.243.126-.517.268-.517.6v.084c0 .245.175.419.378.62.279.276.625.211.625.878v14.773c0 .572-.288.836-.566 1.092-.225.207-.437.403-.437.73v.084c0 .32.264.526.672.526h4.122c.412 0 .7-.215.7-.526v-.084c0-.33-.236-.526-.486-.733Zm6.156 0c-.308-.256-.627-.52-.627-1.088V7.674c0-.249-.103-.46-.284-.577-.216-.14-.514-.129-.84.033l-2.74 1.401c-.243.126-.517.268-.517.6v.084c0 .245.174.419.378.62.278.276.625.211.625.878v14.773c0 .572-.288.836-.566 1.092-.225.207-.439.403-.439.73v.084c0 .32.265.526.672.526h4.123c.412 0 .7-.215.7-.526v-.084c0-.33-.235-.526-.485-.733Z"/></svg>