<svg width="174" height="43" xmlns="http://www.w3.org/2000/svg">
  <g fill="none" fill-rule="evenodd">
    <path d="M174 0v43H42.521L0 0z" fill="#611122"/>
    <path d="M131.729 21.597l-4.251-4.164v-3.022c0-.343-.22-.514-.657-.514-.451 0-.68.171-.68.514v14.587c0 .344.229.515.68.515.437 0 .657-.171.657-.515v-7.675l4.251 4.242v3.575c0 .995-.498 1.796-1.487 2.398-.994.602-2.113.9-3.363.9-3.603 0-5.41-1.258-5.41-3.783V15.124c0-2.727 1.807-4.088 5.41-4.088 3.23 0 4.85 1.24 4.85 3.723v6.838M114.22 32.282l4.61-.002V15.875l-4.61-4.621v21.028M154.954 20.85l-2.652-9.586h-5.253v21.021l3.851 3.88V21.084l3.153 11.201h4.753V11.264h-3.852v9.586M66.527 22.178L64.409 11.27h-5.941v21.025h3.613V20.492l2.759 11.803h3.181l2.411-11.803v11.803l4.114 4.165V11.27h-6.188l-1.831 10.908M83.194 20.41c0 .741-.517 1.113-1.545 1.113v-7.266c1.028 0 1.545.372 1.545 1.115v5.038zm3.097-8.425c-.936-.487-2.361-.731-4.289-.731h-4.85v21.022l4.497 4.507V24.527c2.503.041 4.133-.226 4.901-.8.76-.568 1.144-1.542 1.144-2.923v-5.829c0-1.504-.467-2.501-1.403-2.99zM107.105 18.451c0 .737-.612 1.106-1.554 1.106v-5.618c.942 0 1.554.363 1.554 1.088v3.424zm1.624 2.263c1.885-.57 2.831-1.66 2.831-3.275v-2.494c0-1.277-.478-2.21-1.432-2.799-.95-.591-2.073-.884-3.358-.884h-5.782v21.039h4.563V22.076c.953 0 1.57.353 1.57 1.059 0 .04.005 7.588.005 9.147l4.444 4.432.002-12.557c0-1.85-.947-2.998-2.843-3.443zM89.801 32.287h9.035v-2.702h-4.423v-7.391h3.937V19.65h-3.937v-5.675h4.519V11.27h-9.131v21.017M51.426 32.298l4.582-.003V11.259l-4.582-4.623v25.662M140.153 28.958c0 .422-.25.632-.749.632-.518 0-.778-.21-.778-.632v-14.34c0-.422.26-.633.778-.633.499 0 .749.211.749.633v14.34zm-.727-17.865c-3.539 0-5.308 1.365-5.308 4.097v13.548c0 2.525 1.761 3.787 5.277 3.787 1.569 0 2.836-.328 3.805-.989.973-.663 1.46-1.603 1.46-2.828V15.159c0-2.711-1.744-4.066-5.234-4.066z" fill="#FFFFFE"/>
  </g>
</svg>
