<?xml version="1.0" encoding="UTF-8"?>
<svg width="161px" height="233px" viewBox="0 0 161 233" version="1.1" xmlns="http://www.w3.org/2000/svg" xmlns:xlink="http://www.w3.org/1999/xlink">
    <g id="product-placeholder-error" stroke="none" stroke-width="1" fill="none" fill-rule="evenodd">
        <g id="Artboard" fill="#EDEDED" fill-rule="nonzero">
            <path d="M83.5859375,122.648438 L77.9609375,122.648438 L77.1640625,99 L84.3828125,99 L83.5859375,122.648438 Z M80.7734375,126.351562 C81.9140682,126.351562 82.8320278,126.687497 83.5273438,127.359375 C84.2226597,128.031253 84.5703125,128.89062 84.5703125,129.9375 C84.5703125,130.968755 84.2226597,131.820309 83.5273438,132.492188 C82.8320278,133.164066 81.9140682,133.5 80.7734375,133.5 C79.6484319,133.5 78.7382847,133.164066 78.0429688,132.492188 C77.3476528,131.820309 77,130.968755 77,129.9375 C77,128.906245 77.3476528,128.050785 78.0429688,127.371094 C78.7382847,126.691403 79.6484319,126.351562 80.7734375,126.351562 Z" id="!"></path>
        </g>
    </g>
</svg>