<?xml version="1.0" encoding="UTF-8"?>
<svg width="161px" height="233px" viewBox="0 0 161 233" version="1.1" xmlns="http://www.w3.org/2000/svg" xmlns:xlink="http://www.w3.org/1999/xlink">
    <g id="product-placeholder-loading" stroke="none" stroke-width="1" fill="none" fill-rule="evenodd">
        <g id="Artboard" fill="#EDEDED" fill-rule="nonzero">
            <path d="M66,116.632812 C66,115.554682 66.3632776,114.679691 67.0898438,114.007812 C67.8164099,113.335934 68.726557,113 69.8203125,113 C70.929693,113 71.8476526,113.335934 72.5742188,114.007812 C73.3007849,114.679691 73.6640625,115.554682 73.6640625,116.632812 C73.6640625,117.695318 73.3046911,118.55859 72.5859375,119.222656 C71.8671839,119.886722 70.9453181,120.21875 69.8203125,120.21875 C68.710932,120.21875 67.7968786,119.886722 67.078125,119.222656 C66.3593714,118.55859 66,117.695318 66,116.632812 Z M77.0859375,116.632812 C77.0859375,115.554682 77.4492151,114.679691 78.1757812,114.007812 C78.9023474,113.335934 79.8124945,113 80.90625,113 C82.0156305,113 82.9335901,113.335934 83.6601562,114.007812 C84.3867224,114.679691 84.75,115.554682 84.75,116.632812 C84.75,117.695318 84.3906286,118.55859 83.671875,119.222656 C82.9531214,119.886722 82.0312556,120.21875 80.90625,120.21875 C79.7968695,120.21875 78.8828161,119.886722 78.1640625,119.222656 C77.4453089,118.55859 77.0859375,117.695318 77.0859375,116.632812 Z M87.9609375,116.632812 C87.9609375,115.554682 88.3242151,114.679691 89.0507812,114.007812 C89.7773474,113.335934 90.6874945,113 91.78125,113 C92.8906305,113 93.8085901,113.335934 94.5351562,114.007812 C95.2617224,114.679691 95.625,115.554682 95.625,116.632812 C95.625,117.695318 95.2656286,118.55859 94.546875,119.222656 C93.8281214,119.886722 92.9062556,120.21875 91.78125,120.21875 C90.6718695,120.21875 89.7578161,119.886722 89.0390625,119.222656 C88.3203089,118.55859 87.9609375,117.695318 87.9609375,116.632812 Z" id="…"></path>
        </g>
    </g>
</svg>