<svg width="600" height="503" viewBox="0 0 600 503" fill="none" xmlns="http://www.w3.org/2000/svg">
<rect x="1" y="33" width="598" height="364" rx="23" stroke="#189EFF" stroke-width="2" stroke-dasharray="4 4"/>
<path d="M265.84 15.22C264.827 15.22 263.88 15.04 263 14.68C262.12 14.3067 261.347 13.7933 260.68 13.14C260.027 12.4733 259.513 11.7067 259.14 10.84C258.78 9.96 258.6 9.01333 258.6 8C258.6 6.98667 258.78 6.04667 259.14 5.18C259.513 4.3 260.027 3.53333 260.68 2.88C261.347 2.21333 262.12 1.7 263 1.34C263.88 0.966666 264.827 0.779999 265.84 0.779999C266.56 0.779999 267.253 0.879999 267.92 1.08C268.587 1.28 269.207 1.56667 269.78 1.94C270.367 2.3 270.873 2.74667 271.3 3.28L269.7 4.84C269.207 4.21333 268.627 3.74 267.96 3.42C267.293 3.1 266.587 2.94 265.84 2.94C265.16 2.94 264.527 3.06667 263.94 3.32C263.367 3.57333 262.86 3.93333 262.42 4.4C261.993 4.85333 261.66 5.38667 261.42 6C261.18 6.61333 261.06 7.28 261.06 8C261.06 8.72 261.18 9.38667 261.42 10C261.66 10.6133 261.993 11.1533 262.42 11.62C262.86 12.0733 263.367 12.4267 263.94 12.68C264.527 12.9333 265.16 13.06 265.84 13.06C266.587 13.06 267.293 12.9 267.96 12.58C268.627 12.2467 269.207 11.7733 269.7 11.16L271.3 12.72C270.873 13.24 270.367 13.6867 269.78 14.06C269.207 14.4333 268.587 14.72 267.92 14.92C267.253 15.12 266.56 15.22 265.84 15.22ZM277.72 15.18C276.774 15.18 275.914 14.9533 275.14 14.5C274.38 14.0467 273.78 13.4333 273.34 12.66C272.9 11.8733 272.68 10.9867 272.68 10C272.68 9.01333 272.9 8.13333 273.34 7.36C273.78 6.57333 274.38 5.95333 275.14 5.5C275.9 5.04667 276.76 4.82 277.72 4.82C278.68 4.82 279.534 5.04667 280.28 5.5C281.04 5.95333 281.64 6.57333 282.08 7.36C282.52 8.13333 282.74 9.01333 282.74 10C282.74 10.9867 282.52 11.8733 282.08 12.66C281.64 13.4333 281.04 14.0467 280.28 14.5C279.534 14.9533 278.68 15.18 277.72 15.18ZM277.72 13.26C278.267 13.26 278.747 13.12 279.16 12.84C279.587 12.56 279.92 12.1733 280.16 11.68C280.4 11.1733 280.52 10.6133 280.52 10C280.52 9.37333 280.4 8.82 280.16 8.34C279.92 7.84667 279.587 7.46 279.16 7.18C278.747 6.88667 278.267 6.74 277.72 6.74C277.174 6.74 276.687 6.88667 276.26 7.18C275.834 7.46 275.5 7.84667 275.26 8.34C275.02 8.82 274.9 9.37333 274.9 10C274.9 10.6267 275.02 11.1867 275.26 11.68C275.5 12.1733 275.834 12.56 276.26 12.84C276.687 13.12 277.174 13.26 277.72 13.26ZM285.074 15V4.98H287.334V6.62C287.72 6.02 288.18 5.57333 288.714 5.28C289.247 4.97333 289.84 4.82 290.494 4.82C291.187 4.82 291.794 4.97333 292.314 5.28C292.834 5.57333 293.24 5.98667 293.534 6.52C293.84 7.05333 293.994 7.68 293.994 8.4V15H291.714V9.04C291.714 8.30667 291.514 7.72667 291.114 7.3C290.714 6.86 290.18 6.64 289.514 6.64C289.06 6.64 288.647 6.74667 288.274 6.96C287.914 7.16 287.6 7.46 287.334 7.86V15H285.074ZM300.114 15.2C299.261 15.2 298.461 15.0867 297.714 14.86C296.981 14.62 296.348 14.28 295.814 13.84L296.874 12.34C297.541 12.7533 298.114 13.0467 298.594 13.22C299.088 13.3933 299.588 13.48 300.094 13.48C300.694 13.48 301.181 13.3533 301.554 13.1C301.928 12.8467 302.114 12.52 302.114 12.12C302.114 11.8133 302.001 11.5733 301.774 11.4C301.561 11.2133 301.208 11.0733 300.714 10.98L298.954 10.68C297.981 10.4933 297.254 10.1733 296.774 9.72C296.294 9.26667 296.054 8.66667 296.054 7.92C296.054 7.29333 296.214 6.75333 296.534 6.3C296.868 5.83333 297.321 5.47333 297.894 5.22C298.481 4.95333 299.161 4.82 299.934 4.82C300.628 4.82 301.301 4.92 301.954 5.12C302.608 5.32 303.248 5.62 303.874 6.02L302.814 7.52C302.308 7.18667 301.801 6.94667 301.294 6.8C300.801 6.64 300.301 6.56 299.794 6.56C299.274 6.56 298.854 6.66667 298.534 6.88C298.228 7.08 298.074 7.36 298.074 7.72C298.074 8.04 298.174 8.28667 298.374 8.46C298.588 8.62 298.954 8.74 299.474 8.82L301.254 9.16C302.254 9.33333 302.994 9.65333 303.474 10.12C303.968 10.5733 304.214 11.18 304.214 11.94C304.214 12.5533 304.034 13.1067 303.674 13.6C303.314 14.0933 302.828 14.4867 302.214 14.78C301.601 15.06 300.901 15.2 300.114 15.2ZM310.962 15.18C310.016 15.18 309.156 14.9533 308.382 14.5C307.622 14.0467 307.022 13.4333 306.582 12.66C306.142 11.8733 305.922 10.9867 305.922 10C305.922 9.01333 306.142 8.13333 306.582 7.36C307.022 6.57333 307.622 5.95333 308.382 5.5C309.142 5.04667 310.002 4.82 310.962 4.82C311.922 4.82 312.776 5.04667 313.522 5.5C314.282 5.95333 314.882 6.57333 315.322 7.36C315.762 8.13333 315.982 9.01333 315.982 10C315.982 10.9867 315.762 11.8733 315.322 12.66C314.882 13.4333 314.282 14.0467 313.522 14.5C312.776 14.9533 311.922 15.18 310.962 15.18ZM310.962 13.26C311.509 13.26 311.989 13.12 312.402 12.84C312.829 12.56 313.162 12.1733 313.402 11.68C313.642 11.1733 313.762 10.6133 313.762 10C313.762 9.37333 313.642 8.82 313.402 8.34C313.162 7.84667 312.829 7.46 312.402 7.18C311.989 6.88667 311.509 6.74 310.962 6.74C310.416 6.74 309.929 6.88667 309.502 7.18C309.076 7.46 308.742 7.84667 308.502 8.34C308.262 8.82 308.142 9.37333 308.142 10C308.142 10.6267 308.262 11.1867 308.502 11.68C308.742 12.1733 309.076 12.56 309.502 12.84C309.929 13.12 310.416 13.26 310.962 13.26ZM318.316 15V0.66L320.576 0.259999V15H318.316ZM328.015 15.2C327.055 15.2 326.188 14.9733 325.415 14.52C324.642 14.0533 324.028 13.4333 323.575 12.66C323.122 11.8733 322.895 10.9867 322.895 10C322.895 9.01333 323.108 8.13333 323.535 7.36C323.962 6.58667 324.542 5.97333 325.275 5.52C326.022 5.05333 326.848 4.82 327.755 4.82C328.688 4.82 329.508 5.04667 330.215 5.5C330.935 5.95333 331.495 6.56667 331.895 7.34C332.308 8.11333 332.515 9 332.515 10V10.54L325.115 10.54C325.195 11.0867 325.368 11.5733 325.635 12C325.915 12.4133 326.268 12.74 326.695 12.98C327.135 13.22 327.608 13.34 328.115 13.34C328.582 13.34 329.022 13.26 329.435 13.1C329.862 12.9267 330.215 12.6933 330.495 12.4L331.975 13.74C331.362 14.2467 330.735 14.62 330.095 14.86C329.468 15.0867 328.775 15.2 328.015 15.2ZM325.135 9.14L330.375 9.14C330.295 8.66 330.128 8.23333 329.875 7.86C329.635 7.48667 329.328 7.19333 328.955 6.98C328.595 6.76667 328.195 6.66 327.755 6.66C327.315 6.66 326.908 6.76667 326.535 6.98C326.175 7.18 325.875 7.46667 325.635 7.84C325.395 8.21333 325.228 8.64667 325.135 9.14Z" fill="#189EFF"/>
<path d="M57 91H554C566.703 91 577 101.297 577 114V255C577 267.703 566.703 278 554 278H57C44.2974 278 34 267.703 34 255V114C34 101.297 44.2975 91 57 91Z" fill="#02C652" fill-opacity="0.2" stroke="#02C652" stroke-width="2"/>
<rect x="55" y="115" width="497" height="61" rx="12" fill="#02C652"/>
<path d="M248.444 151.72C247.351 151.72 246.317 151.533 245.344 151.16C244.384 150.773 243.457 150.207 242.564 149.46L243.864 147.7C244.771 148.433 245.577 148.96 246.284 149.28C247.004 149.587 247.771 149.74 248.584 149.74C249.197 149.74 249.737 149.647 250.204 149.46C250.684 149.26 251.051 148.993 251.304 148.66C251.571 148.327 251.704 147.94 251.704 147.5C251.704 146.927 251.511 146.493 251.124 146.2C250.751 145.893 250.097 145.66 249.164 145.5L246.584 145.06C245.371 144.847 244.464 144.44 243.864 143.84C243.277 143.227 242.984 142.447 242.984 141.5C242.984 140.66 243.197 139.927 243.624 139.3C244.051 138.66 244.644 138.167 245.404 137.82C246.177 137.46 247.091 137.28 248.144 137.28C249.197 137.28 250.197 137.433 251.144 137.74C252.091 138.047 252.964 138.493 253.764 139.08L252.544 140.88C251.837 140.347 251.111 139.947 250.364 139.68C249.617 139.4 248.851 139.26 248.064 139.26C247.504 139.26 247.011 139.347 246.584 139.52C246.171 139.693 245.844 139.933 245.604 140.24C245.377 140.547 245.264 140.887 245.264 141.26C245.264 141.767 245.431 142.16 245.764 142.44C246.111 142.707 246.664 142.907 247.424 143.04L249.924 143.46C251.337 143.713 252.377 144.153 253.044 144.78C253.724 145.407 254.064 146.253 254.064 147.32C254.064 148.173 253.824 148.933 253.344 149.6C252.877 150.267 252.224 150.787 251.384 151.16C250.544 151.533 249.564 151.72 248.444 151.72ZM260.245 151.7C259.232 151.7 258.465 151.467 257.945 151C257.425 150.52 257.165 149.82 257.165 148.9V143.28H255.165V141.48H257.165V138.72L259.425 138.24V141.48H262.205V143.28H259.425V148.4C259.425 148.893 259.532 149.247 259.745 149.46C259.959 149.66 260.319 149.76 260.825 149.76C261.052 149.76 261.259 149.747 261.445 149.72C261.645 149.68 261.892 149.613 262.185 149.52V151.42C261.905 151.513 261.585 151.58 261.225 151.62C260.879 151.673 260.552 151.7 260.245 151.7ZM268.63 151.68C267.684 151.68 266.824 151.453 266.05 151C265.29 150.547 264.69 149.933 264.25 149.16C263.81 148.373 263.59 147.487 263.59 146.5C263.59 145.513 263.81 144.633 264.25 143.86C264.69 143.073 265.29 142.453 266.05 142C266.81 141.547 267.67 141.32 268.63 141.32C269.59 141.32 270.444 141.547 271.19 142C271.95 142.453 272.55 143.073 272.99 143.86C273.43 144.633 273.65 145.513 273.65 146.5C273.65 147.487 273.43 148.373 272.99 149.16C272.55 149.933 271.95 150.547 271.19 151C270.444 151.453 269.59 151.68 268.63 151.68ZM268.63 149.76C269.177 149.76 269.657 149.62 270.07 149.34C270.497 149.06 270.83 148.673 271.07 148.18C271.31 147.673 271.43 147.113 271.43 146.5C271.43 145.873 271.31 145.32 271.07 144.84C270.83 144.347 270.497 143.96 270.07 143.68C269.657 143.387 269.177 143.24 268.63 143.24C268.084 143.24 267.597 143.387 267.17 143.68C266.744 143.96 266.41 144.347 266.17 144.84C265.93 145.32 265.81 145.873 265.81 146.5C265.81 147.127 265.93 147.687 266.17 148.18C266.41 148.673 266.744 149.06 267.17 149.34C267.597 149.62 268.084 149.76 268.63 149.76ZM275.984 151.5V141.48H278.244V143.64C278.537 142.88 278.917 142.3 279.384 141.9C279.851 141.5 280.391 141.3 281.004 141.3C281.191 141.313 281.357 141.333 281.504 141.36C281.651 141.373 281.811 141.42 281.984 141.5V143.48C281.811 143.4 281.611 143.34 281.384 143.3C281.171 143.26 280.957 143.24 280.744 143.24C280.197 143.24 279.704 143.387 279.264 143.68C278.837 143.973 278.497 144.38 278.244 144.9V151.5H275.984ZM288.027 151.7C287.067 151.7 286.2 151.473 285.427 151.02C284.653 150.553 284.04 149.933 283.587 149.16C283.133 148.373 282.907 147.487 282.907 146.5C282.907 145.513 283.12 144.633 283.547 143.86C283.973 143.087 284.553 142.473 285.287 142.02C286.033 141.553 286.86 141.32 287.767 141.32C288.7 141.32 289.52 141.547 290.227 142C290.947 142.453 291.507 143.067 291.907 143.84C292.32 144.613 292.527 145.5 292.527 146.5V147.04H285.127C285.207 147.587 285.38 148.073 285.647 148.5C285.927 148.913 286.28 149.24 286.707 149.48C287.147 149.72 287.62 149.84 288.127 149.84C288.593 149.84 289.033 149.76 289.447 149.6C289.873 149.427 290.227 149.193 290.507 148.9L291.987 150.24C291.373 150.747 290.747 151.12 290.107 151.36C289.48 151.587 288.787 151.7 288.027 151.7ZM285.147 145.64H290.387C290.307 145.16 290.14 144.733 289.887 144.36C289.647 143.987 289.34 143.693 288.967 143.48C288.607 143.267 288.207 143.16 287.767 143.16C287.327 143.16 286.92 143.267 286.547 143.48C286.187 143.68 285.887 143.967 285.647 144.34C285.407 144.713 285.24 145.147 285.147 145.64ZM295.899 151.5V143.28H293.739V141.48H295.899V139.76C295.899 138.68 296.192 137.853 296.779 137.28C297.379 136.693 298.239 136.4 299.359 136.4C299.639 136.4 299.912 136.413 300.179 136.44C300.445 136.467 300.672 136.513 300.859 136.58V138.5C300.605 138.447 300.392 138.413 300.219 138.4C300.045 138.373 299.859 138.36 299.659 138.36C299.139 138.36 298.759 138.473 298.519 138.7C298.279 138.927 298.159 139.293 298.159 139.8V141.48H300.859V143.28H298.159V151.5H295.899ZM302.761 151.5V141.48H305.021V143.64C305.315 142.88 305.695 142.3 306.161 141.9C306.628 141.5 307.168 141.3 307.781 141.3C307.968 141.313 308.135 141.333 308.281 141.36C308.428 141.373 308.588 141.42 308.761 141.5V143.48C308.588 143.4 308.388 143.34 308.161 143.3C307.948 143.26 307.735 143.24 307.521 143.24C306.975 143.24 306.481 143.387 306.041 143.68C305.615 143.973 305.275 144.38 305.021 144.9V151.5H302.761ZM314.724 151.68C313.777 151.68 312.917 151.453 312.144 151C311.384 150.547 310.784 149.933 310.344 149.16C309.904 148.373 309.684 147.487 309.684 146.5C309.684 145.513 309.904 144.633 310.344 143.86C310.784 143.073 311.384 142.453 312.144 142C312.904 141.547 313.764 141.32 314.724 141.32C315.684 141.32 316.537 141.547 317.284 142C318.044 142.453 318.644 143.073 319.084 143.86C319.524 144.633 319.744 145.513 319.744 146.5C319.744 147.487 319.524 148.373 319.084 149.16C318.644 149.933 318.044 150.547 317.284 151C316.537 151.453 315.684 151.68 314.724 151.68ZM314.724 149.76C315.271 149.76 315.751 149.62 316.164 149.34C316.591 149.06 316.924 148.673 317.164 148.18C317.404 147.673 317.524 147.113 317.524 146.5C317.524 145.873 317.404 145.32 317.164 144.84C316.924 144.347 316.591 143.96 316.164 143.68C315.751 143.387 315.271 143.24 314.724 143.24C314.177 143.24 313.691 143.387 313.264 143.68C312.837 143.96 312.504 144.347 312.264 144.84C312.024 145.32 311.904 145.873 311.904 146.5C311.904 147.127 312.024 147.687 312.264 148.18C312.504 148.673 312.837 149.06 313.264 149.34C313.691 149.62 314.177 149.76 314.724 149.76ZM322.078 151.5V141.48H324.338V143.12C324.724 142.52 325.184 142.073 325.718 141.78C326.251 141.473 326.844 141.32 327.498 141.32C328.191 141.32 328.798 141.473 329.318 141.78C329.838 142.073 330.244 142.487 330.538 143.02C330.844 143.553 330.998 144.18 330.998 144.9V151.5H328.718V145.54C328.718 144.807 328.518 144.227 328.118 143.8C327.718 143.36 327.184 143.14 326.518 143.14C326.064 143.14 325.651 143.247 325.278 143.46C324.918 143.66 324.604 143.96 324.338 144.36V151.5H322.078ZM337.745 151.7C336.732 151.7 335.965 151.467 335.445 151C334.925 150.52 334.665 149.82 334.665 148.9V143.28H332.665V141.48H334.665V138.72L336.925 138.24V141.48H339.705V143.28H336.925V148.4C336.925 148.893 337.032 149.247 337.245 149.46C337.459 149.66 337.819 149.76 338.325 149.76C338.552 149.76 338.759 149.747 338.945 149.72C339.145 149.68 339.392 149.613 339.685 149.52V151.42C339.405 151.513 339.085 151.58 338.725 151.62C338.379 151.673 338.052 151.7 337.745 151.7ZM352.079 151.72C350.892 151.72 349.852 151.467 348.959 150.96C348.079 150.453 347.399 149.733 346.919 148.8C346.439 147.867 346.199 146.767 346.199 145.5V137.5H348.599V145.5C348.599 146.327 348.739 147.04 349.019 147.64C349.312 148.24 349.719 148.713 350.239 149.06C350.759 149.393 351.372 149.56 352.079 149.56C352.785 149.56 353.399 149.393 353.919 149.06C354.452 148.713 354.859 148.24 355.139 147.64C355.419 147.04 355.559 146.327 355.559 145.5V137.5H357.959V145.5C357.959 146.767 357.719 147.867 357.239 148.8C356.772 149.733 356.099 150.453 355.219 150.96C354.339 151.467 353.292 151.72 352.079 151.72ZM360.93 151.5V137.5H363.33V151.5H360.93Z" fill="white"/>
<rect x="55" y="196" width="497" height="61" rx="12" fill="#02C652"/>
<path d="M289.391 232.72C288.298 232.72 287.265 232.533 286.291 232.16C285.331 231.773 284.405 231.207 283.511 230.46L284.811 228.7C285.718 229.433 286.525 229.96 287.231 230.28C287.951 230.587 288.718 230.74 289.531 230.74C290.145 230.74 290.685 230.647 291.151 230.46C291.631 230.26 291.998 229.993 292.251 229.66C292.518 229.327 292.651 228.94 292.651 228.5C292.651 227.927 292.458 227.493 292.071 227.2C291.698 226.893 291.045 226.66 290.111 226.5L287.531 226.06C286.318 225.847 285.411 225.44 284.811 224.84C284.225 224.227 283.931 223.447 283.931 222.5C283.931 221.66 284.145 220.927 284.571 220.3C284.998 219.66 285.591 219.167 286.351 218.82C287.125 218.46 288.038 218.28 289.091 218.28C290.145 218.28 291.145 218.433 292.091 218.74C293.038 219.047 293.911 219.493 294.711 220.08L293.491 221.88C292.785 221.347 292.058 220.947 291.311 220.68C290.565 220.4 289.798 220.26 289.011 220.26C288.451 220.26 287.958 220.347 287.531 220.52C287.118 220.693 286.791 220.933 286.551 221.24C286.325 221.547 286.211 221.887 286.211 222.26C286.211 222.767 286.378 223.16 286.711 223.44C287.058 223.707 287.611 223.907 288.371 224.04L290.871 224.46C292.285 224.713 293.325 225.153 293.991 225.78C294.671 226.407 295.011 227.253 295.011 228.32C295.011 229.173 294.771 229.933 294.291 230.6C293.825 231.267 293.171 231.787 292.331 232.16C291.491 232.533 290.511 232.72 289.391 232.72ZM299.846 230.42H302.626C303.466 230.42 304.226 230.207 304.906 229.78C305.586 229.34 306.126 228.747 306.526 228C306.926 227.253 307.126 226.42 307.126 225.5C307.126 224.567 306.926 223.733 306.526 223C306.126 222.253 305.586 221.667 304.906 221.24C304.226 220.8 303.466 220.58 302.626 220.58H299.846V230.42ZM297.446 232.5V218.5H302.566C303.579 218.5 304.512 218.68 305.366 219.04C306.219 219.4 306.959 219.9 307.586 220.54C308.226 221.167 308.719 221.907 309.066 222.76C309.412 223.6 309.586 224.513 309.586 225.5C309.586 226.487 309.412 227.407 309.066 228.26C308.719 229.1 308.226 229.84 307.586 230.48C306.959 231.107 306.219 231.6 305.366 231.96C304.512 232.32 303.579 232.5 302.566 232.5H297.446ZM312.289 232.5V218.5H314.689V224.88L320.769 218.5H323.709L317.029 225.24L323.949 232.5H320.769L314.689 225.96V232.5H312.289Z" fill="white"/>
<rect x="54" y="305" width="497" height="61" rx="12" fill="#531ED3"/>
<path d="M250.196 341.5V327.5H253.316L257.416 336L261.496 327.5H264.616V341.5H262.356V330.54L257.396 340.5L252.416 330.48V341.5H250.196ZM267.669 341.5V331.48H269.929V341.5H267.669ZM268.809 329.44C268.422 329.44 268.089 329.307 267.809 329.04C267.542 328.76 267.409 328.433 267.409 328.06C267.409 327.673 267.542 327.347 267.809 327.08C268.089 326.8 268.422 326.66 268.809 326.66C269.196 326.66 269.522 326.8 269.789 327.08C270.069 327.347 270.209 327.667 270.209 328.04C270.209 328.427 270.069 328.76 269.789 329.04C269.522 329.307 269.196 329.44 268.809 329.44ZM276.788 341.6C275.948 341.6 275.188 341.373 274.508 340.92C273.828 340.453 273.281 339.84 272.868 339.08C272.468 338.307 272.268 337.447 272.268 336.5C272.268 335.54 272.475 334.68 272.888 333.92C273.301 333.147 273.861 332.533 274.568 332.08C275.288 331.627 276.081 331.4 276.948 331.4C277.521 331.4 278.055 331.513 278.548 331.74C279.055 331.953 279.495 332.273 279.868 332.7V327.16L282.128 326.76V341.5H279.888V340.18C279.528 340.633 279.081 340.987 278.548 341.24C278.015 341.48 277.428 341.6 276.788 341.6ZM277.488 339.7C277.968 339.7 278.415 339.607 278.828 339.42C279.241 339.22 279.588 338.947 279.868 338.6V334.38C279.575 334.033 279.221 333.767 278.808 333.58C278.395 333.393 277.955 333.3 277.488 333.3C276.915 333.3 276.401 333.44 275.948 333.72C275.508 333.987 275.155 334.36 274.888 334.84C274.621 335.32 274.488 335.873 274.488 336.5C274.488 337.1 274.621 337.647 274.888 338.14C275.155 338.62 275.508 339 275.948 339.28C276.401 339.56 276.915 339.7 277.488 339.7ZM288.995 341.6C288.155 341.6 287.395 341.373 286.715 340.92C286.035 340.453 285.488 339.84 285.075 339.08C284.675 338.307 284.475 337.447 284.475 336.5C284.475 335.54 284.682 334.68 285.095 333.92C285.508 333.147 286.068 332.533 286.775 332.08C287.495 331.627 288.288 331.4 289.155 331.4C289.728 331.4 290.262 331.513 290.755 331.74C291.262 331.953 291.702 332.273 292.075 332.7V327.16L294.335 326.76V341.5H292.095V340.18C291.735 340.633 291.288 340.987 290.755 341.24C290.222 341.48 289.635 341.6 288.995 341.6ZM289.695 339.7C290.175 339.7 290.622 339.607 291.035 339.42C291.448 339.22 291.795 338.947 292.075 338.6V334.38C291.782 334.033 291.428 333.767 291.015 333.58C290.602 333.393 290.162 333.3 289.695 333.3C289.122 333.3 288.608 333.44 288.155 333.72C287.715 333.987 287.362 334.36 287.095 334.84C286.828 335.32 286.695 335.873 286.695 336.5C286.695 337.1 286.828 337.647 287.095 338.14C287.362 338.62 287.715 339 288.155 339.28C288.608 339.56 289.122 339.7 289.695 339.7ZM297.142 341.5V327.16L299.402 326.76V341.5H297.142ZM306.841 341.7C305.881 341.7 305.015 341.473 304.241 341.02C303.468 340.553 302.855 339.933 302.401 339.16C301.948 338.373 301.721 337.487 301.721 336.5C301.721 335.513 301.935 334.633 302.361 333.86C302.788 333.087 303.368 332.473 304.101 332.02C304.848 331.553 305.675 331.32 306.581 331.32C307.515 331.32 308.335 331.547 309.041 332C309.761 332.453 310.321 333.067 310.721 333.84C311.135 334.613 311.341 335.5 311.341 336.5V337.04H303.941C304.021 337.587 304.195 338.073 304.461 338.5C304.741 338.913 305.095 339.24 305.521 339.48C305.961 339.72 306.435 339.84 306.941 339.84C307.408 339.84 307.848 339.76 308.261 339.6C308.688 339.427 309.041 339.193 309.321 338.9L310.801 340.24C310.188 340.747 309.561 341.12 308.921 341.36C308.295 341.587 307.601 341.7 306.841 341.7ZM303.961 335.64H309.201C309.121 335.16 308.955 334.733 308.701 334.36C308.461 333.987 308.155 333.693 307.781 333.48C307.421 333.267 307.021 333.16 306.581 333.16C306.141 333.16 305.735 333.267 305.361 333.48C305.001 333.68 304.701 333.967 304.461 334.34C304.221 334.713 304.055 335.147 303.961 335.64ZM315.211 341.5L312.511 331.48H314.671L316.431 338.54L318.511 331.48H320.411L322.471 338.54L324.231 331.48H326.331L323.631 341.5H321.471L319.431 334.44L317.411 341.5H315.211ZM331.081 341.68C330.387 341.68 329.767 341.553 329.221 341.3C328.687 341.033 328.267 340.673 327.961 340.22C327.667 339.753 327.521 339.22 327.521 338.62C327.521 338.02 327.674 337.5 327.981 337.06C328.301 336.62 328.747 336.28 329.321 336.04C329.894 335.8 330.574 335.68 331.361 335.68C331.827 335.68 332.287 335.733 332.741 335.84C333.194 335.933 333.634 336.093 334.061 336.32V335.2C334.061 334.533 333.867 334.033 333.481 333.7C333.107 333.367 332.534 333.2 331.761 333.2C331.347 333.2 330.901 333.267 330.421 333.4C329.954 333.52 329.427 333.713 328.841 333.98L328.041 332.34C329.507 331.66 330.894 331.32 332.201 331.32C333.507 331.32 334.514 331.64 335.221 332.28C335.941 332.907 336.301 333.8 336.301 334.96V341.5H334.061V340.46C333.634 340.873 333.174 341.18 332.681 341.38C332.187 341.58 331.654 341.68 331.081 341.68ZM329.641 338.58C329.641 339.047 329.827 339.413 330.201 339.68C330.574 339.947 331.074 340.08 331.701 340.08C332.154 340.08 332.574 340.013 332.961 339.88C333.361 339.733 333.727 339.52 334.061 339.24V337.62C333.714 337.46 333.354 337.34 332.981 337.26C332.607 337.18 332.201 337.14 331.761 337.14C331.107 337.14 330.587 337.267 330.201 337.52C329.827 337.773 329.641 338.127 329.641 338.58ZM339.037 341.5V331.48H341.297V333.64C341.59 332.88 341.97 332.3 342.437 331.9C342.903 331.5 343.443 331.3 344.057 331.3C344.243 331.313 344.41 331.333 344.557 331.36C344.703 331.373 344.863 331.42 345.037 331.5V333.48C344.863 333.4 344.663 333.34 344.437 333.3C344.223 333.26 344.01 333.24 343.797 333.24C343.25 333.24 342.757 333.387 342.317 333.68C341.89 333.973 341.55 334.38 341.297 334.9V341.5H339.037ZM351.08 341.7C350.12 341.7 349.253 341.473 348.48 341.02C347.706 340.553 347.093 339.933 346.64 339.16C346.186 338.373 345.96 337.487 345.96 336.5C345.96 335.513 346.173 334.633 346.6 333.86C347.026 333.087 347.606 332.473 348.34 332.02C349.086 331.553 349.913 331.32 350.82 331.32C351.753 331.32 352.573 331.547 353.28 332C354 332.453 354.56 333.067 354.96 333.84C355.373 334.613 355.58 335.5 355.58 336.5V337.04H348.18C348.26 337.587 348.433 338.073 348.7 338.5C348.98 338.913 349.333 339.24 349.76 339.48C350.2 339.72 350.673 339.84 351.18 339.84C351.646 339.84 352.086 339.76 352.5 339.6C352.926 339.427 353.28 339.193 353.56 338.9L355.04 340.24C354.426 340.747 353.8 341.12 353.16 341.36C352.533 341.587 351.84 341.7 351.08 341.7ZM348.2 335.64H353.44C353.36 335.16 353.193 334.733 352.94 334.36C352.7 333.987 352.393 333.693 352.02 333.48C351.66 333.267 351.26 333.16 350.82 333.16C350.38 333.16 349.973 333.267 349.6 333.48C349.24 333.68 348.94 333.967 348.7 334.34C348.46 334.713 348.293 335.147 348.2 335.64Z" fill="white"/>
<path d="M205.637 73V59H207.977L215.277 69.18L215.237 59H217.497V73H215.357L207.857 62.54L207.897 73H205.637ZM223.992 73.16C223.299 73.16 222.692 73.0067 222.172 72.7C221.652 72.3933 221.239 71.9733 220.932 71.44C220.639 70.9067 220.492 70.2867 220.492 69.58V62.98H222.772V68.92C222.772 69.6667 222.965 70.26 223.352 70.7C223.752 71.1267 224.292 71.34 224.972 71.34C225.425 71.34 225.832 71.24 226.192 71.04C226.565 70.84 226.885 70.54 227.152 70.14V62.98H229.412V73H227.152V71.38C226.765 71.9667 226.305 72.4133 225.772 72.72C225.239 73.0133 224.645 73.16 223.992 73.16ZM231.053 73L234.833 67.84L231.213 62.98H233.873L236.213 66.28L238.553 62.98H241.092L237.433 67.9L241.253 73H238.613L236.092 69.5L233.573 73H231.053ZM247.021 73.2C246.007 73.2 245.241 72.9667 244.721 72.5C244.201 72.02 243.941 71.32 243.941 70.4V64.78H241.941V62.98H243.941V60.22L246.201 59.74V62.98H248.981V64.78H246.201V69.9C246.201 70.3933 246.307 70.7467 246.521 70.96C246.734 71.16 247.094 71.26 247.601 71.26C247.827 71.26 248.034 71.2467 248.221 71.22C248.421 71.18 248.667 71.1133 248.961 71.02V72.92C248.681 73.0133 248.361 73.08 248.001 73.12C247.654 73.1733 247.327 73.2 247.021 73.2ZM248.582 77.18L256.582 59H258.782L250.762 77.18H248.582ZM261.203 73V59H263.543L270.843 69.18L270.803 59H273.063V73H270.923L263.423 62.54L263.463 73H261.203ZM280.798 73.2C279.838 73.2 278.972 72.9733 278.198 72.52C277.425 72.0533 276.812 71.4333 276.358 70.66C275.905 69.8733 275.678 68.9867 275.678 68C275.678 67.0133 275.892 66.1333 276.318 65.36C276.745 64.5867 277.325 63.9733 278.058 63.52C278.805 63.0533 279.632 62.82 280.538 62.82C281.472 62.82 282.292 63.0467 282.998 63.5C283.718 63.9533 284.278 64.5667 284.678 65.34C285.092 66.1133 285.298 67 285.298 68V68.54H277.898C277.978 69.0867 278.152 69.5733 278.418 70C278.698 70.4133 279.052 70.74 279.478 70.98C279.918 71.22 280.392 71.34 280.898 71.34C281.365 71.34 281.805 71.26 282.218 71.1C282.645 70.9267 282.998 70.6933 283.278 70.4L284.758 71.74C284.145 72.2467 283.518 72.62 282.878 72.86C282.252 73.0867 281.558 73.2 280.798 73.2ZM277.918 67.14H283.158C283.078 66.66 282.912 66.2333 282.658 65.86C282.418 65.4867 282.112 65.1933 281.738 64.98C281.378 64.7667 280.978 64.66 280.538 64.66C280.098 64.66 279.692 64.7667 279.318 64.98C278.958 65.18 278.658 65.4667 278.418 65.84C278.178 66.2133 278.012 66.6467 277.918 67.14ZM285.799 73L289.579 67.84L285.959 62.98H288.619L290.959 66.28L293.299 62.98H295.839L292.179 67.9L295.999 73H293.359L290.839 69.5L288.319 73H285.799ZM301.767 73.2C300.754 73.2 299.987 72.9667 299.467 72.5C298.947 72.02 298.687 71.32 298.687 70.4V64.78H296.687V62.98H298.687V60.22L300.947 59.74V62.98H303.727V64.78H300.947V69.9C300.947 70.3933 301.054 70.7467 301.267 70.96C301.48 71.16 301.84 71.26 302.347 71.26C302.574 71.26 302.78 71.2467 302.967 71.22C303.167 71.18 303.414 71.1133 303.707 71.02V72.92C303.427 73.0133 303.107 73.08 302.747 73.12C302.4 73.1733 302.074 73.2 301.767 73.2ZM315.18 73.22C314.087 73.22 313.054 73.0333 312.08 72.66C311.12 72.2733 310.194 71.7067 309.3 70.96L310.6 69.2C311.507 69.9333 312.314 70.46 313.02 70.78C313.74 71.0867 314.507 71.24 315.32 71.24C315.934 71.24 316.474 71.1467 316.94 70.96C317.42 70.76 317.787 70.4933 318.04 70.16C318.307 69.8267 318.44 69.44 318.44 69C318.44 68.4267 318.247 67.9933 317.86 67.7C317.487 67.3933 316.834 67.16 315.9 67L313.32 66.56C312.107 66.3467 311.2 65.94 310.6 65.34C310.014 64.7267 309.72 63.9467 309.72 63C309.72 62.16 309.934 61.4267 310.36 60.8C310.787 60.16 311.38 59.6667 312.14 59.32C312.914 58.96 313.827 58.78 314.88 58.78C315.934 58.78 316.934 58.9333 317.88 59.24C318.827 59.5467 319.7 59.9933 320.5 60.58L319.28 62.38C318.574 61.8467 317.847 61.4467 317.1 61.18C316.354 60.9 315.587 60.76 314.8 60.76C314.24 60.76 313.747 60.8467 313.32 61.02C312.907 61.1933 312.58 61.4333 312.34 61.74C312.114 62.0467 312 62.3867 312 62.76C312 63.2667 312.167 63.66 312.5 63.94C312.847 64.2067 313.4 64.4067 314.16 64.54L316.66 64.96C318.074 65.2133 319.114 65.6533 319.78 66.28C320.46 66.9067 320.8 67.7533 320.8 68.82C320.8 69.6733 320.56 70.4333 320.08 71.1C319.614 71.7667 318.96 72.2867 318.12 72.66C317.28 73.0333 316.3 73.22 315.18 73.22ZM326.982 73.2C325.968 73.2 325.202 72.9667 324.682 72.5C324.162 72.02 323.902 71.32 323.902 70.4V64.78H321.902V62.98H323.902V60.22L326.162 59.74V62.98H328.942V64.78H326.162V69.9C326.162 70.3933 326.268 70.7467 326.482 70.96C326.695 71.16 327.055 71.26 327.562 71.26C327.788 71.26 327.995 71.2467 328.182 71.22C328.382 71.18 328.628 71.1133 328.922 71.02V72.92C328.642 73.0133 328.322 73.08 327.962 73.12C327.615 73.1733 327.288 73.2 326.982 73.2ZM335.367 73.18C334.42 73.18 333.56 72.9533 332.787 72.5C332.027 72.0467 331.427 71.4333 330.987 70.66C330.547 69.8733 330.327 68.9867 330.327 68C330.327 67.0133 330.547 66.1333 330.987 65.36C331.427 64.5733 332.027 63.9533 332.787 63.5C333.547 63.0467 334.407 62.82 335.367 62.82C336.327 62.82 337.18 63.0467 337.927 63.5C338.687 63.9533 339.287 64.5733 339.727 65.36C340.167 66.1333 340.387 67.0133 340.387 68C340.387 68.9867 340.167 69.8733 339.727 70.66C339.287 71.4333 338.687 72.0467 337.927 72.5C337.18 72.9533 336.327 73.18 335.367 73.18ZM335.367 71.26C335.913 71.26 336.393 71.12 336.807 70.84C337.233 70.56 337.567 70.1733 337.807 69.68C338.047 69.1733 338.167 68.6133 338.167 68C338.167 67.3733 338.047 66.82 337.807 66.34C337.567 65.8467 337.233 65.46 336.807 65.18C336.393 64.8867 335.913 64.74 335.367 64.74C334.82 64.74 334.333 64.8867 333.907 65.18C333.48 65.46 333.147 65.8467 332.907 66.34C332.667 66.82 332.547 67.3733 332.547 68C332.547 68.6267 332.667 69.1867 332.907 69.68C333.147 70.1733 333.48 70.56 333.907 70.84C334.333 71.12 334.82 71.26 335.367 71.26ZM342.72 73V62.98H344.98V65.14C345.274 64.38 345.654 63.8 346.12 63.4C346.587 63 347.127 62.8 347.74 62.8C347.927 62.8133 348.094 62.8333 348.24 62.86C348.387 62.8733 348.547 62.92 348.72 63V64.98C348.547 64.9 348.347 64.84 348.12 64.8C347.907 64.76 347.694 64.74 347.48 64.74C346.934 64.74 346.44 64.8867 346 65.18C345.574 65.4733 345.234 65.88 344.98 66.4V73H342.72ZM354.763 73.2C353.803 73.2 352.936 72.9733 352.163 72.52C351.39 72.0533 350.776 71.4333 350.323 70.66C349.87 69.8733 349.643 68.9867 349.643 68C349.643 67.0133 349.856 66.1333 350.283 65.36C350.71 64.5867 351.29 63.9733 352.023 63.52C352.77 63.0533 353.596 62.82 354.503 62.82C355.436 62.82 356.256 63.0467 356.963 63.5C357.683 63.9533 358.243 64.5667 358.643 65.34C359.056 66.1133 359.263 67 359.263 68V68.54H351.863C351.943 69.0867 352.116 69.5733 352.383 70C352.663 70.4133 353.016 70.74 353.443 70.98C353.883 71.22 354.356 71.34 354.863 71.34C355.33 71.34 355.77 71.26 356.183 71.1C356.61 70.9267 356.963 70.6933 357.243 70.4L358.723 71.74C358.11 72.2467 357.483 72.62 356.843 72.86C356.216 73.0867 355.523 73.2 354.763 73.2ZM351.883 67.14H357.123C357.043 66.66 356.876 66.2333 356.623 65.86C356.383 65.4867 356.076 65.1933 355.703 64.98C355.343 64.7667 354.943 64.66 354.503 64.66C354.063 64.66 353.656 64.7667 353.283 64.98C352.923 65.18 352.623 65.4667 352.383 65.84C352.143 66.2133 351.976 66.6467 351.883 67.14ZM362.635 73V64.78H360.475V62.98H362.635V61.26C362.635 60.18 362.928 59.3533 363.515 58.78C364.115 58.1933 364.975 57.9 366.095 57.9C366.375 57.9 366.648 57.9133 366.915 57.94C367.182 57.9667 367.408 58.0133 367.595 58.08V60C367.342 59.9467 367.128 59.9133 366.955 59.9C366.782 59.8733 366.595 59.86 366.395 59.86C365.875 59.86 365.495 59.9733 365.255 60.2C365.015 60.4267 364.895 60.7933 364.895 61.3V62.98H367.595V64.78H364.895V73H362.635ZM369.498 73V62.98H371.758V65.14C372.051 64.38 372.431 63.8 372.898 63.4C373.364 63 373.904 62.8 374.518 62.8C374.704 62.8133 374.871 62.8333 375.018 62.86C375.164 62.8733 375.324 62.92 375.498 63V64.98C375.324 64.9 375.124 64.84 374.898 64.8C374.684 64.76 374.471 64.74 374.258 64.74C373.711 64.74 373.218 64.8867 372.778 65.18C372.351 65.4733 372.011 65.88 371.758 66.4V73H369.498ZM381.46 73.18C380.514 73.18 379.654 72.9533 378.88 72.5C378.12 72.0467 377.52 71.4333 377.08 70.66C376.64 69.8733 376.42 68.9867 376.42 68C376.42 67.0133 376.64 66.1333 377.08 65.36C377.52 64.5733 378.12 63.9533 378.88 63.5C379.64 63.0467 380.5 62.82 381.46 62.82C382.42 62.82 383.274 63.0467 384.02 63.5C384.78 63.9533 385.38 64.5733 385.82 65.36C386.26 66.1333 386.48 67.0133 386.48 68C386.48 68.9867 386.26 69.8733 385.82 70.66C385.38 71.4333 384.78 72.0467 384.02 72.5C383.274 72.9533 382.42 73.18 381.46 73.18ZM381.46 71.26C382.007 71.26 382.487 71.12 382.9 70.84C383.327 70.56 383.66 70.1733 383.9 69.68C384.14 69.1733 384.26 68.6133 384.26 68C384.26 67.3733 384.14 66.82 383.9 66.34C383.66 65.8467 383.327 65.46 382.9 65.18C382.487 64.8867 382.007 64.74 381.46 64.74C380.914 64.74 380.427 64.8867 380 65.18C379.574 65.46 379.24 65.8467 379 66.34C378.76 66.82 378.64 67.3733 378.64 68C378.64 68.6267 378.76 69.1867 379 69.68C379.24 70.1733 379.574 70.56 380 70.84C380.427 71.12 380.914 71.26 381.46 71.26ZM388.814 73V62.98H391.074V64.62C391.461 64.02 391.921 63.5733 392.454 63.28C392.987 62.9733 393.581 62.82 394.234 62.82C394.927 62.82 395.534 62.9733 396.054 63.28C396.574 63.5733 396.981 63.9867 397.274 64.52C397.581 65.0533 397.734 65.68 397.734 66.4V73H395.454V67.04C395.454 66.3067 395.254 65.7267 394.854 65.3C394.454 64.86 393.921 64.64 393.254 64.64C392.801 64.64 392.387 64.7467 392.014 64.96C391.654 65.16 391.341 65.46 391.074 65.86V73H388.814ZM404.482 73.2C403.468 73.2 402.702 72.9667 402.182 72.5C401.662 72.02 401.402 71.32 401.402 70.4V64.78H399.402V62.98H401.402V60.22L403.662 59.74V62.98L406.442 62.98V64.78H403.662V69.9C403.662 70.3933 403.768 70.7467 403.982 70.96C404.195 71.16 404.555 71.26 405.062 71.26C405.288 71.26 405.495 71.2467 405.682 71.22C405.882 71.18 406.128 71.1133 406.422 71.02V72.92C406.142 73.0133 405.822 73.08 405.462 73.12C405.115 73.1733 404.788 73.2 404.482 73.2Z" fill="#02BB4D"/>
<rect x="94.3999" y="426" width="52" height="52" rx="12" fill="#2A4148"/>
<path fill-rule="evenodd" clip-rule="evenodd" d="M110.945 441.917C110.669 441.917 110.445 442.14 110.445 442.417C110.445 442.693 110.669 442.917 110.945 442.917H111.26C111.527 442.917 111.787 443.009 111.995 443.177C112.203 443.346 112.346 443.581 112.401 443.843L112.997 446.671C112.999 446.681 113.001 446.692 113.003 446.703L115.177 457.03C115.28 457.516 115.546 457.953 115.932 458.266C116.109 458.409 116.305 458.522 116.514 458.603C115.673 458.731 115.028 459.457 115.028 460.333C115.028 461.3 115.812 462.083 116.778 462.083C117.745 462.083 118.528 461.3 118.528 460.333C118.528 459.634 118.118 459.03 117.525 458.75H124.365C123.772 459.03 123.362 459.634 123.362 460.333C123.362 461.3 124.145 462.083 125.112 462.083C126.078 462.083 126.862 461.3 126.862 460.333C126.862 459.634 126.451 459.03 125.858 458.75H126.778C127.054 458.75 127.278 458.526 127.278 458.25C127.278 457.974 127.054 457.75 126.778 457.75H117.297C117.03 457.75 116.77 457.658 116.562 457.489C116.354 457.321 116.211 457.086 116.156 456.824L116.035 456.25H125.702C126.361 456.25 127 456.033 127.523 455.634C128.046 455.234 128.423 454.674 128.596 454.039L130.307 447.767C130.361 447.569 130.369 447.362 130.329 447.161C130.29 446.959 130.205 446.77 130.08 446.607C129.956 446.444 129.795 446.312 129.612 446.221C129.428 446.131 129.226 446.083 129.021 446.083H113.895L113.38 443.637C113.278 443.151 113.011 442.714 112.625 442.401C112.239 442.088 111.757 441.917 111.26 441.917H110.945ZM114.105 447.083L115.825 455.25H125.702C126.141 455.25 126.568 455.106 126.916 454.839C127.265 454.573 127.516 454.199 127.632 453.776L129.342 447.504C129.356 447.455 129.358 447.403 129.348 447.353C129.338 447.302 129.317 447.255 129.286 447.214C129.255 447.174 129.215 447.141 129.169 447.118C129.123 447.095 129.072 447.083 129.021 447.083H114.105ZM116.778 459.583C116.364 459.583 116.028 459.919 116.028 460.333C116.028 460.748 116.364 461.083 116.778 461.083C117.192 461.083 117.528 460.748 117.528 460.333C117.528 459.919 117.192 459.583 116.778 459.583ZM124.362 460.333C124.362 459.919 124.697 459.583 125.112 459.583C125.526 459.583 125.862 459.919 125.862 460.333C125.862 460.748 125.526 461.083 125.112 461.083C124.697 461.083 124.362 460.748 124.362 460.333Z" fill="#F2F2F2"/>
<path d="M96.0208 496.1C95.5675 496.1 95.1575 495.99 94.7908 495.77C94.4241 495.543 94.1341 495.24 93.9208 494.86C93.7075 494.473 93.6008 494.04 93.6008 493.56C93.6008 493.08 93.7008 492.65 93.9008 492.27C94.1075 491.89 94.3841 491.59 94.7308 491.37C95.0775 491.15 95.4641 491.04 95.8908 491.04C96.3241 491.04 96.7075 491.15 97.0408 491.37C97.3808 491.583 97.6475 491.877 97.8408 492.25C98.0408 492.617 98.1408 493.033 98.1408 493.5V493.72H94.3108C94.3375 494.053 94.4275 494.353 94.5808 494.62C94.7408 494.88 94.9475 495.087 95.2008 495.24C95.4608 495.387 95.7441 495.46 96.0508 495.46C96.3041 495.46 96.5475 495.417 96.7808 495.33C97.0208 495.237 97.2241 495.113 97.3908 494.96L97.8508 495.45C97.5708 495.67 97.2808 495.833 96.9808 495.94C96.6808 496.047 96.3608 496.1 96.0208 496.1ZM94.3308 493.2H97.4208C97.3875 492.907 97.2975 492.647 97.1508 492.42C97.0108 492.187 96.8308 492.003 96.6108 491.87C96.3975 491.737 96.1575 491.67 95.8908 491.67C95.6241 491.67 95.3808 491.737 95.1608 491.87C94.9408 491.997 94.7575 492.177 94.6108 492.41C94.4708 492.637 94.3775 492.9 94.3308 493.2ZM102.757 496.11C102.257 496.11 101.791 496.02 101.357 495.84C100.931 495.653 100.554 495.397 100.227 495.07C99.9005 494.737 99.6472 494.353 99.4672 493.92C99.2872 493.48 99.1972 493.007 99.1972 492.5C99.1972 491.993 99.2872 491.523 99.4672 491.09C99.6472 490.65 99.9005 490.267 100.227 489.94C100.554 489.607 100.931 489.35 101.357 489.17C101.791 488.983 102.257 488.89 102.757 488.89C103.104 488.89 103.434 488.937 103.747 489.03C104.067 489.117 104.367 489.247 104.647 489.42C104.927 489.587 105.177 489.793 105.397 490.04L104.887 490.57C104.627 490.257 104.307 490.017 103.927 489.85C103.554 489.677 103.164 489.59 102.757 489.59C102.364 489.59 101.997 489.663 101.657 489.81C101.317 489.957 101.021 490.163 100.767 490.43C100.521 490.697 100.327 491.007 100.187 491.36C100.047 491.707 99.9772 492.087 99.9772 492.5C99.9772 492.907 100.047 493.287 100.187 493.64C100.327 493.993 100.521 494.303 100.767 494.57C101.021 494.837 101.317 495.043 101.657 495.19C101.997 495.337 102.364 495.41 102.757 495.41C103.164 495.41 103.554 495.323 103.927 495.15C104.307 494.977 104.627 494.737 104.887 494.43L105.397 494.96C105.177 495.207 104.927 495.417 104.647 495.59C104.367 495.757 104.067 495.887 103.747 495.98C103.434 496.067 103.104 496.11 102.757 496.11ZM108.657 496.08C108.203 496.08 107.797 495.97 107.437 495.75C107.077 495.53 106.793 495.23 106.587 494.85C106.38 494.47 106.277 494.04 106.277 493.56C106.277 493.08 106.38 492.65 106.587 492.27C106.793 491.89 107.077 491.59 107.437 491.37C107.797 491.15 108.203 491.04 108.657 491.04C109.103 491.04 109.503 491.15 109.857 491.37C110.217 491.59 110.5 491.89 110.707 492.27C110.913 492.65 111.017 493.08 111.017 493.56C111.017 494.04 110.913 494.47 110.707 494.85C110.5 495.23 110.217 495.53 109.857 495.75C109.503 495.97 109.103 496.08 108.657 496.08ZM108.647 495.44C108.967 495.44 109.25 495.36 109.497 495.2C109.743 495.033 109.937 494.807 110.077 494.52C110.223 494.233 110.297 493.913 110.297 493.56C110.297 493.2 110.223 492.88 110.077 492.6C109.937 492.313 109.743 492.09 109.497 491.93C109.25 491.763 108.967 491.68 108.647 491.68C108.327 491.68 108.043 491.763 107.797 491.93C107.55 492.09 107.353 492.313 107.207 492.6C107.067 492.88 106.997 493.2 106.997 493.56C106.997 493.913 107.067 494.233 107.207 494.52C107.353 494.807 107.55 495.033 107.797 495.2C108.043 495.36 108.327 495.44 108.647 495.44ZM112.297 496V491.12H113.027V491.88C113.214 491.6 113.427 491.39 113.667 491.25C113.907 491.11 114.177 491.04 114.477 491.04C114.824 491.04 115.127 491.127 115.387 491.3C115.647 491.467 115.844 491.697 115.977 491.99C116.171 491.677 116.401 491.44 116.667 491.28C116.941 491.12 117.254 491.04 117.607 491.04C117.934 491.04 118.221 491.117 118.467 491.27C118.721 491.423 118.917 491.637 119.057 491.91C119.197 492.177 119.267 492.49 119.267 492.85V496H118.537V493.03C118.537 492.603 118.431 492.267 118.217 492.02C118.004 491.773 117.711 491.65 117.337 491.65C117.084 491.65 116.854 491.713 116.647 491.84C116.447 491.967 116.271 492.16 116.117 492.42C116.131 492.487 116.141 492.557 116.147 492.63C116.154 492.703 116.157 492.777 116.157 492.85V496H115.427V493.03C115.427 492.603 115.317 492.267 115.097 492.02C114.884 491.773 114.591 491.65 114.217 491.65C113.717 491.65 113.321 491.89 113.027 492.37V496H112.297ZM120.745 496V491.12H121.475V491.88C121.661 491.6 121.875 491.39 122.115 491.25C122.355 491.11 122.625 491.04 122.925 491.04C123.271 491.04 123.575 491.127 123.835 491.3C124.095 491.467 124.291 491.697 124.425 491.99C124.618 491.677 124.848 491.44 125.115 491.28C125.388 491.12 125.701 491.04 126.055 491.04C126.381 491.04 126.668 491.117 126.915 491.27C127.168 491.423 127.365 491.637 127.505 491.91C127.645 492.177 127.715 492.49 127.715 492.85V496H126.985V493.03C126.985 492.603 126.878 492.267 126.665 492.02C126.451 491.773 126.158 491.65 125.785 491.65C125.531 491.65 125.301 491.713 125.095 491.84C124.895 491.967 124.718 492.16 124.565 492.42C124.578 492.487 124.588 492.557 124.595 492.63C124.601 492.703 124.605 492.777 124.605 492.85V496H123.875V493.03C123.875 492.603 123.765 492.267 123.545 492.02C123.331 491.773 123.038 491.65 122.665 491.65C122.165 491.65 121.768 491.89 121.475 492.37V496H120.745ZM131.392 496.1C130.939 496.1 130.529 495.99 130.162 495.77C129.795 495.543 129.505 495.24 129.292 494.86C129.079 494.473 128.972 494.04 128.972 493.56C128.972 493.08 129.072 492.65 129.272 492.27C129.479 491.89 129.755 491.59 130.102 491.37C130.449 491.15 130.835 491.04 131.262 491.04C131.695 491.04 132.079 491.15 132.412 491.37C132.752 491.583 133.019 491.877 133.212 492.25C133.412 492.617 133.512 493.033 133.512 493.5V493.72H129.682C129.709 494.053 129.799 494.353 129.952 494.62C130.112 494.88 130.319 495.087 130.572 495.24C130.832 495.387 131.115 495.46 131.422 495.46C131.675 495.46 131.919 495.417 132.152 495.33C132.392 495.237 132.595 495.113 132.762 494.96L133.222 495.45C132.942 495.67 132.652 495.833 132.352 495.94C132.052 496.047 131.732 496.1 131.392 496.1ZM129.702 493.2H132.792C132.759 492.907 132.669 492.647 132.522 492.42C132.382 492.187 132.202 492.003 131.982 491.87C131.769 491.737 131.529 491.67 131.262 491.67C130.995 491.67 130.752 491.737 130.532 491.87C130.312 491.997 130.129 492.177 129.982 492.41C129.842 492.637 129.749 492.9 129.702 493.2ZM134.758 496V491.12H135.488V492.12C135.615 491.78 135.795 491.517 136.028 491.33C136.268 491.137 136.542 491.04 136.848 491.04C136.935 491.04 137.015 491.047 137.088 491.06C137.162 491.067 137.235 491.083 137.308 491.11V491.77C137.228 491.743 137.142 491.723 137.048 491.71C136.962 491.69 136.878 491.68 136.798 491.68C136.498 491.68 136.235 491.767 136.008 491.94C135.788 492.113 135.615 492.357 135.488 492.67V496H134.758ZM140.161 496.08C139.708 496.08 139.298 495.97 138.931 495.75C138.571 495.523 138.285 495.22 138.071 494.84C137.858 494.453 137.751 494.027 137.751 493.56C137.751 493.087 137.858 492.66 138.071 492.28C138.285 491.9 138.571 491.6 138.931 491.38C139.298 491.153 139.708 491.04 140.161 491.04C140.521 491.04 140.865 491.107 141.191 491.24C141.518 491.373 141.801 491.56 142.041 491.8L141.571 492.31C141.398 492.117 141.188 491.967 140.941 491.86C140.695 491.753 140.445 491.7 140.191 491.7C139.871 491.7 139.581 491.783 139.321 491.95C139.068 492.117 138.865 492.34 138.711 492.62C138.558 492.9 138.481 493.213 138.481 493.56C138.481 493.907 138.558 494.22 138.711 494.5C138.865 494.78 139.068 495.003 139.321 495.17C139.581 495.337 139.871 495.42 140.191 495.42C140.445 495.42 140.695 495.367 140.941 495.26C141.188 495.147 141.398 494.997 141.571 494.81L142.041 495.32C141.801 495.56 141.518 495.747 141.191 495.88C140.865 496.013 140.521 496.08 140.161 496.08ZM145.113 496.1C144.659 496.1 144.249 495.99 143.883 495.77C143.516 495.543 143.226 495.24 143.013 494.86C142.799 494.473 142.693 494.04 142.693 493.56C142.693 493.08 142.793 492.65 142.993 492.27C143.199 491.89 143.476 491.59 143.823 491.37C144.169 491.15 144.556 491.04 144.983 491.04C145.416 491.04 145.799 491.15 146.133 491.37C146.473 491.583 146.739 491.877 146.933 492.25C147.133 492.617 147.233 493.033 147.233 493.5V493.72H143.403C143.429 494.053 143.519 494.353 143.673 494.62C143.833 494.88 144.039 495.087 144.293 495.24C144.553 495.387 144.836 495.46 145.143 495.46C145.396 495.46 145.639 495.417 145.873 495.33C146.113 495.237 146.316 495.113 146.483 494.96L146.943 495.45C146.663 495.67 146.373 495.833 146.073 495.94C145.773 496.047 145.453 496.1 145.113 496.1ZM143.423 493.2H146.513C146.479 492.907 146.389 492.647 146.243 492.42C146.103 492.187 145.923 492.003 145.703 491.87C145.489 491.737 145.249 491.67 144.983 491.67C144.716 491.67 144.473 491.737 144.253 491.87C144.033 491.997 143.849 492.177 143.703 492.41C143.563 492.637 143.469 492.9 143.423 493.2Z" fill="#7C868D"/>
<rect x="187.2" y="426" width="52" height="52" rx="12" fill="#2A4148"/>
<path fill-rule="evenodd" clip-rule="evenodd" d="M210.75 448.333C211.475 447.849 212.328 447.59 213.2 447.59C214.369 447.593 215.489 448.058 216.315 448.885C217.142 449.711 217.607 450.831 217.61 452C217.61 452.872 217.351 453.725 216.867 454.45C216.382 455.175 215.693 455.741 214.888 456.074C214.082 456.408 213.195 456.495 212.34 456.325C211.484 456.155 210.698 455.735 210.082 455.118C209.465 454.502 209.045 453.716 208.875 452.86C208.705 452.005 208.792 451.118 209.126 450.312C209.459 449.507 210.025 448.818 210.75 448.333ZM211.305 454.835C211.866 455.21 212.526 455.41 213.2 455.41C214.104 455.41 214.972 455.051 215.611 454.411C216.251 453.772 216.61 452.904 216.61 452C216.61 451.326 216.41 450.666 216.035 450.106C215.661 449.545 215.128 449.108 214.505 448.85C213.882 448.591 213.196 448.524 212.535 448.656C211.873 448.787 211.266 449.112 210.789 449.589C210.312 450.066 209.987 450.673 209.856 451.335C209.724 451.996 209.791 452.682 210.05 453.305C210.308 453.928 210.745 454.461 211.305 454.835Z" fill="#F2F2F2"/>
<path fill-rule="evenodd" clip-rule="evenodd" d="M221.2 449.6L222.28 450L222.3 450.01C222.71 450.16 223.063 450.432 223.313 450.79C223.563 451.148 223.697 451.574 223.697 452.01C223.697 452.446 223.563 452.872 223.313 453.23C223.063 453.588 222.71 453.86 222.3 454.01L221.2 454.4C221.057 454.452 220.926 454.532 220.815 454.636C220.703 454.74 220.614 454.865 220.553 455.004C220.491 455.144 220.458 455.294 220.456 455.446C220.454 455.598 220.482 455.749 220.54 455.89C220.536 455.927 220.536 455.963 220.54 456L221.04 457C221.22 457.392 221.277 457.83 221.202 458.256C221.128 458.681 220.926 459.074 220.624 459.382C220.321 459.69 219.932 459.898 219.508 459.98C219.084 460.062 218.645 460.013 218.25 459.84L217.2 459.34C217.06 459.262 216.905 459.214 216.745 459.2C216.586 459.186 216.425 459.206 216.274 459.259C216.122 459.312 215.984 459.396 215.868 459.507C215.752 459.617 215.66 459.751 215.6 459.9V460L215.19 461.1C215.04 461.51 214.767 461.863 214.41 462.113C214.052 462.363 213.626 462.497 213.19 462.497C212.754 462.497 212.328 462.363 211.97 462.113C211.612 461.863 211.34 461.51 211.19 461.1L210.8 460C210.749 459.862 210.671 459.736 210.571 459.628C210.471 459.52 210.35 459.433 210.217 459.372C210.083 459.31 209.938 459.276 209.791 459.271C209.644 459.265 209.498 459.289 209.36 459.34H209.26L208.2 459.84C207.802 460.03 207.356 460.092 206.922 460.017C206.488 459.943 206.087 459.736 205.776 459.424C205.464 459.113 205.257 458.712 205.183 458.278C205.108 457.844 205.17 457.397 205.36 457L205.86 456C205.937 455.86 205.983 455.705 205.996 455.546C206.01 455.386 205.989 455.226 205.936 455.075C205.884 454.924 205.8 454.786 205.69 454.67C205.58 454.554 205.447 454.462 205.3 454.4H205.2L204.12 454C203.71 453.85 203.356 453.578 203.107 453.22C202.857 452.862 202.723 452.436 202.723 452C202.723 451.564 202.857 451.138 203.107 450.78C203.356 450.422 203.71 450.15 204.12 450L205.2 449.6C205.343 449.552 205.475 449.476 205.588 449.376C205.701 449.277 205.794 449.156 205.86 449.02C205.917 448.884 205.946 448.738 205.946 448.59C205.946 448.442 205.917 448.296 205.86 448.16C205.864 448.123 205.864 448.087 205.86 448.05L205.36 447C205.17 446.603 205.108 446.156 205.183 445.722C205.257 445.288 205.464 444.887 205.776 444.576C206.087 444.264 206.488 444.057 206.922 443.983C207.356 443.908 207.802 443.97 208.2 444.16L209.29 444.64C209.562 444.767 209.873 444.782 210.156 444.68C210.439 444.579 210.67 444.371 210.8 444.1C210.804 444.067 210.804 444.033 210.8 444L211.2 442.92C211.392 442.395 211.782 441.965 212.286 441.722C212.79 441.479 213.369 441.443 213.9 441.62C214.199 441.727 214.471 441.899 214.696 442.124C214.921 442.349 215.093 442.621 215.2 442.92L215.6 444C215.648 444.143 215.724 444.275 215.824 444.388C215.923 444.501 216.044 444.594 216.18 444.66C216.315 444.719 216.462 444.75 216.61 444.75C216.758 444.75 216.904 444.719 217.04 444.66H217.14L218.2 444.16C218.452 444.038 218.725 443.967 219.005 443.951C219.284 443.936 219.564 443.975 219.828 444.068C220.092 444.161 220.335 444.306 220.543 444.493C220.751 444.68 220.92 444.907 221.04 445.16C221.178 445.447 221.25 445.761 221.25 446.08C221.25 446.399 221.178 446.713 221.04 447L220.56 448.09C220.433 448.362 220.418 448.673 220.52 448.956C220.621 449.239 220.829 449.47 221.1 449.6H221.2ZM222.368 452.812C222.485 452.692 222.575 452.548 222.63 452.39V452.38C222.718 452.095 222.692 451.786 222.555 451.521C222.419 451.255 222.183 451.054 221.9 450.96L220.8 450.57L220.59 450.49C220.337 450.37 220.11 450.201 219.923 449.993C219.735 449.785 219.591 449.542 219.498 449.278C219.405 449.014 219.365 448.734 219.381 448.455C219.397 448.176 219.468 447.902 219.59 447.65L220.09 446.65C220.167 446.495 220.208 446.324 220.208 446.15C220.208 445.976 220.167 445.805 220.09 445.65C219.958 445.383 219.729 445.176 219.45 445.07C219.171 444.955 218.859 444.955 218.58 445.07L217.53 445.57L217.33 445.66C217.066 445.755 216.786 445.795 216.506 445.78C216.226 445.764 215.952 445.693 215.7 445.57C215.446 445.453 215.218 445.285 215.031 445.077C214.844 444.869 214.7 444.625 214.61 444.36L214.22 443.26C214.163 443.103 214.071 442.96 213.951 442.842C213.832 442.725 213.688 442.635 213.53 442.58C213.391 442.529 213.243 442.507 213.095 442.513C212.947 442.52 212.802 442.556 212.668 442.619C212.534 442.683 212.414 442.772 212.315 442.882C212.216 442.992 212.139 443.12 212.09 443.26L211.69 444.36C211.669 444.429 211.643 444.496 211.61 444.56C211.366 445.069 210.929 445.46 210.397 445.648C209.864 445.835 209.279 445.804 208.77 445.56L207.77 445.06C207.554 444.945 207.306 444.904 207.064 444.942C206.822 444.98 206.599 445.096 206.428 445.272C206.258 445.448 206.15 445.675 206.119 445.918C206.089 446.161 206.138 446.407 206.26 446.62L206.76 447.62C206.791 447.685 206.818 447.752 206.84 447.82C206.939 448.083 206.983 448.363 206.969 448.643C206.955 448.924 206.884 449.198 206.76 449.45C206.531 449.957 206.11 450.353 205.59 450.55L204.49 450.94C204.27 451.018 204.079 451.162 203.945 451.353C203.81 451.544 203.738 451.772 203.738 452.005C203.738 452.238 203.81 452.466 203.945 452.657C204.079 452.848 204.27 452.992 204.49 453.07L205.59 453.46L205.79 453.55C206.043 453.67 206.27 453.839 206.457 454.047C206.644 454.255 206.789 454.498 206.882 454.762C206.975 455.026 207.014 455.306 206.999 455.585C206.983 455.864 206.912 456.138 206.79 456.39L206.29 457.44C206.187 457.651 206.153 457.889 206.192 458.121C206.231 458.353 206.341 458.566 206.507 458.732C206.674 458.899 206.887 459.009 207.119 459.048C207.351 459.087 207.589 459.053 207.8 458.95L208.8 458.45L209 458.36C209.232 458.281 209.475 458.241 209.72 458.24C210.035 458.24 210.346 458.312 210.63 458.45C210.884 458.568 211.112 458.735 211.299 458.943C211.486 459.151 211.629 459.395 211.72 459.66L212.12 460.76C212.174 460.918 212.263 461.061 212.381 461.179C212.499 461.297 212.642 461.386 212.8 461.44C213.082 461.54 213.393 461.525 213.664 461.398C213.936 461.27 214.146 461.041 214.25 460.76L214.64 459.66C214.662 459.588 214.689 459.518 214.72 459.45C214.964 458.941 215.4 458.55 215.933 458.362C216.465 458.175 217.051 458.206 217.56 458.45L218.61 458.95C218.766 459.025 218.937 459.063 219.11 459.063C219.283 459.063 219.454 459.025 219.61 458.95C219.745 458.887 219.866 458.797 219.966 458.687C220.066 458.576 220.143 458.447 220.192 458.306C220.242 458.166 220.262 458.017 220.253 457.868C220.244 457.719 220.206 457.574 220.14 457.44L219.64 456.39L219.55 456.18C219.364 455.648 219.397 455.064 219.64 454.557C219.884 454.049 220.319 453.658 220.85 453.47L221.95 453.08C222.107 453.023 222.25 452.931 222.368 452.812Z" fill="#F2F2F2"/>
<path d="M206.275 496.11C205.775 496.11 205.308 496.02 204.875 495.84C204.448 495.653 204.072 495.397 203.745 495.07C203.418 494.737 203.165 494.353 202.985 493.92C202.805 493.48 202.715 493.007 202.715 492.5C202.715 491.993 202.805 491.523 202.985 491.09C203.165 490.65 203.418 490.267 203.745 489.94C204.072 489.607 204.448 489.35 204.875 489.17C205.308 488.983 205.775 488.89 206.275 488.89C206.622 488.89 206.952 488.937 207.265 489.03C207.585 489.117 207.885 489.247 208.165 489.42C208.445 489.587 208.695 489.793 208.915 490.04L208.405 490.57C208.145 490.257 207.825 490.017 207.445 489.85C207.072 489.677 206.682 489.59 206.275 489.59C205.882 489.59 205.515 489.663 205.175 489.81C204.835 489.957 204.538 490.163 204.285 490.43C204.038 490.697 203.845 491.007 203.705 491.36C203.565 491.707 203.495 492.087 203.495 492.5C203.495 492.907 203.565 493.287 203.705 493.64C203.845 493.993 204.038 494.303 204.285 494.57C204.538 494.837 204.835 495.043 205.175 495.19C205.515 495.337 205.882 495.41 206.275 495.41C206.682 495.41 207.072 495.323 207.445 495.15C207.825 494.977 208.145 494.737 208.405 494.43L208.915 494.96C208.695 495.207 208.445 495.417 208.165 495.59C207.885 495.757 207.585 495.887 207.265 495.98C206.952 496.067 206.622 496.11 206.275 496.11ZM210.301 496V489H211.371L213.711 493.98L216.051 489H217.121V496H216.391V489.91L213.711 495.5L211.021 489.89V496H210.301ZM221.164 496.11C220.618 496.11 220.111 496.013 219.644 495.82C219.178 495.62 218.728 495.32 218.294 494.92L218.764 494.36C219.184 494.753 219.578 495.033 219.944 495.2C220.318 495.367 220.731 495.45 221.184 495.45C221.544 495.45 221.864 495.39 222.144 495.27C222.431 495.143 222.654 494.973 222.814 494.76C222.974 494.547 223.054 494.303 223.054 494.03C223.054 493.677 222.938 493.41 222.704 493.23C222.471 493.043 222.068 492.9 221.494 492.8L220.364 492.61C219.724 492.497 219.254 492.303 218.954 492.03C218.661 491.75 218.514 491.377 218.514 490.91C218.514 490.517 218.614 490.17 218.814 489.87C219.021 489.563 219.304 489.323 219.664 489.15C220.024 488.977 220.441 488.89 220.914 488.89C221.434 488.89 221.918 488.963 222.364 489.11C222.811 489.25 223.251 489.473 223.684 489.78L223.284 490.38C222.924 490.107 222.544 489.9 222.144 489.76C221.744 489.613 221.338 489.54 220.924 489.54C220.598 489.54 220.308 489.597 220.054 489.71C219.808 489.823 219.611 489.977 219.464 490.17C219.324 490.363 219.254 490.583 219.254 490.83C219.254 491.137 219.358 491.377 219.564 491.55C219.771 491.723 220.108 491.847 220.574 491.92L221.694 492.11C222.441 492.243 222.981 492.46 223.314 492.76C223.654 493.053 223.824 493.463 223.824 493.99C223.824 494.397 223.708 494.76 223.474 495.08C223.248 495.4 222.934 495.653 222.534 495.84C222.134 496.02 221.678 496.11 221.164 496.11Z" fill="#7C868D"/>
<rect x="280" y="426" width="52" height="52" rx="12" fill="#2A4148"/>
<path fill-rule="evenodd" clip-rule="evenodd" d="M310.632 457.34C309.07 458.735 307.009 459.583 304.75 459.583C299.871 459.583 295.917 455.628 295.917 450.75C295.917 445.871 299.871 441.917 304.75 441.917C309.628 441.917 313.583 445.871 313.583 450.75C313.583 453.009 312.735 455.071 311.34 456.633L315.937 461.23C316.132 461.425 316.132 461.742 315.937 461.937C315.741 462.132 315.425 462.132 315.23 461.937L310.632 457.34ZM296.917 450.75C296.917 446.424 300.424 442.917 304.75 442.917C309.076 442.917 312.583 446.424 312.583 450.75C312.583 452.91 311.709 454.866 310.295 456.283C310.293 456.285 310.291 456.287 310.289 456.289C310.287 456.291 310.285 456.293 310.283 456.295C308.866 457.709 306.91 458.583 304.75 458.583C300.424 458.583 296.917 455.076 296.917 450.75Z" fill="#F2F2F2"/>
<path d="M293.711 496.11C293.164 496.11 292.657 496.013 292.191 495.82C291.724 495.62 291.274 495.32 290.841 494.92L291.311 494.36C291.731 494.753 292.124 495.033 292.491 495.2C292.864 495.367 293.277 495.45 293.731 495.45C294.091 495.45 294.411 495.39 294.691 495.27C294.977 495.143 295.201 494.973 295.361 494.76C295.521 494.547 295.601 494.303 295.601 494.03C295.601 493.677 295.484 493.41 295.251 493.23C295.017 493.043 294.614 492.9 294.041 492.8L292.911 492.61C292.271 492.497 291.801 492.303 291.501 492.03C291.207 491.75 291.061 491.377 291.061 490.91C291.061 490.517 291.161 490.17 291.361 489.87C291.567 489.563 291.851 489.323 292.211 489.15C292.571 488.977 292.987 488.89 293.461 488.89C293.981 488.89 294.464 488.963 294.911 489.11C295.357 489.25 295.797 489.473 296.231 489.78L295.831 490.38C295.471 490.107 295.091 489.9 294.691 489.76C294.291 489.613 293.884 489.54 293.471 489.54C293.144 489.54 292.854 489.597 292.601 489.71C292.354 489.823 292.157 489.977 292.011 490.17C291.871 490.363 291.801 490.583 291.801 490.83C291.801 491.137 291.904 491.377 292.111 491.55C292.317 491.723 292.654 491.847 293.121 491.92L294.241 492.11C294.987 492.243 295.527 492.46 295.861 492.76C296.201 493.053 296.371 493.463 296.371 493.99C296.371 494.397 296.254 494.76 296.021 495.08C295.794 495.4 295.481 495.653 295.081 495.84C294.681 496.02 294.224 496.11 293.711 496.11ZM299.839 496.1C299.385 496.1 298.975 495.99 298.609 495.77C298.242 495.543 297.952 495.24 297.739 494.86C297.525 494.473 297.419 494.04 297.419 493.56C297.419 493.08 297.519 492.65 297.719 492.27C297.925 491.89 298.202 491.59 298.549 491.37C298.895 491.15 299.282 491.04 299.709 491.04C300.142 491.04 300.525 491.15 300.859 491.37C301.199 491.583 301.465 491.877 301.659 492.25C301.859 492.617 301.959 493.033 301.959 493.5V493.72H298.129C298.155 494.053 298.245 494.353 298.399 494.62C298.559 494.88 298.765 495.087 299.019 495.24C299.279 495.387 299.562 495.46 299.869 495.46C300.122 495.46 300.365 495.417 300.599 495.33C300.839 495.237 301.042 495.113 301.209 494.96L301.669 495.45C301.389 495.67 301.099 495.833 300.799 495.94C300.499 496.047 300.179 496.1 299.839 496.1ZM298.149 493.2H301.239C301.205 492.907 301.115 492.647 300.969 492.42C300.829 492.187 300.649 492.003 300.429 491.87C300.215 491.737 299.975 491.67 299.709 491.67C299.442 491.67 299.199 491.737 298.979 491.87C298.759 491.997 298.575 492.177 298.429 492.41C298.289 492.637 298.195 492.9 298.149 493.2ZM304.617 496.09C304.271 496.09 303.964 496.027 303.697 495.9C303.431 495.773 303.221 495.6 303.067 495.38C302.921 495.153 302.847 494.893 302.847 494.6C302.847 494.307 302.924 494.053 303.077 493.84C303.231 493.62 303.444 493.45 303.717 493.33C303.991 493.21 304.311 493.15 304.677 493.15C304.957 493.15 305.221 493.18 305.467 493.24C305.721 493.3 305.954 493.397 306.167 493.53V492.86C306.167 492.46 306.061 492.16 305.847 491.96C305.634 491.753 305.321 491.65 304.907 491.65C304.681 491.65 304.447 491.683 304.207 491.75C303.974 491.817 303.714 491.923 303.427 492.07L303.157 491.51C303.811 491.197 304.424 491.04 304.997 491.04C305.604 491.04 306.071 491.19 306.397 491.49C306.724 491.783 306.887 492.207 306.887 492.76V496H306.167V495.43C305.954 495.65 305.717 495.817 305.457 495.93C305.197 496.037 304.917 496.09 304.617 496.09ZM303.547 494.58C303.547 494.867 303.657 495.097 303.877 495.27C304.104 495.443 304.401 495.53 304.767 495.53C305.041 495.53 305.291 495.483 305.517 495.39C305.751 495.297 305.967 495.157 306.167 494.97V494.03C305.961 493.91 305.747 493.823 305.527 493.77C305.307 493.71 305.061 493.68 304.787 493.68C304.414 493.68 304.114 493.763 303.887 493.93C303.661 494.09 303.547 494.307 303.547 494.58ZM308.371 496V491.12H309.101V492.12C309.228 491.78 309.408 491.517 309.641 491.33C309.881 491.137 310.154 491.04 310.461 491.04C310.548 491.04 310.628 491.047 310.701 491.06C310.774 491.067 310.848 491.083 310.921 491.11V491.77C310.841 491.743 310.754 491.723 310.661 491.71C310.574 491.69 310.491 491.68 310.411 491.68C310.111 491.68 309.848 491.767 309.621 491.94C309.401 492.113 309.228 492.357 309.101 492.67V496H308.371ZM313.774 496.08C313.321 496.08 312.911 495.97 312.544 495.75C312.184 495.523 311.897 495.22 311.684 494.84C311.471 494.453 311.364 494.027 311.364 493.56C311.364 493.087 311.471 492.66 311.684 492.28C311.897 491.9 312.184 491.6 312.544 491.38C312.911 491.153 313.321 491.04 313.774 491.04C314.134 491.04 314.477 491.107 314.804 491.24C315.131 491.373 315.414 491.56 315.654 491.8L315.184 492.31C315.011 492.117 314.801 491.967 314.554 491.86C314.307 491.753 314.057 491.7 313.804 491.7C313.484 491.7 313.194 491.783 312.934 491.95C312.681 492.117 312.477 492.34 312.324 492.62C312.171 492.9 312.094 493.213 312.094 493.56C312.094 493.907 312.171 494.22 312.324 494.5C312.477 494.78 312.681 495.003 312.934 495.17C313.194 495.337 313.484 495.42 313.804 495.42C314.057 495.42 314.307 495.367 314.554 495.26C314.801 495.147 315.011 494.997 315.184 494.81L315.654 495.32C315.414 495.56 315.131 495.747 314.804 495.88C314.477 496.013 314.134 496.08 313.774 496.08ZM316.672 496V488.78L317.402 488.63V491.91C317.589 491.617 317.812 491.4 318.072 491.26C318.332 491.113 318.625 491.04 318.952 491.04C319.305 491.04 319.612 491.117 319.872 491.27C320.139 491.417 320.345 491.627 320.492 491.9C320.645 492.167 320.722 492.48 320.722 492.84V496H319.992V493.05C319.992 492.617 319.872 492.277 319.632 492.03C319.399 491.777 319.082 491.65 318.682 491.65C318.415 491.65 318.172 491.713 317.952 491.84C317.732 491.967 317.549 492.153 317.402 492.4V496H316.672Z" fill="#7C868D"/>
<rect x="372.8" y="426" width="52" height="52" rx="12" fill="#2A4148"/>
<path fill-rule="evenodd" clip-rule="evenodd" d="M401.868 449.514C402.089 449.679 402.135 449.993 401.969 450.214L399.068 454.089C398.961 454.232 398.824 454.35 398.666 454.436C398.509 454.521 398.335 454.572 398.157 454.585C397.978 454.597 397.799 454.571 397.631 454.509C397.463 454.446 397.311 454.348 397.184 454.222L395.684 452.722C395.489 452.526 395.489 452.21 395.684 452.015C395.88 451.819 396.196 451.819 396.391 452.015L397.891 453.514C397.917 453.54 397.947 453.559 397.981 453.572C398.014 453.584 398.05 453.59 398.086 453.587C398.122 453.585 398.157 453.574 398.189 453.557C398.22 453.54 398.247 453.516 398.269 453.488C398.269 453.488 398.269 453.488 398.269 453.488L401.169 449.614C401.334 449.393 401.647 449.348 401.868 449.514Z" fill="#F2F2F2"/>
<path fill-rule="evenodd" clip-rule="evenodd" d="M398.8 440C399.076 440 399.3 440.224 399.3 440.5V441.5C399.3 441.776 399.076 442 398.8 442C398.523 442 398.3 441.776 398.3 441.5V440.5C398.3 440.224 398.523 440 398.8 440Z" fill="#F2F2F2"/>
<path fill-rule="evenodd" clip-rule="evenodd" d="M393.06 441.463C393.303 441.331 393.607 441.421 393.739 441.663L394.217 442.541C394.349 442.784 394.259 443.087 394.017 443.219C393.774 443.352 393.47 443.262 393.338 443.019L392.86 442.141C392.728 441.899 392.818 441.595 393.06 441.463Z" fill="#F2F2F2"/>
<path fill-rule="evenodd" clip-rule="evenodd" d="M388.719 445.49C388.869 445.258 389.179 445.192 389.411 445.342L390.251 445.885C390.483 446.035 390.549 446.344 390.399 446.576C390.249 446.808 389.94 446.875 389.708 446.725L388.868 446.182C388.636 446.032 388.57 445.722 388.719 445.49Z" fill="#F2F2F2"/>
<path fill-rule="evenodd" clip-rule="evenodd" d="M404.538 441.463C404.781 441.595 404.87 441.899 404.738 442.141L404.26 443.019C404.128 443.262 403.824 443.352 403.582 443.219C403.339 443.087 403.25 442.784 403.382 442.541L403.86 441.663C403.992 441.421 404.296 441.331 404.538 441.463Z" fill="#F2F2F2"/>
<path fill-rule="evenodd" clip-rule="evenodd" d="M408.88 445.49C409.03 445.722 408.963 446.032 408.731 446.182L407.891 446.725C407.659 446.875 407.35 446.808 407.2 446.576C407.05 446.344 407.116 446.035 407.348 445.885L408.188 445.342C408.42 445.192 408.73 445.258 408.88 445.49Z" fill="#F2F2F2"/>
<path fill-rule="evenodd" clip-rule="evenodd" d="M398.8 462C399.076 462 399.3 462.224 399.3 462.5V463.5C399.3 463.776 399.076 464 398.8 464C398.523 464 398.3 463.776 398.3 463.5V462.5C398.3 462.224 398.523 462 398.8 462Z" fill="#F2F2F2"/>
<path fill-rule="evenodd" clip-rule="evenodd" d="M394.017 460.784C394.259 460.916 394.349 461.219 394.217 461.462L393.739 462.34C393.607 462.582 393.303 462.672 393.06 462.54C392.818 462.408 392.728 462.104 392.86 461.862L393.338 460.984C393.47 460.741 393.774 460.651 394.017 460.784Z" fill="#F2F2F2"/>
<path fill-rule="evenodd" clip-rule="evenodd" d="M390.399 457.424C390.549 457.656 390.482 457.966 390.25 458.115L389.41 458.657C389.178 458.807 388.869 458.74 388.719 458.508C388.57 458.276 388.636 457.967 388.868 457.817L389.708 457.275C389.94 457.125 390.25 457.192 390.399 457.424Z" fill="#F2F2F2"/>
<path fill-rule="evenodd" clip-rule="evenodd" d="M403.582 460.784C403.824 460.651 404.128 460.741 404.26 460.984L404.738 461.862C404.87 462.104 404.781 462.408 404.538 462.54C404.296 462.672 403.992 462.582 403.86 462.34L403.382 461.462C403.25 461.219 403.339 460.916 403.582 460.784Z" fill="#F2F2F2"/>
<path fill-rule="evenodd" clip-rule="evenodd" d="M407.2 457.424C407.349 457.192 407.659 457.125 407.891 457.275L408.731 457.817C408.963 457.967 409.03 458.276 408.88 458.508C408.73 458.74 408.421 458.807 408.189 458.657L407.349 458.115C407.117 457.966 407.05 457.656 407.2 457.424Z" fill="#F2F2F2"/>
<path fill-rule="evenodd" clip-rule="evenodd" d="M398.8 445.5C395.21 445.5 392.3 448.41 392.3 452C392.3 455.59 395.21 458.5 398.8 458.5C402.389 458.5 405.3 455.59 405.3 452C405.3 448.41 402.389 445.5 398.8 445.5ZM391.3 452C391.3 447.858 394.657 444.5 398.8 444.5C402.942 444.5 406.3 447.858 406.3 452C406.3 456.142 402.942 459.5 398.8 459.5C394.657 459.5 391.3 456.142 391.3 452Z" fill="#F2F2F2"/>
<path fill-rule="evenodd" clip-rule="evenodd" d="M387.927 452C388.071 452.185 388.284 452.449 388.56 452.766C389.118 453.408 389.928 454.264 390.936 455.119C392.963 456.839 395.725 458.5 398.8 458.5C401.874 458.5 404.636 456.839 406.664 455.119C407.671 454.264 408.481 453.408 409.039 452.766C409.315 452.449 409.528 452.185 409.672 452C409.528 451.815 409.315 451.551 409.039 451.234C408.481 450.592 407.671 449.736 406.664 448.881C404.636 447.161 401.874 445.5 398.8 445.5C395.725 445.5 392.963 447.161 390.936 448.881C389.928 449.736 389.118 450.592 388.56 451.234C388.284 451.551 388.071 451.815 387.927 452ZM410.3 452C410.706 451.709 410.706 451.709 410.706 451.709L410.705 451.707L410.701 451.702L410.689 451.685C410.678 451.671 410.663 451.65 410.643 451.623C410.602 451.569 410.543 451.49 410.466 451.392C410.312 451.194 410.086 450.914 409.794 450.578C409.212 449.908 408.366 449.014 407.311 448.119C405.213 446.339 402.225 444.5 398.8 444.5C395.374 444.5 392.386 446.339 390.289 448.119C389.233 449.014 388.387 449.908 387.805 450.578C387.513 450.914 387.287 451.194 387.133 451.392C387.056 451.49 386.997 451.569 386.956 451.623C386.936 451.65 386.921 451.671 386.91 451.685L386.898 451.702L386.894 451.707L386.893 451.709C386.893 451.709 386.893 451.709 387.3 452L386.893 451.709C386.769 451.882 386.768 452.117 386.893 452.291L387.3 452C386.893 452.291 386.893 452.29 386.893 452.291L386.894 452.293L386.898 452.298L386.91 452.315C386.921 452.329 386.936 452.35 386.956 452.377C386.997 452.431 387.056 452.51 387.133 452.608C387.287 452.806 387.513 453.086 387.805 453.422C388.387 454.092 389.233 454.986 390.289 455.881C392.386 457.661 395.374 459.5 398.8 459.5C402.225 459.5 405.213 457.661 407.311 455.881C408.366 454.986 409.212 454.092 409.794 453.422C410.086 453.086 410.312 452.806 410.466 452.608C410.543 452.51 410.602 452.431 410.643 452.377C410.663 452.35 410.678 452.329 410.689 452.315L410.701 452.298L410.705 452.293L410.706 452.291C410.706 452.291 410.706 452.291 410.3 452ZM410.3 452L410.706 452.291C410.83 452.118 410.83 451.883 410.706 451.709L410.3 452Z" fill="#F2F2F2"/>
<path d="M366.028 496L368.798 489H369.718L372.448 496H371.618L370.788 493.8H367.668L366.838 496H366.028ZM367.908 493.19H370.558L369.228 489.7L367.908 493.19ZM374.884 496.08C374.537 496.08 374.23 496.003 373.964 495.85C373.697 495.697 373.487 495.483 373.334 495.21C373.187 494.937 373.114 494.623 373.114 494.27V491.12H373.854V494.06C373.854 494.493 373.97 494.837 374.204 495.09C374.437 495.343 374.754 495.47 375.154 495.47C375.427 495.47 375.67 495.407 375.884 495.28C376.104 495.153 376.287 494.97 376.434 494.73V491.12H377.164V496H376.434V495.21C376.247 495.497 376.024 495.713 375.764 495.86C375.51 496.007 375.217 496.08 374.884 496.08ZM380.521 496.1C380.101 496.1 379.781 496 379.561 495.8C379.348 495.593 379.241 495.297 379.241 494.91V491.72H378.231V491.12H379.241V489.78L379.971 489.61V491.12H381.371V491.72H379.971V494.72C379.971 494.98 380.024 495.167 380.131 495.28C380.244 495.393 380.428 495.45 380.681 495.45C380.808 495.45 380.921 495.44 381.021 495.42C381.121 495.4 381.238 495.367 381.371 495.32V495.97C381.238 496.017 381.098 496.05 380.951 496.07C380.804 496.09 380.661 496.1 380.521 496.1ZM382.44 496V488.78L383.17 488.63V491.91C383.357 491.617 383.58 491.4 383.84 491.26C384.1 491.113 384.394 491.04 384.72 491.04C385.074 491.04 385.38 491.117 385.64 491.27C385.907 491.417 386.114 491.627 386.26 491.9C386.414 492.167 386.49 492.48 386.49 492.84V496H385.76V493.05C385.76 492.617 385.64 492.277 385.4 492.03C385.167 491.777 384.85 491.65 384.45 491.65C384.184 491.65 383.94 491.713 383.72 491.84C383.5 491.967 383.317 492.153 383.17 492.4V496H382.44ZM390.158 496.1C389.705 496.1 389.295 495.99 388.928 495.77C388.561 495.543 388.271 495.24 388.058 494.86C387.845 494.473 387.738 494.04 387.738 493.56C387.738 493.08 387.838 492.65 388.038 492.27C388.245 491.89 388.521 491.59 388.868 491.37C389.215 491.15 389.601 491.04 390.028 491.04C390.461 491.04 390.845 491.15 391.178 491.37C391.518 491.583 391.785 491.877 391.978 492.25C392.178 492.617 392.278 493.033 392.278 493.5V493.72H388.448C388.475 494.053 388.565 494.353 388.718 494.62C388.878 494.88 389.085 495.087 389.338 495.24C389.598 495.387 389.881 495.46 390.188 495.46C390.441 495.46 390.685 495.417 390.918 495.33C391.158 495.237 391.361 495.113 391.528 494.96L391.988 495.45C391.708 495.67 391.418 495.833 391.118 495.94C390.818 496.047 390.498 496.1 390.158 496.1ZM388.468 493.2H391.558C391.525 492.907 391.435 492.647 391.288 492.42C391.148 492.187 390.968 492.003 390.748 491.87C390.535 491.737 390.295 491.67 390.028 491.67C389.761 491.67 389.518 491.737 389.298 491.87C389.078 491.997 388.895 492.177 388.748 492.41C388.608 492.637 388.515 492.9 388.468 493.2ZM393.524 496V491.12H394.254V491.91C394.441 491.617 394.664 491.4 394.924 491.26C395.184 491.113 395.478 491.04 395.804 491.04C396.158 491.04 396.464 491.117 396.724 491.27C396.991 491.417 397.198 491.627 397.344 491.9C397.498 492.167 397.574 492.48 397.574 492.84V496H396.844V493.05C396.844 492.617 396.724 492.277 396.484 492.03C396.251 491.777 395.934 491.65 395.534 491.65C395.268 491.65 395.024 491.713 394.804 491.84C394.584 491.967 394.401 492.153 394.254 492.4V496H393.524ZM400.756 496.1C400.336 496.1 400.016 496 399.796 495.8C399.582 495.593 399.476 495.297 399.476 494.91V491.72H398.466V491.12H399.476V489.78L400.206 489.61V491.12H401.606V491.72H400.206V494.72C400.206 494.98 400.259 495.167 400.366 495.28C400.479 495.393 400.662 495.45 400.916 495.45C401.042 495.45 401.156 495.44 401.256 495.42C401.356 495.4 401.472 495.367 401.606 495.32V495.97C401.472 496.017 401.332 496.05 401.186 496.07C401.039 496.09 400.896 496.1 400.756 496.1ZM402.665 496V491.12H403.395V496H402.665ZM403.035 489.91C402.888 489.91 402.761 489.86 402.655 489.76C402.555 489.653 402.505 489.53 402.505 489.39C402.505 489.25 402.555 489.13 402.655 489.03C402.761 488.923 402.888 488.87 403.035 488.87C403.181 488.87 403.305 488.923 403.405 489.03C403.511 489.13 403.565 489.25 403.565 489.39C403.565 489.53 403.511 489.653 403.405 489.76C403.305 489.86 403.181 489.91 403.035 489.91ZM407.082 496.08C406.628 496.08 406.218 495.97 405.852 495.75C405.492 495.523 405.205 495.22 404.992 494.84C404.778 494.453 404.672 494.027 404.672 493.56C404.672 493.087 404.778 492.66 404.992 492.28C405.205 491.9 405.492 491.6 405.852 491.38C406.218 491.153 406.628 491.04 407.082 491.04C407.442 491.04 407.785 491.107 408.112 491.24C408.438 491.373 408.722 491.56 408.962 491.8L408.492 492.31C408.318 492.117 408.108 491.967 407.862 491.86C407.615 491.753 407.365 491.7 407.112 491.7C406.792 491.7 406.502 491.783 406.242 491.95C405.988 492.117 405.785 492.34 405.632 492.62C405.478 492.9 405.402 493.213 405.402 493.56C405.402 493.907 405.478 494.22 405.632 494.5C405.785 494.78 405.988 495.003 406.242 495.17C406.502 495.337 406.792 495.42 407.112 495.42C407.365 495.42 407.615 495.367 407.862 495.26C408.108 495.147 408.318 494.997 408.492 494.81L408.962 495.32C408.722 495.56 408.438 495.747 408.112 495.88C407.785 496.013 407.442 496.08 407.082 496.08ZM411.489 496.09C411.143 496.09 410.836 496.027 410.569 495.9C410.303 495.773 410.093 495.6 409.939 495.38C409.793 495.153 409.719 494.893 409.719 494.6C409.719 494.307 409.796 494.053 409.949 493.84C410.103 493.62 410.316 493.45 410.589 493.33C410.863 493.21 411.183 493.15 411.549 493.15C411.829 493.15 412.093 493.18 412.339 493.24C412.593 493.3 412.826 493.397 413.039 493.53V492.86C413.039 492.46 412.933 492.16 412.719 491.96C412.506 491.753 412.193 491.65 411.779 491.65C411.553 491.65 411.319 491.683 411.079 491.75C410.846 491.817 410.586 491.923 410.299 492.07L410.029 491.51C410.683 491.197 411.296 491.04 411.869 491.04C412.476 491.04 412.943 491.19 413.269 491.49C413.596 491.783 413.759 492.207 413.759 492.76V496H413.039V495.43C412.826 495.65 412.589 495.817 412.329 495.93C412.069 496.037 411.789 496.09 411.489 496.09ZM410.419 494.58C410.419 494.867 410.529 495.097 410.749 495.27C410.976 495.443 411.273 495.53 411.639 495.53C411.913 495.53 412.163 495.483 412.389 495.39C412.623 495.297 412.839 495.157 413.039 494.97V494.03C412.833 493.91 412.619 493.823 412.399 493.77C412.179 493.71 411.933 493.68 411.659 493.68C411.286 493.68 410.986 493.763 410.759 493.93C410.533 494.09 410.419 494.307 410.419 494.58ZM416.957 496.1C416.537 496.1 416.217 496 415.997 495.8C415.783 495.593 415.677 495.297 415.677 494.91V491.72H414.667V491.12H415.677V489.78L416.407 489.61V491.12H417.807V491.72H416.407V494.72C416.407 494.98 416.46 495.167 416.567 495.28C416.68 495.393 416.863 495.45 417.117 495.45C417.243 495.45 417.357 495.44 417.457 495.42C417.557 495.4 417.673 495.367 417.807 495.32V495.97C417.673 496.017 417.533 496.05 417.387 496.07C417.24 496.09 417.097 496.1 416.957 496.1ZM418.866 496V491.12H419.596V496H418.866ZM419.236 489.91C419.089 489.91 418.963 489.86 418.856 489.76C418.756 489.653 418.706 489.53 418.706 489.39C418.706 489.25 418.756 489.13 418.856 489.03C418.963 488.923 419.089 488.87 419.236 488.87C419.383 488.87 419.506 488.923 419.606 489.03C419.713 489.13 419.766 489.25 419.766 489.39C419.766 489.53 419.713 489.653 419.606 489.76C419.506 489.86 419.383 489.91 419.236 489.91ZM423.253 496.08C422.799 496.08 422.393 495.97 422.033 495.75C421.673 495.53 421.389 495.23 421.183 494.85C420.976 494.47 420.873 494.04 420.873 493.56C420.873 493.08 420.976 492.65 421.183 492.27C421.389 491.89 421.673 491.59 422.033 491.37C422.393 491.15 422.799 491.04 423.253 491.04C423.699 491.04 424.099 491.15 424.453 491.37C424.813 491.59 425.096 491.89 425.303 492.27C425.509 492.65 425.613 493.08 425.613 493.56C425.613 494.04 425.509 494.47 425.303 494.85C425.096 495.23 424.813 495.53 424.453 495.75C424.099 495.97 423.699 496.08 423.253 496.08ZM423.243 495.44C423.563 495.44 423.846 495.36 424.093 495.2C424.339 495.033 424.533 494.807 424.673 494.52C424.819 494.233 424.893 493.913 424.893 493.56C424.893 493.2 424.819 492.88 424.673 492.6C424.533 492.313 424.339 492.09 424.093 491.93C423.846 491.763 423.563 491.68 423.243 491.68C422.923 491.68 422.639 491.763 422.393 491.93C422.146 492.09 421.949 492.313 421.803 492.6C421.663 492.88 421.593 493.2 421.593 493.56C421.593 493.913 421.663 494.233 421.803 494.52C421.949 494.807 422.146 495.033 422.393 495.2C422.639 495.36 422.923 495.44 423.243 495.44ZM426.894 496V491.12H427.624V491.91C427.81 491.617 428.034 491.4 428.294 491.26C428.554 491.113 428.847 491.04 429.174 491.04C429.527 491.04 429.834 491.117 430.094 491.27C430.36 491.417 430.567 491.627 430.714 491.9C430.867 492.167 430.944 492.48 430.944 492.84V496H430.214V493.05C430.214 492.617 430.094 492.277 429.854 492.03C429.62 491.777 429.304 491.65 428.904 491.65C428.637 491.65 428.394 491.713 428.174 491.84C427.954 491.967 427.77 492.153 427.624 492.4V496H426.894Z" fill="#7C868D"/>
<rect x="465.6" y="426" width="52" height="52" rx="12" fill="#2A4148"/>
<path fill-rule="evenodd" clip-rule="evenodd" d="M481.517 452C481.517 450.573 482.673 449.417 484.1 449.417C485.527 449.417 486.683 450.573 486.683 452C486.683 453.427 485.527 454.583 484.1 454.583C482.673 454.583 481.517 453.427 481.517 452ZM484.1 450.417C483.225 450.417 482.517 451.126 482.517 452C482.517 452.874 483.225 453.583 484.1 453.583C484.974 453.583 485.683 452.874 485.683 452C485.683 451.126 484.974 450.417 484.1 450.417Z" fill="#F2F2F2"/>
<path fill-rule="evenodd" clip-rule="evenodd" d="M489.017 452C489.017 450.573 490.173 449.417 491.6 449.417C493.027 449.417 494.183 450.573 494.183 452C494.183 453.427 493.027 454.583 491.6 454.583C490.173 454.583 489.017 453.427 489.017 452ZM491.6 450.417C490.725 450.417 490.017 451.126 490.017 452C490.017 452.874 490.725 453.583 491.6 453.583C492.474 453.583 493.183 452.874 493.183 452C493.183 451.126 492.474 450.417 491.6 450.417Z" fill="#F2F2F2"/>
<path fill-rule="evenodd" clip-rule="evenodd" d="M499.1 449.417C497.673 449.417 496.517 450.573 496.517 452C496.517 453.427 497.673 454.583 499.1 454.583C500.527 454.583 501.683 453.427 501.683 452C501.683 450.573 500.527 449.417 499.1 449.417ZM497.517 452C497.517 451.126 498.225 450.417 499.1 450.417C499.974 450.417 500.683 451.126 500.683 452C500.683 452.874 499.974 453.583 499.1 453.583C498.225 453.583 497.517 452.874 497.517 452Z" fill="#F2F2F2"/>
<path d="M489.1 496.08C488.953 496.08 488.827 496.027 488.72 495.92C488.62 495.813 488.57 495.687 488.57 495.54C488.57 495.387 488.62 495.26 488.72 495.16C488.827 495.053 488.953 495 489.1 495C489.247 495 489.37 495.053 489.47 495.16C489.577 495.26 489.63 495.387 489.63 495.54C489.63 495.687 489.577 495.813 489.47 495.92C489.37 496.027 489.247 496.08 489.1 496.08ZM491.6 496.08C491.453 496.08 491.327 496.027 491.22 495.92C491.12 495.813 491.07 495.687 491.07 495.54C491.07 495.387 491.12 495.26 491.22 495.16C491.327 495.053 491.453 495 491.6 495C491.747 495 491.87 495.053 491.97 495.16C492.077 495.26 492.13 495.387 492.13 495.54C492.13 495.687 492.077 495.813 491.97 495.92C491.87 496.027 491.747 496.08 491.6 496.08ZM494.1 496.08C493.953 496.08 493.827 496.027 493.72 495.92C493.62 495.813 493.57 495.687 493.57 495.54C493.57 495.387 493.62 495.26 493.72 495.16C493.827 495.053 493.953 495 494.1 495C494.247 495 494.37 495.053 494.47 495.16C494.577 495.26 494.63 495.387 494.63 495.54C494.63 495.687 494.577 495.813 494.47 495.92C494.37 496.027 494.247 496.08 494.1 496.08Z" fill="#7C868D"/>
<path d="M117.579 375L114.572 381H120.572L117.579 375Z" fill="#19181B"/>
<path d="M117.572 383V410" stroke="#19181B" stroke-width="0.75" stroke-dasharray="2.6 2.6"/>
<path d="M117.579 418L120.572 412H114.572L117.579 418Z" fill="#19181B"/>
<path d="M211.792 375L208.786 381H214.786L211.792 375Z" fill="#19181B"/>
<path d="M211.786 383V410" stroke="#19181B" stroke-width="0.75" stroke-dasharray="2.6 2.6"/>
<path d="M211.792 418L214.786 412H208.786L211.792 418Z" fill="#19181B"/>
<path d="M306.006 375L303 381H309L306.006 375Z" fill="#19181B"/>
<path d="M306 383V410" stroke="#19181B" stroke-width="0.75" stroke-dasharray="2.6 2.6"/>
<path d="M306.006 418L309 412H303L306.006 418Z" fill="#19181B"/>
<path d="M400.22 375L397.214 381H403.214L400.22 375Z" fill="#19181B"/>
<path d="M400.214 383V410" stroke="#19181B" stroke-width="0.75" stroke-dasharray="2.6 2.6"/>
<path d="M400.22 418L403.214 412H397.214L400.22 418Z" fill="#19181B"/>
<path d="M494.434 375L491.428 381H497.428L494.434 375Z" fill="#19181B"/>
<path d="M494.428 383V410" stroke="#19181B" stroke-width="0.75" stroke-dasharray="2.6 2.6"/>
<path d="M494.434 418L497.428 412H491.428L494.434 418Z" fill="#19181B"/>
<path d="M117.579 375L114.572 381H120.572L117.579 375Z" fill="#7C868D"/>
<path d="M117.572 383V410" stroke="#7C868D" stroke-width="0.75" stroke-dasharray="2.6 2.6"/>
<path d="M117.579 418L120.572 412H114.572L117.579 418Z" fill="#7C868D"/>
<path d="M211.792 375L208.786 381H214.786L211.792 375Z" fill="#7C868D"/>
<path d="M211.786 383V410" stroke="#7C868D" stroke-width="0.75" stroke-dasharray="2.6 2.6"/>
<path d="M211.792 418L214.786 412H208.786L211.792 418Z" fill="#7C868D"/>
<path d="M306.006 375L303 381H309L306.006 375Z" fill="#7C868D"/>
<path d="M306 383V410" stroke="#7C868D" stroke-width="0.75" stroke-dasharray="2.6 2.6"/>
<path d="M306.006 418L309 412H303L306.006 418Z" fill="#7C868D"/>
<path d="M400.22 375L397.214 381H403.214L400.22 375Z" fill="#7C868D"/>
<path d="M400.214 383V410" stroke="#7C868D" stroke-width="0.75" stroke-dasharray="2.6 2.6"/>
<path d="M400.22 418L403.214 412H397.214L400.22 418Z" fill="#7C868D"/>
<path d="M494.434 375L491.428 381H497.428L494.434 375Z" fill="#7C868D"/>
<path d="M494.428 383V410" stroke="#7C868D" stroke-width="0.75" stroke-dasharray="2.6 2.6"/>
<path d="M494.434 418L497.428 412H491.428L494.434 418Z" fill="#7C868D"/>
<path d="M306.506 260L303.5 266H309.5L306.506 260Z" fill="#7C868D"/>
<path d="M306.5 268V291" stroke="#7C868D" stroke-width="0.75" stroke-dasharray="2.6 2.6"/>
<path d="M306.506 299L309.5 293H303.5L306.506 299Z" fill="#7C868D"/>
</svg>
