<?xml version="1.0" encoding="utf-8"?>
<!-- Generator: Adobe Illustrator 22.1.0, SVG Export Plug-In . SVG Version: 6.00 Build 0)  -->
<svg version="1.1" id="Warstwa_1" xmlns="http://www.w3.org/2000/svg" xmlns:xlink="http://www.w3.org/1999/xlink" x="0px" y="0px"
	 viewBox="0 0 1281.7 184.4" style="enable-background:new 0 0 1281.7 184.4;" xml:space="preserve">
<style type="text/css">
	.st0{fill:#108FB9;}
</style>
<g transform="matrix(1,0,0,1,-10.2982,-231.06)">
	<g transform="matrix(4.07971,0,0,4.07971,-75.0539,-992.299)">
		<path class="st0" d="M90.6,321.1l-8-11.3h-5.5v26.3H82V317l8.1,11.4H91l8.3-11.4v19.1h4.8v-26.3h-5.5L90.6,321.1z M158.9,331.6
			c-6.3,0-8.7-4.4-8.7-8.6c0-4.2,2.6-8.8,8.7-8.8c2.2,0,4.5,0.8,6.1,2.4l3.2-3.1c-2.6-2.6-5.9-3.9-9.3-3.9
			c-9.2,0-13.5,6.8-13.5,13.4c0,6.6,4,13.1,13.5,13.1c3.7,0,7-1.2,9.7-3.8l-3.3-3.3C163.7,330.7,161.1,331.6,158.9,331.6
			 M186.9,309.6c-8.8,0-13.1,6.7-13.1,13.4c0,6.7,4.1,13.1,13.1,13.1c8.9,0,13-6.6,13-13.1C200,316.3,195.6,309.6,186.9,309.6
			 M186.9,331.7c-6,0-8.2-4.5-8.3-8.6c-0.1-4.3,2.4-9.1,8.3-9.1c6,0,8.4,4.8,8.3,9.1C195.1,327.2,192.8,331.7,186.9,331.7
			 M218.6,309.9c-3.1,0-8.2,0-11.9,0v25.9h5.2v-21.4h6.7c6.7,0,6.7,8.6,0,8.6h-1.8v4.9h1.8C232.1,327.9,232.1,309.9,218.6,309.9
			 M235.8,336h19v-4.9h-14.3v-5.9h13.8v-4.6h-13.8v-6h14.3v-4.8h-19V336z M274.2,309.5h-10.3v26.3h4.9v-21.4h5.4
			c5.5,0,7.8,3.8,8,7.7c0.1,4.1-2.2,8.2-8,8.2h-0.5v5.5h0.5c8.9,0,12.8-7,12.7-13.4C286.8,316.2,282.9,309.5,274.2,309.5
			 M294.7,336.1h4.8v-26.3h-4.8V336.1z M319.9,336.1h15.2l-11.4-26.3h-5.2l-11.4,26.3l5,0l9-20.7l0,0l0-0.1l3.8,8.8l3.1,7h-8.1
			V336.1z M124,309.8l-11.4,26.3l5,0l9-20.7l0,0l0-0.1l3.8,8.8l3.1,7h-8.1v4.9h15.2l-11.4-26.3H124z"/>
	</g>
	<g transform="matrix(3.98605,0,0,4.22306,-672.139,-732.91)">
		<path class="st0" d="M174.5,271.9l-3.3,0l0-43.7l21.5,17.5l21.2-17.3v43.5h-25.2v-3.3h21.9v-33.3l-15.3,12.5l10.4,8.5h-25.9
			l10.4-8.5l-15.6-12.7L174.5,271.9z M188.9,253.1h7.5l-3.8-3.1L188.9,253.1z"/>
	</g>
</g>
</svg>
