<svg width="97" height="61" viewBox="0 0 97 61" fill="none" xmlns="http://www.w3.org/2000/svg">
<path opacity="0.1" d="M7.17514 54.3633V57.2336L1.43457 56.6014V54.3633H7.17514Z" fill="white"/>
<path d="M11.814 15.2145L44.8978 9.79883V41.3072L13.4639 39.6518L11.814 15.2145Z" fill="#5ECE7B"/>
<path opacity="0.05" d="M11.814 15.2145L44.8978 9.79883V41.3072L13.4639 39.6518L11.814 15.2145Z" fill="black"/>
<path d="M44.8989 9.79883L84.2844 12.7854L82.1048 40.205L44.8989 41.3072V9.79883Z" fill="#5ECE7B"/>
<path opacity="0.1" d="M44.8989 9.79883L84.2844 12.7854L82.1048 40.205L44.8989 41.3072V9.79883Z" fill="black"/>
<path d="M56.9724 0.345703L44.8989 9.96245L84.1687 12.949L90.5861 3.10755L56.9724 0.345703Z" fill="#5ECE7B"/>
<path d="M0 4.78892L29.6761 1.13379L44.8994 9.88617L11.9355 15.3126L0 4.78892Z" fill="#5ECE7B"/>
<path d="M51.9871 18.0692V60.9996L36.552 59.406L29.838 58.7168L27.7925 58.5014L21.0827 57.808L11.814 56.8517V15.3125L44.7596 17.5695L51.9871 18.0692Z" fill="#5ECE7B"/>
<path d="M84.2834 12.9492V54.7657L71.9102 57.1534L65.8927 58.315L51.9873 60.9995V18.1204L84.2834 12.9492Z" fill="#5ECE7B"/>
<path opacity="0.05" d="M84.2834 12.9492V54.7657L71.9102 57.1534L65.8927 58.315L51.9873 60.9995V18.1204L84.2834 12.9492Z" fill="black"/>
<path d="M0 24.2215L11.9041 15.3125L51.9888 18.0302L46.088 27.9158L0 24.2215Z" fill="#5ECE7B"/>
<path opacity="0.1" d="M0 24.2215L11.9041 15.3125L51.9888 18.0302L46.088 27.9158L0 24.2215Z" fill="white"/>
<path d="M84.1356 12.9492L51.9873 18.2372L62.4506 27.9157L96.8867 21.9502L84.1356 12.9492Z" fill="#5ECE7B"/>
<path opacity="0.1" d="M84.1356 12.9492L51.9873 18.2372L62.4506 27.9157L96.8867 21.9502L84.1356 12.9492Z" fill="white"/>
<path opacity="0.1" d="M71.6814 56.7014L66.1675 57.8491V52.171L71.3324 50.7598L71.6814 56.7014Z" fill="white"/>
<path opacity="0.1" d="M78.7703 55.9138L73.2563 57.0615V48.2326L78.4213 46.8213L78.7703 55.9138Z" fill="white"/>
<path fill-rule="evenodd" clip-rule="evenodd" d="M24.9754 37.1484C24.2951 39.0974 22.1871 40.5178 19.692 40.5178C18.5962 40.5178 17.5751 40.2438 16.7168 39.7714C17.2446 41.5686 18.9062 42.8808 20.8742 42.8808C23.2669 42.8808 25.2066 40.9412 25.2066 38.5484C25.2066 38.0585 25.1252 37.5876 24.9754 37.1484Z" fill="#F1F2F3"/>
<mask id="mask0" mask-type="alpha" maskUnits="userSpaceOnUse" x="16" y="37" width="10" height="6">
<path fill-rule="evenodd" clip-rule="evenodd" d="M24.9754 37.1484C24.2951 39.0974 22.1871 40.5178 19.692 40.5178C18.5962 40.5178 17.5751 40.2438 16.7168 39.7714C17.2446 41.5686 18.9062 42.8808 20.8742 42.8808C23.2669 42.8808 25.2066 40.9412 25.2066 38.5484C25.2066 38.0585 25.1252 37.5876 24.9754 37.1484Z" fill="white"/>
</mask>
<g mask="url(#mask0)">
<circle cx="22.0544" cy="42.094" r="1.57542" fill="#1D1F22"/>
<path d="M17.0648 41.9994L16.9997 41.9994L19.2009 42.937C19.7285 43.1617 20.2923 43.2775 20.8588 43.2775L21.6158 43.2775C22.7687 43.2775 23.8023 42.6089 24.2779 41.5556L24.2779 41.4055C24.2779 41.3338 24.2251 41.2719 24.155 41.2614C23.7238 41.1966 23.2865 41.2345 22.8778 41.372L22.4993 41.4994L21.3186 41.7946C20.7797 41.9293 20.214 41.9352 19.6655 41.8118L19.2043 41.708C18.7636 41.6088 18.3072 41.6506 17.8984 41.8274C17.6361 41.9408 17.3527 41.9993 17.0648 41.9994Z" fill="#4D9AF5"/>
</g>
<path fill-rule="evenodd" clip-rule="evenodd" d="M35.9394 37.8633C36.4252 39.8959 38.425 41.5231 40.9412 41.7337C41.997 41.8221 43.0046 41.6494 43.8789 41.2771C43.2946 42.9788 41.6803 44.2018 39.7803 44.2018C37.3876 44.2018 35.4479 42.2621 35.4479 39.8694C35.4479 39.1455 35.6255 38.4631 35.9394 37.8633Z" fill="#F1F2F3"/>
<mask id="mask1" mask-type="alpha" maskUnits="userSpaceOnUse" x="35" y="37" width="10" height="8">
<path fill-rule="evenodd" clip-rule="evenodd" d="M36.2406 37.3672C36.3733 39.8587 38.4355 41.838 40.96 41.838C42.1318 41.838 43.2039 41.4116 44.0298 40.7055C43.64 42.6979 41.8846 44.2013 39.7781 44.2013C37.3854 44.2013 35.4457 42.2616 35.4457 39.8689C35.4457 38.937 35.7399 38.0738 36.2406 37.3672Z" fill="white"/>
</mask>
<g mask="url(#mask1)">
<circle r="1.57542" transform="matrix(-1 0 0 1 38.5979 43.4133)" fill="#1D1F22"/>
<path d="M41.9037 43.4136L42.5017 43.438C43.3392 43.4721 44.0005 44.1609 44.0005 44.999H40.4498C39.5603 44.999 38.6869 44.7617 37.9197 44.3116L35.0005 42.599C35.0005 41.8861 35.7707 41.4391 36.3897 41.7928L38.0331 42.732C38.3394 42.907 38.686 42.999 39.0388 42.999H39.9071C40.2994 42.999 40.6883 43.0709 41.0547 43.2111L41.2116 43.2711C41.433 43.3558 41.6668 43.4039 41.9037 43.4136Z" fill="#4D9AF5"/>
</g>
<path fill-rule="evenodd" clip-rule="evenodd" d="M35.4048 50.2924C34.1877 48.0567 31.9485 46.5015 29.3157 46.3628C26.6791 46.2239 24.2858 47.5391 22.8412 49.6398C23.9117 47.125 26.4683 45.424 29.356 45.5762C32.2402 45.7281 34.6017 47.6838 35.4048 50.2924Z" fill="#F1F2F3"/>
<path fill-rule="evenodd" clip-rule="evenodd" d="M36.3493 50.5146C36.1144 50.2883 35.7801 50.1859 35.454 50.2733C35.1353 50.3587 34.9004 50.605 34.8056 50.9087C34.8417 50.5694 35.0815 50.2714 35.4308 50.1778C35.7869 50.0824 36.1508 50.228 36.3493 50.5146Z" fill="#F1F2F3"/>
<path fill-rule="evenodd" clip-rule="evenodd" d="M22.0607 49.6612C22.3438 49.5103 22.6869 49.5009 22.9748 49.6671C23.2668 49.8357 23.4308 50.1441 23.4373 50.4698C23.5 50.1265 23.3456 49.7657 23.0261 49.5812C22.7104 49.399 22.3264 49.4423 22.0607 49.6612Z" fill="#F1F2F3"/>
</svg>
