<svg xmlns="http://www.w3.org/2000/svg" xmlns:xlink="http://www.w3.org/1999/xlink" width="847" height="234" viewBox="0 0 847 234">
  <defs>
    <polygon id="executing-paypal-payment-server-integration-a" points="76.042 19.558 76.042 .162 .011 .162 .011 19.558"/>
    <polygon id="executing-paypal-payment-server-integration-c" points="92.506 22.948 92.506 .19 .014 .19 .014 22.948"/>
    <path id="executing-paypal-payment-server-integration-e" d="M0.598684211,25.7016842 C0.598684211,39.8730526 12.0852105,51.3595789 26.2565789,51.3595789 C40.4258947,51.3595789 51.9144737,39.8730526 51.9144737,25.7016842 C51.9144737,24.8477895 51.8713684,24.0041579 51.7851579,23.1748947 C51.7482105,22.7807895 51.4834211,22.4441579 51.1139474,22.3107368 C50.7403684,22.1793684 50.3236842,22.2717368 50.0424737,22.5529474 C49.7756316,22.8218421 49.6401579,23.1954211 49.6771053,23.569 C49.7407368,24.2730526 49.7756316,24.9832632 49.7756316,25.7016842 C49.7756316,38.6702105 39.2251053,49.2207368 26.2565789,49.2207368 C13.286,49.2207368 2.73547368,38.6702105 2.73547368,25.7016842 C2.73547368,12.7311053 13.286,2.18057895 26.2565789,2.18057895 C34.1489474,2.18057895 41.1402105,6.09289474 45.4076316,12.0763158 L26.5562632,30.9297368 C26.4762105,31.0097895 26.3674211,31.0549474 26.2565789,31.0549474 C26.1436842,31.0549474 26.0328421,31.0097895 25.9548421,30.9297368 L16.7631579,21.7380526 C16.562,21.5368947 16.2910526,21.4260526 16.0077895,21.4260526 C15.7224737,21.4260526 15.4515263,21.5368947 15.2524211,21.7380526 C14.8357368,22.1547368 14.8357368,22.8321053 15.2524211,23.2487895 L25.3472632,33.3477368 C25.5874211,33.5878947 25.9137895,33.7233684 26.2565789,33.7233684 C26.5952632,33.7233684 26.9216316,33.5878947 27.1617895,33.3477368 L46.5940526,13.9134211 L47.684,12.8234737 C47.9693158,12.5381579 48.0165263,12.0947895 47.7948421,11.7540526 C43.2236316,4.70736842 35.2840526,0.0437894737 26.2565789,0.0437894737 C12.0852105,0.0437894737 0.598684211,11.5282632 0.598684211,25.7016842 Z"/>
    <path id="executing-paypal-payment-server-integration-g" d="M0.425986842,18.2877368 C0.425986842,28.3712105 8.59909211,36.5443158 18.6825658,36.5443158 C28.7645789,36.5443158 36.9391447,28.3712105 36.9391447,18.2877368 C36.9391447,17.6801579 36.9084737,17.0798816 36.8471316,16.4898289 C36.8208421,16.2094079 36.6324342,15.9698816 36.3695395,15.8749474 C36.1037237,15.7814737 35.8072368,15.8471974 35.6071447,16.0472895 C35.4172763,16.2386184 35.3208816,16.5044342 35.3471711,16.77025 C35.3924474,17.2712105 35.4172763,17.7765526 35.4172763,18.2877368 C35.4172763,27.5153421 27.9101711,35.0224474 18.6825658,35.0224474 C9.4535,35.0224474 1.94639474,27.5153421 1.94639474,18.2877368 C1.94639474,9.05867105 9.4535,1.55156579 18.6825658,1.55156579 C24.2982895,1.55156579 29.2728421,4.33532895 32.3092763,8.59276316 L18.8958026,22.0076974 C18.8388421,22.0646579 18.7614342,22.0967895 18.6825658,22.0967895 C18.6022368,22.0967895 18.5233684,22.0646579 18.4678684,22.0076974 L11.9276316,15.4674605 C11.7845,15.3243289 11.5917105,15.2454605 11.3901579,15.2454605 C11.1871447,15.2454605 10.9943553,15.3243289 10.8526842,15.4674605 C10.5561974,15.7639474 10.5561974,16.2459211 10.8526842,16.5424079 L18.0355526,23.7281974 C18.2064342,23.8990789 18.4386579,23.9954737 18.6825658,23.9954737 C18.9235526,23.9954737 19.1557763,23.8990789 19.3266579,23.7281974 L33.1534605,9.89993421 L33.929,9.12439474 C34.1320132,8.92138158 34.1656053,8.60590789 34.0078684,8.36346053 C30.7552763,3.34947368 25.1059605,0.0311578947 18.6825658,0.0311578947 C8.59909211,0.0311578947 0.425986842,8.20280263 0.425986842,18.2877368 Z"/>
  </defs>
  <g fill="none" fill-rule="evenodd">
    <polyline stroke="#000" stroke-linecap="round" stroke-linejoin="round" points="122 176 129.315 168 137 176" transform="rotate(-90 129.5 172)"/>
    <path stroke="#000" stroke-linecap="square" d="M213.738095 171.5L126.261905 171.5M198.738095 154.5L111.261905 154.5M305.39521 153.5L436.607171 153.5"/>
    <polyline stroke="#000" stroke-linecap="round" stroke-linejoin="round" points="429 157 435.339 151 442 157" transform="rotate(90 435.5 154)"/>
    <text fill="#000" font-family="CourierNewPS-BoldMT, Courier New" font-size="15.84" font-weight="bold">
      <tspan x="335.478" y="144">/execute</tspan>
    </text>
    <polyline stroke="#000" stroke-linecap="square" points="71 202.72 71 233 742 233 742 191"/>
    <path stroke="#000" stroke-linecap="square" d="M449.607143,171.5 L318.392857,171.5"/>
    <polyline stroke="#000" stroke-linecap="round" stroke-linejoin="round" points="736 196 742.339 190 749 196"/>
    <polyline stroke="#000" stroke-linecap="round" stroke-linejoin="round" points="315 175 321.339 169 328 175" transform="rotate(-90 321.5 172)"/>
    <g transform="translate(204 76)">
      <path stroke="#6C7378" stroke-linecap="square" d="M100.148817 22.6813345L100.148817 6.80625C100.148817 3.04726192 97.101555 1.54589718e-15 93.3425669-4.4408921e-15L18.928699 0C15.1697109 6.90514908e-16 12.122449 3.04726192 12.122449 6.80625L12.122449 106.737057C12.122449 110.496045 15.1697109 113.543307 18.928699 113.543307L93.4794643 113.543307C97.2384524 113.543307 100.285714 110.496045 100.285714 106.737057L100.285714 36.9967495 26.8618293 36.9967495M100.150078 73.3070866L12.2564103 73.3070866"/>
      <path stroke="#6C7378" stroke-linecap="round" stroke-linejoin="round" d="M70.3902249 57.8740157L26.589367 57.8740157M70.3902249 15.984252L26.589367 15.984252"/>
      <rect width="13.327" height="13.331" x="76.541" y="9.319" stroke="#6C7378" rx="6.663"/>
      <rect width="13.327" height="13.331" x="76.541" y="50.106" stroke="#6C7378" rx="6.663"/>
      <text fill="#6C7378" font-family="PayPalSansBig-RegularItalic, PayPal Sans Big, sans-serif" font-size="13.068" font-style="italic">
        <tspan x="9.423" y="130.953">YOUR SERVER</tspan>
      </text>
      <path stroke="#6C7378" stroke-linecap="round" stroke-linejoin="round" d="M70.3902249,95.3543307 L26.589367,95.3543307"/>
      <rect width="13.327" height="13.331" x="76.541" y="88.689" stroke="#6C7378" rx="6.663"/>
    </g>
    <g transform="translate(449 100)">
      <path stroke="#003087" stroke-linecap="round" stroke-linejoin="round" d="M27.0203421 40.1841L19.0471264 40.1841 16.9015562 46.8270591C15.9132097 47.2130839 14.9663903 47.6907549 14.0749405 48.2489634L7.80987552 45.8300598 2.79062549 52.0453367 6.61389316 57.9412406C6.27613888 59.0048917 6.02974437 60.1129773 5.89132049 61.2571659L0 64.800818 1.79674201 72.59352 8.52137428 73.1795001C9.11659698 74.1292877 9.79764248 75.0152007 10.5534369 75.8289077L9.57893275 82.7440281 16.7465214 86.2488 21.5415248 81.2638035C22.0315453 81.308238 22.5298713 81.3276781 23.0337342 81.3276781 23.5348287 81.3276781 24.0359232 81.308238 24.5287122 81.2638035L29.320947 86.2488 36.4885357 82.7440281 35.5112631 75.8289077C36.2670575 75.0152007 36.948103 74.1292877 37.5460942 73.1795001L44.2707265 72.59352 46.0647 64.800818 40.1733795 61.2571659C40.0349556 60.1129773 39.7913296 59.0048917 39.4535753 57.9412406L43.276843 52.0453367 38.2603614 45.8300598 31.9897595 48.2489634C31.0983097 47.6907549 30.1542588 47.2130839 29.1631438 46.8270591M23.0337342 70.1885022C26.6133759 70.1885022 29.511972 67.1947271 29.511972 63.5011086 29.511972 59.8047129 26.6133759 56.8109378 23.0337342 56.8109378 19.4540926 56.8109378 16.552728 59.8047129 16.552728 63.5011086 16.552728 67.1947271 19.4540926 70.1885022 23.0337342 70.1885022M64.6866 6.05914081L61.4149275 0 53.4642307 1.40583313 52.4549744 8.22131217C51.5746787 8.74709376 50.7476492 9.34597868 49.9851 10.0095319M43.6745831 8.461749L39.8150073 15.7028983 44.4431805 20.9404425C44.3160025 21.9293093 44.2662372 22.9411729 44.3021788 23.9616604L39.204 28.6386552 42.3143315 36.2592533 49.0520006 35.7015785C49.7431853 36.4576016 50.4979591 37.144634 51.3024982 37.7626758L51.5872663 44.7623576 59.2428288 47.0448 63.1024045 41.1949633C63.5779396 41.1489695 64.0590042 41.0828534 64.5400688 40.9937404 65.0238982 40.907502 65.4966685 40.7982667 65.9611447 40.6717838L71.5127408 44.7968529 77.9545828 39.9301337 75.9197348 33.2495339C76.4726827 32.3842755 76.9537472 31.467274 77.3573992 30.5129026L83.8683597 28.6415298 84.2886 20.3741438 77.9601123 17.7898671C77.655991 16.818248 77.2772217 15.8839989 76.8320987 15.0014928L79.4586008 8.43587748 73.4480581 3.00285957 67.6669887 6.5530062C66.7325069 6.18505578 65.7648482 5.89759451 64.7750717 5.70212085M62.3622737 29.9282592C65.8287688 29.3029586 68.1388586 25.9318935 67.5293649 22.3913024 66.9198713 18.8534905 63.6139124 16.4912437 60.1528592 17.1165443 56.686364 17.7390658 54.3735533 21.11291 54.9830469 24.650722 55.5952616 28.191313 58.8984995 30.5535598 62.3622737 29.9282592"/>
      <g transform="translate(63.706 60.766)">
        <path fill="#009CDE" d="M73.447576 4.72106238L71.7905106 16.2369123C71.7583927 16.4601092 71.9162603 16.6617 72.1229398 16.6617L73.7896224 16.6617C74.0656185 16.6617 74.3006054 16.4422693 74.3436107 16.1445413L75.9774496 4.83543592C76.0097489 4.61223903 75.8518813 4.41045 75.6450203 4.41045L73.7800052 4.41045C73.614335 4.41045 73.4733429 4.542267 73.447576 4.72106238M68.1903198 12.521721C67.9975032 13.695319 67.0920706 14.4831796 65.9370445 14.4831796 65.357845 14.4831796 64.8944479 14.2915639 64.5963222 13.9287664 64.3010073 13.5690531 64.1898895 13.0566642 64.2835807 12.4860581 64.4632806 11.3230625 65.383329 10.5097559 66.5209286 10.5097559 67.0877608 10.5097559 67.5481598 10.7032993 67.8519069 11.069374 68.1577153 11.4381476 68.2778275 11.9540064 68.1903198 12.521721L68.1903198 12.521721zM70.9725762 8.52420067L68.9762023 8.52420067C68.805122 8.52420067 68.6595258 8.65200874 68.6329175 8.82608217L68.545035 9.40035101 68.4056224 9.19215687C67.9731435 8.54656226 67.0096223 8.33085 66.0474128 8.33085 63.84192 8.33085 61.957601 10.0503794 61.5908933 12.4621543 61.4001378 13.6652465 61.671093 14.8149409 62.3340525 15.6174522 62.9434206 16.3548064 63.8126884 16.6617 64.8485392 16.6617 66.626425 16.6617 67.612432 15.4867525 67.612432 15.4867525L67.5234253 16.0575514C67.4898838 16.2746131 67.6529066 16.4710481 67.8667102 16.4710481L69.6644585 16.4710481C69.9494674 16.4710481 70.1921278 16.2578419 70.2367248 15.9681051L71.315861 8.93731182C71.3492151 8.72025015 71.1861923 8.52420067 70.9725762 8.52420067L70.9725762 8.52420067zM59.2457098 8.54078195C59.0137488 10.1239734 57.8501285 10.1239734 56.7246597 10.1239734L56.0842871 10.1239734 56.5335208 7.1681012C56.5606084 6.98950404 56.7088269 6.85788526 56.8829884 6.85788526L57.1765641 6.85788526C57.9424551 6.85788526 58.6661888 6.85788526 59.0393103 7.31141502 59.2624965 7.58277963 59.3300246 7.98497013 59.2457098 8.54078195L59.2457098 8.54078195zM58.7558447 4.41045L54.5113014 4.41045C54.2211594 4.41045 53.9741285 4.6298807 53.928919 4.92780693L52.2126745 16.2369123C52.1787197 16.459911 52.3446786 16.6617 52.5621421 16.6617L54.7398288 16.6617C54.9429854 16.6617 55.1160024 16.5080787 55.1474774 16.2995501L55.6342903 13.0935229C55.6794998 12.7955967 55.9265307 12.576166 56.2166727 12.576166L57.5597957 12.576166C60.3555365 12.576166 61.9689627 11.1701841 62.3907274 8.38379088 62.580531 7.16512788 62.3983577 6.20752201 61.8491671 5.53713843 61.2456106 4.80015258 60.175843 4.41045 58.7558447 4.41045L58.7558447 4.41045z"/>
        <path fill="#003087" d="M51.8550469 8.33085L49.8195677 8.33085C49.6249341 8.33085 49.4428453 8.42927922 49.333554 8.59339251L46.5258129 12.8089921 45.3357731 8.75808708C45.261455 8.50465121 45.0326085 8.33085 44.7729704 8.33085L42.7720842 8.33085C42.5305029 8.33085 42.3603886 8.57304789 42.4383181 8.80613914L44.6796451 15.5125018 42.5715584 18.5448194C42.4060059 18.7827546 42.573079 19.11195 42.8591371 19.11195L44.8927157 19.11195C45.0854485 19.11195 45.2658267 19.0156521 45.3756882 18.8540577L52.1449065 8.8950742C52.3068477 8.65675148 52.1395845 8.33085 51.8550469 8.33085M38.3570619 12.521721C38.164247 13.695319 37.2586357 14.4831796 36.1036206 14.4831796 35.524614 14.4831796 35.0610339 14.2915639 34.7630985 13.9287664 34.4677864 13.5690531 34.3566696 13.0566642 34.4501726 12.4860581 34.6300581 11.3230625 35.5500978 10.5097559 36.6874991 10.5097559 37.2545133 10.5097559 37.7147205 10.7032993 38.0186522 11.069374 38.3244576 11.4381476 38.4445687 11.9540064 38.3570619 12.521721L38.3570619 12.521721zM41.1392917 8.52420067L39.1429368 8.52420067C38.9718582 8.52420067 38.8262633 8.65200874 38.7996553 8.82608217L38.7117737 9.40035101 38.572175 9.19215687C38.1398875 8.54656226 37.1763756 8.33085 36.2141752 8.33085 34.0085161 8.33085 32.1244023 10.0503794 31.7576982 12.4621543 31.5667571 13.6652465 31.8377097 14.8149409 32.5008503 15.6174522 33.1100252 16.3548064 33.9794721 16.6617 35.015313 16.6617 36.7931819 16.6617 37.7791795 15.4867525 37.7791795 15.4867525L37.6899863 16.0575514C37.6566325 16.2746131 37.8196538 16.4710481 38.0332679 16.4710481L39.8311865 16.4710481C40.1161926 16.4710481 40.3588507 16.2578419 40.40326 15.9681051L41.4825733 8.93731182C41.515927 8.72025015 41.3529058 8.52420067 41.1392917 8.52420067L41.1392917 8.52420067zM29.4122767 8.54078195C29.180319 10.1239734 28.0167152 10.1239734 26.8914531 10.1239734L26.2510895 10.1239734 26.7001261 7.1681012C26.727404 6.98950404 26.8756205 6.85788526 27.0495888 6.85788526L27.3431603 6.85788526C28.1092312 6.85788526 28.8329547 6.85788526 29.2058801 7.31141502 29.4292539 7.58277963 29.4967811 7.98497013 29.4122767 8.54078195L29.4122767 8.54078195zM28.9226094 4.41045L24.6781261 4.41045C24.3879881 4.41045 24.1409608 4.6298807 24.0957519 4.92780693L22.3793409 16.2369123C22.3455773 16.459911 22.5115339 16.6617 22.7288036 16.6617L24.7553817 16.6617C25.0455197 16.6617 25.2927378 16.4422693 25.3379466 16.1445413L25.8010991 13.0935229C25.8461172 12.7955967 26.0933353 12.576166 26.3834733 12.576166L27.7265773 12.576166C30.5220877 12.576166 32.1356819 11.1701841 32.5574406 8.38379088 32.7472415 7.16512788 32.5650708 6.20752201 32.0158879 5.53713843 31.4121493 4.80015258 30.3423968 4.41045 28.9226094 4.41045L28.9226094 4.41045z"/>
        <mask id="executing-paypal-payment-server-integration-b" fill="#fff">
          <use xlink:href="#executing-paypal-payment-server-integration-a"/>
        </mask>
        <path fill="#009CDE" d="M14.0903286,5.0898201 C14.3154551,3.58108869 14.0888252,2.55439272 13.3125333,1.62449894 C12.4578792,0.600766299 10.9139396,0.162193072 8.93853868,0.162193072 L3.20420096,0.162193072 C2.8005517,0.162193072 2.45684848,0.47097233 2.39389573,0.890185118 L0.00620131557,16.807825 C-0.0409662665,17.1219383 0.189985759,17.4058256 0.492346873,17.4058256 L4.03235847,17.4058256 L3.78806422,19.0346707 C3.74691004,19.3094704 3.94873467,19.5579953 4.21332413,19.5579953 L7.19709652,19.5579953 C7.55038359,19.5579953 7.85105343,19.2877393 7.9061136,18.9210763 L7.93542891,18.761649 L8.4974936,15.0144161 L8.5337619,14.807378 C8.58882207,14.4405174 8.88949191,14.170459 9.24259106,14.170459 L9.68889787,14.170459 C12.5796505,14.170459 14.8431307,12.9357371 15.5044164,9.36511884 C15.7808448,7.87317965 15.6380266,6.62778973 14.907211,5.75222372 C14.6860307,5.48749934 14.4111057,5.26841028 14.0903286,5.0898201" mask="url(#executing-paypal-payment-server-integration-b)"/>
        <path fill="#012169" d="M14.0903286,5.0898201 C14.3154551,3.58108869 14.0888252,2.55439272 13.3125333,1.62449894 C12.4578792,0.600766299 10.9139396,0.162193072 8.93853868,0.162193072 L3.20420096,0.162193072 C2.8005517,0.162193072 2.45684848,0.47097233 2.39389573,0.890185118 L0.00620131557,16.807825 C-0.0409662665,17.1219383 0.189985759,17.4058256 0.492346873,17.4058256 L4.03235847,17.4058256 L4.92158954,11.477975 L4.8939655,11.6638747 C4.95691825,11.2446619 5.29780269,10.9356851 5.70145195,10.9356851 L7.38407558,10.9356851 C10.6884372,10.9356851 13.2757012,9.52434858 14.031698,5.44285179 C14.0540603,5.32214538 14.073228,5.20499496 14.0903286,5.0898201" mask="url(#executing-paypal-payment-server-integration-b)"/>
        <path fill="#003087" d="M5.87678006,5.10997076 C5.91473963,4.85769238 6.068645,4.65124687 6.27591928,4.54674001 C6.37025444,4.49932669 6.47548889,4.47285425 6.58579714,4.47285425 L11.0806234,4.47285425 C11.6131849,4.47285425 12.109666,4.50959958 12.5634895,4.58644867 C12.6933413,4.60837733 12.8194347,4.63366443 12.9421456,4.66230998 C13.0646686,4.69075798 13.183809,4.72276197 13.2990031,4.75832196 C13.3566941,4.7759044 13.4132577,4.79447462 13.4690695,4.81403261 C13.691941,4.89167193 13.8994032,4.98353524 14.0903286,5.0898201 C14.3154551,3.58108869 14.0888252,2.55439272 13.3125333,1.62449894 C12.4578792,0.600766299 10.9139396,0.162193072 8.93853868,0.162193072 L3.20420096,0.162193072 C2.8005517,0.162193072 2.45684848,0.47097233 2.39389573,0.890185118 L0.00620131557,16.807825 C-0.0409662665,17.1219383 0.189985759,17.4058256 0.492346873,17.4058256 L4.03235847,17.4058256 L5.87678006,5.10997076" mask="url(#executing-paypal-payment-server-integration-b)"/>
      </g>
      <text fill="#003087" font-family="PayPalSansBig-MediumItalic, PayPal Sans Big, sans-serif" font-size="25.404" font-style="italic" font-weight="500">
        <tspan x="62.726" y="110.289">API</tspan>
      </text>
    </g>
    <polyline stroke="#000" stroke-linecap="round" stroke-linejoin="round" points="188 159 195.315 151 203 159" transform="rotate(90 195.5 155)"/>
    <path stroke="#003087" d="M3.75692942,0.5 C1.95817697,0.5 0.5,1.95817697 0.5,3.75692942 L0.5,199.83101 C0.5,201.305052 1.69494753,202.5 3.16899,202.5 L142.83101,202.5 C144.305052,202.5 145.5,201.305052 145.5,199.83101 L145.5,3.75692942 C145.5,1.95817697 144.041823,0.5 142.243071,0.5 L3.75692942,0.5 Z"/>
    <rect width="74.822" height="30.822" x="36.089" y="145.089" fill="#0070BA" stroke="#0070BA" stroke-width="2.178" rx="15.411"/>
    <text fill="#FFF" font-family="PayPalSansBig-Regular, PayPal Sans Big, sans-serif" font-size="13.799">
      <tspan x="46.354" y="165">Pay Now</tspan>
    </text>
    <g transform="translate(27 21)">
      <path fill="#009CDE" d="M89.3501784 5.53945693L87.3343312 19.0515755C87.2952593 19.3134635 87.4873078 19.55 87.7387368 19.55L89.7662835 19.55C90.1020373 19.55 90.3879026 19.2925311 90.4402193 18.943192L92.427811 5.67365709C92.4671037 5.41176908 92.2750552 5.175 92.0234054 5.175L89.754584 5.175C89.5530434 5.175 89.3815242 5.32966743 89.3501784 5.53945693M82.9546402 14.692357C82.7200756 16.0693979 81.6186021 16.9938339 80.2134939 16.9938339 79.5088882 16.9938339 78.9451581 16.7690016 78.5824833 16.3433132 78.2232279 15.9212439 78.0880512 15.3200325 78.2020282 14.650512 78.420636 13.2859115 79.5398899 12.3316185 80.9237984 12.3316185 81.6133591 12.3316185 82.173442 12.5587126 82.5429554 12.9882463 82.9149762 13.4209465 83.0610947 14.0262293 82.9546402 14.692357L82.9546402 14.692357zM86.3393006 10.0018679L83.9106791 10.0018679C83.7025572 10.0018679 83.5254369 10.1518315 83.4930675 10.3560805L83.3861571 11.0298986 83.2165593 10.7856141C82.6904416 10.0281059 81.5183023 9.775 80.3477588 9.775 77.6647407 9.775 75.3724357 11.7926092 74.9263298 14.6224645 74.6942727 16.0341124 75.0238941 17.3831058 75.8303952 18.3247322 76.5717015 19.1899065 77.6291799 19.55 78.8893093 19.55 81.0521365 19.55 82.2516302 18.1713758 82.2516302 18.1713758L82.1433521 18.8411225C82.1025483 19.0958117 82.3008683 19.3262987 82.5609637 19.3262987L84.747954 19.3262987C85.094672 19.3262987 85.3898724 19.0761333 85.4441254 18.7361706L86.7569122 10.4865918C86.7974881 10.2319025 86.5991681 10.0018679 86.3393006 10.0018679L86.3393006 10.0018679zM72.0733757 10.0213236C71.7911913 11.8789608 70.3756282 11.8789608 69.006477 11.8789608L68.2274532 11.8789608 68.7739534 8.41068909C68.8069059 8.20113217 68.9872161 8.04669733 69.1990865 8.04669733L69.5562261 8.04669733C70.487945 8.04669733 71.3683789 8.04669733 71.8222873 8.57884631 72.0937969 8.89725188 72.175946 9.36916197 72.0733757 10.0213236L72.0733757 10.0213236zM71.4774469 5.175L66.3138904 5.175C65.9609279 5.175 65.6604108 5.43246894 65.6054127 5.78204058L63.5175731 19.0515755C63.4762665 19.3132309 63.6781583 19.55 63.9427062 19.55L66.5918977 19.55C66.8390411 19.55 67.0495191 19.3697485 67.0878089 19.1250716L67.6800248 15.3632807C67.7350229 15.013709 68.03554 14.7562401 68.3885025 14.7562401L70.0224336 14.7562401C73.423498 14.7562401 75.3862575 13.1065317 75.8993411 9.83711816 76.1302403 8.40720035 75.9086234 7.28359383 75.2405241 6.49699948 74.5062878 5.63225739 73.2048979 5.175 71.4774469 5.175L71.4774469 5.175z"/>
      <path fill="#003087" d="M63.0825134 9.775L60.6063195 9.775C60.3695446 9.775 60.1480306 9.89049189 60.0150759 10.0830542L56.5994129 15.0294265 55.15171 10.2762985C55.0613009 9.97892959 54.7829054 9.775 54.4670513 9.775L52.0329405 9.775C51.7390529 9.775 51.5321061 10.0591828 51.6269086 10.3326803L54.3535196 18.2015887 51.7889976 21.7595575C51.5876002 22.0387387 51.7908474 22.425 52.1388418 22.425L54.6127234 22.425C54.8471861 22.425 55.0666191 22.3120089 55.2002674 22.1224021L63.4351322 10.4370323C63.6321364 10.1573964 63.4286579 9.775 63.0825134 9.775M46.6619936 14.692357C46.4274312 16.0693979 45.3257402 16.9938339 43.9206454 16.9938339 43.2162744 16.9938339 42.6523217 16.7690016 42.2898783 16.3433132 41.9306263 15.9212439 41.7954509 15.3200325 41.9091988 14.650512 42.1280325 13.2859115 43.2472758 12.3316185 44.6309432 12.3316185 45.3207253 12.3316185 45.8805749 12.5587126 46.2503126 12.9882463 46.62233 13.4209465 46.7684471 14.0262293 46.6619936 14.692357L46.6619936 14.692357zM50.0466217 10.0018679L47.6180234 10.0018679C47.4099034 10.0018679 47.2327848 10.1518315 47.2004157 10.3560805L47.0935063 11.0298986 46.9236822 10.7856141C46.3977975 10.0281059 45.2256694 9.775 44.0551369 9.775 41.3719165 9.775 39.0798613 11.7926092 38.6337596 14.6224645 38.4014767 16.0341124 38.731095 17.3831058 39.5378164 18.3247322 40.2788877 19.1899065 41.3365839 19.55 42.5967014 19.55 44.759508 19.55 45.9589903 18.1713758 45.9589903 18.1713758L45.8504852 18.8411225C45.8099098 19.0958117 46.0082279 19.3262987 46.2680929 19.3262987L48.4552903 19.3262987C48.8020049 19.3262987 49.0972025 19.0761333 49.1512271 18.7361706L50.4642294 10.4865918C50.5048048 10.2319025 50.3064867 10.0018679 50.0466217 10.0018679L50.0466217 10.0018679zM35.7805161 10.0213236C35.4983357 11.8789608 34.0827926 11.8789608 32.7138929 11.8789608L31.93488 11.8789608 32.4811404 8.41068909C32.5143245 8.20113217 32.6946322 8.04669733 32.9062675 8.04669733L33.263402 8.04669733C34.1953399 8.04669733 35.0757613 8.04669733 35.5294312 8.57884631 35.8011691 8.89725188 35.883317 9.36916197 35.7805161 10.0213236L35.7805161 10.0213236zM35.1848277 5.175L30.0213443 5.175C29.6683867 5.175 29.3678739 5.43246894 29.3128766 5.78204058L27.2248345 19.0515755C27.1837606 19.3132309 27.3856495 19.55 27.6499615 19.55L30.1153271 19.55C30.4682846 19.55 30.7690295 19.2925311 30.8240268 18.943192L31.3874594 15.3632807C31.4422246 15.013709 31.7429695 14.7562401 32.0959271 14.7562401L33.7298351 14.7562401C37.1306193 14.7562401 39.093583 13.1065317 39.6066594 9.83711816 39.8375554 8.40720035 39.6159416 7.28359383 38.9478517 6.49699948 38.2133937 5.63225739 36.9120223 5.175 35.1848277 5.175L35.1848277 5.175z"/>
      <mask id="executing-paypal-payment-server-integration-d" fill="#fff">
        <use xlink:href="#executing-paypal-payment-server-integration-c"/>
      </mask>
      <path fill="#009CDE" d="M17.1411153,5.97213868 C17.4149855,4.20186919 17.1392865,2.99719582 16.1949146,1.90610528 C15.155214,0.704908932 13.2769861,0.190309185 10.8738786,0.190309185 L3.89796292,0.190309185 C3.40691698,0.190309185 2.98879639,0.552615223 2.91221334,1.0444984 L0.0075440019,19.7214558 C-0.0498361337,20.0900205 0.231120785,20.4231195 0.598948029,20.4231195 L4.90543008,20.4231195 L4.60824213,22.3343244 C4.55817739,22.6567605 4.80370036,22.9483671 5.12557777,22.9483671 L8.75538572,22.9483671 C9.18516522,22.9483671 9.55093501,22.6312624 9.6179166,22.2010384 L9.65357915,22.0139745 L10.3373401,17.6171601 L10.381461,17.3742319 C10.4484426,16.9437761 10.8142124,16.6269032 11.2437633,16.6269032 L11.7867028,16.6269032 C15.3033508,16.6269032 18.0569114,15.1781427 18.8613764,10.988559 C19.197656,9.23799265 19.0239153,7.77671481 18.1348661,6.74936973 C17.8657967,6.43875547 17.531346,6.1816874 17.1411153,5.97213868" mask="url(#executing-paypal-payment-server-integration-d)"/>
      <path fill="#012169" d="M17.1411153,5.97213868 C17.4149855,4.20186919 17.1392865,2.99719582 16.1949146,1.90610528 C15.155214,0.704908932 13.2769861,0.190309185 10.8738786,0.190309185 L3.89796292,0.190309185 C3.40691698,0.190309185 2.98879639,0.552615223 2.91221334,1.0444984 L0.0075440019,19.7214558 C-0.0498361337,20.0900205 0.231120785,20.4231195 0.598948029,20.4231195 L4.90543008,20.4231195 L5.98719423,13.467678 L5.95358913,13.6858034 C6.03017218,13.1939202 6.44486368,12.8313824 6.93590962,12.8313824 L8.9828488,12.8313824 C13.0026588,12.8313824 16.1501078,11.1753912 17.0697902,6.38636829 C17.0969944,6.24473746 17.1203122,6.10727906 17.1411153,5.97213868" mask="url(#executing-paypal-payment-server-integration-d)"/>
      <path fill="#003087" d="M7.14919913,5.99578245 C7.19537757,5.69977169 7.38260598,5.45753893 7.63475853,5.33491584 C7.7495188,5.27928343 7.87753822,5.24822201 8.01173001,5.24822201 L13.4797598,5.24822201 C14.1276295,5.24822201 14.7316069,5.29133712 15.2836906,5.38150798 C15.4416575,5.40723796 15.5950522,5.43690858 15.744332,5.47051982 C15.8933831,5.50389927 16.0383194,5.54145114 16.178455,5.58317544 C16.2486371,5.60380579 16.3174475,5.62559515 16.3853435,5.64854352 C16.6564704,5.73964158 16.9088515,5.84742937 17.1411153,5.97213868 C17.4149855,4.20186919 17.1392865,2.99719582 16.1949146,1.90610528 C15.155214,0.704908932 13.2769861,0.190309185 10.8738786,0.190309185 L3.89796292,0.190309185 C3.40691698,0.190309185 2.98879639,0.552615223 2.91221334,1.0444984 L0.0075440019,19.7214558 C-0.0498361337,20.0900205 0.231120785,20.4231195 0.598948029,20.4231195 L4.90543008,20.4231195 L7.14919913,5.99578245" mask="url(#executing-paypal-payment-server-integration-d)"/>
    </g>
    <rect width="27" height="27" x="22" y="166" fill="#003087" rx="13.5"/>
    <rect width="27" height="27" x="149" y="149" fill="#003087" rx="13.5"/>
    <rect width="27" height="27" x="364" y="149" fill="#003087" rx="13.5"/>
    <text fill="#FFF" font-family="PayPalSansBig-MediumItalic, PayPal Sans Big, sans-serif" font-size="15.2" font-style="italic" font-weight="500">
      <tspan x="31.816" y="184">1</tspan>
    </text>
    <text fill="#FFF" font-family="PayPalSansBig-MediumItalic, PayPal Sans Big, sans-serif" font-size="15.2" font-style="italic" font-weight="500">
      <tspan x="158.74" y="167">2</tspan>
    </text>
    <text fill="#FFF" font-family="PayPalSansBig-MediumItalic, PayPal Sans Big, sans-serif" font-size="15.2" font-style="italic" font-weight="500">
      <tspan x="373.792" y="167">3</tspan>
    </text>
    <rect width="87" height="4" x="29" y="61" fill="#003087" rx="2"/>
    <rect width="47" height="4" x="29" y="82" fill="#003087" rx="2"/>
    <rect width="87" height="4" x="29" y="72" fill="#003087" rx="2"/>
    <rect width="56" height="27" x="29.5" y="96.5" stroke="#003087" rx="2.356"/>
    <g fill="#1A2776" transform="translate(35 103)">
      <path d="M38.7397558 4.26727189L38.5609011 4.26597723C38.2337106 5.21404248 37.9072298 6.16210772 37.5796844 7.10998802 36.7336733 9.55783108 36.7334959 9.55764613 39.2214924 9.3455059 39.2505917 9.34291657 39.2802234 9.34384133 39.3095002 9.34458114 39.5981873 9.35142437 39.7380063 9.26745605 39.6640158 8.9108681 39.3435678 7.36559203 39.0458315 5.8155072 38.7397558 4.26727189M44 14.4313229C43.018251 14.4313229 42.0792639 14.4172666 41.1409865 14.4376113 40.7218845 14.446489 40.6897687 14.171465 40.620569 13.8542719 40.2777642 12.2877263 40.2717314 12.289206 38.7331907 12.2843972 38.0239821 12.2821778 37.3101603 12.3306353 36.6068071 12.2629427 35.9463933 12.1991342 35.5895711 12.4599169 35.5019181 13.1137231 35.3487915 14.2561732 34.7302523 14.597595 33.6729159 14.450558 32.9493352 14.349944 32.2026878 14.4315079 31.3563218 14.4315079 31.8393005 13.2093434 32.2851952 12.0781754 32.7335739 10.9483021 33.9857342 7.79301669 35.2600739 4.64716382 36.4799409 1.47837687 36.8646205.478894901 37.5062262.058313478 38.5035895.025391977 41.1392121-.0611656773 41.1404542-.0752220485 41.6631783 2.57125974 42.4362635 6.48762369 43.2068646 10.4047274 44 14.4313229M0 .00932499065C2.08627531.00932499065 4.17291036-.0191269257 6.25828634.0233661961 7.09160934.0401786921 7.4995473.618085149 7.66358585 1.44189745 8.20264672 4.14889407 8.77012656 6.84979384 9.32825332 9.56030076 9.717665 9.5120803 9.66802175 9.15014975 9.75022089 8.92715324 10.7447046 6.22625347 11.7312741 3.5222129 12.6874462.806902412 12.8761265.271119572 13.1122916.0233661961 13.7049528.0573606936 14.6872055.113525515 15.6748543.072695168 16.6455955.072695168 16.779956.427789864 16.5731092.654111926 16.4767006.897431237 14.7855927 5.16521869 13.0763182 9.42561603 11.4037366 13.7011631 11.1801622 14.2726032 10.9175566 14.5713483 10.2977355 14.4595729 10.0653476 14.4178188 9.81982935 14.4534761 9.58024674 14.4536609 7.23208533 14.4566169 7.22758866 14.4579102 6.63546707 12.1671614 5.82192942 9.01934484 5.00407496 5.87282154 4.2171576 2.71816913 4.06373119 2.10312738 3.78493761 1.71717898 3.2081047 1.44448399 2.15714284.947683972 1.0524008.605891471 0 .00932499065M25.1680051 14.4818855C24.0903153 14.4971458 23.0408074 14.3104317 21.9934399 14.0736279 21.3973394 13.9389783 21.1085643 13.6851189 21.3001298 13.0247972 21.4242728 12.5969706 21.4990083 12.1465227 21.530044 11.7016404 21.5805217 10.9815343 21.7760113 10.7151077 22.5335334 11.0962558 23.5628859 11.6138489 24.6978313 11.7073855 25.840268 11.6474215 26.2902865 11.6237232 26.7263923 11.5364703 27.1141608 11.2901512 27.8515275 10.8219297 27.9317924 10.0770481 27.2609564 9.5169057 26.9002995 9.21547011 26.4631235 9.00451906 26.0523457 8.76663809 25.4871026 8.43899072 24.8813703 8.17148683 24.3505519 7.79572467 22.2051609 6.27687711 22.1265013 3.63415418 24.1745043 1.95624055 25.5591626.82177274 27.2131542.526620803 28.942238.517285097 29.1200693.5162079 29.2982574.535238378 29.4757319.552114462 32.0982531.800767401 32.0766707.797356278 31.6434188 3.37526787 31.5429985 3.97185539 31.3516113 3.93720556 30.8996309 3.75641602 30.0923446 3.43361603 29.2383263 3.31225185 28.3659362 3.3415157 27.9448132 3.35569879 27.5345704 3.42535752 27.1555418 3.60650612 26.2847571 4.02284271 26.1741699 4.79034546 26.9700408 5.33127781 27.7288114 5.84689604 28.5831865 6.21799035 29.3753117 6.68728911 31.0926233 7.7050606 31.7470496 8.9915927 31.4060131 10.6856643 31.1413174 12.000383 30.3638182 12.9405963 29.2110362 13.5840419 28.105878 14.2012757 26.8034466 14.4914007 25.1680051 14.4818855M17.3413895 14.9797824C15.5524198 14.9794114 15.5361925 14.9768146 15.8032217 13.2065598 16.4016485 9.23851051 17.023695 5.27417091 17.6194173 1.30575068 17.6987508.7771226 17.8301919.466994129 18.4515172.523937574 19.1669609.589784229 19.895747.583292305 20.6126331.525606926 21.2408099.474969921 21.2952615.738356541 21.2099781 1.27867008 20.526989 5.60822676 19.8537363 9.93945279 19.2068079 14.2747595 19.1184593 14.86571 18.8777543 15.0539758 18.3321564 14.9872017 18.006168 14.9471373 17.6718856 14.9797824 17.3413895 14.9797824"/>
    </g>
    <path stroke="#6C7378" stroke-linecap="round" stroke-linejoin="round" d="M818.453783,113.30608 L818.453783,43.6996855 C818.453783,39.4478512 814.961872,36 810.7499,36 L679.048334,36 C674.789906,36 671.344451,39.4633124 671.344451,43.7228774 L671.344451,103.924653 M692.968085,175.150943 L841.735771,175.150943 C845.986456,175.150943 847.294955,172.491614 844.585046,169.113339 L823.292906,142.535508 C820.62171,139.203616 815.01607,136.497904 810.703444,136.497904 L694.57224,136.497904 L692.968085,136.633962 L692.968085,208.6755 C692.968085,211.062485 691.009259,213 688.594689,213 L640.373396,213 C637.958826,213 636,211.014483 636,208.653682 L636,108.251979 C636,105.851903 637.958826,103.90566 640.373396,103.90566 L688.594689,103.90566 C691.009259,103.90566 692.968085,105.838812 692.968085,108.308708 L692.968085,121.360755 M636,121.424459 L692.968085,121.424459 M636,195.481201 L692.968085,195.481201"/>
    <g transform="translate(717 59)">
      <mask id="executing-paypal-payment-server-integration-f" fill="#fff">
        <use xlink:href="#executing-paypal-payment-server-integration-e"/>
      </mask>
      <polygon fill="#020303" points="-154.632 411.211 85.912 411.211 85.912 -16.634 -154.632 -16.634" mask="url(#executing-paypal-payment-server-integration-f)"/>
      <polygon fill="#00CF92" points="-1.004 52.963 53.518 52.963 53.518 -1.559 -1.004 -1.559" mask="url(#executing-paypal-payment-server-integration-f)"/>
    </g>
    <g transform="translate(645 140)">
      <mask id="executing-paypal-payment-server-integration-h" fill="#fff">
        <use xlink:href="#executing-paypal-payment-server-integration-g"/>
      </mask>
      <polygon fill="#020303" points="-110.026 292.592 61.13 292.592 61.13 -11.836 -110.026 -11.836" mask="url(#executing-paypal-payment-server-integration-h)"/>
      <polygon fill="#00CF92" points="-.715 37.685 38.08 37.685 38.08 -1.11 -.715 -1.11" mask="url(#executing-paypal-payment-server-integration-h)"/>
    </g>
    <path fill="#FFF" stroke="#6C7378" stroke-width=".795" d="M58.6873147,172.321954 C58.9165395,172.005392 59.2857121,171.814996 59.6790136,171.814996 C60.074728,171.814996 60.4463135,172.005392 60.6707125,172.321954 C60.6707125,172.321954 68.1000092,184.078339 67.6487983,184.078339 L63.0281087,184.078339 L63.0281087,186.814996 L56.3299185,186.814996 L56.2478801,184.078339 L51.7116418,184.078339 C51.0287932,184.078339 58.6873147,172.321954 58.6873147,172.321954 Z" transform="rotate(-15 59.669 179.315)"/>
    <rect width="27" height="27" x="728" y="156" fill="#003087" rx="13.5"/>
    <text fill="#FFF" font-family="PayPalSansBig-MediumItalic, PayPal Sans Big, sans-serif" font-size="15.2" font-style="italic" font-weight="500">
      <tspan x="736.161" y="174">4</tspan>
    </text>
  </g>
</svg>
