<?xml version="1.0" encoding="utf-8"?>
<!-- Generator: Adobe Illustrator 25.1.0, SVG Export Plug-In . SVG Version: 6.00 Build 0)  -->
<svg version="1.1" xmlns="http://www.w3.org/2000/svg" xmlns:xlink="http://www.w3.org/1999/xlink" x="0px" y="0px"
	 viewBox="0 0 624.54 655.77" style="enable-background:new 0 0 624.54 655.77;" xml:space="preserve">
<style type="text/css">
	.st0{fill:#FFFFFF;}
	.st1{fill:none;stroke:#6C55FF;stroke-width:0.885;stroke-miterlimit:10;}
	.st2{fill:none;stroke:#6C55FF;stroke-width:0.7694;stroke-miterlimit:10;}
	.st3{fill:none;stroke:#6C55FF;stroke-width:0.75;stroke-miterlimit:10;}
	.st4{fill:none;stroke:#635DFF;stroke-width:2;stroke-miterlimit:10;}
	.st5{fill:none;stroke:#6C55FF;stroke-width:0.9418;stroke-miterlimit:10;}
	.st6{fill:none;stroke:#6C55FF;stroke-width:0.9418;stroke-miterlimit:10;stroke-dasharray:3.1702,6.3404;}
	.st7{fill:none;stroke:#6C55FF;stroke-width:2.3871;stroke-miterlimit:10;}
	.st8{fill:none;stroke:#6C55FF;stroke-width:1.0333;stroke-miterlimit:10;}
	.st9{fill:none;stroke:#6C55FF;stroke-width:0.9915;stroke-miterlimit:10;}
	.st10{fill:none;stroke:#1F6FF2;stroke-width:0.316;stroke-miterlimit:10;}
	.st11{fill:none;stroke:#6C55FF;stroke-width:0.4306;stroke-miterlimit:10;}
	.st12{fill:none;stroke:#6C55FF;stroke-width:1.4031;stroke-miterlimit:10;}
	.st13{fill:none;stroke:#1F6FF2;stroke-width:0.1677;stroke-miterlimit:10;}
	.st14{fill:none;stroke:#1F6FF2;stroke-width:0.3378;stroke-miterlimit:10;}
	.st15{fill:none;stroke:#6C55FF;stroke-width:1.5;stroke-miterlimit:10;}
	.st16{fill:none;stroke:#6C55FF;stroke-width:0.4603;stroke-miterlimit:10;}
	.st17{fill:none;stroke:#6C55FF;stroke-width:0.9807;stroke-miterlimit:10;}
	.st18{fill:none;stroke:#6C55FF;stroke-width:0.9773;stroke-linejoin:round;stroke-miterlimit:10;}
	.st19{fill:none;stroke:#6C55FF;stroke-width:0.9807;stroke-miterlimit:10;stroke-dasharray:3.4731,6.9462;}
	.st20{fill:#808184;}
	.st21{fill:none;stroke:#000000;stroke-width:5.276;stroke-miterlimit:10;}
	.st22{fill:none;stroke:#000000;stroke-width:1.9389;stroke-miterlimit:10;}
	.st23{fill:none;stroke:#6C55FF;stroke-width:2.3051;stroke-miterlimit:10;}
</style>
<g id="fondo">
</g>
<g id="Layer_1">
	<g>
		<g>
			<path d="M426.98,518.53c-20.33,0-33.25,9.22-39.37,24.21h-1.55v-68.12h-30.5V652.7h31.18v-77.27c0-19.13,11.89-30.15,28.6-30.15
				c16.37,0,26.02,10.43,26.02,28.26v79.16h31.18v-84.37C472.55,536.37,454.46,518.53,426.98,518.53z"/>
			<path d="M556.85,474.32c-42.21,0-67.6,33.03-67.69,90.42c0,57.56,25.31,91.02,67.69,91.02c42.38,0.09,67.69-33.37,67.69-91.02
				C624.54,507.44,599.06,474.32,556.85,474.32z M521.34,564.74c0.09-41.86,13.73-63.91,35.52-63.91
				c14.89,0,25.96,10.23,31.54,29.95l-66.49,48.31C521.52,574.6,521.33,569.82,521.34,564.74z M556.85,628.91
				c-15.39,0-26.73-10.88-32.09-32.01l66.86-48.57c0.53,5.08,0.82,10.55,0.83,16.42C592.46,606.95,578.82,628.91,556.85,628.91z"/>
			<path d="M215.21,597.09c0,20.16-14.39,30.15-28.17,30.15c-14.99,0-24.98-10.6-24.98-27.4v-79.43h-31.18v84.26
				c0,31.79,18.09,49.79,44.11,49.79c19.81,0,33.77-10.43,39.8-25.25h1.38v23.52h30.24V520.41h-31.19V597.09z"/>
			<path d="M60.38,518.41c-27.82,0-49.18,12.4-56.07,36.52l29.11,4.13c3.1-9.04,11.89-16.8,27.13-16.8
				c14.47,0,22.39,7.41,22.39,20.41v0.52c0,8.96-9.39,9.39-32.73,11.89C24.55,577.84,0,585.5,0,615.31
				c0,26.01,19.04,39.79,44.27,39.79c20.76,0,33.16-9.73,38.85-20.84h1.03v18.17h29.97v-88.54
				C114.12,528.92,85.61,518.41,60.38,518.41z M83.03,604.97c0,14.73-11.89,27.22-30.66,27.22c-13.01,0-22.31-5.94-22.31-17.4
				c0-11.97,10.42-16.97,24.38-18.95c8.18-1.12,24.55-3.19,28.6-6.46V604.97z"/>
			<path d="M312.97,487.35h-31.18v33.13h-18.93v24.78h18.93v73.25c-0.17,24.9,17.92,37.13,41.35,36.45
				c7.02-0.2,12.29-1.33,15.86-2.34v-24.7c-2.36,0.32-7.89,1.02-11.9,1.11c-7.83,0.18-14.13-2.76-14.13-15.33v-68.44h26.11v-24.78
				h-26.11V487.35z"/>
		</g>
		<path d="M450.53,0H316.57l41.4,129.02l133.96,0l-108.38,76.94l41.4,129.75h0c69.77-50.82,92.57-127.74,66.98-206.69L450.53,0z
			 M141.21,129.02h133.96L316.57,0H182.61L141.21,129.02L141.21,129.02c-25.58,78.95-2.79,155.86,66.98,206.69l0,0l41.4-129.75
			L141.21,129.02z M208.19,335.7l108.38,76.76l108.38-76.76l-108.38-78.06L208.19,335.7z"/>
	</g>
</g>
<g id="Layer_2">
</g>
</svg>
