<svg xmlns="http://www.w3.org/2000/svg" viewBox="0 0 1163.77 343.8"><g id="Layer_1" data-name="Layer 1"><path d="M266.31,1H154.65l34.51,107.54H300.82l-90.34,64.13L245,280.82h0c58.15-42.36,77.15-106.47,55.83-172.28ZM8.48,108.54H120.14L154.65,1H43L8.48,108.54h0c-21.33,65.81-2.32,129.92,55.83,172.28h0L98.82,172.67ZM64.31,280.82l90.34,64,90.34-64-90.34-65.06ZM907,105.9c-26.43,0-43.22,12-51.18,31.46h-2V48.82H814.17V280.27H854.7V179.85c0-24.86,15.45-39.19,37.18-39.19,21.27,0,33.82,13.55,33.82,36.72V280.27h40.53V170.62C966.23,129.08,942.72,105.9,907,105.9Zm168.8-57.46c-54.86,0-87.86,42.92-88,117.52,0,74.81,32.9,118.3,88,118.3s88-43.37,88-118.3C1163.77,91.48,1130.66,48.44,1075.8,48.44ZM1029.64,166c.11-54.41,17.84-83.07,46.16-83.07,19.35,0,33.74,13.29,41,38.93l-86.42,62.79C1029.88,178.77,1029.62,172.56,1029.64,166Zm46.16,83.4c-20,0-34.75-14.14-41.7-41.61L1121,144.62a211,211,0,0,1,1.08,21.34C1122.07,220.82,1104.34,249.36,1075.8,249.36ZM631.76,208c0,26.2-18.7,39.19-36.61,39.19-19.48,0-32.48-13.78-32.48-35.61V108.34H522.14V217.85c0,41.32,23.51,64.72,57.33,64.72,25.75,0,43.89-13.55,51.73-32.81H633v30.57H672.3v-172H631.76ZM430.52,105.73c-36.16,0-63.92,16.12-72.88,47.47l37.84,5.37c4-11.75,15.45-21.83,35.26-21.83,18.81,0,29.11,9.63,29.11,26.54V164c0,11.64-12.2,12.2-42.54,15.45C384,183,352,192.94,352,231.67c0,33.81,24.74,51.72,57.54,51.72,27,0,43.1-12.65,50.49-27.09h1.35v23.62h38.95V164.84C500.37,119.39,463.32,105.73,430.52,105.73ZM460,218.24c0,19.14-15.45,35.38-39.85,35.38-16.91,0-29-7.73-29-22.62,0-15.56,13.55-22.05,31.68-24.63,10.64-1.45,31.91-4.14,37.17-8.39ZM758.82,65.37H718.29v43.06h-24.6v32.2h24.6v95.21c-.22,32.36,23.29,48.26,53.75,47.37a83.3,83.3,0,0,0,20.61-3v-32.1c-3.07.41-10.25,1.33-15.47,1.45-10.18.23-18.36-3.59-18.36-19.93v-89h33.93v-32.2H758.82Z"/></g></svg>