<?xml version="1.0" encoding="utf-8"?>
<!-- Generator: Adobe Illustrator 23.0.2, SVG Export Plug-In . SVG Version: 6.00 Build 0)  -->
<svg version="1.1" id="commercetools" xmlns="http://www.w3.org/2000/svg" xmlns:xlink="http://www.w3.org/1999/xlink" x="0px"
	 y="0px" viewBox="0 0 422.36 144.57" style="enable-background:new 0 0 422.36 144.57;" xml:space="preserve">
<style type="text/css">
	.st0{fill:#2A4148;}
	.st1{fill:#F27923;}
	.st2{fill:#F5A730;}
	.st3{fill:#20AD92;}
	.st4{fill:#D0D1D1;}
</style>
<g>
	<g>
		<g id="XMLID_86_">
			<path id="XMLID_116_" class="st0" d="M91.13,69.03c2.1,0,3.31-0.14,5.96-0.7l0.65,4.47c-2.05,0.56-4.33,0.84-6.62,0.84
				c-10.2,0-13.14-6.38-13.14-13.84c0.09-7.27,4.47-13.42,13.09-13.42c2.28,0,4.24,0.28,6.62,0.89l-0.89,4.43
				c-2.52-0.56-4.01-0.65-5.59-0.65c-5.4,0.09-8.06,4.1-8.15,8.76C83.07,64.41,84.8,69.03,91.13,69.03z"/>
			<path id="XMLID_113_" class="st0" d="M112,46.39c8.39,0.05,12.11,6.29,12.11,13.6c0,7.13-3.21,13.51-12.16,13.56
				c-8.76-0.09-12.11-6.43-12.11-13.56C99.84,52.68,103.61,46.48,112,46.39z M112,69.07c5.36-0.05,7.08-4.38,7.08-9.08
				c-0.05-4.29-1.86-9.13-7.13-9.13c-5.12,0.05-7.13,4.8-7.13,9.13C104.82,64.88,106.97,69.07,112,69.07z"/>
			<path id="XMLID_111_" class="st0" d="M158.82,73.08V56.31c0-4.24-1.58-5.4-4.24-5.4c-1.82,0-3.87,1.03-5.73,2.56
				c0.09,0.56,0.14,1.68,0.14,2v17.61h-5.22V56.12c0-4.24-1.26-5.26-3.91-5.26c-1.68,0-4.01,1.12-6.01,2.61v19.61h-5.17V46.85h5.17
				v2.24c1.58-1.26,4.1-2.7,6.85-2.75c3.63-0.05,5.73,1.21,6.9,3.17c2.14-2,5.31-3.12,7.73-3.17c8.53-0.14,8.66,6.71,8.66,9.6v17.14
				H158.82z"/>
			<path id="XMLID_109_" class="st0" d="M199.81,73.08V56.31c0-4.24-1.58-5.4-4.24-5.4c-1.82,0-3.87,1.03-5.73,2.56
				c0.09,0.56,0.14,1.68,0.14,2v17.61h-5.22V56.12c0-4.24-1.26-5.26-3.91-5.26c-1.68,0-4.01,1.12-6.01,2.61v19.61h-5.17V46.85h5.17
				v2.24c1.58-1.26,4.1-2.7,6.85-2.75c3.63-0.05,5.73,1.21,6.9,3.17c2.14-2,5.31-3.12,7.73-3.17c8.53-0.14,8.66,6.71,8.66,9.6v17.14
				H199.81z"/>
			<path id="XMLID_106_" class="st0" d="M229.1,68.28l0.79,4.24c-2.33,0.79-5.54,1.17-8.06,1.17c-10.34,0-12.86-6.94-12.86-13.88
				c0-6.94,3.08-13.37,11.74-13.37c5.36,0,9.83,3.31,9.88,11.74l-0.05,2.75h-16.49c0.09,5.12,2.84,8.24,8.01,8.24
				C224.12,69.17,226.26,68.93,229.1,68.28z M214.29,56.91h11.51c-0.19-5.31-2.84-6.38-5.31-6.38
				C216.57,50.49,214.76,53.14,214.29,56.91z"/>
			<path id="XMLID_104_" class="st0" d="M249.6,51.65c-1.35-0.33-2.52-0.37-3.35-0.37c-3.21-0.05-4.89,1.54-6.1,2.8v19.01h-5.17
				V46.85h5.17v2.33c1.35-1.4,3.4-2.61,6.06-2.66c1.07-0.05,2.84,0.14,4.33,0.7L249.6,51.65z"/>
			<path id="XMLID_102_" class="st0" d="M264.73,69.03c2.1,0,3.31-0.14,5.96-0.7l0.65,4.47c-2.05,0.56-4.33,0.84-6.62,0.84
				c-10.2,0-13.14-6.38-13.14-13.84c0.09-7.27,4.47-13.42,13.09-13.42c2.28,0,4.24,0.28,6.62,0.89l-0.89,4.43
				c-2.52-0.56-4.01-0.65-5.59-0.65c-5.4,0.09-8.06,4.1-8.15,8.76C256.68,64.41,258.4,69.03,264.73,69.03z"/>
			<path id="XMLID_99_" class="st0" d="M293.57,68.28l0.79,4.24c-2.33,0.79-5.54,1.17-8.06,1.17c-10.34,0-12.86-6.94-12.86-13.88
				c0-6.94,3.08-13.37,11.74-13.37c5.36,0,9.83,3.31,9.88,11.74l-0.05,2.75h-16.49c0.09,5.12,2.84,8.24,8.01,8.24
				C288.59,69.17,290.73,68.93,293.57,68.28z M278.76,56.91h11.51c-0.19-5.31-2.84-6.38-5.31-6.38
				C281.04,50.49,279.22,53.14,278.76,56.91z"/>
			<path id="XMLID_97_" class="st0" d="M312.57,51.14h-7.13v12.72c0,2.65,0.33,4.52,3.03,4.89c1.49,0.14,3.03,0,4.52-0.19l0.33,4.47
				c-1.54,0.28-3.73,0.33-4.61,0.33c-6.1-0.23-8.39-3.35-8.39-8.25V51.14h-3.77v-3.59l3.77-0.42v-6.1h5.12v5.82h7.13V51.14z"/>
			<path id="XMLID_94_" class="st0" d="M327.62,46.39c8.39,0.05,12.11,6.29,12.11,13.6c0,7.13-3.21,13.51-12.16,13.56
				c-8.76-0.09-12.11-6.43-12.11-13.56C315.46,52.68,319.23,46.48,327.62,46.39z M327.62,69.07c5.36-0.05,7.08-4.38,7.08-9.08
				c-0.05-4.29-1.86-9.13-7.13-9.13c-5.12,0.05-7.13,4.8-7.13,9.13C320.45,64.88,322.59,69.07,327.62,69.07z"/>
			<path id="XMLID_91_" class="st0" d="M355.47,46.39c8.39,0.05,12.11,6.29,12.11,13.6c0,7.13-3.21,13.51-12.16,13.56
				c-8.76-0.09-12.11-6.43-12.11-13.56C343.32,52.68,347.09,46.48,355.47,46.39z M355.47,69.07c5.36-0.05,7.08-4.38,7.08-9.08
				c-0.05-4.29-1.86-9.13-7.13-9.13c-5.12,0.05-7.13,4.8-7.13,9.13C348.3,64.88,350.44,69.07,355.47,69.07z"/>
			<path id="XMLID_89_" class="st0" d="M371.68,73.08V37.49h4.98v35.59H371.68z"/>
			<path id="XMLID_87_" class="st0" d="M381.93,68c2.93,0.75,5.68,1.12,7.41,1.12c2.05,0,4.15-0.42,4.29-2.89
				c0.14-2.61-2.56-3.4-5.64-4.7c-3.49-1.44-7.27-3.4-7.17-8.25c0.09-2.42,1.54-7.17,9.27-6.94c2.33,0.05,5.12,0.42,7.45,1.03
				l-0.88,4.29c-2.75-0.65-4.8-0.93-6.8-0.98c-2.24,0-3.96,0.7-4.05,2.8c-0.05,1.77,1.35,2.7,4.8,4.1c3.49,1.44,8.43,3.31,8.2,8.81
				c-0.14,3.49-2.42,7.31-9.46,7.22c-2.24-0.05-5.82-0.33-8.48-1.26L381.93,68z"/>
		</g>
		<g id="XMLID_81_">
			<path id="XMLID_85_" class="st1" d="M18.8,72.5c-0.4,0.19-0.66,0.59-0.66,1.04c0,0.45,0.26,0.85,0.66,1.04L41,84.98
				c0.3,0.14,0.62,0.21,0.94,0.21v-23.2c-0.33,0-0.66,0.07-0.97,0.21L18.8,72.5z"/>
			<path id="XMLID_84_" class="st2" d="M41.94,61.98v23.2c0.34,0.01,0.69-0.07,1.01-0.21l22.14-10.36c0.4-0.19,0.66-0.59,0.66-1.04
				c0-0.44-0.26-0.85-0.66-1.04L42.91,62.2C42.6,62.06,42.27,61.98,41.94,61.98z"/>
			<path id="XMLID_83_" class="st3" d="M18.14,42.14c0,0.45,0.26,0.85,0.66,1.04L41,53.57c0.3,0.14,0.62,0.21,0.94,0.22
				c0.28,0,0.56-0.04,0.83-0.14c0.21-0.1,0.17-0.08,0.62-0.29c2.29-1.06,0.77-0.36,21.69-10.15c0.4-0.19,0.66-0.59,0.66-1.04
				c0-0.44-0.26-0.85-0.66-1.04L42.91,30.8c-0.61-0.29-1.32-0.29-1.93,0L18.8,41.1C18.4,41.29,18.14,41.7,18.14,42.14z"/>
			<path id="XMLID_82_" class="st4" d="M41.94,55.09v6.89c-0.33,0-0.66,0.07-0.97,0.21L18.8,72.5c-0.4,0.19-0.66,0.59-0.66,1.04
				l0-30.63c0,0,0-0.88,0-0.77c0,0.45,0.26,0.85,0.66,1.04L41,53.57c0.3,0.14,0.62,0.21,0.94,0.22c0.28,0,0.56-0.04,0.83-0.14
				l-0.04,0.02C42.04,53.98,41.94,54.3,41.94,55.09z"/>
		</g>
	</g>
	<g>
		<path class="st0" d="M165,101.02h-1.83l-4.65-12.37h-0.06c-0.22,1.49-0.46,2.9-0.75,4.23l-1.74,8.14h-1.64l3.12-14.78h1.82
			l4.64,12.34h0.06c0.2-1.51,0.45-2.88,0.73-4.1l1.76-8.24h1.66L165,101.02z"/>
		<path class="st0" d="M173,101.23c-1.24,0-2.21-0.37-2.92-1.1c-0.71-0.73-1.06-1.75-1.06-3.05c0-1.27,0.25-2.48,0.75-3.65
			c0.5-1.16,1.17-2.07,2-2.71c0.83-0.65,1.74-0.97,2.74-0.97c1.03,0,1.81,0.22,2.33,0.67c0.52,0.45,0.78,1.07,0.78,1.88
			c0,1.21-0.56,2.17-1.68,2.86c-1.12,0.69-2.72,1.04-4.8,1.04h-0.33l-0.04,0.81c0,0.88,0.21,1.57,0.62,2.07
			c0.41,0.5,1.06,0.74,1.93,0.74c0.42,0,0.86-0.06,1.31-0.18c0.45-0.12,1.01-0.34,1.67-0.67v1.48c-0.63,0.3-1.19,0.5-1.68,0.62
			C174.12,101.17,173.59,101.23,173,101.23z M174.41,91.18c-0.69,0-1.35,0.32-1.96,0.95c-0.61,0.63-1.08,1.51-1.4,2.64h0.12
			c1.54,0,2.71-0.2,3.53-0.6c0.82-0.4,1.23-0.98,1.23-1.74c0-0.36-0.12-0.65-0.37-0.89C175.32,91.3,174.93,91.18,174.41,91.18z"/>
		<path class="st0" d="M182.96,96.63l-3.5,4.39h-1.97l4.8-5.71l-2.42-5.37h1.72l1.76,4.17l3.34-4.17h1.96l-4.6,5.45l2.55,5.63h-1.7
			L182.96,96.63z"/>
		<path class="st0" d="M192.13,99.84c0.37,0,0.86-0.09,1.46-0.26v1.3c-0.23,0.09-0.51,0.18-0.85,0.24c-0.34,0.07-0.61,0.1-0.81,0.1
			c-0.84,0-1.49-0.2-1.94-0.6s-0.67-1-0.67-1.79c0-0.44,0.06-0.95,0.18-1.52l1.28-6.09h-1.74l0.14-0.74l1.87-0.79l1.26-2.31h0.99
			l-0.56,2.55h2.77l-0.26,1.28h-2.76l-1.3,6.11c-0.12,0.59-0.18,1.03-0.18,1.33c0,0.38,0.1,0.67,0.29,0.87
			S191.78,99.84,192.13,99.84z"/>
		<path class="st0" d="M211.35,89.94l-0.25,1.08l-2.13,0.24c0.28,0.42,0.41,0.95,0.41,1.6c0,1.29-0.39,2.31-1.18,3.08
			c-0.79,0.77-1.83,1.15-3.15,1.15c-0.37,0-0.65-0.03-0.85-0.08c-0.94,0.36-1.41,0.8-1.41,1.32c0,0.28,0.11,0.46,0.33,0.55
			c0.22,0.09,0.55,0.16,0.97,0.22l1.18,0.14c1.22,0.15,2.1,0.45,2.65,0.89c0.55,0.44,0.82,1.1,0.82,1.96c0,1.24-0.49,2.2-1.48,2.88
			c-0.98,0.68-2.37,1.02-4.16,1.02c-1.31,0-2.33-0.25-3.07-0.74s-1.11-1.19-1.11-2.1c0-0.71,0.24-1.32,0.73-1.84
			c0.49-0.52,1.27-0.96,2.36-1.32c-0.53-0.28-0.79-0.68-0.79-1.22c0-0.46,0.17-0.86,0.52-1.2c0.34-0.33,0.82-0.65,1.44-0.94
			c-0.42-0.22-0.77-0.53-1.04-0.96s-0.4-0.91-0.4-1.47c0-1.31,0.4-2.38,1.21-3.22c0.81-0.84,1.83-1.25,3.09-1.25
			c0.53,0,1.04,0.07,1.56,0.2H211.35z M200.58,102.99c0,0.52,0.22,0.93,0.66,1.23c0.44,0.3,1.09,0.46,1.95,0.46
			c1.23,0,2.19-0.21,2.88-0.64c0.69-0.43,1.04-1.03,1.04-1.81c0-0.42-0.18-0.75-0.55-0.99c-0.36-0.24-0.98-0.41-1.86-0.51
			l-1.61-0.16c-0.81,0.17-1.43,0.47-1.86,0.89C200.8,101.88,200.58,102.39,200.58,102.99z M203.4,94.15c0,0.57,0.15,1.01,0.46,1.31
			c0.3,0.3,0.72,0.45,1.26,0.45c0.53,0,1-0.14,1.4-0.42c0.4-0.28,0.7-0.67,0.92-1.17c0.21-0.5,0.32-1.03,0.32-1.61
			c0-0.55-0.15-0.97-0.44-1.26c-0.3-0.29-0.72-0.43-1.27-0.43c-0.53,0-0.99,0.14-1.38,0.41c-0.39,0.27-0.7,0.65-0.92,1.14
			C203.51,93.04,203.4,93.57,203.4,94.15z"/>
		<path class="st0" d="M215.58,101.23c-1.24,0-2.21-0.37-2.92-1.1s-1.06-1.75-1.06-3.05c0-1.27,0.25-2.48,0.75-3.65
			c0.5-1.16,1.17-2.07,2-2.71c0.83-0.65,1.74-0.97,2.74-0.97c1.03,0,1.81,0.22,2.33,0.67c0.52,0.45,0.78,1.07,0.78,1.88
			c0,1.21-0.56,2.17-1.68,2.86c-1.12,0.69-2.72,1.04-4.8,1.04h-0.33l-0.04,0.81c0,0.88,0.21,1.57,0.62,2.07
			c0.42,0.5,1.06,0.74,1.93,0.74c0.42,0,0.86-0.06,1.31-0.18c0.45-0.12,1.01-0.34,1.67-0.67v1.48c-0.63,0.3-1.19,0.5-1.68,0.62
			C216.7,101.17,216.17,101.23,215.58,101.23z M216.98,91.18c-0.69,0-1.35,0.32-1.96,0.95c-0.61,0.63-1.08,1.51-1.4,2.64h0.12
			c1.54,0,2.71-0.2,3.53-0.6c0.82-0.4,1.23-0.98,1.23-1.74c0-0.36-0.12-0.65-0.37-0.89C217.9,91.3,217.51,91.18,216.98,91.18z"/>
		<path class="st0" d="M228.19,101.02l1.5-7c0.13-0.7,0.2-1.19,0.2-1.46c0-0.42-0.12-0.76-0.36-1.02s-0.62-0.38-1.15-0.38
			c-0.6,0-1.19,0.2-1.75,0.61c-0.57,0.4-1.07,0.98-1.51,1.73c-0.44,0.75-0.76,1.65-0.99,2.72l-1.02,4.8h-1.7l2.37-11.08h1.41
			l-0.22,2.05h0.1c0.65-0.82,1.27-1.4,1.88-1.74s1.23-0.51,1.88-0.51c0.86,0,1.53,0.23,2.03,0.7c0.5,0.47,0.74,1.12,0.74,1.97
			c0,0.53-0.08,1.14-0.23,1.82l-1.45,6.79H228.19z"/>
		<path class="st0" d="M237.74,101.23c-1.24,0-2.21-0.37-2.92-1.1s-1.06-1.75-1.06-3.05c0-1.27,0.25-2.48,0.75-3.65
			c0.5-1.16,1.17-2.07,2-2.71c0.83-0.65,1.74-0.97,2.74-0.97c1.03,0,1.81,0.22,2.33,0.67c0.52,0.45,0.78,1.07,0.78,1.88
			c0,1.21-0.56,2.17-1.68,2.86c-1.12,0.69-2.72,1.04-4.8,1.04h-0.33l-0.04,0.81c0,0.88,0.21,1.57,0.62,2.07
			c0.42,0.5,1.06,0.74,1.93,0.74c0.42,0,0.86-0.06,1.31-0.18c0.45-0.12,1.01-0.34,1.67-0.67v1.48c-0.63,0.3-1.19,0.5-1.68,0.62
			C238.86,101.17,238.33,101.23,237.74,101.23z M239.15,91.18c-0.69,0-1.35,0.32-1.96,0.95c-0.61,0.63-1.08,1.51-1.4,2.64h0.12
			c1.54,0,2.71-0.2,3.53-0.6c0.82-0.4,1.23-0.98,1.23-1.74c0-0.36-0.12-0.65-0.37-0.89C240.06,91.3,239.67,91.18,239.15,91.18z"/>
		<path class="st0" d="M250.58,89.74c0.46,0,0.87,0.05,1.21,0.14l-0.36,1.52c-0.36-0.09-0.71-0.13-1.06-0.13
			c-0.61,0-1.19,0.2-1.72,0.61c-0.54,0.4-1,0.97-1.41,1.68c-0.4,0.72-0.7,1.52-0.88,2.39l-1.08,5.08h-1.7l2.37-11.08h1.41
			l-0.22,2.05h0.1c0.49-0.64,0.89-1.1,1.2-1.38c0.32-0.28,0.65-0.5,1-0.65C249.77,89.81,250.16,89.74,250.58,89.74z"/>
		<path class="st0" d="M257.64,89.74c0.62,0,1.17,0.17,1.66,0.5c0.49,0.33,0.86,0.81,1.13,1.44h0.11l0.68-1.74h1.28l-2.36,11.08
			h-1.34l0.26-2.11h-0.08c-1.21,1.54-2.48,2.32-3.81,2.32c-0.94,0-1.67-0.33-2.2-1c-0.53-0.67-0.8-1.58-0.8-2.74
			c0-1.4,0.24-2.7,0.72-3.9c0.48-1.2,1.14-2.14,1.98-2.82S256.64,89.74,257.64,89.74z M255.72,99.82c0.65,0,1.3-0.31,1.95-0.94
			c0.65-0.62,1.17-1.44,1.58-2.44s0.61-2,0.61-3.01c0-0.69-0.19-1.25-0.57-1.66c-0.38-0.41-0.87-0.62-1.49-0.62
			c-0.7,0-1.35,0.29-1.96,0.87s-1.08,1.36-1.42,2.36c-0.34,0.99-0.52,2.04-0.52,3.13c0,0.77,0.16,1.34,0.47,1.72
			C254.7,99.63,255.15,99.82,255.72,99.82z"/>
		<path class="st0" d="M266.87,99.84c0.37,0,0.86-0.09,1.46-0.26v1.3c-0.23,0.09-0.51,0.18-0.85,0.24s-0.61,0.1-0.81,0.1
			c-0.84,0-1.49-0.2-1.94-0.6s-0.67-1-0.67-1.79c0-0.44,0.06-0.95,0.18-1.52l1.28-6.09h-1.74l0.14-0.74l1.87-0.79l1.26-2.31h0.99
			l-0.56,2.55h2.77l-0.26,1.28h-2.76l-1.3,6.11c-0.12,0.59-0.18,1.03-0.18,1.33c0,0.38,0.1,0.67,0.29,0.87
			S266.52,99.84,266.87,99.84z"/>
		<path class="st0" d="M271.89,101.02h-1.7l2.37-11.08h1.7L271.89,101.02z M273.03,87.11c0-0.38,0.11-0.69,0.32-0.92
			c0.21-0.24,0.5-0.36,0.84-0.36c0.59,0,0.89,0.3,0.89,0.91c0,0.37-0.11,0.68-0.34,0.94s-0.49,0.38-0.78,0.38
			c-0.27,0-0.49-0.08-0.67-0.25C273.12,87.65,273.03,87.41,273.03,87.11z"/>
		<path class="st0" d="M281.35,89.8c1.28,0,2.29,0.38,3.03,1.14c0.74,0.76,1.11,1.8,1.11,3.13c0,1.27-0.24,2.46-0.73,3.59
			c-0.49,1.13-1.14,2-1.97,2.61s-1.77,0.92-2.81,0.92c-1.29,0-2.31-0.38-3.04-1.14c-0.73-0.76-1.1-1.8-1.1-3.12
			c0-1.28,0.25-2.49,0.74-3.61c0.49-1.13,1.16-2,1.99-2.6C279.41,90.1,280.33,89.8,281.35,89.8z M283.74,93.83
			c0-0.77-0.21-1.4-0.63-1.89c-0.42-0.48-0.99-0.72-1.71-0.72c-0.74,0-1.39,0.25-1.98,0.75c-0.58,0.5-1.04,1.19-1.36,2.08
			c-0.32,0.89-0.48,1.87-0.48,2.96c0,0.88,0.21,1.57,0.64,2.05c0.43,0.48,1.04,0.72,1.85,0.72c0.7,0,1.33-0.25,1.89-0.74
			c0.56-0.49,1-1.19,1.31-2.1C283.58,96.04,283.74,95,283.74,93.83z"/>
		<path class="st0" d="M293.84,101.02l1.5-7c0.13-0.7,0.2-1.19,0.2-1.46c0-0.42-0.12-0.76-0.36-1.02s-0.62-0.38-1.15-0.38
			c-0.6,0-1.19,0.2-1.75,0.61c-0.57,0.4-1.07,0.98-1.51,1.73c-0.44,0.75-0.76,1.65-0.99,2.72l-1.02,4.8h-1.7l2.37-11.08h1.41
			l-0.22,2.05h0.1c0.65-0.82,1.27-1.4,1.88-1.74s1.23-0.51,1.88-0.51c0.86,0,1.53,0.23,2.03,0.7c0.5,0.47,0.74,1.12,0.74,1.97
			c0,0.53-0.08,1.14-0.23,1.82l-1.45,6.79H293.84z"/>
		<path class="st0" d="M308.91,101.23c-1.31,0-2.32-0.36-3.04-1.08c-0.72-0.72-1.08-1.74-1.08-3.05c0-1.35,0.25-2.59,0.75-3.73
			s1.19-2.03,2.07-2.66c0.88-0.64,1.87-0.96,2.97-0.96c0.92,0,1.83,0.17,2.71,0.52l-0.48,1.43c-0.81-0.34-1.55-0.52-2.21-0.52
			c-0.75,0-1.44,0.26-2.07,0.77c-0.62,0.52-1.11,1.23-1.47,2.15s-0.53,1.92-0.53,3c0,0.86,0.22,1.53,0.67,2.01s1.07,0.72,1.86,0.72
			c0.49,0,0.94-0.07,1.38-0.2s0.86-0.29,1.27-0.48v1.45C310.87,101.01,309.94,101.23,308.91,101.23z"/>
		<path class="st0" d="M319.62,89.8c1.28,0,2.29,0.38,3.03,1.14c0.74,0.76,1.11,1.8,1.11,3.13c0,1.27-0.24,2.46-0.73,3.59
			c-0.49,1.13-1.14,2-1.97,2.61s-1.77,0.92-2.81,0.92c-1.29,0-2.31-0.38-3.04-1.14c-0.73-0.76-1.1-1.8-1.1-3.12
			c0-1.28,0.25-2.49,0.74-3.61c0.49-1.13,1.16-2,1.99-2.6C317.68,90.1,318.6,89.8,319.62,89.8z M322.01,93.83
			c0-0.77-0.21-1.4-0.63-1.89c-0.42-0.48-0.99-0.72-1.71-0.72c-0.74,0-1.39,0.25-1.98,0.75c-0.58,0.5-1.04,1.19-1.36,2.08
			c-0.32,0.89-0.48,1.87-0.48,2.96c0,0.88,0.21,1.57,0.64,2.05c0.43,0.48,1.04,0.72,1.85,0.72c0.7,0,1.33-0.25,1.89-0.74
			c0.56-0.49,1-1.19,1.31-2.1C321.85,96.04,322.01,95,322.01,93.83z"/>
		<path class="st0" d="M331.78,101.02l1.5-7c0.12-0.63,0.18-1.09,0.18-1.36c0-0.47-0.1-0.84-0.31-1.1
			c-0.21-0.26-0.57-0.39-1.07-0.39c-0.57,0-1.12,0.2-1.65,0.61c-0.54,0.4-1.01,0.98-1.42,1.73s-0.72,1.66-0.95,2.71l-1.02,4.8h-1.7
			l2.37-11.08h1.41l-0.22,2.05h0.1c0.59-0.8,1.17-1.38,1.75-1.73s1.18-0.53,1.8-0.53c0.76,0,1.35,0.22,1.76,0.66
			c0.41,0.44,0.65,1.05,0.73,1.83h0.08c0.58-0.84,1.2-1.47,1.85-1.88c0.65-0.41,1.31-0.61,1.98-0.61c0.86,0,1.52,0.23,1.99,0.69
			c0.47,0.46,0.7,1.13,0.7,2c0,0.46-0.07,1.06-0.22,1.8l-1.46,6.79h-1.72l1.5-7c0.13-0.7,0.2-1.19,0.2-1.48
			c0-0.42-0.12-0.75-0.35-1.01c-0.23-0.25-0.6-0.38-1.1-0.38c-0.55,0-1.08,0.2-1.62,0.59c-0.53,0.39-1,0.95-1.4,1.66
			c-0.4,0.72-0.71,1.57-0.92,2.55l-1.08,5.06H331.78z"/>
		<path class="st0" d="M349.83,101.02l1.5-7c0.12-0.63,0.18-1.09,0.18-1.36c0-0.47-0.1-0.84-0.31-1.1
			c-0.21-0.26-0.57-0.39-1.07-0.39c-0.57,0-1.12,0.2-1.65,0.61c-0.54,0.4-1.01,0.98-1.42,1.73s-0.72,1.66-0.95,2.71l-1.02,4.8h-1.7
			l2.37-11.08h1.41l-0.22,2.05h0.1c0.59-0.8,1.17-1.38,1.75-1.73s1.18-0.53,1.8-0.53c0.76,0,1.35,0.22,1.76,0.66
			c0.41,0.44,0.65,1.05,0.73,1.83h0.08c0.58-0.84,1.2-1.47,1.85-1.88c0.65-0.41,1.31-0.61,1.98-0.61c0.86,0,1.52,0.23,1.99,0.69
			c0.47,0.46,0.7,1.13,0.7,2c0,0.46-0.07,1.06-0.22,1.8l-1.46,6.79h-1.72l1.5-7c0.13-0.7,0.2-1.19,0.2-1.48
			c0-0.42-0.12-0.75-0.35-1.01c-0.23-0.25-0.6-0.38-1.1-0.38c-0.55,0-1.08,0.2-1.62,0.59c-0.53,0.39-1,0.95-1.4,1.66
			c-0.4,0.72-0.71,1.57-0.92,2.55l-1.08,5.06H349.83z"/>
		<path class="st0" d="M365.83,101.23c-1.24,0-2.21-0.37-2.92-1.1s-1.06-1.75-1.06-3.05c0-1.27,0.25-2.48,0.75-3.65
			c0.5-1.16,1.17-2.07,2-2.71c0.83-0.65,1.74-0.97,2.74-0.97c1.03,0,1.81,0.22,2.33,0.67c0.52,0.45,0.78,1.07,0.78,1.88
			c0,1.21-0.56,2.17-1.68,2.86c-1.12,0.69-2.72,1.04-4.8,1.04h-0.33l-0.04,0.81c0,0.88,0.21,1.57,0.62,2.07
			c0.42,0.5,1.06,0.74,1.93,0.74c0.42,0,0.86-0.06,1.31-0.18c0.45-0.12,1.01-0.34,1.67-0.67v1.48c-0.63,0.3-1.19,0.5-1.68,0.62
			C366.95,101.17,366.42,101.23,365.83,101.23z M367.24,91.18c-0.69,0-1.35,0.32-1.96,0.95c-0.61,0.63-1.08,1.51-1.4,2.64H364
			c1.54,0,2.71-0.2,3.53-0.6c0.82-0.4,1.23-0.98,1.23-1.74c0-0.36-0.12-0.65-0.37-0.89C368.15,91.3,367.76,91.18,367.24,91.18z"/>
		<path class="st0" d="M378.67,89.74c0.46,0,0.87,0.05,1.21,0.14l-0.36,1.52c-0.36-0.09-0.71-0.13-1.06-0.13
			c-0.61,0-1.19,0.2-1.72,0.61c-0.54,0.4-1,0.97-1.41,1.68c-0.4,0.72-0.7,1.52-0.88,2.39l-1.08,5.08h-1.7l2.37-11.08h1.41
			l-0.22,2.05h0.1c0.49-0.64,0.89-1.1,1.2-1.38c0.32-0.28,0.65-0.5,1-0.65C377.86,89.81,378.25,89.74,378.67,89.74z"/>
		<path class="st0" d="M384.38,101.23c-1.31,0-2.32-0.36-3.04-1.08c-0.72-0.72-1.08-1.74-1.08-3.05c0-1.35,0.25-2.59,0.75-3.73
			s1.19-2.03,2.07-2.66c0.88-0.64,1.87-0.96,2.97-0.96c0.92,0,1.83,0.17,2.71,0.52l-0.48,1.43c-0.81-0.34-1.55-0.52-2.21-0.52
			c-0.75,0-1.44,0.26-2.07,0.77c-0.62,0.52-1.11,1.23-1.47,2.15s-0.53,1.92-0.53,3c0,0.86,0.22,1.53,0.67,2.01s1.07,0.72,1.86,0.72
			c0.49,0,0.94-0.07,1.38-0.2s0.86-0.29,1.27-0.48v1.45C386.34,101.01,385.41,101.23,384.38,101.23z"/>
		<path class="st0" d="M393.56,101.23c-1.24,0-2.21-0.37-2.92-1.1s-1.06-1.75-1.06-3.05c0-1.27,0.25-2.48,0.75-3.65
			c0.5-1.16,1.17-2.07,2-2.71c0.83-0.65,1.74-0.97,2.74-0.97c1.03,0,1.81,0.22,2.33,0.67c0.52,0.45,0.78,1.07,0.78,1.88
			c0,1.21-0.56,2.17-1.68,2.86c-1.12,0.69-2.72,1.04-4.8,1.04h-0.33l-0.04,0.81c0,0.88,0.21,1.57,0.62,2.07
			c0.42,0.5,1.06,0.74,1.93,0.74c0.42,0,0.86-0.06,1.31-0.18c0.45-0.12,1.01-0.34,1.67-0.67v1.48c-0.63,0.3-1.19,0.5-1.68,0.62
			C394.69,101.17,394.15,101.23,393.56,101.23z M394.97,91.18c-0.69,0-1.35,0.32-1.96,0.95c-0.61,0.63-1.08,1.51-1.4,2.64h0.12
			c1.54,0,2.71-0.2,3.53-0.6c0.82-0.4,1.23-0.98,1.23-1.74c0-0.36-0.12-0.65-0.37-0.89C395.88,91.3,395.5,91.18,394.97,91.18z"/>
	</g>
</g>
</svg>
