<?xml version="1.0" encoding="utf-8"?>
<!-- Generator: Adobe Illustrator 19.0.0, SVG Export Plug-In . SVG Version: 6.00 Build 0)  -->
<svg version="1.1" id="layer" xmlns="http://www.w3.org/2000/svg" xmlns:xlink="http://www.w3.org/1999/xlink" x="0px" y="0px"
	 viewBox="-153 -46 652 652" style="enable-background:new -153 -46 652 652;" xml:space="preserve">
<path d="M307.2,209.8c0-10.3,8.3-18.6,18.6-18.6c10.3,0,18.6,8.3,18.6,18.6c0,10.3-8.3,18.7-18.6,18.7
	C315.5,228.5,307.2,220.1,307.2,209.8z M39.2,266.2c8.7,9.8,13.6,22.4,13.6,35.5v64.7H24.2v-65.5c-0.1-12.9-10.7-23.4-23.6-23.4
	c-0.7,0-1.5,0.1-2.4,0.1c-11.5,1.2-21.2,12.1-21.2,23.9v64.8h-28.5v-65.3c-0.1-12.9-10.6-23.5-23.5-23.5c-0.7,0-1.5,0.1-2.4,0.1
	c-11.5,1.2-21.2,12.1-21.2,24v64.7h-27.9v-65.5c0-28.6,23.3-51.8,51.8-51.8c14.3,0,27.9,6,37.7,16.3c9.8-10.4,23.5-16.3,37.8-16.3
	c1.6,0,3,0.1,4.6,0.2C18.4,250.4,30.4,256.4,39.2,266.2z M230.9,366.5h-28.5V194h28.5V366.5z M285.5,366.5H257V194h28.5V366.5z
	 M340.1,366.4h-28.5V252h28.5V366.4z M473.5,319.4h-86.8c3.9,13.8,16.4,23.5,30.9,23.5c11.4,0,21.6-5.8,27.5-15.5l1.2-1.9l23.6,11.6
	l-1.4,2.3c-10.7,18.1-30.4,29.3-51.4,29.3H417c-16,0-31-6.3-42.4-17.8c-11.4-11.5-17.5-26.7-17.3-42.7c0.2-15.7,6.4-30.5,17.4-41.6
	c11-11.1,25.8-17.3,41.5-17.5h0.7c15.1,0,29.2,6,40,16.9c10.7,10.9,16.6,25.2,16.6,40.3V319.4z M387.1,295.8h57.5
	c-4.1-12.2-15.8-20.8-28.8-20.8C402.8,275,391.2,283.6,387.1,295.8z M187,309c0,32.9-26.8,59.8-59.7,59.8
	c-32.9,0-59.7-26.9-59.7-59.8c0-32.9,26.7-59.8,59.7-59.8C160.2,249.2,187,276,187,309z M158.7,309c0-17.3-14.1-31.5-31.4-31.5
	c-17.3,0-31.4,14.1-31.4,31.5c0,17.3,14.1,31.5,31.4,31.5C144.6,340.5,158.7,326.4,158.7,309z"/>
</svg>
