<?xml version="1.0" encoding="UTF-8"?>
<svg width="482px" height="103px" viewBox="0 0 482 103" version="1.1" xmlns="http://www.w3.org/2000/svg" xmlns:xlink="http://www.w3.org/1999/xlink">
    <!-- Generator: Sketch 51.3 (57544) - http://www.bohemiancoding.com/sketch -->
    <title>colored-full</title>
    <desc>Created with Sketch.</desc>
    <defs></defs>
    <g id="colored-full" stroke="none" stroke-width="1" fill="none" fill-rule="evenodd">
        <g id="logo" fill-rule="nonzero">
            <g id="text" transform="translate(122.000000, 13.000000)" fill="#000000">
                <path d="M19.1,58.6 C15.6,58.6 12.2,58.1 8.8,57 C5.60937591,55.9661307 2.67701812,54.2612716 0.2,52 L4.7,44.4 C7.2,46.1 9.6,47.4 12,48.4 C14.3,49.4 16.6,49.8 18.8,49.8 C20.4,49.8 21.7,49.5 22.6,48.9 C23.5,48.4 23.9,47.5 23.9,46.4 C23.9,45.4 23.4,44.4 22.2,43.8 C20.3205987,42.8992782 18.3397162,42.2277927 16.3,41.8 L9.3,39.5 C7.4,38.7 5.9,37.9 4.7,37 C3.5,36.2 2.6,35.1 2.1,34 C1.55571577,32.7375404 1.28314516,31.3746874 1.3,30 C1.24146163,26.0637465 2.96975182,22.3129891 6,19.8 C7.4,18.6 9.2,17.7 11.2,17 C13.2,16.3 15.4,16 17.7,16 C20.8,16 23.7,16.4 26.4,17.2 C29.1,18.1 31.7,19.6 34.2,21.8 L29.3,29.3 C27.3643495,27.9151195 25.2858059,26.7417481 23.1,25.8 C21.2,25 19.5,24.7 17.7,24.7 C16.4,24.7 15.2,24.9 14.3,25.5 C13.3,26 12.9,26.9 12.9,28.1 C12.9,29.3 13.4,30.1 14.4,30.7 C15.4,31.3 17.4,31.9 20.1,32.6 C22.606697,33.2313842 25.0770421,33.9991942 27.5,34.9 C29.5,35.7 31.1,36.6 32.4,37.5 C34.8584491,39.310406 36.217319,42.2546241 36,45.3 C36,49.4 34.5,52.6 31.4,55 C28.4,57.4 24.4,58.6 19.1,58.6 Z M68.6,55.7 C66.9,56.4 64.9,57.1 62.7,57.7 C60.5,58.3 58.3,58.7 56,58.7 C54.4,58.7 53,58.5 51.6,58.1 C50.2388292,57.7031715 48.9776036,57.0214278 47.9,56.1 C46.9,55.3 46.1,54.1 45.5,52.8 C44.9,51.4 44.5,49.7 44.5,47.7 L44.5,26.2 L39.3,26.2 L39.3,16.8 L44.6,16.8 L44.6,3.7 L57,3.7 L57,16.7 L65.4,16.7 L65.4,26.2 L57,26.2 L57,43.4 C57,44.7 57.3,45.7 58,46.4 C58.7,46.9 59.6,47.2 60.6,47.2 C61.6,47.2 62.6,47.1 63.5,46.7 C64.5,46.4 65.4,46.1 66.1,45.7 L68.5,55.7 L68.6,55.7 Z M92,58.6 C88.8179477,58.6555549 85.6566226,58.0776783 82.7,56.9 C77.4960999,54.8413932 73.4203638,50.6564856 71.5,45.4 C69.5353271,40.1787009 69.5353271,34.4212991 71.5,29.2 C73.4203638,23.9435144 77.4960999,19.7586068 82.7,17.7 C85.4,16.6 88.5,16 92,16 C98.0873349,15.7134608 103.998926,18.0853956 108.2,22.5 C110.1,24.4 111.5,26.7 112.5,29.2 C114.547009,34.4405305 114.547009,40.2594695 112.5,45.5 C110.567426,50.6916496 106.538278,54.8296936 101.4,56.9 C98.4122323,58.0908066 95.2155911,58.6689225 92,58.6 Z M83,37.4 C83,40.6 83.8,43.2 85.5,45.1 C87.3,47.1 89.5,48.1 92.1,48.1 C94.6118329,48.1485298 97.0073019,47.0429288 98.6,45.1 C99.4,44.1 100,43.1 100.5,41.7 C101,40.4 101.2,38.9 101.2,37.4 C101.2,34.1 100.3,31.5 98.6,29.6 C96.9,27.6 94.7,26.6 92.1,26.6 C89.5973395,26.5943349 87.2193663,27.691861 85.6,29.6 C84.8,30.6 84.1,31.6 83.6,33 C83.149124,34.4213993 82.9461635,35.9097763 83,37.4 Z M146.3,27.5 C143.3,27.5 140.5,28 138,29 C135.799207,29.7420516 133.925332,31.2270092 132.7,33.2 L132.7,57.9 L120.2,57.9 L120.2,16.8 L131.7,16.8 L131.7,25 C133.1,22.2 134.9,20 137.2,18.5 C139.4,16.9 141.7,16.1 144.2,16 L145.5,16 L146.3,16.1 L146.3,27.4 L146.3,27.5 Z M151.8,64 C153.539058,64.6045509 155.359781,64.9417219 157.2,65 C158.7,65 159.9,64.5 160.8,63.5 C161.6,62.5 162.3,60.5 163,57.9 L147.4,16.8 L160.3,16.8 L169.8,47.1 L178.1,16.8 L189.8,16.8 L174.1,64.5 C171.637318,72.601837 163.381086,77.4686687 155.1,75.7 C154.1,75.5 152.9,75.2 151.8,74.7 L151.8,64 Z M219.4,58.6 C216.3,58.6 213.5,58 211.2,56.6 C208.863182,55.3163771 206.925516,53.413312 205.6,51.1 L205.6,57.9 L194.7,57.9 L194.7,0.7 L207.3,0.7 L207.3,23.5 C210.035261,18.7135714 215.189813,15.8285607 220.7,16 C223.3,16 225.7,16.5 227.9,17.7 C230.1,18.7 231.9,20.3 233.6,22.2 C238.522485,29.0311793 239.861914,37.8118785 237.2,45.8 C236.2,48.4 234.8,50.7 233.1,52.6 C229.588808,56.4494908 224.610197,58.6299045 219.4,58.6 Z M215.9,48.1 C219.959226,48.1085522 223.575417,45.5370389 224.9,41.7 C226.366305,37.6715858 225.64781,33.1715387 223,29.8 C221.43666,27.7412861 218.984583,26.5524003 216.4,26.6 C214.5,26.6 212.7,27.3 211,28.6 C209.4,30 208.1,31.7 207.2,33.8 L207.2,42.4 C208.813803,45.8023458 212.234382,47.9790778 216,48 L215.9,48.1 Z M244.7,0.7 L257.2,0.7 L257.2,43.2 C257.2,46.4 258.5,47.9 261.2,47.9 C262.627547,47.9041559 264.034675,47.5609541 265.3,46.9 L267,56.2 C263.497628,57.733941 259.72323,58.5500269 255.9,58.6 C252.3,58.6 249.5,57.6 247.6,55.8 C245.6,53.8 244.6,51.2 244.6,47.6 L244.6,0.7 L244.7,0.7 Z M290.6,58.6 C287.417948,58.6555549 284.256623,58.0776783 281.3,56.9 C276.06535,54.8540716 271.953785,50.6697357 270,45.4 C267.108268,37.5404422 268.717082,28.7302739 274.2,22.4 C276.2,20.4 278.4,18.9 281.2,17.7 C283.9,16.6 287,16 290.5,16 C296.587335,15.7134608 302.498926,18.0853956 306.7,22.5 C308.7,24.4 310,26.7 311,29.2 C314.005892,37.0493405 312.386099,45.9196318 306.8,52.2 C304.9,54.2 302.6,55.8 299.8,56.9 C296.843377,58.0776783 293.682052,58.6555549 290.5,58.6 L290.6,58.6 Z M281.5,37.4 C281.5,40.6 282.3,43.2 284,45.1 C285.8,47.1 288,48.1 290.6,48.1 C293.108729,48.1338215 295.498123,47.031024 297.1,45.1 C297.9,44.1 298.5,43.1 299,41.7 C299.5,40.4 299.7,38.9 299.7,37.4 C299.7,34.1 298.8,31.5 297.1,29.6 C295.4,27.6 293.2,26.6 290.6,26.6 C288.097339,26.5943349 285.719366,27.691861 284.1,29.6 C283.3,30.6 282.6,31.6 282.1,33 C281.6,34.4 281.5,35.8 281.5,37.4 Z M346.4,57.9 L335.7,41.3 L331.3,45.9 L331.3,57.9 L318.8,57.9 L318.8,0.7 L331.3,0.7 L331.3,33.8 L345.2,16.8 L358.5,16.8 L343.7,34.5 L359.7,57.9 L346.4,57.9 Z" id="Shape"></path>
            </g>
            <g id="icon" fill="#09B3AF">
                <path d="M51.8,49 L31,49 L31,59 L51.3,59 C52.5,59 53.6,58.5 54.5,57.7 C55.3,56.9 55.8,55.7 55.8,54.2 C55.8290035,52.9130708 55.4433501,51.6509323 54.7,50.6 C53.9,49.6 53,49 51.8,49 Z M52.5,36.9 C53.4,36.3 53.8,35 53.8,33.3 C53.8,31.8 53.4,30.7 52.7,30 C52,29.4 51.1,29 50.1,29 L31,29 L31,38 L49.7,38 C50.7,38 51.7,37.5 52.5,36.9 Z" id="Shape"></path>
                <path d="M83,0 L4.5,0 C2,0 0,2 0,4.4 L0,83 C0,85.4 2,86.9 4.4,86.9 L16,86.9 L16,102.6 L30.4,87 L83,87 C85.4,87 86.9,85.5 86.9,83 L86.9,4.5 C86.9,2.1 85.4,0.1 82.9,0.1 L83,0 Z M69.8,63.7 C68.8,65.5 67.3,67 65.5,68.1 C63.6,69.3 61.5,70.4 59.1,70.9 C56.7,71.5 54.1,72 51.4,72 L16,72 L16,16 L56.2,16 C58.2,16 59.9,16.4 61.5,17.3 C63,18.1 64.4,19.2 65.5,20.5 C67.7403434,23.2320077 68.9444137,26.6671496 68.9,30.2 C68.9,32.8 68.2,35.3 66.9,37.7 C65.5522265,40.1140117 63.4421536,42.0130773 60.9,43.1 C64.1,44 66.6,45.6 68.5,47.9 C70.3,50.3 71.2,53.4 71.2,57.3 C71.2,59.8 70.7,61.9 69.7,63.7 L69.8,63.7 Z" id="Shape"></path>
            </g>
        </g>
    </g>
</svg>