<svg width="113" height="23" fill="none" xmlns="http://www.w3.org/2000/svg"><path fill-rule="evenodd" clip-rule="evenodd" d="M34.71 0H3.551A3.553 3.553 0 000 3.568V15.46a3.566 3.566 0 003.568 3.568h14.757l6.745 3.756-1.534-3.756h11.173a3.566 3.566 0 003.568-3.568V3.568A3.566 3.566 0 0034.709 0zM2.894 2.754c-.438.031-.767.188-.986.485-.219.282-.297.642-.25 1.049.923 5.868 1.784 9.827 2.582 11.877.313.751.673 1.111 1.095 1.08.658-.047 1.44-.955 2.363-2.723a293.572 293.572 0 012.254-4.507c.845 2.958 2.003 5.18 3.458 6.667.407.422.83.61 1.236.579.36-.032.642-.22.83-.564.156-.297.219-.641.188-1.033-.094-1.424.047-3.411.438-5.962.407-2.629.907-4.522 1.518-5.649.125-.235.172-.47.156-.751a1.226 1.226 0 00-.485-.892 1.36 1.36 0 00-.986-.313c-.454.031-.798.25-1.033.688-.97 1.769-1.658 4.633-2.065 8.607-.595-1.502-1.096-3.27-1.487-5.352-.172-.923-.595-1.361-1.283-1.314-.47.031-.86.344-1.174.939L5.837 12.19c-.563-2.269-1.095-5.039-1.58-8.31-.11-.813-.564-1.188-1.362-1.126zM33.05 3.881c1.111.235 1.94.83 2.504 1.815.501.845.751 1.862.751 3.083 0 1.612-.407 3.083-1.22 4.429-.94 1.565-2.16 2.347-3.678 2.347-.266 0-.547-.031-.845-.094-1.11-.235-1.94-.83-2.504-1.815-.5-.86-.75-1.894-.75-3.099 0-1.612.406-3.082 1.22-4.413.955-1.565 2.175-2.347 3.677-2.347.266 0 .548.031.845.094zm-.657 8.466c.58-.516.97-1.283 1.19-2.316.062-.36.109-.751.109-1.158 0-.454-.094-.939-.282-1.424-.234-.61-.547-.94-.923-1.017-.563-.11-1.111.203-1.627.97a5.06 5.06 0 00-.83 1.862c-.078.36-.11.751-.11 1.143 0 .453.095.938.282 1.424.235.61.548.938.924 1.017.39.078.813-.094 1.267-.501zm-6.65-6.65c-.564-.987-1.409-1.581-2.504-1.816a4.109 4.109 0 00-.846-.094c-1.502 0-2.722.782-3.677 2.347-.814 1.33-1.22 2.801-1.22 4.413 0 1.205.25 2.238.75 3.099.564.986 1.393 1.58 2.504 1.815.298.063.58.094.846.094 1.517 0 2.738-.782 3.677-2.347.814-1.346 1.22-2.817 1.22-4.429 0-1.22-.25-2.238-.75-3.083zM23.77 10.03c-.22 1.033-.61 1.8-1.19 2.316-.453.407-.876.579-1.267.5-.376-.078-.689-.406-.924-1.016a3.971 3.971 0 01-.281-1.425c0-.39.031-.782.11-1.142a5.06 5.06 0 01.829-1.862c.516-.767 1.064-1.08 1.627-.97.376.078.689.407.924 1.017.187.485.281.97.281 1.424 0 .407-.031.798-.11 1.158z" fill="#7f54b3"/><path d="M42.236 5.555c-1.048 1.033-1.565 2.348-1.565 3.944 0 1.705.517 3.098 1.55 4.147 1.032 1.048 2.378 1.58 4.053 1.58.485 0 1.032-.078 1.627-.25V12.44c-.548.156-1.017.234-1.424.234-.83 0-1.487-.281-1.987-.829-.501-.563-.752-1.314-.752-2.269 0-.892.25-1.627.736-2.19.5-.58 1.111-.861 1.862-.861.485 0 1.002.078 1.565.234V4.225a6.537 6.537 0 00-1.706-.203c-1.596-.016-2.91.5-3.959 1.533zm10.86-1.549c-1.44 0-2.566.485-3.38 1.44-.813.954-1.205 2.3-1.205 4.021 0 1.863.407 3.287 1.205 4.273.798.986 1.972 1.486 3.506 1.486 1.486 0 2.629-.5 3.427-1.486s1.205-2.379 1.205-4.163c0-1.784-.407-3.161-1.22-4.131-.83-.955-2.004-1.44-3.538-1.44zm1.237 8.137c-.282.439-.704.658-1.236.658-.501 0-.877-.22-1.143-.658-.266-.438-.391-1.314-.391-2.644 0-2.05.516-3.067 1.565-3.067 1.095 0 1.658 1.032 1.658 3.114-.015 1.283-.172 2.16-.453 2.597zm11.251-7.84l-.563 2.395c-.141.61-.282 1.236-.407 1.877l-.313 1.66a142.34 142.34 0 00-1.22-5.932H59.45L58.088 14.96h2.723l.736-7.34 1.862 7.34h1.94l1.784-7.323.767 7.323h2.848l-1.44-10.657h-3.724zm13.036 0l-.564 2.395c-.14.61-.281 1.236-.407 1.877l-.313 1.66a142.34 142.34 0 00-1.22-5.932h-3.63L71.123 14.96h2.723l.735-7.34 1.862 7.34h1.94l1.77-7.323.766 7.323h2.848l-1.44-10.657H78.62zm8.857 6.448h2.55V8.544h-2.55V6.588h2.942V4.32h-5.822v10.657h5.838v-2.27h-2.958v-1.955zM98.54 9.06c.298-.486.454-.986.454-1.503 0-1.001-.39-1.8-1.173-2.378-.783-.58-1.862-.877-3.208-.877h-3.35V14.96h2.88v-4.85h.047l2.332 4.85h3.036l-2.3-4.804c.547-.25.985-.61 1.282-1.095zm-4.412-.173V6.353c.688.016 1.173.126 1.47.345.298.219.439.563.439 1.064 0 .735-.642 1.11-1.91 1.126zm6.556-3.333C99.636 6.588 99.12 7.903 99.12 9.5c0 1.705.516 3.098 1.549 4.147 1.033 1.048 2.378 1.58 4.053 1.58.485 0 1.033-.078 1.627-.25V12.44c-.547.156-1.017.234-1.424.234-.829 0-1.486-.281-1.987-.829-.501-.563-.751-1.314-.751-2.269 0-.892.25-1.627.735-2.19.501-.58 1.111-.861 1.862-.861.485 0 1.002.078 1.565.234V4.225a6.53 6.53 0 00-1.705-.203c-1.581-.016-2.911.5-3.96 1.533zm9.343 7.12v-1.94h2.55V8.529h-2.55V6.572h2.957V4.303h-5.821V14.96H113v-2.269h-2.973v-.016z" fill="#000"/></svg>