<svg width="105" height="14" viewBox="0 0 105 14" fill="none" xmlns="http://www.w3.org/2000/svg">
<path fill-rule="evenodd" clip-rule="evenodd" d="M63.9624 10.7306L61.79 4.45898H59.2452L62.6504 13.421H65.2852L68.6904 4.45898H66.1456L63.9624 10.7306Z" fill="#002855"/>
<mask id="mask0_2413_1210" style="mask-type:alpha" maskUnits="userSpaceOnUse" x="68" y="4" width="11" height="10">
<path d="M68.6918 4.2085H78.1734V13.6721H68.6918V4.2085Z" fill="white"/>
</mask>
<g mask="url(#mask0_2413_1210)">
<path fill-rule="evenodd" clip-rule="evenodd" d="M73.4234 4.2085C72.097 4.2085 70.9774 4.6653 70.063 5.5793C69.149 6.4937 68.6918 7.6137 68.6918 8.9401C68.6918 10.2665 69.149 11.3865 70.063 12.3001C70.9774 13.2149 72.097 13.6721 73.4234 13.6721C74.7498 13.6721 75.8726 13.2149 76.793 12.3001C77.713 11.3865 78.1734 10.2665 78.1734 8.9401C78.1734 7.6137 77.713 6.4937 76.793 5.5793C75.8726 4.6653 74.7498 4.2085 73.4234 4.2085ZM75.1622 10.7145C74.6962 11.1805 74.1162 11.4133 73.4234 11.4133C72.7302 11.4133 72.1538 11.1805 71.6942 10.7145C71.2338 10.2485 71.0038 9.6569 71.0038 8.9401C71.0038 8.2229 71.2338 7.6321 71.6942 7.1657C72.1538 6.6997 72.7302 6.4665 73.4234 6.4665C74.1162 6.4665 74.6962 6.6997 75.1622 7.1657C75.6282 7.6321 75.861 8.2229 75.861 8.9401C75.861 9.6569 75.6282 10.2485 75.1622 10.7145Z" fill="#002855"/>
</g>
<path fill-rule="evenodd" clip-rule="evenodd" d="M79.4044 13.4206H81.7164V4.45898H79.4044V13.4206Z" fill="#002855"/>
<path fill-rule="evenodd" clip-rule="evenodd" d="M89.1299 11.0636C88.7651 11.2728 88.3503 11.3772 87.8843 11.3772C87.1911 11.3772 86.6179 11.1476 86.1639 10.6872C85.7095 10.2272 85.4827 9.64441 85.4827 8.93921C85.4827 8.22241 85.7095 7.6344 86.1639 7.174C86.6179 6.714 87.1911 6.48441 87.8843 6.48441C88.3383 6.48441 88.7475 6.592 89.1119 6.8064C89.4763 7.022 89.7483 7.3148 89.9275 7.6852L91.9171 6.52041C91.5463 5.81481 91.0027 5.25361 90.2859 4.83561C89.5691 4.41721 88.7743 4.20801 87.9023 4.20801C86.5519 4.20801 85.4255 4.66241 84.5235 5.57001C83.6215 6.47841 83.1707 7.60161 83.1707 8.93921C83.1707 10.2776 83.6215 11.4016 84.5235 12.3088C85.4255 13.2176 86.5519 13.6716 87.9023 13.6716C88.7743 13.6716 89.5691 13.4592 90.2859 13.0356C91.0027 12.6112 91.5587 12.0468 91.9527 11.3408L89.9455 10.1944C89.7659 10.5652 89.4943 10.8548 89.1299 11.0636Z" fill="#002855"/>
<path fill-rule="evenodd" clip-rule="evenodd" d="M97.4926 4.2085C96.1066 4.2085 94.9714 4.65969 94.0874 5.56169C93.203 6.46409 92.761 7.59009 92.761 8.94009C92.761 10.3021 93.209 11.4317 94.1054 12.3277C95.0014 13.2237 96.1902 13.6721 97.6718 13.6721C99.3926 13.6721 100.695 13.0325 101.579 11.7541L99.715 10.6789C99.2606 11.2765 98.5918 11.5749 97.7078 11.5749C96.3334 11.5749 95.4914 11.0137 95.1806 9.89009H101.937C101.997 9.55569 102.027 9.23929 102.027 8.94009C102.027 7.60169 101.6 6.4785 100.746 5.5705C99.891 4.6629 98.807 4.2085 97.4926 4.2085ZM95.145 8.09769C95.2758 7.52409 95.545 7.0793 95.9514 6.7625C96.3574 6.4461 96.871 6.28729 97.4926 6.28729C98.0182 6.28729 98.4874 6.43729 98.8994 6.73529C99.3122 7.03449 99.5834 7.48849 99.715 8.09769H95.145Z" fill="#002855"/>
<path fill-rule="evenodd" clip-rule="evenodd" d="M5.2156 4.18214C3.9612 4.18214 2.9932 4.61854 2.312 5.49054V0.848145H0V13.3945H2.312V12.3369C2.9932 13.2097 3.9612 13.6457 5.2156 13.6457C6.4224 13.6457 7.4528 13.1889 8.3072 12.2741C9.1616 11.3601 9.5888 10.2405 9.5888 8.91374C9.5888 7.58734 9.1616 6.46734 8.3072 5.55294C7.4528 4.63894 6.4224 4.18214 5.2156 4.18214ZM6.5688 10.7329C6.0964 11.2053 5.5024 11.4409 4.7852 11.4409C4.0684 11.4409 3.4768 11.2053 3.0112 10.7329C2.5452 10.2609 2.312 9.65454 2.312 8.91374C2.312 8.17334 2.5452 7.56694 3.0112 7.09454C3.4768 6.62254 4.0684 6.38694 4.7852 6.38694C5.5024 6.38694 6.0964 6.62254 6.5688 7.09454C7.0408 7.56694 7.2768 8.17334 7.2768 8.91374C7.2768 9.65454 7.0408 10.2609 6.5688 10.7329Z" fill="#002855"/>
<path fill-rule="evenodd" clip-rule="evenodd" d="M18.3195 5.49053C17.6263 4.61853 16.6527 4.18213 15.3979 4.18213C14.2031 4.18213 13.1783 4.63893 12.3239 5.55293C11.4699 6.46733 11.0427 7.58733 11.0427 8.91373C11.0427 10.2397 11.4699 11.3601 12.3239 12.2741C13.1783 13.1885 14.2031 13.6453 15.3979 13.6453C16.6527 13.6453 17.6263 13.2093 18.3195 12.3369V13.3945H20.6315V4.43293H18.3195V5.49053ZM17.6115 10.7325C17.1395 11.2049 16.5451 11.4409 15.8283 11.4409C15.1115 11.4409 14.5199 11.2049 14.0539 10.7325C13.5875 10.2609 13.3547 9.65453 13.3547 8.91373C13.3547 8.17293 13.5875 7.56613 14.0539 7.09453C14.5199 6.62253 15.1115 6.38653 15.8283 6.38653C16.5451 6.38653 17.1395 6.62253 17.6115 7.09453C18.0831 7.56613 18.3195 8.17293 18.3195 8.91373C18.3195 9.65453 18.0831 10.2609 17.6115 10.7325Z" fill="#002855"/>
<path fill-rule="evenodd" clip-rule="evenodd" d="M29.1996 5.96951V4.43311H22.4852V6.60151H26.0872L22.3092 11.8555V13.3947H29.3756V11.2259H25.3968L29.1996 5.96951Z" fill="#002855"/>
<path fill-rule="evenodd" clip-rule="evenodd" d="M37.6769 5.49053C36.9837 4.61853 36.0101 4.18213 34.7553 4.18213C33.5605 4.18213 32.5357 4.63893 31.6817 5.55293C30.8273 6.46733 30.4001 7.58733 30.4001 8.91373C30.4001 10.2397 30.8273 11.3601 31.6817 12.2741C32.5357 13.1885 33.5605 13.6453 34.7553 13.6453C36.0101 13.6453 36.9837 13.2093 37.6769 12.3369V13.3945H39.9889V4.43293H37.6769V5.49053ZM36.9689 10.7325C36.4969 11.2049 35.9025 11.4409 35.1857 11.4409C34.4689 11.4409 33.8773 11.2049 33.4113 10.7325C32.9449 10.2609 32.7121 9.65453 32.7121 8.91373C32.7121 8.17293 32.9449 7.56613 33.4113 7.09453C33.8773 6.62253 34.4689 6.38653 35.1857 6.38653C35.9025 6.38653 36.4969 6.62253 36.9689 7.09453C37.4405 7.56613 37.6769 8.17293 37.6769 8.91373C37.6769 9.65453 37.4405 10.2609 36.9689 10.7325Z" fill="#002855"/>
<path fill-rule="evenodd" clip-rule="evenodd" d="M48.7757 5.49053C48.0825 4.61853 47.1089 4.18213 45.8541 4.18213C44.6593 4.18213 43.6345 4.63893 42.7801 5.55293C41.9261 6.46733 41.4989 7.58733 41.4989 8.91373C41.4989 10.2397 41.9261 11.3601 42.7801 12.2741C43.6345 13.1885 44.6593 13.6453 45.8541 13.6453C47.1089 13.6453 48.0825 13.2093 48.7757 12.3369V13.3945H51.0877V4.43293H48.7757V5.49053ZM48.0677 10.7325C47.5957 11.2049 47.0013 11.4409 46.2845 11.4409C45.5677 11.4409 44.9761 11.2049 44.5101 10.7325C44.0437 10.2609 43.8109 9.65453 43.8109 8.91373C43.8109 8.17293 44.0437 7.56613 44.5101 7.09453C44.9761 6.62253 45.5677 6.38653 46.2845 6.38653C47.0013 6.38653 47.5957 6.62253 48.0677 7.09453C48.5393 7.56613 48.7757 8.17293 48.7757 8.91373C48.7757 9.65453 48.5393 10.2609 48.0677 10.7325Z" fill="#002855"/>
<path fill-rule="evenodd" clip-rule="evenodd" d="M55.2445 5.9743V4.43311H52.9325V13.3947H55.2445V9.11111C55.2445 8.25071 55.5221 7.63551 56.0781 7.26511C56.6337 6.89431 57.2637 6.7515 57.9689 6.8347V4.25391C57.3593 4.25391 56.8065 4.39711 56.3109 4.68391C55.8153 4.97071 55.4597 5.4011 55.2445 5.9743Z" fill="#002855"/>
<path fill-rule="evenodd" clip-rule="evenodd" d="M101.807 4.21952C101.807 3.58592 102.301 3.09473 102.935 3.09473C103.565 3.09473 104.063 3.58592 104.063 4.21952C104.063 4.85352 103.565 5.34792 102.935 5.34792C102.301 5.34792 101.807 4.85352 101.807 4.21952ZM103.851 4.21952C103.851 3.69352 103.448 3.30072 102.935 3.30072C102.418 3.30072 102.025 3.69352 102.025 4.21952C102.025 4.75512 102.418 5.14192 102.935 5.14192C103.452 5.14192 103.851 4.75512 103.851 4.21952ZM102.777 4.42873V4.89472H102.479V3.58273L103.023 3.58592C103.277 3.58592 103.464 3.74113 103.464 3.98833C103.464 4.16553 103.366 4.30193 103.22 4.37473L103.524 4.89472H103.153L102.913 4.42873H102.777ZM102.916 4.18793C103.049 4.18793 103.151 4.15632 103.151 3.99472C103.151 3.88032 103.058 3.82672 102.925 3.82672H102.777V4.18793H102.916Z" fill="#002855"/>
</svg>
