<svg xmlns="http://www.w3.org/2000/svg" width="180" height="40"><g fill="#242A35" fill-rule="evenodd"><path fill-rule="nonzero" d="M24.561 5.384V10.3a13.556 13.556 0 016.792 11.757c0 7.487-6.04 13.556-13.49 13.556s-13.49-6.069-13.49-13.556c0-5.152 2.86-9.633 7.07-11.926V5.28A17.955 17.955 0 000 22.034C0 31.956 7.998 40 17.863 40c9.865 0 17.862-8.044 17.862-17.967 0-7.538-4.62-13.982-11.164-16.649m-8.56 22.525v-5.448c0-.674.546-1.22 1.216-1.22h1.523c.671 0 1.216.546 1.216 1.22v5.376a5.867 5.867 0 003.768-5.476c0-2.154-1.164-4.015-2.885-5.04V2.172c0-1.17-.944-2.119-2.11-2.119h-1.5c-1.166 0-2.11.95-2.11 2.119v15.023C13.272 18.185 12 20.113 12 22.36c0 2.59 1.682 4.764 4 5.548"/><path d="M42.656 20.666v-.04c0-4.078 3.056-7.417 7.406-7.417 2.216 0 3.672.656 4.924 1.618.267.205.493.553.493 1.004 0 .696-.555 1.23-1.252 1.23-.349 0-.595-.124-.76-.247-.985-.798-2.051-1.29-3.425-1.29-2.73 0-4.74 2.254-4.74 5.061v.041c0 2.806 1.99 5.08 4.74 5.08 1.518 0 2.544-.492 3.59-1.372.185-.164.451-.287.758-.287.636 0 1.19.532 1.19 1.167 0 .39-.184.697-.41.902-1.353 1.188-2.892 1.926-5.211 1.926-4.185 0-7.303-3.258-7.303-7.376m23.287 1.783v-.04c0-1.907-1.376-3.484-3.324-3.484-1.99 0-3.262 1.557-3.262 3.443v.041c0 1.884 1.375 3.462 3.304 3.462 2.01 0 3.282-1.558 3.282-3.422m-9.069 0v-.04c0-3.096 2.463-5.656 5.787-5.656 3.322 0 5.764 2.52 5.764 5.615v.041c0 3.073-2.462 5.634-5.806 5.634-3.303 0-5.745-2.52-5.745-5.594m13.604-4.343c0-.697.532-1.25 1.23-1.25s1.252.553 1.252 1.25v.531c.698-1.003 1.703-1.884 3.386-1.884 2.44 0 3.856 1.64 3.856 4.14v5.777c0 .697-.532 1.229-1.23 1.229s-1.252-.532-1.252-1.23v-5.02c0-1.68-.842-2.641-2.318-2.641-1.437 0-2.442 1.003-2.442 2.683v4.979c0 .697-.554 1.229-1.251 1.229a1.22 1.22 0 01-1.231-1.23v-8.563zm11.838 8.604c-.266-.143-.472-.45-.472-.86a.993.993 0 011.006-1.004c.205 0 .39.062.534.143 1.045.697 2.132 1.045 3.118 1.045 1.066 0 1.682-.45 1.682-1.167v-.041c0-.84-1.148-1.128-2.42-1.516-1.601-.451-3.386-1.107-3.386-3.176v-.041c0-2.05 1.703-3.298 3.857-3.298 1.149 0 2.36.326 3.406.88.349.184.595.512.595.943 0 .574-.451 1.004-1.026 1.004a.991.991 0 01-.493-.123c-.882-.45-1.785-.738-2.544-.738-.964 0-1.518.45-1.518 1.065v.041c0 .798 1.17 1.128 2.442 1.538 1.579.49 3.365 1.208 3.365 3.154v.041c0 2.275-1.766 3.4-4.022 3.4a7.42 7.42 0 01-4.124-1.29m10.526-1.905V19.11h-.41a1.059 1.059 0 01-1.066-1.066c0-.595.471-1.065 1.065-1.065h.41v-1.845a1.24 1.24 0 011.252-1.229c.677 0 1.232.554 1.232 1.229v1.845h1.948c.596 0 1.089.47 1.089 1.065 0 .594-.493 1.066-1.089 1.066h-1.948v5.306c0 .963.492 1.353 1.334 1.353.287 0 .533-.063.614-.063.555 0 1.047.451 1.047 1.025 0 .451-.307.819-.657.963a4.968 4.968 0 01-1.702.287c-1.827 0-3.12-.799-3.12-3.176m7.449-6.699c0-.697.533-1.25 1.23-1.25s1.252.553 1.252 1.25v1.105c.575-1.351 1.643-2.376 2.73-2.376.779 0 1.23.512 1.23 1.23 0 .654-.43 1.085-.984 1.187-1.765.308-2.976 1.66-2.976 4.221v3.197a1.24 1.24 0 01-1.252 1.229 1.22 1.22 0 01-1.23-1.23v-8.563zm17.624 8.564a1.24 1.24 0 01-1.252 1.23c-.676 0-1.251-.534-1.251-1.23v-.554c-.697 1.025-1.703 1.906-3.385 1.906-2.441 0-3.857-1.64-3.857-4.159v-5.758c0-.696.554-1.25 1.23-1.25.698 0 1.251.554 1.251 1.25v5.02c0 1.68.842 2.622 2.32 2.622 1.435 0 2.44-.983 2.44-2.664v-4.978c0-.696.555-1.25 1.252-1.25.677 0 1.252.554 1.252 1.25v8.564zm2.032-4.221v-.04c0-3.075 2.38-5.656 5.643-5.656 1.702 0 2.871.553 3.795 1.352.163.144.389.451.389.861 0 .636-.511 1.126-1.148 1.126-.308 0-.574-.123-.738-.246-.636-.533-1.334-.92-2.319-.92-1.806 0-3.14 1.556-3.14 3.442v.041c0 1.925 1.334 3.462 3.243 3.462.984 0 1.744-.39 2.42-.963.144-.123.39-.267.678-.267.595 0 1.066.492 1.066 1.087 0 .326-.123.593-.349.777-.965.923-2.133 1.538-3.938 1.538-3.222 0-5.602-2.52-5.602-5.594m12.352 2.356V19.11h-.41a1.059 1.059 0 01-1.068-1.066c0-.595.472-1.065 1.067-1.065h.41v-1.845a1.24 1.24 0 011.252-1.229c.677 0 1.23.554 1.23 1.229v1.845h1.949c.595 0 1.09.47 1.09 1.065 0 .594-.495 1.066-1.09 1.066h-1.949v5.306c0 .963.493 1.353 1.335 1.353.286 0 .534-.063.614-.063.554 0 1.046.451 1.046 1.025 0 .451-.306.819-.655.963a4.973 4.973 0 01-1.703.287c-1.826 0-3.118-.799-3.118-3.176m15.612-2.356v-.04c0-1.907-1.375-3.484-3.323-3.484-1.99 0-3.262 1.557-3.262 3.443v.041c0 1.884 1.374 3.462 3.304 3.462 2.008 0 3.282-1.558 3.282-3.422m-9.069 0v-.04c0-3.096 2.463-5.656 5.787-5.656 3.322 0 5.763 2.52 5.763 5.615v.041c0 3.073-2.461 5.634-5.805 5.634-3.303 0-5.745-2.52-5.745-5.594m13.603-4.343c0-.697.534-1.25 1.23-1.25.698 0 1.252.553 1.252 1.25v1.105c.575-1.351 1.643-2.376 2.73-2.376.78 0 1.23.512 1.23 1.23 0 .654-.43 1.085-.984 1.187-1.765.308-2.976 1.66-2.976 4.221v3.197c0 .675-.554 1.229-1.251 1.229a1.22 1.22 0 01-1.231-1.23v-8.563zm7.366 6.76c.82 0 1.435.615 1.435 1.414v.205c0 .8-.614 1.414-1.435 1.414-.841 0-1.457-.615-1.457-1.414v-.205c0-.799.616-1.414 1.457-1.414m3.981-6.76c0-.697.533-1.25 1.23-1.25.698 0 1.251.553 1.251 1.25v8.564c0 .697-.553 1.229-1.251 1.229a1.22 1.22 0 01-1.23-1.23v-8.563zm-.185-4.036c0-.738.616-1.21 1.415-1.21.8 0 1.417.472 1.417 1.21v.121c0 .738-.617 1.23-1.417 1.23s-1.415-.492-1.415-1.23v-.121zm13.911 8.379v-.04c0-1.907-1.375-3.484-3.325-3.484-1.99 0-3.26 1.557-3.26 3.443v.041c0 1.884 1.373 3.462 3.302 3.462 2.01 0 3.283-1.558 3.283-3.422m-9.07 0v-.04c0-3.096 2.463-5.656 5.787-5.656S180 19.273 180 22.368v.041c0 3.073-2.462 5.634-5.807 5.634-3.301 0-5.745-2.52-5.745-5.594"/></g></svg>