<svg id="Layer_1" data-name="Layer 1" xmlns="http://www.w3.org/2000/svg" viewBox="0 0 501 100"><defs><clipPath id="clip-path"><path style="fill:none" d="M6.28 5.25h488.24v89.5H6.28z"/></clipPath><style>.cls-3{fill:#344da1}.cls-4{fill:#333}</style></defs><g style="clip-path:url(#clip-path)"><path class="cls-3" d="M34.77 54a7.7 7.7 0 0 1-5.44-13.14l15.28-15.31a2.88 2.88 0 1 0-4.07-4.07L25.1 36.92A7.69 7.69 0 0 1 14.22 26l15.44-15.4a18.26 18.26 0 0 1 25.83 25.83L40.21 51.71A7.68 7.68 0 0 1 34.77 54ZM74.51 55.45 52.09 77.88a2.89 2.89 0 0 1-4.07 0 2.86 2.86 0 0 1 0-4.07l5.6-5.61 16.82-16.82a2.89 2.89 0 0 1 4.92 2 2.84 2.84 0 0 1-.85 2Zm10.88-15a18.26 18.26 0 0 0-25.83 0L42.74 57.32l-5.6 5.61-18.69 18.69A7.69 7.69 0 0 0 29.33 92.5l5.93-5.94a18.54 18.54 0 0 0 1.88 2.2 18.26 18.26 0 0 0 25.83 0l22.42-22.43a18.26 18.26 0 0 0 0-25.83Z"/><path class="cls-3" d="M74.57 40.44a10.57 10.57 0 0 0-14.95 0L44.86 55.2l-.26.25a13.45 13.45 0 1 1-19-19l.25-.26L40.6 21.43a2.88 2.88 0 0 1 4.06 4.06 10.57 10.57 0 0 0-15-14.95L15 25.3a3.07 3.07 0 0 0-.26.25 28.85 28.85 0 0 0-.3 40.45 2.44 2.44 0 0 0 .27.29 28.83 28.83 0 0 0 40.78 0 3.07 3.07 0 0 0 .25-.26l14.76-14.7a2.88 2.88 0 0 1 4.06 4.06 10.57 10.57 0 0 0 0-15Z"/><path class="cls-4" d="M138 46.79a7.59 7.59 0 0 0-7.84-5.79c-4.21 0-7 2.07-8 5.83Zm-6.78 13.43a9.65 9.65 0 0 0 7.08-2.8l8.85 5.09c-3.61 5-9.07 7.59-16.08 7.59-12.61 0-20.43-8.48-20.43-19.47s8-19.48 19.62-19.48C141 31.15 149 39.49 149 50.63a21 21 0 0 1-.45 4.42h-26.22c1.41 3.84 4.8 5.17 8.86 5.17ZM155.24 15.22h11.06v53.85h-11.06V15.22zM201.2 50.63c0-5.53-3.69-9-8.78-9s-8.78 3.47-8.78 9 3.69 9 8.78 9 8.78-3.47 8.78-9Zm11.06-18.44v36.88H201.2V65.6c-2.44 2.81-6 4.5-11 4.5-9.67 0-17.64-8.48-17.64-19.47s8-19.48 17.64-19.48c4.94 0 8.55 1.7 11 4.5v-3.46ZM248.63 58c0 8.48-7.37 12.09-15.34 12.09-7.38 0-13-2.8-15.86-8.77l9.57-5.45a6.06 6.06 0 0 0 6.27 4.35c2.66 0 4-.81 4-2.29 0-4.06-18.14-1.92-18.14-14.68 0-8 6.78-12.1 14.45-12.1a16.14 16.14 0 0 1 14.42 7.9l-9.44 5.09a5.37 5.37 0 0 0-4.95-3.25c-1.91 0-3.09.74-3.09 2.07 0 4.2 18.14 1.4 18.14 15ZM281 32.19h11v36.88h-11V32.19Zm-1.11-9.89a6.64 6.64 0 1 1 6.64 6.64 6.71 6.71 0 0 1-6.64-6.64ZM298.28 50.63a19.51 19.51 0 0 1 36.23-10l-9.67 5.6a7.63 7.63 0 0 0-7.15-4.13c-4.8 0-8.34 3.47-8.34 8.56s3.54 8.56 8.34 8.56a7.55 7.55 0 0 0 7.15-4.14l9.67 5.54a18.85 18.85 0 0 1-16.68 9.51 19.11 19.11 0 0 1-19.55-19.47ZM367.93 50.63c0-5.53-3.69-9-8.78-9s-8.78 3.47-8.78 9 3.69 9 8.78 9 8.78-3.47 8.78-9Zm11.06 0c0 11-8 19.47-17.63 19.47-4.94 0-8.56-1.69-11-4.5v18.23H339.3V32.19h11.07v3.46c2.43-2.8 6.05-4.5 11-4.5 9.63 0 17.63 8.49 17.63 19.48ZM412 50.63c0-5.53-3.69-9-8.78-9s-8.78 3.47-8.78 9 3.69 9 8.78 9 8.78-3.47 8.78-9Zm11.07-18.44v36.88H412V65.6c-2.43 2.81-6.05 4.5-11 4.5-9.66 0-17.63-8.48-17.63-19.47s8-19.48 17.63-19.48c4.94 0 8.56 1.7 11 4.5v-3.46ZM445.24 42.81v13.06c0 3.17 2.73 3.46 7.6 3.17v10c-14.46 1.48-18.67-2.88-18.67-13.2V42.81h-5.9V32.19h5.9v-5.68l11.07-3.36v9h7.6v10.66ZM267.09 42.81v13.06c0 3.17 2.73 3.46 7.6 3.17v10C260.23 70.55 256 66.19 256 55.87V42.81h-5.9V32.19h5.9v-5.68l11.06-3.36v9h7.6v10.66ZM494.52 46.42v22.65h-11.07v-21c0-4.58-2.87-6.72-6.41-6.72-4.06 0-6.87 2.36-6.87 7.6v20.12h-11.06V19l11.06-3.36v20.01c2-2.73 5.68-4.5 10.55-4.5 7.45 0 13.8 5.31 13.8 15.27Z"/></g></svg>