<?xml version="1.0" encoding="UTF-8"?>
<svg id="Layer_2" data-name="Layer 2" xmlns="http://www.w3.org/2000/svg" viewBox="0 0 116.33 32">
  <defs>
    <style>
      .cls-1 {
        fill-rule: evenodd;
      }
    </style>
  </defs>
  <g id="Layer_1-2" data-name="Layer 1">
    <path d="M39.16,14.16v7.6h-3.31v-6.69c0-.42-.1-.8-.31-1.14-.2-.34-.48-.62-.82-.81-.34-.2-.73-.3-1.13-.3-.8,0-1.55,.42-1.95,1.11-.2,.34-.3,.71-.3,1.14v6.69h-3.31V3.84s3.3,0,3.3,0v6.86c.41-.38,.88-.68,1.42-.9,.55-.22,1.13-.32,1.72-.32,.87,0,1.66,.21,2.36,.63,.71,.42,1.28,.99,1.7,1.7,.42,.7,.64,1.49,.64,2.35Zm9.82-4.35h3.53l-6.58,17.92h-3.5l2.16-5.97-4.32-11.95h3.62l2.35,7.44s2.74-7.44,2.73-7.44Zm13.42,0h3.31v12.11c0,.88-.18,1.68-.54,2.39-.36,.71-.86,1.34-1.47,1.84-.62,.51-1.33,.9-2.14,1.17-.8,.27-1.65,.41-2.54,.41-.85,0-1.66-.17-2.44-.5-.77-.32-1.47-.78-2.06-1.36-.59-.57-1.07-1.25-1.4-2.01l3.02-1.37c.17,.4,.4,.74,.68,1.03,.3,.29,.63,.51,1.01,.66,.38,.16,.78,.24,1.19,.24,.44,0,.86-.05,1.26-.16,.39-.09,.76-.25,1.09-.47,.32-.21,.57-.47,.76-.78,.18-.31,.28-.67,.28-1.09v-1.39c-.37,.46-.83,.83-1.34,1.11-.52,.28-1.12,.42-1.81,.42-.84,0-1.67-.16-2.44-.49-.74-.32-1.42-.78-1.99-1.35-.57-.58-1.03-1.26-1.35-2.01-.33-.77-.5-1.6-.49-2.44,0-.87,.16-1.68,.49-2.44,.32-.75,.78-1.42,1.35-1.99,.57-.58,1.25-1.04,1.99-1.36,.77-.33,1.6-.5,2.44-.49,.69,0,1.29,.14,1.81,.43,.52,.27,.97,.65,1.34,1.1v-1.22Zm-3.11,9.09c.52,0,1.03-.14,1.48-.42,.44-.29,.78-.67,1.03-1.13,.26-.48,.39-1.02,.38-1.57,0-.57-.13-1.1-.38-1.56-.24-.46-.59-.86-1.03-1.14-.44-.28-.95-.43-1.48-.42-.54,0-1.03,.14-1.48,.42-.44,.28-.79,.66-1.06,1.14-.27,.48-.4,1.02-.4,1.56,0,.57,.13,1.1,.4,1.58,.26,.47,.62,.84,1.06,1.12,.45,.28,.94,.42,1.48,.42Zm8.98,2.85V9.81s3.3,0,3.3,0v.88c.41-.38,.88-.68,1.42-.9,.55-.22,1.13-.32,1.71-.32,.44,0,.88,.06,1.32,.19l-1.31,3.33c-.28-.12-.57-.18-.88-.18-.8,0-1.55,.42-1.96,1.11-.2,.33-.3,.71-.3,1.14v6.69s-3.31,0-3.31,0Zm16.97-11.95h3.31v11.95h-3.32l-.16-1.24c-.31,.46-.72,.84-1.2,1.12-.49,.29-1.06,.43-1.71,.43-.86,0-1.72-.16-2.51-.5-1.54-.66-2.78-1.89-3.44-3.43-.33-.79-.5-1.65-.49-2.51,0-.82,.15-1.63,.47-2.39,.31-.73,.76-1.4,1.32-1.96,.56-.56,1.23-1.01,1.96-1.33,.76-.32,1.58-.48,2.4-.48,.74,0,1.4,.15,1.98,.47,.59,.31,1.11,.7,1.55,1.18l-.14-1.31h0Zm-3.17,9.09c.52,0,1.03-.14,1.47-.42,.44-.28,.79-.65,1.04-1.12,.26-.49,.39-1.03,.38-1.58,0-.55-.12-1.09-.38-1.58-.25-.46-.6-.85-1.04-1.12-.44-.28-.95-.42-1.47-.42-.53,0-1.05,.14-1.5,.42-.45,.28-.82,.67-1.07,1.14-.27,.48-.4,1.02-.39,1.56,0,.57,.13,1.1,.39,1.58,.27,.47,.63,.84,1.08,1.12,.45,.28,.96,.42,1.49,.42Zm12.31,8.83h-3.31V9.81h3.31v1.29c.38-.47,.84-.85,1.37-1.15,.53-.3,1.14-.45,1.85-.45,.84,0,1.67,.16,2.45,.49,.75,.32,1.44,.78,2.02,1.36,.57,.57,1.03,1.25,1.36,1.99,.33,.77,.5,1.6,.49,2.44,0,.87-.16,1.68-.49,2.45-.32,.75-.78,1.44-1.36,2.02-.58,.58-1.26,1.03-2.02,1.35-.77,.33-1.61,.5-2.45,.49-.7,0-1.32-.15-1.85-.45-.52-.3-.98-.69-1.37-1.15v7.24h0Zm3.17-15.07c-.54,0-1.04,.14-1.48,.43-.43,.28-.79,.67-1.03,1.12-.25,.47-.37,.99-.37,1.57s.12,1.1,.37,1.58c.26,.47,.6,.84,1.03,1.12,.44,.28,.95,.43,1.48,.42,.54,0,1.04-.14,1.49-.42,.45-.27,.82-.66,1.08-1.12,.27-.48,.42-1.02,.41-1.58,0-.57-.13-1.08-.4-1.55-.25-.47-.63-.86-1.08-1.14-.45-.29-.97-.44-1.5-.43h0Zm18.79,1.49v7.6h-3.31v-6.69c0-.42-.1-.8-.31-1.14-.2-.34-.48-.62-.82-.81-.34-.2-.73-.3-1.13-.3-.8,0-1.55,.42-1.96,1.11-.2,.34-.3,.71-.3,1.14v6.69h-3.31V3.84s3.3,0,3.3,0v6.86c.41-.38,.88-.68,1.42-.9,.55-.22,1.13-.32,1.72-.32,.87,0,1.66,.21,2.36,.63,.71,.42,1.28,.99,1.7,1.7,.42,.7,.64,1.49,.64,2.35Z"/>
    <path class="cls-1" d="M14.9,4.27l-3.72,2.13-3.73,2.13-3.72,2.13v12.8l3.72-2.13,3.72-2.13v-4.27l-3.72,2.13v-4.27l3.72-2.13,3.73-2.13v12.8l-3.73,2.13-3.72,2.13-3.72,2.13-3.72,2.13,3.72,2.13,3.72-2.13,3.72-2.13,3.73-2.13,3.73-2.13V2.13L14.9,0V4.27Z"/>
  </g>
</svg>