<svg viewBox="0 0 400 78" xmlns="http://www.w3.org/2000/svg" fill-rule="evenodd" clip-rule="evenodd" stroke-linejoin="round" stroke-miterlimit="1.414"><path d="M248.385 255.483c0 37.322-11.097 68.759-33.37 94.208-23.243 26.664-53.445 40.05-90.416 40.05-37.069 0-67.173-13.386-90.417-40.05C11.9 324.242.72 292.805.72 255.483c0-37.425 11.18-68.852 33.462-94.209 23.502-26.415 53.705-39.616 90.417-39.616 36.971 0 67.173 13.201 90.416 39.616 22.273 25.357 33.37 56.784 33.37 94.209zm-73.61 0c0-16.905-4.046-31.174-12.146-42.71-9.063-13.113-21.746-19.627-38.03-19.627-16.29 0-28.968 6.514-38.04 19.627-8.184 11.536-12.234 25.805-12.234 42.71 0 16.811 4.05 31.251 12.234 43.134 9.072 13.113 21.75 19.637 38.04 19.637 16.284 0 28.967-6.524 38.03-19.637 8.1-11.883 12.146-26.323 12.146-43.134zm339.76 0c0 34.862-10.038 65.323-30.202 91.383-21.57 28.523-49.391 42.875-83.199 42.875-23.863 0-44.106-6.954-60.659-20.686 0 3.162.352 10.824 1.059 23.073.703 12.312 1.05 22.35 1.05 30.275 0 43.769-13.03 65.597-39.084 65.597-10.658 0-19.369-3.787-26.328-11.273-6.866-7.564-10.302-16.65-10.302-27.377V164.71c0-10.39 3.524-19.374 10.566-26.938 7.041-7.486 15.762-11.263 26.151-11.263 15.665 0 27.114 7.818 34.336 23.414 15.406-18.841 36.449-28.265 63.123-28.265 33.896 0 61.629 14.079 83.287 42.349 20.076 26.152 30.202 56.613 30.202 91.476zm-73.61 0c0-16.905-4.128-31.174-12.229-42.71-9.077-13.113-21.75-19.627-38.04-19.627-16.284 0-28.962 6.514-38.034 19.627-8.101 11.536-12.147 25.805-12.147 42.71 0 16.811 4.046 31.251 12.147 43.134 9.072 13.113 21.75 19.637 38.034 19.637 16.29 0 28.963-6.524 38.04-19.637 8.101-11.883 12.229-26.323 12.229-43.134zm341.429-7.916c0 12.313-2.908 20.765-8.72 25.528-5.807 4.66-14.874 7.037-27.113 7.037H613.663c0 14.088 6.607 24.912 19.812 32.476 10.653 5.91 23.683 8.911 39.089 8.911 11.981 0 26.328-3.977 43.144-11.8 16.817-7.93 27.641-11.81 32.316-11.81 8.535 0 15.752 3.085 21.74 9.424 5.895 6.256 8.896 13.825 8.896 22.545 0 20.15-15.054 35.839-45.174 47.102-22.975 8.447-46.306 12.761-70.16 12.761-38.386 0-69.379-12.761-93.061-38.2-23.688-25.45-35.566-57.409-35.566-96.058 0-36.81 12.322-68.237 36.971-94.463 24.561-26.249 55.12-39.362 91.564-39.362 33.896 0 62.244 12.415 84.965 37.24 22.707 24.834 34.155 54.412 34.155 88.669zm-73.6-18.5c-.356-11.273-5.548-21.482-15.586-30.734-10.039-9.238-20.687-13.81-31.96-13.81-11.619 0-22.452 4.572-32.486 13.81-10.033 9.252-15.059 19.461-15.059 30.734h95.091zm320.906 117.174c0 10.751-3.43 19.813-10.29 27.386-6.96 7.491-15.68 11.278-26.331 11.278-25.708 0-38.567-20.428-38.567-61.19 0-7.837.532-20.159 1.586-37.152 1.147-16.909 1.679-29.319 1.679-37.156 0-43.237-14.001-64.884-41.91-64.884-27.913 0-41.821 21.647-41.821 64.884 0 7.837.439 20.247 1.23 37.156.883 16.993 1.322 29.315 1.322 37.152 0 40.762-12.678 61.19-38.03 61.19-10.658 0-19.369-3.787-26.24-11.278-6.954-7.573-10.389-16.635-10.389-27.386V164.632c0-10.673 3.435-19.725 10.389-27.036 6.871-7.398 15.675-11.087 26.328-11.087 17.607 0 29.841 7.818 36.707 23.414 11.888-18.841 32.926-28.265 63.04-28.265 27.909 0 50.098 7.389 66.387 22.092 16.64 15.772 24.91 37.42 24.91 64.982v137.509zm230.93-7.823c0 16.636-10.81 29.837-32.48 39.533a130.815 130.815 0 01-54.67 11.79c-37.08 0-67.18-13.386-90.42-40.05-22.28-25.449-33.46-56.886-33.46-94.208 0-37.425 11.36-69.023 34.16-94.911 22.8-25.967 52.64-38.914 89.72-38.914 21.39 0 39.79 3.168 55.12 9.424 21.38 8.452 32.03 21.652 32.03 39.616 0 9.062-2.81 17.075-8.45 24.034-5.63 6.866-12.86 10.389-21.65 10.389-6 0-14.63-2.025-25.89-5.978-11.27-4.06-20.24-5.997-26.84-5.997-17.53 0-31.18 6.251-40.95 18.748-9.07 11.273-13.65 25.713-13.65 43.589 0 16.811 4.05 31.08 12.25 42.612 9.05 13.473 21.83 20.159 38.11 20.159 7.23 0 17.08-2.113 29.67-6.437 12.6-4.211 21.67-6.412 27.3-6.412 8.19 0 15.22 3.514 21.22 10.385 5.9 6.954 8.88 14.43 8.88 22.628zm267.56 7.823c0 10.751-3.43 19.813-10.3 27.386-6.95 7.491-15.75 11.278-26.42 11.278-16.02 0-27.46-7.842-34.33-23.424-15.4 18.847-36.45 28.26-63.12 28.26-34.15 0-62.15-14.352-83.82-42.875-19.72-26.06-29.65-56.521-29.65-91.383 0-34.863 9.93-65.324 29.65-91.476 22.02-28.27 49.92-42.349 83.82-42.349 26.67 0 47.72 9.424 63.12 28.265 6.87-15.596 18.31-23.414 34.33-23.414 10.4 0 19.12 3.777 26.17 11.263 7.03 7.564 10.55 16.46 10.55 26.86v181.609zm-73.6-90.758c0-16.905-4.04-31.174-12.15-42.71-9.42-13.113-22.1-19.627-38.03-19.627-16.29 0-28.96 6.514-38.04 19.627-8.18 11.536-12.22 25.805-12.22 42.71 0 16.811 3.94 31.251 11.77 43.134 9.35 13.113 22.2 19.637 38.49 19.637 16.28 0 28.96-6.524 38.03-19.637 8.11-11.883 12.15-26.323 12.15-43.134zm261.4-95.707c0 15.758-7.66 26.586-22.98 32.481a2620.842 2620.842 0 00-42.35 14.616c-15.42 8.813-23.07 25.186-23.07 48.961v90.407c0 10.751-3.53 19.813-10.38 27.386-6.97 7.491-15.77 11.278-26.42 11.278-10.73 0-19.55-3.787-26.4-11.278-6.97-7.573-10.4-16.635-10.4-27.386V164.632c0-10.673 3.43-19.725 10.3-27.036 6.95-7.398 15.77-11.087 26.42-11.087 17.6 0 29.83 7.818 36.71 23.414 15.76-18.841 32.67-28.265 50.89-28.265 10.38 0 19.28 3.778 26.67 11.263 7.3 7.574 11.01 16.553 11.01 26.855zm192.02 3.348c0 16.372-6.43 26.674-19.18 31.085-6.27 2.196-19.4 3.338-39.38 3.338v148.694c0 10.751-3.52 19.813-10.37 27.386-6.97 7.491-15.77 11.278-26.42 11.278-10.38 0-19.2-3.787-26.25-11.278-7.03-7.573-10.55-16.635-10.55-27.386V197.547c-15.15 0-26.15-1.937-33.1-5.714-9.5-5.285-14.2-14.884-14.2-28.709 0-13.816 4.85-23.239 14.62-28.265 6.61-3.699 17.53-5.627 32.68-5.627v-31.52c0-37.063 12.22-55.549 36.8-55.549 24.47 0 36.79 18.486 36.79 55.549v31.52c19.98 0 33.11 1.142 39.38 3.338 12.75 4.402 19.18 14.625 19.18 30.554zm591.31-44.706c-.2-22.599-41.96-32.857-150.06-32.857-253.64 0-317.99-10.834-386.85-83.297 28.97 43.51 44.82 125.119 312.91 121.058 279.71-4.309 109.07 72.122 59.42 158.474 89.54-79.915 164.31-132.59 164.58-163.051v-.327zm-356.42 232.059c-.01 21.006-17.29 38.288-38.3 38.293-21.22 0-38.38-17.158-38.38-38.293v-.03c0-21.041 17.31-38.356 38.36-38.356h.02c21.15 0 38.3 17.163 38.3 38.386zm174.67 0c-.01 21.006-17.29 38.288-38.3 38.293-21.2 0-38.37-17.158-38.37-38.293v-.03c0-21.041 17.31-38.356 38.35-38.356h.02c21.15 0 38.3 17.163 38.3 38.386z" fill="url(#_Linear1)" fill-rule="nonzero" transform="scale(.16 .15984)"/><defs><linearGradient id="_Linear1" x1="0" y1="0" x2="1" y2="0" gradientUnits="userSpaceOnUse" gradientTransform="rotate(-90 818.25 -431.75) scale(384.236)"><stop offset="0" stop-color="#04b6f0"/><stop offset="1" stop-color="#3ecaf0"/></linearGradient></defs></svg>