<?xml version="1.0" encoding="utf-8"?>
<!-- Generator: Adobe Illustrator 25.4.1, SVG Export Plug-In . SVG Version: 6.00 Build 0)  -->
<svg version="1.1" id="Layer_1" xmlns="http://www.w3.org/2000/svg" xmlns:xlink="http://www.w3.org/1999/xlink" x="0px" y="0px"
	 viewBox="0 0 2688 1032" style="enable-background:new 0 0 2688 1032;" xml:space="preserve">
<style type="text/css">
	.st0{fill:#313130;}
	.st1{fill:#00E48C;}
</style>
<g>
	<g>
		<polygon class="st0" points="1788.4,524.15 1788.4,295.18 1728.77,295.18 1728.77,576.34 1914.99,576.34 1914.99,524.15 		"/>
		<path class="st0" d="M445.99,584.69c-59.61,0-103.73-30.36-119.15-70.05l50.22-27.11c11.04,25.95,37.17,47.34,70.66,47.34
			c35.96,0,51.03-17.76,51.03-33.55c0-50.76-161.84-28.99-161.84-129.68c0-52.66,46.73-84.81,103.4-84.81
			c49.83,0,87.95,24.48,108.31,64.16l-48.29,26.07c-10.9-21.15-29.65-40.36-60.02-40.36c-25.12,0-43.61,14.62-43.61,30.82
			c0,53.21,161.84,30.3,161.84,131.74C558.54,552.3,510.54,584.69,445.99,584.69"/>
		<path class="st0" d="M810.78,533.12c25.6,0,48.69-11.91,65.02-30.68l39.4,40.41c-27.08,25.84-63.88,41.84-104.42,41.84
			c-86.67,0-150.64-67.37-150.64-148.93s63.97-148.93,150.64-148.93c39.31,0,75.1,15.04,101.92,39.51l-38.64,41.48
			c-16.21-17.65-38.58-28.74-63.29-28.74c-50.79,0-89.58,44.47-89.58,97.02C721.19,488.65,759.99,533.12,810.78,533.12"/>
		<polygon class="st1" points="1625.36,295.18 1520.83,512.68 1520.83,576.34 1456.26,576.34 1456.26,512.68 1351.73,295.18 
			1421.27,295.18 1490.11,445.35 1558.94,295.18 		"/>
		<path class="st0" d="M2279.22,322.17c0-22.18,18.34-40.17,40.97-40.17c22.63,0,40.97,17.98,40.97,40.17s-18.34,40.17-40.97,40.17
			C2297.56,362.33,2279.22,344.35,2279.22,322.17 M2322.71,310.76l12.5-12.5c-4.33-2.84-9.49-4.49-15.02-4.49
			c-15.37,0-27.84,12.71-27.84,28.4c0,15.68,12.46,28.4,27.84,28.4c15.37,0,27.84-12.71,27.84-28.4c0-5.44-1.5-10.53-4.1-14.85
			l-12.33,12.33L2322.71,310.76z"/>
		<polygon class="st1" points="1168.84,526.99 1168.84,476.11 1199.59,476.11 1149.76,367.4 1099.93,476.11 1130.68,476.11 
			1130.68,526.99 1076.61,526.99 1053.99,576.35 988.07,576.35 1123.2,295.18 1179.45,295.18 1314.58,576.35 1245.53,576.35 
			1222.91,526.99 		"/>
		<polygon class="st0" points="2070.66,524.66 2070.66,458.68 2195.12,458.68 2195.12,407.8 2070.66,407.8 2070.66,346.86 
			2206.39,346.86 2206.39,295.18 2011.57,295.18 2011.57,576.34 2209.65,576.34 2209.65,524.66 		"/>
	</g>
	<g>
		<polygon class="st1" points="629.81,688.67 612.2,716.24 594.77,688.67 581.87,688.67 606.6,726.38 606.6,750.93 617.63,750.93 
			617.63,726.12 642.35,688.67 		"/>
		<polygon class="st1" points="1885.66,688.67 1885.66,750.93 1932.27,750.93 1932.27,741.15 1896.6,741.15 1896.6,724.43 
			1927.82,724.43 1927.82,714.64 1896.6,714.64 1896.6,698.46 1931.82,698.46 1931.82,688.67 		"/>
		<polygon class="st1" points="1851.26,688.67 1851.26,731.72 1817.91,688.67 1807.77,688.67 1807.77,750.93 1818.53,750.93 
			1818.53,706.64 1852.86,750.93 1862.03,750.93 1862.03,688.67 		"/>
		<rect x="1773.09" y="688.67" class="st1" width="10.94" height="62.26"/>
		<path class="st1" d="M1751.12,742.3v-26.15h-26.5v9.52h15.92v11.65c-3.82,2.85-9.16,4.72-15.03,4.72
			c-12.72,0-21.17-9.43-21.17-22.32c0-12.1,8.72-22.06,20.19-22.06c7.92,0,12.63,2.58,17.43,6.67l6.94-8.27
			c-6.41-5.42-13.07-8.45-23.93-8.45c-18.77,0-32.11,14.76-32.11,32.29c0,18.23,12.81,32.11,32.29,32.11
			C1736.18,752,1744.98,747.55,1751.12,742.3"/>
		<polygon class="st1" points="1661.49,688.67 1661.49,731.72 1628.13,688.67 1617.99,688.67 1617.99,750.93 1628.75,750.93 
			1628.75,706.64 1663.09,750.93 1672.25,750.93 1672.25,688.67 		"/>
		<polygon class="st1" points="1550.66,688.67 1550.66,750.93 1597.27,750.93 1597.27,741.15 1561.6,741.15 1561.6,724.43 
			1592.82,724.43 1592.82,714.64 1561.6,714.64 1561.6,698.46 1596.82,698.46 1596.82,688.67 		"/>
		<polygon class="st1" points="1449.59,688.67 1449.59,750.93 1496.19,750.93 1496.19,741.15 1460.53,741.15 1460.53,724.43 
			1491.75,724.43 1491.75,714.64 1460.53,714.64 1460.53,698.46 1495.74,698.46 1495.74,688.67 		"/>
		<path class="st1" d="M1431.62,740.97l-7.02-7.11c-5.34,4.98-10.23,8.1-17.88,8.1c-11.92,0-20.55-9.96-20.55-22.24
			c0-12.27,8.63-22.06,20.55-22.06c7.11,0,12.45,3.12,17.43,7.74l7.03-8.09c-5.96-5.69-12.9-9.7-24.37-9.7
			c-18.86,0-32.11,14.5-32.11,32.29c0,17.96,13.52,32.11,31.66,32.11C1418.02,752,1425.13,747.73,1431.62,740.97"/>
		<polygon class="st1" points="1239.33,688.67 1239.33,750.93 1285.94,750.93 1285.94,741.15 1250.27,741.15 1250.27,724.43 
			1281.49,724.43 1281.49,714.64 1250.27,714.64 1250.27,698.46 1285.49,698.46 1285.49,688.67 		"/>
		<polygon class="st1" points="1204.04,688.67 1185.1,718.11 1166.15,688.67 1154.5,688.67 1154.5,750.93 1165.26,750.93 
			1165.26,706.46 1184.74,735.63 1185.1,735.63 1204.75,706.28 1204.75,750.93 1215.69,750.93 1215.69,688.67 		"/>
		<path class="st1" d="M1359.49,750.93l-16.81-23.57c8.71-2.4,14.85-8.63,14.85-18.94c0-12.19-8.81-19.75-23.13-19.75h-27.75v62.26
			h10.94v-21.7h13.7l15.3,21.7H1359.49z M1346.42,709.04c0,6.4-4.98,10.5-12.81,10.5h-16.01v-20.9h15.92
			C1341.62,698.63,1346.42,702.19,1346.42,709.04"/>
		<polygon class="st1" points="1119.21,688.67 1100.27,718.11 1081.32,688.67 1069.67,688.67 1069.67,750.93 1080.43,750.93 
			1080.43,706.46 1099.91,735.63 1100.27,735.63 1119.92,706.28 1119.92,750.93 1130.86,750.93 1130.86,688.67 		"/>
		<path class="st1" d="M969.9,740.97l-7.02-7.11c-5.34,4.98-10.23,8.1-17.88,8.1c-11.92,0-20.54-9.96-20.54-22.24
			c0-12.27,8.62-22.06,20.54-22.06c7.12,0,12.45,3.12,17.43,7.74l7.02-8.09c-5.95-5.69-12.9-9.7-24.37-9.7
			c-18.86,0-32.11,14.5-32.11,32.29c0,17.96,13.52,32.11,31.66,32.11C956.29,752,963.41,747.73,969.9,740.97"/>
		<path class="st1" d="M788.37,688.67h-10.94v35.84c0,11.47-5.96,17.34-15.65,17.34c-9.78,0-15.74-6.23-15.74-17.79v-35.4h-10.94
			v35.84c0,18.05,10.32,27.39,26.51,27.39c16.27,0,26.77-9.34,26.77-27.93V688.67z"/>
		<path class="st1" d="M1049.06,719.71c0-17.61-13.34-32.11-32.46-32.11c-19.12,0-32.64,14.67-32.64,32.29S997.29,752,1016.42,752
			C1035.54,752,1049.06,737.32,1049.06,719.71 M1037.58,719.89c0,12.18-8.63,22.06-20.99,22.06c-12.36,0-21.17-10.05-21.17-22.24
			c0-12.18,8.63-22.06,20.99-22.06C1028.78,697.66,1037.58,707.71,1037.58,719.89"/>
		<path class="st1" d="M863.35,750.93l-16.81-23.57c8.71-2.4,14.85-8.63,14.85-18.94c0-12.19-8.81-19.75-23.13-19.75h-27.75v62.26
			h10.94v-21.7h13.7l15.3,21.7H863.35z M850.27,709.04c0,6.4-4.98,10.5-12.81,10.5h-16.01v-20.9h15.92
			C845.47,698.63,850.27,702.19,850.27,709.04"/>
		<path class="st1" d="M715.46,719.71c0-17.61-13.34-32.11-32.46-32.11s-32.64,14.67-32.64,32.29S663.69,752,682.82,752
			C701.94,752,715.46,737.32,715.46,719.71 M703.99,719.89c0,12.18-8.63,22.06-20.99,22.06s-21.17-10.05-21.17-22.24
			c0-12.18,8.62-22.06,20.99-22.06C695.18,697.66,703.99,707.71,703.99,719.89"/>
	</g>
</g>
</svg>
