<?xml version="1.0" encoding="UTF-8" standalone="no"?><!DOCTYPE svg PUBLIC "-//W3C//DTD SVG 1.1//EN" "http://www.w3.org/Graphics/SVG/1.1/DTD/svg11.dtd"><svg width="100%" height="100%" viewBox="0 0 1057 238" version="1.1" xmlns="http://www.w3.org/2000/svg" xmlns:xlink="http://www.w3.org/1999/xlink" xml:space="preserve" xmlns:serif="http://www.serif.com/" style="fill-rule:evenodd;clip-rule:evenodd;stroke-linejoin:round;stroke-miterlimit:2;"><rect id="Artboard1" x="0" y="0" width="1056.58" height="237.24" style="fill:none;"/><path d="M366.767,83.9l15.187,0l-37.417,103.009l-16.508,-0l-37.198,-103.009l15.628,0l30.374,86.941l29.934,-86.941Z" style="fill:#17c1ff;fill-rule:nonzero;stroke:#17c1ff;stroke-width:6.23px;"/><path d="M440.282,80.379c9.244,-0 17.608,2.274 25.091,6.823c7.484,4.549 13.353,10.748 17.609,18.599c4.255,7.85 6.383,16.617 6.383,26.302c-0,2.788 -0.074,4.916 -0.22,6.383l-84.74,-0c0.587,10.565 4.035,19.589 10.345,27.073c6.309,7.483 14.893,11.225 25.752,11.225c8.804,-0 16.104,-1.651 21.9,-4.952c5.796,-3.302 10.455,-7.887 13.977,-13.757l11.885,7.924c-4.842,7.63 -11.225,13.61 -19.149,17.938c-7.923,4.329 -17.315,6.493 -28.173,6.493c-9.978,0 -18.856,-2.347 -26.633,-7.043c-7.777,-4.696 -13.866,-11.225 -18.268,-19.589c-4.402,-8.364 -6.603,-17.829 -6.603,-28.394c-0,-10.565 2.164,-20.029 6.493,-28.393c4.329,-8.364 10.345,-14.894 18.048,-19.589c7.704,-4.696 16.471,-7.043 26.303,-7.043Zm34.116,45.781c-1.468,-10.712 -5.063,-18.745 -10.785,-24.101c-5.723,-5.356 -13.5,-8.034 -23.331,-8.034c-9.538,-0 -17.352,3.045 -23.441,9.134c-6.09,6.09 -9.942,13.757 -11.556,23.001l69.113,0Z" style="fill:#17c1ff;fill-rule:nonzero;stroke:#17c1ff;stroke-width:6.23px;"/><path d="M560.458,80.379c7.19,-0 13.83,1.467 19.92,4.402c6.089,2.934 10.931,7.263 14.526,12.986c3.595,5.722 5.393,12.472 5.393,20.249l-0,68.893l-14.967,-0l-0,-62.29c-0,-20.396 -9.098,-30.594 -27.293,-30.594c-10.565,-0 -18.489,3.742 -23.771,11.225c-5.283,7.484 -7.924,17.535 -7.924,30.154l0,51.505l-14.967,-0l0,-103.009l14.967,0l0,17.168c3.522,-6.603 8.181,-11.702 13.977,-15.297c5.796,-3.595 12.509,-5.392 20.139,-5.392Z" style="fill:#17c1ff;fill-rule:nonzero;stroke:#17c1ff;stroke-width:6.23px;"/><path d="M725.316,27.114l-0,159.795l-14.967,-0l-0,-15.187c-4.256,5.869 -9.465,10.454 -15.628,13.756c-6.163,3.302 -12.912,4.952 -20.249,4.952c-9.832,0 -18.636,-2.347 -26.413,-7.043c-7.777,-4.696 -13.866,-11.225 -18.268,-19.589c-4.402,-8.364 -6.603,-17.902 -6.603,-28.614c-0,-10.565 2.164,-19.992 6.493,-28.283c4.328,-8.291 10.345,-14.784 18.048,-19.479c7.704,-4.696 16.471,-7.043 26.303,-7.043c7.483,-0 14.343,1.65 20.579,4.952c6.236,3.301 11.482,7.96 15.738,13.976l-0,-72.193l14.967,-0Zm-51.284,149.67c7.043,-0 13.316,-1.761 18.818,-5.283c5.503,-3.521 9.795,-8.437 12.876,-14.747c3.082,-6.309 4.623,-13.426 4.623,-21.35c-0,-7.923 -1.541,-15.04 -4.623,-21.35c-3.081,-6.309 -7.373,-11.225 -12.876,-14.747c-5.502,-3.521 -11.775,-5.282 -18.818,-5.282c-6.897,-0 -13.06,1.761 -18.489,5.282c-5.429,3.522 -9.685,8.401 -12.766,14.637c-3.082,6.237 -4.622,13.317 -4.622,21.24c-0,8.071 1.54,15.261 4.622,21.57c3.081,6.31 7.337,11.226 12.766,14.747c5.429,3.522 11.592,5.283 18.489,5.283Z" style="fill:#17c1ff;fill-rule:nonzero;stroke:#17c1ff;stroke-width:6.23px;"/><path d="M843.511,83.9l0,103.009l-14.967,-0l0,-17.168c-3.522,6.603 -8.18,11.702 -13.976,15.297c-5.796,3.595 -12.51,5.392 -20.14,5.392c-7.19,0 -13.83,-1.467 -19.919,-4.402c-6.09,-2.934 -10.932,-7.263 -14.527,-12.986c-3.595,-5.723 -5.393,-12.472 -5.393,-20.249l0,-68.893l14.967,0l0,62.29c0,20.396 9.098,30.594 27.293,30.594c10.565,-0 18.489,-3.742 23.771,-11.225c5.283,-7.484 7.924,-17.535 7.924,-30.155l0,-51.504l14.967,0Z" style="fill:#17c1ff;fill-rule:nonzero;stroke:#17c1ff;stroke-width:6.23px;"/><path d="M921.868,80.379c3.522,-0 6.897,0.513 10.125,1.54l-0,13.647c-3.082,-1.468 -6.457,-2.201 -10.125,-2.201c-6.31,-0 -12.179,1.761 -17.608,5.282c-5.429,3.522 -9.795,8.621 -13.096,15.297c-3.302,6.677 -4.953,14.564 -4.953,23.661l0,49.304l-14.967,-0l0,-103.009l14.967,0l0,20.69c3.962,-7.63 8.988,-13.573 15.077,-17.828c6.09,-4.256 12.95,-6.383 20.58,-6.383Z" style="fill:#17c1ff;fill-rule:nonzero;stroke:#17c1ff;stroke-width:6.23px;"/><path d="M988.119,80.379c9.244,-0 17.608,2.274 25.092,6.823c7.483,4.549 13.353,10.748 17.608,18.599c4.256,7.85 6.383,16.617 6.383,26.302c0,2.788 -0.073,4.916 -0.22,6.383l-84.74,-0c0.587,10.565 4.036,19.589 10.345,27.073c6.31,7.483 14.894,11.225 25.752,11.225c8.804,-0 16.104,-1.651 21.901,-4.952c5.796,-3.302 10.454,-7.887 13.976,-13.757l11.886,7.924c-4.843,7.63 -11.226,13.61 -19.149,17.938c-7.924,4.329 -17.315,6.493 -28.174,6.493c-9.978,0 -18.855,-2.347 -26.632,-7.043c-7.777,-4.696 -13.867,-11.225 -18.269,-19.589c-4.402,-8.364 -6.603,-17.829 -6.603,-28.394c0,-10.565 2.165,-20.029 6.493,-28.393c4.329,-8.364 10.345,-14.894 18.049,-19.589c7.703,-4.696 16.471,-7.043 26.302,-7.043Zm34.116,45.781c-1.467,-10.712 -5.062,-18.745 -10.785,-24.101c-5.723,-5.356 -13.5,-8.034 -23.331,-8.034c-9.538,-0 -17.351,3.045 -23.441,9.134c-6.089,6.09 -9.941,13.757 -11.555,23.001l69.112,0Z" style="fill:#17c1ff;fill-rule:nonzero;stroke:#17c1ff;stroke-width:6.23px;"/><g><path d="M25.4,65.862l41.785,31.213l-0.07,58.538l-41.715,-38.674l-0,-51.077Z" style="fill:#30c6fd;"/></g><g><path d="M25.4,65.862l57.53,-25.064l43.802,24.818l-59.547,31.459l-41.785,-31.213Z" style="fill:#17c1ff;"/></g><g><path d="M79.312,105.695l59.778,45.58l-0.03,70.617l-59.748,-55.048l0,-61.149Z" style="fill:#30c6fd;"/></g><g><path d="M138.744,72.237l60.125,33.458l-59.779,45.593l-59.778,-45.593l59.432,-33.458Z" style="fill:#17c1ff;"/></g><g><path d="M139.09,221.892l59.63,-55.108l0.149,-61.089l-59.809,45.58l0.03,70.617Z" style="fill:#13b7f3;"/></g><g><path d="M150.76,65.862l43.638,-25.064l57.69,24.632l-41.741,31.645l-59.587,-31.213Z" style="fill:#17c1ff;"/></g><g><path d="M210.347,97.075l-0.074,59.132l41.815,-39.194l0,-51.583l-41.741,31.645Z" style="fill:#13b7f3;"/></g></svg>