<svg width="618" height="643" viewBox="0 0 618 643" fill="none" xmlns="http://www.w3.org/2000/svg">
<rect x="1" y="34" width="616" height="503" rx="23" stroke="#189EFF" stroke-width="2" stroke-dasharray="4 4"/>
<path d="M278.84 19.22C277.827 19.22 276.88 19.04 276 18.68C275.12 18.3067 274.347 17.7933 273.68 17.14C273.027 16.4733 272.513 15.7067 272.14 14.84C271.78 13.96 271.6 13.0133 271.6 12C271.6 10.9867 271.78 10.0467 272.14 9.18C272.513 8.3 273.027 7.53333 273.68 6.88C274.347 6.21333 275.12 5.7 276 5.34C276.88 4.96667 277.827 4.78 278.84 4.78C279.56 4.78 280.253 4.88 280.92 5.08C281.587 5.28 282.207 5.56667 282.78 5.94C283.367 6.3 283.873 6.74667 284.3 7.28L282.7 8.84C282.207 8.21333 281.627 7.74 280.96 7.42C280.293 7.1 279.587 6.94 278.84 6.94C278.16 6.94 277.527 7.06667 276.94 7.32C276.367 7.57333 275.86 7.93333 275.42 8.4C274.993 8.85333 274.66 9.38667 274.42 10C274.18 10.6133 274.06 11.28 274.06 12C274.06 12.72 274.18 13.3867 274.42 14C274.66 14.6133 274.993 15.1533 275.42 15.62C275.86 16.0733 276.367 16.4267 276.94 16.68C277.527 16.9333 278.16 17.06 278.84 17.06C279.587 17.06 280.293 16.9 280.96 16.58C281.627 16.2467 282.207 15.7733 282.7 15.16L284.3 16.72C283.873 17.24 283.367 17.6867 282.78 18.06C282.207 18.4333 281.587 18.72 280.92 18.92C280.253 19.12 279.56 19.22 278.84 19.22ZM290.72 19.18C289.774 19.18 288.914 18.9533 288.14 18.5C287.38 18.0467 286.78 17.4333 286.34 16.66C285.9 15.8733 285.68 14.9867 285.68 14C285.68 13.0133 285.9 12.1333 286.34 11.36C286.78 10.5733 287.38 9.95333 288.14 9.5C288.9 9.04667 289.76 8.82 290.72 8.82C291.68 8.82 292.534 9.04667 293.28 9.5C294.04 9.95333 294.64 10.5733 295.08 11.36C295.52 12.1333 295.74 13.0133 295.74 14C295.74 14.9867 295.52 15.8733 295.08 16.66C294.64 17.4333 294.04 18.0467 293.28 18.5C292.534 18.9533 291.68 19.18 290.72 19.18ZM290.72 17.26C291.267 17.26 291.747 17.12 292.16 16.84C292.587 16.56 292.92 16.1733 293.16 15.68C293.4 15.1733 293.52 14.6133 293.52 14C293.52 13.3733 293.4 12.82 293.16 12.34C292.92 11.8467 292.587 11.46 292.16 11.18C291.747 10.8867 291.267 10.74 290.72 10.74C290.174 10.74 289.687 10.8867 289.26 11.18C288.834 11.46 288.5 11.8467 288.26 12.34C288.02 12.82 287.9 13.3733 287.9 14C287.9 14.6267 288.02 15.1867 288.26 15.68C288.5 16.1733 288.834 16.56 289.26 16.84C289.687 17.12 290.174 17.26 290.72 17.26ZM298.074 19V8.98H300.334V10.62C300.72 10.02 301.18 9.57333 301.714 9.28C302.247 8.97333 302.84 8.82 303.494 8.82C304.187 8.82 304.794 8.97333 305.314 9.28C305.834 9.57333 306.24 9.98667 306.534 10.52C306.84 11.0533 306.994 11.68 306.994 12.4V19H304.714V13.04C304.714 12.3067 304.514 11.7267 304.114 11.3C303.714 10.86 303.18 10.64 302.514 10.64C302.06 10.64 301.647 10.7467 301.274 10.96C300.914 11.16 300.6 11.46 300.334 11.86V19H298.074ZM313.114 19.2C312.261 19.2 311.461 19.0867 310.714 18.86C309.981 18.62 309.348 18.28 308.814 17.84L309.874 16.34C310.541 16.7533 311.114 17.0467 311.594 17.22C312.088 17.3933 312.588 17.48 313.094 17.48C313.694 17.48 314.181 17.3533 314.554 17.1C314.928 16.8467 315.114 16.52 315.114 16.12C315.114 15.8133 315.001 15.5733 314.774 15.4C314.561 15.2133 314.208 15.0733 313.714 14.98L311.954 14.68C310.981 14.4933 310.254 14.1733 309.774 13.72C309.294 13.2667 309.054 12.6667 309.054 11.92C309.054 11.2933 309.214 10.7533 309.534 10.3C309.868 9.83333 310.321 9.47333 310.894 9.22C311.481 8.95333 312.161 8.82 312.934 8.82C313.628 8.82 314.301 8.92 314.954 9.12C315.608 9.32 316.248 9.62 316.874 10.02L315.814 11.52C315.308 11.1867 314.801 10.9467 314.294 10.8C313.801 10.64 313.301 10.56 312.794 10.56C312.274 10.56 311.854 10.6667 311.534 10.88C311.228 11.08 311.074 11.36 311.074 11.72C311.074 12.04 311.174 12.2867 311.374 12.46C311.588 12.62 311.954 12.74 312.474 12.82L314.254 13.16C315.254 13.3333 315.994 13.6533 316.474 14.12C316.968 14.5733 317.214 15.18 317.214 15.94C317.214 16.5533 317.034 17.1067 316.674 17.6C316.314 18.0933 315.828 18.4867 315.214 18.78C314.601 19.06 313.901 19.2 313.114 19.2ZM323.962 19.18C323.016 19.18 322.156 18.9533 321.382 18.5C320.622 18.0467 320.022 17.4333 319.582 16.66C319.142 15.8733 318.922 14.9867 318.922 14C318.922 13.0133 319.142 12.1333 319.582 11.36C320.022 10.5733 320.622 9.95333 321.382 9.5C322.142 9.04667 323.002 8.82 323.962 8.82C324.922 8.82 325.776 9.04667 326.522 9.5C327.282 9.95333 327.882 10.5733 328.322 11.36C328.762 12.1333 328.982 13.0133 328.982 14C328.982 14.9867 328.762 15.8733 328.322 16.66C327.882 17.4333 327.282 18.0467 326.522 18.5C325.776 18.9533 324.922 19.18 323.962 19.18ZM323.962 17.26C324.509 17.26 324.989 17.12 325.402 16.84C325.829 16.56 326.162 16.1733 326.402 15.68C326.642 15.1733 326.762 14.6133 326.762 14C326.762 13.3733 326.642 12.82 326.402 12.34C326.162 11.8467 325.829 11.46 325.402 11.18C324.989 10.8867 324.509 10.74 323.962 10.74C323.416 10.74 322.929 10.8867 322.502 11.18C322.076 11.46 321.742 11.8467 321.502 12.34C321.262 12.82 321.142 13.3733 321.142 14C321.142 14.6267 321.262 15.1867 321.502 15.68C321.742 16.1733 322.076 16.56 322.502 16.84C322.929 17.12 323.416 17.26 323.962 17.26ZM331.316 19V4.66L333.576 4.26V19H331.316ZM341.015 19.2C340.055 19.2 339.188 18.9733 338.415 18.52C337.642 18.0533 337.028 17.4333 336.575 16.66C336.122 15.8733 335.895 14.9867 335.895 14C335.895 13.0133 336.108 12.1333 336.535 11.36C336.962 10.5867 337.542 9.97333 338.275 9.52C339.022 9.05333 339.848 8.82 340.755 8.82C341.688 8.82 342.508 9.04667 343.215 9.5C343.935 9.95333 344.495 10.5667 344.895 11.34C345.308 12.1133 345.515 13 345.515 14V14.54L338.115 14.54C338.195 15.0867 338.368 15.5733 338.635 16C338.915 16.4133 339.268 16.74 339.695 16.98C340.135 17.22 340.608 17.34 341.115 17.34C341.582 17.34 342.022 17.26 342.435 17.1C342.862 16.9267 343.215 16.6933 343.495 16.4L344.975 17.74C344.362 18.2467 343.735 18.62 343.095 18.86C342.468 19.0867 341.775 19.2 341.015 19.2ZM338.135 13.14L343.375 13.14C343.295 12.66 343.128 12.2333 342.875 11.86C342.635 11.4867 342.328 11.1933 341.955 10.98C341.595 10.7667 341.195 10.66 340.755 10.66C340.315 10.66 339.908 10.7667 339.535 10.98C339.175 11.18 338.875 11.4667 338.635 11.84C338.395 12.2133 338.228 12.6467 338.135 13.14Z" fill="#189EFF"/>
<path d="M37 92C37 79.2975 47.2975 69 60 69H557C569.703 69 580 79.2975 580 92V233C580 245.703 569.703 256 557 256H60C47.2974 256 37 245.703 37 233V92Z" fill="#02C652" fill-opacity="0.2" stroke="#02C652" stroke-width="2"/>
<rect x="58" y="93" width="497" height="61" rx="12" fill="#02C652"/>
<path d="M251.444 129.72C250.351 129.72 249.317 129.533 248.344 129.16C247.384 128.773 246.457 128.207 245.564 127.46L246.864 125.7C247.771 126.433 248.577 126.96 249.284 127.28C250.004 127.587 250.771 127.74 251.584 127.74C252.197 127.74 252.737 127.647 253.204 127.46C253.684 127.26 254.051 126.993 254.304 126.66C254.571 126.327 254.704 125.94 254.704 125.5C254.704 124.927 254.511 124.493 254.124 124.2C253.751 123.893 253.097 123.66 252.164 123.5L249.584 123.06C248.371 122.847 247.464 122.44 246.864 121.84C246.277 121.227 245.984 120.447 245.984 119.5C245.984 118.66 246.197 117.927 246.624 117.3C247.051 116.66 247.644 116.167 248.404 115.82C249.177 115.46 250.091 115.28 251.144 115.28C252.197 115.28 253.197 115.433 254.144 115.74C255.091 116.047 255.964 116.493 256.764 117.08L255.544 118.88C254.837 118.347 254.111 117.947 253.364 117.68C252.617 117.4 251.851 117.26 251.064 117.26C250.504 117.26 250.011 117.347 249.584 117.52C249.171 117.693 248.844 117.933 248.604 118.24C248.377 118.547 248.264 118.887 248.264 119.26C248.264 119.767 248.431 120.16 248.764 120.44C249.111 120.707 249.664 120.907 250.424 121.04L252.924 121.46C254.337 121.713 255.377 122.153 256.044 122.78C256.724 123.407 257.064 124.253 257.064 125.32C257.064 126.173 256.824 126.933 256.344 127.6C255.877 128.267 255.224 128.787 254.384 129.16C253.544 129.533 252.564 129.72 251.444 129.72ZM263.245 129.7C262.232 129.7 261.465 129.467 260.945 129C260.425 128.52 260.165 127.82 260.165 126.9V121.28H258.165V119.48H260.165V116.72L262.425 116.24V119.48H265.205V121.28H262.425V126.4C262.425 126.893 262.532 127.247 262.745 127.46C262.959 127.66 263.319 127.76 263.825 127.76C264.052 127.76 264.259 127.747 264.445 127.72C264.645 127.68 264.892 127.613 265.185 127.52V129.42C264.905 129.513 264.585 129.58 264.225 129.62C263.879 129.673 263.552 129.7 263.245 129.7ZM271.63 129.68C270.684 129.68 269.824 129.453 269.05 129C268.29 128.547 267.69 127.933 267.25 127.16C266.81 126.373 266.59 125.487 266.59 124.5C266.59 123.513 266.81 122.633 267.25 121.86C267.69 121.073 268.29 120.453 269.05 120C269.81 119.547 270.67 119.32 271.63 119.32C272.59 119.32 273.444 119.547 274.19 120C274.95 120.453 275.55 121.073 275.99 121.86C276.43 122.633 276.65 123.513 276.65 124.5C276.65 125.487 276.43 126.373 275.99 127.16C275.55 127.933 274.95 128.547 274.19 129C273.444 129.453 272.59 129.68 271.63 129.68ZM271.63 127.76C272.177 127.76 272.657 127.62 273.07 127.34C273.497 127.06 273.83 126.673 274.07 126.18C274.31 125.673 274.43 125.113 274.43 124.5C274.43 123.873 274.31 123.32 274.07 122.84C273.83 122.347 273.497 121.96 273.07 121.68C272.657 121.387 272.177 121.24 271.63 121.24C271.084 121.24 270.597 121.387 270.17 121.68C269.744 121.96 269.41 122.347 269.17 122.84C268.93 123.32 268.81 123.873 268.81 124.5C268.81 125.127 268.93 125.687 269.17 126.18C269.41 126.673 269.744 127.06 270.17 127.34C270.597 127.62 271.084 127.76 271.63 127.76ZM278.984 129.5V119.48H281.244V121.64C281.537 120.88 281.917 120.3 282.384 119.9C282.851 119.5 283.391 119.3 284.004 119.3C284.191 119.313 284.357 119.333 284.504 119.36C284.651 119.373 284.811 119.42 284.984 119.5V121.48C284.811 121.4 284.611 121.34 284.384 121.3C284.171 121.26 283.957 121.24 283.744 121.24C283.197 121.24 282.704 121.387 282.264 121.68C281.837 121.973 281.497 122.38 281.244 122.9V129.5H278.984ZM291.027 129.7C290.067 129.7 289.2 129.473 288.427 129.02C287.653 128.553 287.04 127.933 286.587 127.16C286.133 126.373 285.907 125.487 285.907 124.5C285.907 123.513 286.12 122.633 286.547 121.86C286.973 121.087 287.553 120.473 288.287 120.02C289.033 119.553 289.86 119.32 290.767 119.32C291.7 119.32 292.52 119.547 293.227 120C293.947 120.453 294.507 121.067 294.907 121.84C295.32 122.613 295.527 123.5 295.527 124.5V125.04L288.127 125.04C288.207 125.587 288.38 126.073 288.647 126.5C288.927 126.913 289.28 127.24 289.707 127.48C290.147 127.72 290.62 127.84 291.127 127.84C291.593 127.84 292.033 127.76 292.447 127.6C292.873 127.427 293.227 127.193 293.507 126.9L294.987 128.24C294.373 128.747 293.747 129.12 293.107 129.36C292.48 129.587 291.787 129.7 291.027 129.7ZM288.147 123.64H293.387C293.307 123.16 293.14 122.733 292.887 122.36C292.647 121.987 292.34 121.693 291.967 121.48C291.607 121.267 291.207 121.16 290.767 121.16C290.327 121.16 289.92 121.267 289.547 121.48C289.187 121.68 288.887 121.967 288.647 122.34C288.407 122.713 288.24 123.147 288.147 123.64ZM298.899 129.5V121.28H296.739V119.48H298.899V117.76C298.899 116.68 299.192 115.853 299.779 115.28C300.379 114.693 301.239 114.4 302.359 114.4C302.639 114.4 302.912 114.413 303.179 114.44C303.445 114.467 303.672 114.513 303.859 114.58V116.5C303.605 116.447 303.392 116.413 303.219 116.4C303.045 116.373 302.859 116.36 302.659 116.36C302.139 116.36 301.759 116.473 301.519 116.7C301.279 116.927 301.159 117.293 301.159 117.8V119.48H303.859V121.28H301.159V129.5H298.899ZM305.761 129.5V119.48H308.021V121.64C308.315 120.88 308.695 120.3 309.161 119.9C309.628 119.5 310.168 119.3 310.781 119.3C310.968 119.313 311.135 119.333 311.281 119.36C311.428 119.373 311.588 119.42 311.761 119.5V121.48C311.588 121.4 311.388 121.34 311.161 121.3C310.948 121.26 310.735 121.24 310.521 121.24C309.975 121.24 309.481 121.387 309.041 121.68C308.615 121.973 308.275 122.38 308.021 122.9V129.5H305.761ZM317.724 129.68C316.777 129.68 315.917 129.453 315.144 129C314.384 128.547 313.784 127.933 313.344 127.16C312.904 126.373 312.684 125.487 312.684 124.5C312.684 123.513 312.904 122.633 313.344 121.86C313.784 121.073 314.384 120.453 315.144 120C315.904 119.547 316.764 119.32 317.724 119.32C318.684 119.32 319.537 119.547 320.284 120C321.044 120.453 321.644 121.073 322.084 121.86C322.524 122.633 322.744 123.513 322.744 124.5C322.744 125.487 322.524 126.373 322.084 127.16C321.644 127.933 321.044 128.547 320.284 129C319.537 129.453 318.684 129.68 317.724 129.68ZM317.724 127.76C318.271 127.76 318.751 127.62 319.164 127.34C319.591 127.06 319.924 126.673 320.164 126.18C320.404 125.673 320.524 125.113 320.524 124.5C320.524 123.873 320.404 123.32 320.164 122.84C319.924 122.347 319.591 121.96 319.164 121.68C318.751 121.387 318.271 121.24 317.724 121.24C317.177 121.24 316.691 121.387 316.264 121.68C315.837 121.96 315.504 122.347 315.264 122.84C315.024 123.32 314.904 123.873 314.904 124.5C314.904 125.127 315.024 125.687 315.264 126.18C315.504 126.673 315.837 127.06 316.264 127.34C316.691 127.62 317.177 127.76 317.724 127.76ZM325.078 129.5V119.48H327.338V121.12C327.724 120.52 328.184 120.073 328.718 119.78C329.251 119.473 329.844 119.32 330.498 119.32C331.191 119.32 331.798 119.473 332.318 119.78C332.838 120.073 333.244 120.487 333.538 121.02C333.844 121.553 333.998 122.18 333.998 122.9V129.5H331.718V123.54C331.718 122.807 331.518 122.227 331.118 121.8C330.718 121.36 330.184 121.14 329.518 121.14C329.064 121.14 328.651 121.247 328.278 121.46C327.918 121.66 327.604 121.96 327.338 122.36V129.5H325.078ZM340.745 129.7C339.732 129.7 338.965 129.467 338.445 129C337.925 128.52 337.665 127.82 337.665 126.9V121.28H335.665V119.48H337.665V116.72L339.925 116.24V119.48H342.705V121.28H339.925V126.4C339.925 126.893 340.032 127.247 340.245 127.46C340.459 127.66 340.819 127.76 341.325 127.76C341.552 127.76 341.759 127.747 341.945 127.72C342.145 127.68 342.392 127.613 342.685 127.52V129.42C342.405 129.513 342.085 129.58 341.725 129.62C341.379 129.673 341.052 129.7 340.745 129.7ZM355.079 129.72C353.892 129.72 352.852 129.467 351.959 128.96C351.079 128.453 350.399 127.733 349.919 126.8C349.439 125.867 349.199 124.767 349.199 123.5V115.5H351.599V123.5C351.599 124.327 351.739 125.04 352.019 125.64C352.312 126.24 352.719 126.713 353.239 127.06C353.759 127.393 354.372 127.56 355.079 127.56C355.785 127.56 356.399 127.393 356.919 127.06C357.452 126.713 357.859 126.24 358.139 125.64C358.419 125.04 358.559 124.327 358.559 123.5V115.5H360.959V123.5C360.959 124.767 360.719 125.867 360.239 126.8C359.772 127.733 359.099 128.453 358.219 128.96C357.339 129.467 356.292 129.72 355.079 129.72ZM363.93 129.5V115.5H366.33V129.5H363.93Z" fill="white"/>
<rect x="58" y="174" width="497" height="61" rx="12" fill="#02C652"/>
<path d="M292.391 210.72C291.298 210.72 290.265 210.533 289.291 210.16C288.331 209.773 287.405 209.207 286.511 208.46L287.811 206.7C288.718 207.433 289.525 207.96 290.231 208.28C290.951 208.587 291.718 208.74 292.531 208.74C293.145 208.74 293.685 208.647 294.151 208.46C294.631 208.26 294.998 207.993 295.251 207.66C295.518 207.327 295.651 206.94 295.651 206.5C295.651 205.927 295.458 205.493 295.071 205.2C294.698 204.893 294.045 204.66 293.111 204.5L290.531 204.06C289.318 203.847 288.411 203.44 287.811 202.84C287.225 202.227 286.931 201.447 286.931 200.5C286.931 199.66 287.145 198.927 287.571 198.3C287.998 197.66 288.591 197.167 289.351 196.82C290.125 196.46 291.038 196.28 292.091 196.28C293.145 196.28 294.145 196.433 295.091 196.74C296.038 197.047 296.911 197.493 297.711 198.08L296.491 199.88C295.785 199.347 295.058 198.947 294.311 198.68C293.565 198.4 292.798 198.26 292.011 198.26C291.451 198.26 290.958 198.347 290.531 198.52C290.118 198.693 289.791 198.933 289.551 199.24C289.325 199.547 289.211 199.887 289.211 200.26C289.211 200.767 289.378 201.16 289.711 201.44C290.058 201.707 290.611 201.907 291.371 202.04L293.871 202.46C295.285 202.713 296.325 203.153 296.991 203.78C297.671 204.407 298.011 205.253 298.011 206.32C298.011 207.173 297.771 207.933 297.291 208.6C296.825 209.267 296.171 209.787 295.331 210.16C294.491 210.533 293.511 210.72 292.391 210.72ZM302.846 208.42H305.626C306.466 208.42 307.226 208.207 307.906 207.78C308.586 207.34 309.126 206.747 309.526 206C309.926 205.253 310.126 204.42 310.126 203.5C310.126 202.567 309.926 201.733 309.526 201C309.126 200.253 308.586 199.667 307.906 199.24C307.226 198.8 306.466 198.58 305.626 198.58H302.846V208.42ZM300.446 210.5V196.5H305.566C306.579 196.5 307.512 196.68 308.366 197.04C309.219 197.4 309.959 197.9 310.586 198.54C311.226 199.167 311.719 199.907 312.066 200.76C312.412 201.6 312.586 202.513 312.586 203.5C312.586 204.487 312.412 205.407 312.066 206.26C311.719 207.1 311.226 207.84 310.586 208.48C309.959 209.107 309.219 209.6 308.366 209.96C307.512 210.32 306.579 210.5 305.566 210.5H300.446ZM315.289 210.5V196.5H317.689V202.88L323.769 196.5H326.709L320.029 203.24L326.949 210.5H323.769L317.689 203.96V210.5H315.289Z" fill="white"/>
<path d="M40 337C40 324.297 50.2975 314 63 314H560C572.703 314 583 324.297 583 337V478C583 490.703 572.703 501 560 501H63C50.2974 501 40 490.703 40 478V337Z" fill="#531ED3" fill-opacity="0.25" stroke="#531ED3" stroke-width="2"/>
<rect x="61" y="338" width="497" height="61" rx="12" fill="#531ED3"/>
<path d="M229.329 374.72C228.142 374.72 227.102 374.467 226.209 373.96C225.329 373.453 224.649 372.733 224.169 371.8C223.689 370.867 223.449 369.767 223.449 368.5V360.5H225.849V368.5C225.849 369.327 225.989 370.04 226.269 370.64C226.562 371.24 226.969 371.713 227.489 372.06C228.009 372.393 228.622 372.56 229.329 372.56C230.035 372.56 230.649 372.393 231.169 372.06C231.702 371.713 232.109 371.24 232.389 370.64C232.669 370.04 232.809 369.327 232.809 368.5V360.5H235.209V368.5C235.209 369.767 234.969 370.867 234.489 371.8C234.022 372.733 233.349 373.453 232.469 373.96C231.589 374.467 230.542 374.72 229.329 374.72ZM238 374.5V364.48H240.26V366.12C240.646 365.52 241.106 365.073 241.64 364.78C242.173 364.473 242.766 364.32 243.42 364.32C244.113 364.32 244.72 364.473 245.24 364.78C245.76 365.073 246.166 365.487 246.46 366.02C246.766 366.553 246.92 367.18 246.92 367.9V374.5H244.64V368.54C244.64 367.807 244.44 367.227 244.04 366.8C243.64 366.36 243.106 366.14 242.44 366.14C241.986 366.14 241.573 366.247 241.2 366.46C240.84 366.66 240.526 366.96 240.26 367.36V374.5H238ZM249.62 374.5V364.48H251.88V374.5H249.62ZM250.76 362.44C250.374 362.44 250.04 362.307 249.76 362.04C249.494 361.76 249.36 361.433 249.36 361.06C249.36 360.673 249.494 360.347 249.76 360.08C250.04 359.8 250.374 359.66 250.76 359.66C251.147 359.66 251.474 359.8 251.74 360.08C252.02 360.347 252.16 360.667 252.16 361.04C252.16 361.427 252.02 361.76 251.74 362.04C251.474 362.307 251.147 362.44 250.76 362.44ZM256.039 374.5V366.28H253.879V364.48H256.039V362.76C256.039 361.68 256.333 360.853 256.919 360.28C257.519 359.693 258.379 359.4 259.499 359.4C259.779 359.4 260.053 359.413 260.319 359.44C260.586 359.467 260.813 359.513 260.999 359.58V361.5C260.746 361.447 260.533 361.413 260.359 361.4C260.186 361.373 259.999 361.36 259.799 361.36C259.279 361.36 258.899 361.473 258.659 361.7C258.419 361.927 258.299 362.293 258.299 362.8V364.48H260.999V366.28H258.299V374.5H256.039ZM262.882 374.5V364.48H265.142V374.5H262.882ZM264.022 362.44C263.635 362.44 263.302 362.307 263.022 362.04C262.755 361.76 262.622 361.433 262.622 361.06C262.622 360.673 262.755 360.347 263.022 360.08C263.302 359.8 263.635 359.66 264.022 359.66C264.409 359.66 264.735 359.8 265.002 360.08C265.282 360.347 265.422 360.667 265.422 361.04C265.422 361.427 265.282 361.76 265.002 362.04C264.735 362.307 264.409 362.44 264.022 362.44ZM272.601 374.7C271.641 374.7 270.774 374.473 270.001 374.02C269.228 373.553 268.614 372.933 268.161 372.16C267.708 371.373 267.481 370.487 267.481 369.5C267.481 368.513 267.694 367.633 268.121 366.86C268.548 366.087 269.128 365.473 269.861 365.02C270.608 364.553 271.434 364.32 272.341 364.32C273.274 364.32 274.094 364.547 274.801 365C275.521 365.453 276.081 366.067 276.481 366.84C276.894 367.613 277.101 368.5 277.101 369.5V370.04H269.701C269.781 370.587 269.954 371.073 270.221 371.5C270.501 371.913 270.854 372.24 271.281 372.48C271.721 372.72 272.194 372.84 272.701 372.84C273.168 372.84 273.608 372.76 274.021 372.6C274.448 372.427 274.801 372.193 275.081 371.9L276.561 373.24C275.948 373.747 275.321 374.12 274.681 374.36C274.054 374.587 273.361 374.7 272.601 374.7ZM269.721 368.64H274.961C274.881 368.16 274.714 367.733 274.461 367.36C274.221 366.987 273.914 366.693 273.541 366.48C273.181 366.267 272.781 366.16 272.341 366.16C271.901 366.16 271.494 366.267 271.121 366.48C270.761 366.68 270.461 366.967 270.221 367.34C269.981 367.713 269.814 368.147 269.721 368.64ZM283.505 374.6C282.665 374.6 281.905 374.373 281.225 373.92C280.545 373.453 279.998 372.84 279.585 372.08C279.185 371.307 278.985 370.447 278.985 369.5C278.985 368.54 279.192 367.68 279.605 366.92C280.018 366.147 280.578 365.533 281.285 365.08C282.005 364.627 282.798 364.4 283.665 364.4C284.238 364.4 284.772 364.513 285.265 364.74C285.772 364.953 286.212 365.273 286.585 365.7V360.16L288.845 359.76V374.5H286.605V373.18C286.245 373.633 285.798 373.987 285.265 374.24C284.732 374.48 284.145 374.6 283.505 374.6ZM284.205 372.7C284.685 372.7 285.132 372.607 285.545 372.42C285.958 372.22 286.305 371.947 286.585 371.6V367.38C286.292 367.033 285.938 366.767 285.525 366.58C285.112 366.393 284.672 366.3 284.205 366.3C283.632 366.3 283.118 366.44 282.665 366.72C282.225 366.987 281.872 367.36 281.605 367.84C281.338 368.32 281.205 368.873 281.205 369.5C281.205 370.1 281.338 370.647 281.605 371.14C281.872 371.62 282.225 372 282.665 372.28C283.118 372.56 283.632 372.7 284.205 372.7ZM298.824 372.42H301.604C302.444 372.42 303.204 372.207 303.884 371.78C304.564 371.34 305.104 370.747 305.504 370C305.904 369.253 306.104 368.42 306.104 367.5C306.104 366.567 305.904 365.733 305.504 365C305.104 364.253 304.564 363.667 303.884 363.24C303.204 362.8 302.444 362.58 301.604 362.58H298.824V372.42ZM296.424 374.5V360.5H301.544C302.557 360.5 303.491 360.68 304.344 361.04C305.197 361.4 305.937 361.9 306.564 362.54C307.204 363.167 307.697 363.907 308.044 364.76C308.391 365.6 308.564 366.513 308.564 367.5C308.564 368.487 308.391 369.407 308.044 370.26C307.697 371.1 307.204 371.84 306.564 372.48C305.937 373.107 305.197 373.6 304.344 373.96C303.491 374.32 302.557 374.5 301.544 374.5H296.424ZM313.833 374.68C313.139 374.68 312.519 374.553 311.973 374.3C311.439 374.033 311.019 373.673 310.713 373.22C310.419 372.753 310.273 372.22 310.273 371.62C310.273 371.02 310.426 370.5 310.733 370.06C311.053 369.62 311.499 369.28 312.073 369.04C312.646 368.8 313.326 368.68 314.113 368.68C314.579 368.68 315.039 368.733 315.493 368.84C315.946 368.933 316.386 369.093 316.813 369.32V368.2C316.813 367.533 316.619 367.033 316.233 366.7C315.859 366.367 315.286 366.2 314.513 366.2C314.099 366.2 313.653 366.267 313.173 366.4C312.706 366.52 312.179 366.713 311.593 366.98L310.793 365.34C312.259 364.66 313.646 364.32 314.953 364.32C316.259 364.32 317.266 364.64 317.973 365.28C318.693 365.907 319.053 366.8 319.053 367.96V374.5H316.813V373.46C316.386 373.873 315.926 374.18 315.433 374.38C314.939 374.58 314.406 374.68 313.833 374.68ZM312.393 371.58C312.393 372.047 312.579 372.413 312.953 372.68C313.326 372.947 313.826 373.08 314.453 373.08C314.906 373.08 315.326 373.013 315.713 372.88C316.113 372.733 316.479 372.52 316.813 372.24V370.62C316.466 370.46 316.106 370.34 315.733 370.26C315.359 370.18 314.953 370.14 314.513 370.14C313.859 370.14 313.339 370.267 312.953 370.52C312.579 370.773 312.393 371.127 312.393 371.58ZM325.816 374.7C324.802 374.7 324.036 374.467 323.516 374C322.996 373.52 322.736 372.82 322.736 371.9V366.28H320.736V364.48H322.736V361.72L324.996 361.24V364.48H327.776V366.28H324.996V371.4C324.996 371.893 325.102 372.247 325.316 372.46C325.529 372.66 325.889 372.76 326.396 372.76C326.622 372.76 326.829 372.747 327.016 372.72C327.216 372.68 327.462 372.613 327.756 372.52V374.42C327.476 374.513 327.156 374.58 326.796 374.62C326.449 374.673 326.122 374.7 325.816 374.7ZM332.817 374.68C332.124 374.68 331.504 374.553 330.957 374.3C330.424 374.033 330.004 373.673 329.697 373.22C329.404 372.753 329.257 372.22 329.257 371.62C329.257 371.02 329.41 370.5 329.717 370.06C330.037 369.62 330.484 369.28 331.057 369.04C331.63 368.8 332.31 368.68 333.097 368.68C333.564 368.68 334.024 368.733 334.477 368.84C334.93 368.933 335.37 369.093 335.797 369.32V368.2C335.797 367.533 335.604 367.033 335.217 366.7C334.844 366.367 334.27 366.2 333.497 366.2C333.084 366.2 332.637 366.267 332.157 366.4C331.69 366.52 331.164 366.713 330.577 366.98L329.777 365.34C331.244 364.66 332.63 364.32 333.937 364.32C335.244 364.32 336.25 364.64 336.957 365.28C337.677 365.907 338.037 366.8 338.037 367.96V374.5H335.797V373.46C335.37 373.873 334.91 374.18 334.417 374.38C333.924 374.58 333.39 374.68 332.817 374.68ZM331.377 371.58C331.377 372.047 331.564 372.413 331.937 372.68C332.31 372.947 332.81 373.08 333.437 373.08C333.89 373.08 334.31 373.013 334.697 372.88C335.097 372.733 335.464 372.52 335.797 372.24V370.62C335.45 370.46 335.09 370.34 334.717 370.26C334.344 370.18 333.937 370.14 333.497 370.14C332.844 370.14 332.324 370.267 331.937 370.52C331.564 370.773 331.377 371.127 331.377 371.58ZM345.545 374.5V360.5H347.945V372.42H355.405V374.5H345.545ZM360.825 374.68C360.131 374.68 359.511 374.553 358.965 374.3C358.431 374.033 358.011 373.673 357.705 373.22C357.411 372.753 357.265 372.22 357.265 371.62C357.265 371.02 357.418 370.5 357.725 370.06C358.045 369.62 358.491 369.28 359.065 369.04C359.638 368.8 360.318 368.68 361.105 368.68C361.571 368.68 362.031 368.733 362.485 368.84C362.938 368.933 363.378 369.093 363.805 369.32V368.2C363.805 367.533 363.611 367.033 363.225 366.7C362.851 366.367 362.278 366.2 361.505 366.2C361.091 366.2 360.645 366.267 360.165 366.4C359.698 366.52 359.171 366.713 358.585 366.98L357.785 365.34C359.251 364.66 360.638 364.32 361.945 364.32C363.251 364.32 364.258 364.64 364.965 365.28C365.685 365.907 366.045 366.8 366.045 367.96V374.5H363.805V373.46C363.378 373.873 362.918 374.18 362.425 374.38C361.931 374.58 361.398 374.68 360.825 374.68ZM359.385 371.58C359.385 372.047 359.571 372.413 359.945 372.68C360.318 372.947 360.818 373.08 361.445 373.08C361.898 373.08 362.318 373.013 362.705 372.88C363.105 372.733 363.471 372.52 363.805 372.24V370.62C363.458 370.46 363.098 370.34 362.725 370.26C362.351 370.18 361.945 370.14 361.505 370.14C360.851 370.14 360.331 370.267 359.945 370.52C359.571 370.773 359.385 371.127 359.385 371.58ZM369.306 378.88C368.946 378.88 368.572 378.833 368.186 378.74V376.78C368.319 376.807 368.459 376.827 368.606 376.84C368.766 376.853 368.919 376.86 369.066 376.86C369.466 376.86 369.792 376.767 370.046 376.58C370.299 376.393 370.512 376.107 370.686 375.72L371.146 374.6L367.366 364.48H369.866L372.426 371.9L375.206 364.48H377.686L372.886 376.24C372.632 376.88 372.346 377.393 372.026 377.78C371.706 378.167 371.326 378.447 370.886 378.62C370.459 378.793 369.932 378.88 369.306 378.88ZM383.695 374.7C382.735 374.7 381.868 374.473 381.095 374.02C380.321 373.553 379.708 372.933 379.255 372.16C378.801 371.373 378.575 370.487 378.575 369.5C378.575 368.513 378.788 367.633 379.215 366.86C379.641 366.087 380.221 365.473 380.955 365.02C381.701 364.553 382.528 364.32 383.435 364.32C384.368 364.32 385.188 364.547 385.895 365C386.615 365.453 387.175 366.067 387.575 366.84C387.988 367.613 388.195 368.5 388.195 369.5V370.04H380.795C380.875 370.587 381.048 371.073 381.315 371.5C381.595 371.913 381.948 372.24 382.375 372.48C382.815 372.72 383.288 372.84 383.795 372.84C384.261 372.84 384.701 372.76 385.115 372.6C385.541 372.427 385.895 372.193 386.175 371.9L387.655 373.24C387.041 373.747 386.415 374.12 385.775 374.36C385.148 374.587 384.455 374.7 383.695 374.7ZM380.815 368.64H386.055C385.975 368.16 385.808 367.733 385.555 367.36C385.315 366.987 385.008 366.693 384.635 366.48C384.275 366.267 383.875 366.16 383.435 366.16C382.995 366.16 382.588 366.267 382.215 366.48C381.855 366.68 381.555 366.967 381.315 367.34C381.075 367.713 380.908 368.147 380.815 368.64ZM390.5 374.5V364.48H392.76V366.64C393.053 365.88 393.433 365.3 393.9 364.9C394.366 364.5 394.906 364.3 395.52 364.3C395.706 364.313 395.873 364.333 396.02 364.36C396.166 364.373 396.326 364.42 396.5 364.5V366.48C396.326 366.4 396.126 366.34 395.9 366.3C395.686 366.26 395.473 366.24 395.26 366.24C394.713 366.24 394.22 366.387 393.78 366.68C393.353 366.973 393.013 367.38 392.76 367.9V374.5H390.5Z" fill="white"/>
<rect x="61" y="419" width="497" height="61" rx="12" fill="#531ED3"/>
<path d="M254.361 455.5V441.5H256.761V455.5H254.361ZM259.748 455.5V445.48H262.008V447.12C262.394 446.52 262.854 446.073 263.388 445.78C263.921 445.473 264.514 445.32 265.168 445.32C265.861 445.32 266.468 445.473 266.988 445.78C267.508 446.073 267.914 446.487 268.208 447.02C268.514 447.553 268.668 448.18 268.668 448.9V455.5H266.388V449.54C266.388 448.807 266.188 448.227 265.788 447.8C265.388 447.36 264.854 447.14 264.188 447.14C263.734 447.14 263.321 447.247 262.948 447.46C262.588 447.66 262.274 447.96 262.008 448.36V455.5H259.748ZM275.415 455.7C274.402 455.7 273.635 455.467 273.115 455C272.595 454.52 272.335 453.82 272.335 452.9V447.28H270.335V445.48H272.335V442.72L274.595 442.24V445.48H277.375V447.28H274.595V452.4C274.595 452.893 274.702 453.247 274.915 453.46C275.129 453.66 275.489 453.76 275.995 453.76C276.222 453.76 276.429 453.747 276.615 453.72C276.815 453.68 277.062 453.613 277.355 453.52V455.42C277.075 455.513 276.755 455.58 276.395 455.62C276.049 455.673 275.722 455.7 275.415 455.7ZM283.88 455.7C282.92 455.7 282.054 455.473 281.28 455.02C280.507 454.553 279.894 453.933 279.44 453.16C278.987 452.373 278.76 451.487 278.76 450.5C278.76 449.513 278.974 448.633 279.4 447.86C279.827 447.087 280.407 446.473 281.14 446.02C281.887 445.553 282.714 445.32 283.62 445.32C284.554 445.32 285.374 445.547 286.08 446C286.8 446.453 287.36 447.067 287.76 447.84C288.174 448.613 288.38 449.5 288.38 450.5V451.04H280.98C281.06 451.587 281.234 452.073 281.5 452.5C281.78 452.913 282.134 453.24 282.56 453.48C283 453.72 283.474 453.84 283.98 453.84C284.447 453.84 284.887 453.76 285.3 453.6C285.727 453.427 286.08 453.193 286.36 452.9L287.84 454.24C287.227 454.747 286.6 455.12 285.96 455.36C285.334 455.587 284.64 455.7 283.88 455.7ZM281 449.64H286.24C286.16 449.16 285.994 448.733 285.74 448.36C285.5 447.987 285.194 447.693 284.82 447.48C284.46 447.267 284.06 447.16 283.62 447.16C283.18 447.16 282.774 447.267 282.4 447.48C282.04 447.68 281.74 447.967 281.5 448.34C281.26 448.713 281.094 449.147 281 449.64ZM295.404 459.88C294.698 459.88 293.998 459.793 293.304 459.62C292.611 459.447 291.971 459.207 291.384 458.9L292.164 457.24C292.764 457.52 293.311 457.727 293.804 457.86C294.311 458.007 294.811 458.08 295.304 458.08C296.144 458.08 296.778 457.893 297.204 457.52C297.644 457.147 297.864 456.593 297.864 455.86V454.16C297.504 454.6 297.058 454.947 296.524 455.2C295.991 455.44 295.411 455.56 294.784 455.56C293.944 455.56 293.184 455.333 292.504 454.88C291.824 454.413 291.278 453.8 290.864 453.04C290.464 452.267 290.264 451.407 290.264 450.46C290.264 449.513 290.471 448.66 290.884 447.9C291.298 447.14 291.858 446.533 292.564 446.08C293.284 445.627 294.078 445.4 294.944 445.4C295.531 445.4 296.078 445.513 296.584 445.74C297.091 445.967 297.524 446.3 297.884 446.74V445.48H300.124V455.86C300.124 457.153 299.718 458.147 298.904 458.84C298.091 459.533 296.924 459.88 295.404 459.88ZM295.484 453.68C295.964 453.68 296.411 453.587 296.824 453.4C297.238 453.2 297.584 452.927 297.864 452.58V448.38C297.571 448.033 297.218 447.767 296.804 447.58C296.391 447.393 295.951 447.3 295.484 447.3C294.911 447.3 294.398 447.44 293.944 447.72C293.504 447.987 293.151 448.36 292.884 448.84C292.618 449.307 292.484 449.853 292.484 450.48C292.484 451.08 292.618 451.627 292.884 452.12C293.151 452.6 293.504 452.98 293.944 453.26C294.398 453.54 294.911 453.68 295.484 453.68ZM302.912 455.5V445.48H305.172V447.64C305.465 446.88 305.845 446.3 306.312 445.9C306.778 445.5 307.318 445.3 307.932 445.3C308.118 445.313 308.285 445.333 308.432 445.36C308.578 445.373 308.738 445.42 308.912 445.5V447.48C308.738 447.4 308.538 447.34 308.312 447.3C308.098 447.26 307.885 447.24 307.672 447.24C307.125 447.24 306.632 447.387 306.192 447.68C305.765 447.973 305.425 448.38 305.172 448.9V455.5H302.912ZM313.491 455.68C312.797 455.68 312.177 455.553 311.631 455.3C311.097 455.033 310.677 454.673 310.371 454.22C310.077 453.753 309.931 453.22 309.931 452.62C309.931 452.02 310.084 451.5 310.391 451.06C310.711 450.62 311.157 450.28 311.731 450.04C312.304 449.8 312.984 449.68 313.771 449.68C314.237 449.68 314.697 449.733 315.151 449.84C315.604 449.933 316.044 450.093 316.471 450.32V449.2C316.471 448.533 316.277 448.033 315.891 447.7C315.517 447.367 314.944 447.2 314.171 447.2C313.757 447.2 313.311 447.267 312.831 447.4C312.364 447.52 311.837 447.713 311.251 447.98L310.451 446.34C311.917 445.66 313.304 445.32 314.611 445.32C315.917 445.32 316.924 445.64 317.631 446.28C318.351 446.907 318.711 447.8 318.711 448.96V455.5H316.471V454.46C316.044 454.873 315.584 455.18 315.091 455.38C314.597 455.58 314.064 455.68 313.491 455.68ZM312.051 452.58C312.051 453.047 312.237 453.413 312.611 453.68C312.984 453.947 313.484 454.08 314.111 454.08C314.564 454.08 314.984 454.013 315.371 453.88C315.771 453.733 316.137 453.52 316.471 453.24V451.62C316.124 451.46 315.764 451.34 315.391 451.26C315.017 451.18 314.611 451.14 314.171 451.14C313.517 451.14 312.997 451.267 312.611 451.52C312.237 451.773 312.051 452.127 312.051 452.58ZM325.474 455.7C324.461 455.7 323.694 455.467 323.174 455C322.654 454.52 322.394 453.82 322.394 452.9V447.28H320.394V445.48H322.394V442.72L324.654 442.24V445.48H327.434V447.28H324.654V452.4C324.654 452.893 324.761 453.247 324.974 453.46C325.187 453.66 325.547 453.76 326.054 453.76C326.281 453.76 326.487 453.747 326.674 453.72C326.874 453.68 327.121 453.613 327.414 453.52V455.42C327.134 455.513 326.814 455.58 326.454 455.62C326.107 455.673 325.781 455.7 325.474 455.7ZM329.415 455.5V445.48H331.675V455.5H329.415ZM330.555 443.44C330.168 443.44 329.835 443.307 329.555 443.04C329.288 442.76 329.155 442.433 329.155 442.06C329.155 441.673 329.288 441.347 329.555 441.08C329.835 440.8 330.168 440.66 330.555 440.66C330.942 440.66 331.268 440.8 331.535 441.08C331.815 441.347 331.955 441.667 331.955 442.04C331.955 442.427 331.815 442.76 331.535 443.04C331.268 443.307 330.942 443.44 330.555 443.44ZM339.054 455.68C338.108 455.68 337.248 455.453 336.474 455C335.714 454.547 335.114 453.933 334.674 453.16C334.234 452.373 334.014 451.487 334.014 450.5C334.014 449.513 334.234 448.633 334.674 447.86C335.114 447.073 335.714 446.453 336.474 446C337.234 445.547 338.094 445.32 339.054 445.32C340.014 445.32 340.868 445.547 341.614 446C342.374 446.453 342.974 447.073 343.414 447.86C343.854 448.633 344.074 449.513 344.074 450.5C344.074 451.487 343.854 452.373 343.414 453.16C342.974 453.933 342.374 454.547 341.614 455C340.868 455.453 340.014 455.68 339.054 455.68ZM339.054 453.76C339.601 453.76 340.081 453.62 340.494 453.34C340.921 453.06 341.254 452.673 341.494 452.18C341.734 451.673 341.854 451.113 341.854 450.5C341.854 449.873 341.734 449.32 341.494 448.84C341.254 448.347 340.921 447.96 340.494 447.68C340.081 447.387 339.601 447.24 339.054 447.24C338.508 447.24 338.021 447.387 337.594 447.68C337.168 447.96 336.834 448.347 336.594 448.84C336.354 449.32 336.234 449.873 336.234 450.5C336.234 451.127 336.354 451.687 336.594 452.18C336.834 452.673 337.168 453.06 337.594 453.34C338.021 453.62 338.508 453.76 339.054 453.76ZM346.408 455.5V445.48H348.668V447.12C349.054 446.52 349.514 446.073 350.048 445.78C350.581 445.473 351.174 445.32 351.828 445.32C352.521 445.32 353.128 445.473 353.648 445.78C354.168 446.073 354.574 446.487 354.868 447.02C355.174 447.553 355.328 448.18 355.328 448.9V455.5H353.048V449.54C353.048 448.807 352.848 448.227 352.448 447.8C352.048 447.36 351.514 447.14 350.848 447.14C350.394 447.14 349.981 447.247 349.608 447.46C349.248 447.66 348.934 447.96 348.668 448.36V455.5H346.408ZM361.448 455.7C360.595 455.7 359.795 455.587 359.048 455.36C358.315 455.12 357.682 454.78 357.148 454.34L358.208 452.84C358.875 453.253 359.448 453.547 359.928 453.72C360.422 453.893 360.922 453.98 361.428 453.98C362.028 453.98 362.515 453.853 362.888 453.6C363.262 453.347 363.448 453.02 363.448 452.62C363.448 452.313 363.335 452.073 363.108 451.9C362.895 451.713 362.542 451.573 362.048 451.48L360.288 451.18C359.315 450.993 358.588 450.673 358.108 450.22C357.628 449.767 357.388 449.167 357.388 448.42C357.388 447.793 357.548 447.253 357.868 446.8C358.202 446.333 358.655 445.973 359.228 445.72C359.815 445.453 360.495 445.32 361.268 445.32C361.962 445.32 362.635 445.42 363.288 445.62C363.942 445.82 364.582 446.12 365.208 446.52L364.148 448.02C363.642 447.687 363.135 447.447 362.628 447.3C362.135 447.14 361.635 447.06 361.128 447.06C360.608 447.06 360.188 447.167 359.868 447.38C359.562 447.58 359.408 447.86 359.408 448.22C359.408 448.54 359.508 448.787 359.708 448.96C359.922 449.12 360.288 449.24 360.808 449.32L362.588 449.66C363.588 449.833 364.328 450.153 364.808 450.62C365.302 451.073 365.548 451.68 365.548 452.44C365.548 453.053 365.368 453.607 365.008 454.1C364.648 454.593 364.162 454.987 363.548 455.28C362.935 455.56 362.235 455.7 361.448 455.7Z" fill="white"/>
<path d="M28.22 205.251C28.22 206.345 28.0333 207.378 27.66 208.351C27.2733 209.311 26.7067 210.238 25.96 211.131L24.2 209.831C24.9333 208.925 25.46 208.118 25.78 207.411C26.0867 206.691 26.24 205.925 26.24 205.111C26.24 204.498 26.1467 203.958 25.96 203.491C25.76 203.011 25.4933 202.645 25.16 202.391C24.8267 202.125 24.44 201.991 24 201.991C23.4267 201.991 22.9933 202.185 22.7 202.571C22.3933 202.945 22.16 203.598 22 204.531L21.56 207.111C21.3467 208.325 20.94 209.231 20.34 209.831C19.7267 210.418 18.9467 210.711 18 210.711C17.16 210.711 16.4267 210.498 15.8 210.071C15.16 209.645 14.6667 209.051 14.32 208.291C13.96 207.518 13.78 206.605 13.78 205.551C13.78 204.498 13.9333 203.498 14.24 202.551C14.5467 201.605 14.9933 200.731 15.58 199.931L17.38 201.151C16.8467 201.858 16.4467 202.585 16.18 203.331C15.9 204.078 15.76 204.845 15.76 205.631C15.76 206.191 15.8467 206.685 16.02 207.111C16.1933 207.525 16.4333 207.851 16.74 208.091C17.0467 208.318 17.3867 208.431 17.76 208.431C18.2667 208.431 18.66 208.265 18.94 207.931C19.2067 207.585 19.4067 207.031 19.54 206.271L19.96 203.771C20.2133 202.358 20.6533 201.318 21.28 200.651C21.9067 199.971 22.7533 199.631 23.82 199.631C24.6733 199.631 25.4333 199.871 26.1 200.351C26.7667 200.818 27.2867 201.471 27.66 202.311C28.0333 203.151 28.22 204.131 28.22 205.251ZM28.2 193.45C28.2 194.463 27.9667 195.23 27.5 195.75C27.02 196.27 26.32 196.53 25.4 196.53H19.78V198.53H17.98V196.53H15.22L14.74 194.27H17.98V191.49H19.78V194.27H24.9C25.3933 194.27 25.7467 194.163 25.96 193.95C26.16 193.737 26.26 193.377 26.26 192.87C26.26 192.643 26.2467 192.437 26.22 192.25C26.18 192.05 26.1133 191.803 26.02 191.51H27.92C28.0133 191.79 28.08 192.11 28.12 192.47C28.1733 192.817 28.2 193.143 28.2 193.45ZM28.18 185.065C28.18 186.012 27.9533 186.872 27.5 187.645C27.0467 188.405 26.4333 189.005 25.66 189.445C24.8733 189.885 23.9867 190.105 23 190.105C22.0133 190.105 21.1333 189.885 20.36 189.445C19.5733 189.005 18.9533 188.405 18.5 187.645C18.0467 186.885 17.82 186.025 17.82 185.065C17.82 184.105 18.0467 183.252 18.5 182.505C18.9533 181.745 19.5733 181.145 20.36 180.705C21.1333 180.265 22.0133 180.045 23 180.045C23.9867 180.045 24.8733 180.265 25.66 180.705C26.4333 181.145 27.0467 181.745 27.5 182.505C27.9533 183.252 28.18 184.105 28.18 185.065ZM26.26 185.065C26.26 184.518 26.12 184.038 25.84 183.625C25.56 183.198 25.1733 182.865 24.68 182.625C24.1733 182.385 23.6133 182.265 23 182.265C22.3733 182.265 21.82 182.385 21.34 182.625C20.8467 182.865 20.46 183.198 20.18 183.625C19.8867 184.038 19.74 184.518 19.74 185.065C19.74 185.612 19.8867 186.098 20.18 186.525C20.46 186.952 20.8467 187.285 21.34 187.525C21.82 187.765 22.3733 187.885 23 187.885C23.6267 187.885 24.1867 187.765 24.68 187.525C25.1733 187.285 25.56 186.952 25.84 186.525C26.12 186.098 26.26 185.612 26.26 185.065ZM28 177.711H17.98V175.451H20.14C19.38 175.158 18.8 174.778 18.4 174.311C18 173.845 17.8 173.305 17.8 172.691C17.8133 172.505 17.8333 172.338 17.86 172.191C17.8733 172.045 17.92 171.885 18 171.711H19.98C19.9 171.885 19.84 172.085 19.8 172.311C19.76 172.525 19.74 172.738 19.74 172.951C19.74 173.498 19.8867 173.991 20.18 174.431C20.4733 174.858 20.88 175.198 21.4 175.451H28V177.711ZM28.2 165.669C28.2 166.629 27.9733 167.495 27.52 168.269C27.0533 169.042 26.4333 169.655 25.66 170.109C24.8733 170.562 23.9867 170.789 23 170.789C22.0133 170.789 21.1333 170.575 20.36 170.149C19.5867 169.722 18.9733 169.142 18.52 168.409C18.0533 167.662 17.82 166.835 17.82 165.929C17.82 164.995 18.0467 164.175 18.5 163.469C18.9533 162.749 19.5667 162.189 20.34 161.789C21.1133 161.375 22 161.169 23 161.169H23.54V168.569C24.0867 168.489 24.5733 168.315 25 168.049C25.4133 167.769 25.74 167.415 25.98 166.989C26.22 166.549 26.34 166.075 26.34 165.569C26.34 165.102 26.26 164.662 26.1 164.249C25.9267 163.822 25.6933 163.469 25.4 163.189L26.74 161.709C27.2467 162.322 27.62 162.949 27.86 163.589C28.0867 164.215 28.2 164.909 28.2 165.669ZM22.14 168.549V163.309C21.66 163.389 21.2333 163.555 20.86 163.809C20.4867 164.049 20.1933 164.355 19.98 164.729C19.7667 165.089 19.66 165.489 19.66 165.929C19.66 166.369 19.7667 166.775 19.98 167.149C20.18 167.509 20.4667 167.809 20.84 168.049C21.2133 168.289 21.6467 168.455 22.14 168.549ZM28 157.797H19.78V159.957H17.98V157.797H16.26C15.18 157.797 14.3533 157.503 13.78 156.917C13.1933 156.317 12.9 155.457 12.9 154.337C12.9 154.057 12.9133 153.783 12.94 153.517C12.9667 153.25 13.0133 153.023 13.08 152.837H15C14.9467 153.09 14.9133 153.303 14.9 153.477C14.8733 153.65 14.86 153.837 14.86 154.037C14.86 154.557 14.9733 154.937 15.2 155.177C15.4267 155.417 15.7933 155.537 16.3 155.537H17.98V152.837H19.78V155.537H28V157.797ZM28 150.934H17.98V148.674H20.14C19.38 148.381 18.8 148.001 18.4 147.534C18 147.067 17.8 146.527 17.8 145.914C17.8133 145.727 17.8333 145.561 17.86 145.414C17.8733 145.267 17.92 145.107 18 144.934H19.98C19.9 145.107 19.84 145.307 19.8 145.534C19.76 145.747 19.74 145.961 19.74 146.174C19.74 146.721 19.8867 147.214 20.18 147.654C20.4733 148.081 20.88 148.421 21.4 148.674H28V150.934ZM28.18 138.971C28.18 139.918 27.9533 140.778 27.5 141.551C27.0467 142.311 26.4333 142.911 25.66 143.351C24.8733 143.791 23.9867 144.011 23 144.011C22.0133 144.011 21.1333 143.791 20.36 143.351C19.5733 142.911 18.9533 142.311 18.5 141.551C18.0467 140.791 17.82 139.931 17.82 138.971C17.82 138.011 18.0467 137.158 18.5 136.411C18.9533 135.651 19.5733 135.051 20.36 134.611C21.1333 134.171 22.0133 133.951 23 133.951C23.9867 133.951 24.8733 134.171 25.66 134.611C26.4333 135.051 27.0467 135.651 27.5 136.411C27.9533 137.158 28.18 138.011 28.18 138.971ZM26.26 138.971C26.26 138.425 26.12 137.945 25.84 137.531C25.56 137.105 25.1733 136.771 24.68 136.531C24.1733 136.291 23.6133 136.171 23 136.171C22.3733 136.171 21.82 136.291 21.34 136.531C20.8467 136.771 20.46 137.105 20.18 137.531C19.8867 137.945 19.74 138.425 19.74 138.971C19.74 139.518 19.8867 140.005 20.18 140.431C20.46 140.858 20.8467 141.191 21.34 141.431C21.82 141.671 22.3733 141.791 23 141.791C23.6267 141.791 24.1867 141.671 24.68 141.431C25.1733 141.191 25.56 140.858 25.84 140.431C26.12 140.005 26.26 139.518 26.26 138.971ZM28 131.618H17.98V129.358H19.62C19.02 128.971 18.5733 128.511 18.28 127.978C17.9733 127.444 17.82 126.851 17.82 126.198C17.82 125.504 17.9733 124.898 18.28 124.378C18.5733 123.858 18.9867 123.451 19.52 123.158C20.0533 122.851 20.68 122.698 21.4 122.698H28V124.978H22.04C21.3067 124.978 20.7267 125.178 20.3 125.578C19.86 125.978 19.64 126.511 19.64 127.178C19.64 127.631 19.7467 128.044 19.96 128.418C20.16 128.778 20.46 129.091 20.86 129.358H28V131.618ZM28.2 115.95C28.2 116.963 27.9667 117.73 27.5 118.25C27.02 118.77 26.32 119.03 25.4 119.03H19.78V121.03H17.98V119.03H15.22L14.74 116.77H17.98V113.99H19.78V116.77H24.9C25.3933 116.77 25.7467 116.663 25.96 116.45C26.16 116.237 26.26 115.877 26.26 115.37C26.26 115.143 26.2467 114.937 26.22 114.75C26.18 114.55 26.1133 114.303 26.02 114.01H27.92C28.0133 114.29 28.08 114.61 28.12 114.97C28.1733 115.317 28.2 115.643 28.2 115.95Z" fill="#02BB4D"/>
<path d="M28 462.804H14V459.684L22.5 455.584L14 451.504V448.384H28V450.644H17.04L27 455.604L16.98 460.584H28V462.804ZM28 445.331H17.98V443.071H28V445.331ZM15.94 444.191C15.94 444.578 15.8067 444.911 15.54 445.191C15.26 445.458 14.9333 445.591 14.56 445.591C14.1733 445.591 13.8467 445.458 13.58 445.191C13.3 444.911 13.16 444.578 13.16 444.191C13.16 443.804 13.3 443.478 13.58 443.211C13.8467 442.931 14.1667 442.791 14.54 442.791C14.9267 442.791 15.26 442.931 15.54 443.211C15.8067 443.478 15.94 443.804 15.94 444.191ZM28.1 436.212C28.1 437.052 27.8733 437.812 27.42 438.492C26.9533 439.172 26.34 439.719 25.58 440.132C24.8067 440.532 23.9467 440.732 23 440.732C22.04 440.732 21.18 440.525 20.42 440.112C19.6467 439.699 19.0333 439.139 18.58 438.432C18.1267 437.712 17.9 436.919 17.9 436.052C17.9 435.479 18.0133 434.945 18.24 434.452C18.4533 433.945 18.7733 433.505 19.2 433.132H13.66L13.26 430.872H28V433.112H26.68C27.1333 433.472 27.4867 433.919 27.74 434.452C27.98 434.985 28.1 435.572 28.1 436.212ZM26.2 435.512C26.2 435.032 26.1067 434.585 25.92 434.172C25.72 433.759 25.4467 433.412 25.1 433.132H20.88C20.5333 433.425 20.2667 433.779 20.08 434.192C19.8933 434.605 19.8 435.045 19.8 435.512C19.8 436.085 19.94 436.599 20.22 437.052C20.4867 437.492 20.86 437.845 21.34 438.112C21.82 438.379 22.3733 438.512 23 438.512C23.6 438.512 24.1467 438.379 24.64 438.112C25.12 437.845 25.5 437.492 25.78 437.052C26.06 436.599 26.2 436.085 26.2 435.512ZM28.1 424.005C28.1 424.845 27.8733 425.605 27.42 426.285C26.9533 426.965 26.34 427.512 25.58 427.925C24.8067 428.325 23.9467 428.525 23 428.525C22.04 428.525 21.18 428.318 20.42 427.905C19.6467 427.492 19.0333 426.932 18.58 426.225C18.1267 425.505 17.9 424.712 17.9 423.845C17.9 423.272 18.0133 422.738 18.24 422.245C18.4533 421.738 18.7733 421.298 19.2 420.925H13.66L13.26 418.665H28V420.905H26.68C27.1333 421.265 27.4867 421.712 27.74 422.245C27.98 422.778 28.1 423.365 28.1 424.005ZM26.2 423.305C26.2 422.825 26.1067 422.378 25.92 421.965C25.72 421.552 25.4467 421.205 25.1 420.925H20.88C20.5333 421.218 20.2667 421.572 20.08 421.985C19.8933 422.398 19.8 422.838 19.8 423.305C19.8 423.878 19.94 424.392 20.22 424.845C20.4867 425.285 20.86 425.638 21.34 425.905C21.82 426.172 22.3733 426.305 23 426.305C23.6 426.305 24.1467 426.172 24.64 425.905C25.12 425.638 25.5 425.285 25.78 424.845C26.06 424.392 26.2 423.878 26.2 423.305ZM28 415.858H13.66L13.26 413.598H28V415.858ZM28.2 406.159C28.2 407.119 27.9733 407.985 27.52 408.759C27.0533 409.532 26.4333 410.145 25.66 410.599C24.8733 411.052 23.9867 411.279 23 411.279C22.0133 411.279 21.1333 411.065 20.36 410.639C19.5867 410.212 18.9733 409.632 18.52 408.899C18.0533 408.152 17.82 407.325 17.82 406.419C17.82 405.485 18.0467 404.665 18.5 403.959C18.9533 403.239 19.5667 402.679 20.34 402.279C21.1133 401.865 22 401.659 23 401.659H23.54V409.059C24.0867 408.979 24.5733 408.805 25 408.539C25.4133 408.259 25.74 407.905 25.98 407.479C26.22 407.039 26.34 406.565 26.34 406.059C26.34 405.592 26.26 405.152 26.1 404.739C25.9267 404.312 25.6933 403.959 25.4 403.679L26.74 402.199C27.2467 402.812 27.62 403.439 27.86 404.079C28.0867 404.705 28.2 405.399 28.2 406.159ZM22.14 409.039V403.799C21.66 403.879 21.2333 404.045 20.86 404.299C20.4867 404.539 20.1933 404.845 19.98 405.219C19.7667 405.579 19.66 405.979 19.66 406.419C19.66 406.859 19.7667 407.265 19.98 407.639C20.18 407.999 20.4667 408.299 20.84 408.539C21.2133 408.779 21.6467 408.945 22.14 409.039ZM28 397.789L17.98 400.489V398.329L25.04 396.569L17.98 394.489V392.589L25.04 390.529L17.98 388.769V386.669L28 389.369V391.529L20.94 393.569L28 395.589V397.789ZM28.18 381.919C28.18 382.613 28.0533 383.233 27.8 383.779C27.5333 384.313 27.1733 384.733 26.72 385.039C26.2533 385.333 25.72 385.479 25.12 385.479C24.52 385.479 24 385.326 23.56 385.019C23.12 384.699 22.78 384.253 22.54 383.679C22.3 383.106 22.18 382.426 22.18 381.639C22.18 381.173 22.2333 380.713 22.34 380.259C22.4333 379.806 22.5933 379.366 22.82 378.939H21.7C21.0333 378.939 20.5333 379.133 20.2 379.519C19.8667 379.893 19.7 380.466 19.7 381.239C19.7 381.653 19.7667 382.099 19.9 382.579C20.02 383.046 20.2133 383.573 20.48 384.159L18.84 384.959C18.16 383.493 17.82 382.106 17.82 380.799C17.82 379.493 18.14 378.486 18.78 377.779C19.4067 377.059 20.3 376.699 21.46 376.699H28V378.939H26.96C27.3733 379.366 27.68 379.826 27.88 380.319C28.08 380.813 28.18 381.346 28.18 381.919ZM25.08 383.359C25.5467 383.359 25.9133 383.173 26.18 382.799C26.4467 382.426 26.58 381.926 26.58 381.299C26.58 380.846 26.5133 380.426 26.38 380.039C26.2333 379.639 26.02 379.273 25.74 378.939H24.12C23.96 379.286 23.84 379.646 23.76 380.019C23.68 380.393 23.64 380.799 23.64 381.239C23.64 381.893 23.7667 382.413 24.02 382.799C24.2733 383.173 24.6267 383.359 25.08 383.359ZM28 373.963H17.98V371.703H20.14C19.38 371.41 18.8 371.03 18.4 370.563C18 370.097 17.8 369.557 17.8 368.943C17.8133 368.757 17.8333 368.59 17.86 368.443C17.8733 368.297 17.92 368.137 18 367.963H19.98C19.9 368.137 19.84 368.337 19.8 368.563C19.76 368.777 19.74 368.99 19.74 369.203C19.74 369.75 19.8867 370.243 20.18 370.683C20.4733 371.11 20.88 371.45 21.4 371.703H28V373.963ZM28.2 361.92C28.2 362.88 27.9733 363.747 27.52 364.52C27.0533 365.294 26.4333 365.907 25.66 366.36C24.8733 366.814 23.9867 367.04 23 367.04C22.0133 367.04 21.1333 366.827 20.36 366.4C19.5867 365.974 18.9733 365.394 18.52 364.66C18.0533 363.914 17.82 363.087 17.82 362.18C17.82 361.247 18.0467 360.427 18.5 359.72C18.9533 359 19.5667 358.44 20.34 358.04C21.1133 357.627 22 357.42 23 357.42H23.54V364.82C24.0867 364.74 24.5733 364.567 25 364.3C25.4133 364.02 25.74 363.667 25.98 363.24C26.22 362.8 26.34 362.327 26.34 361.82C26.34 361.354 26.26 360.914 26.1 360.5C25.9267 360.074 25.6933 359.72 25.4 359.44L26.74 357.96C27.2467 358.574 27.62 359.2 27.86 359.84C28.0867 360.467 28.2 361.16 28.2 361.92ZM22.14 364.8V359.56C21.66 359.64 21.2333 359.807 20.86 360.06C20.4867 360.3 20.1933 360.607 19.98 360.98C19.7667 361.34 19.66 361.74 19.66 362.18C19.66 362.62 19.7667 363.027 19.98 363.4C20.18 363.76 20.4667 364.06 20.84 364.3C21.2133 364.54 21.6467 364.707 22.14 364.8Z" fill="#692BFF"/>
<rect x="100.4" y="566" width="52" height="52" rx="12" fill="#2A4148"/>
<path fill-rule="evenodd" clip-rule="evenodd" d="M116.945 581.917C116.669 581.917 116.445 582.14 116.445 582.417C116.445 582.693 116.669 582.917 116.945 582.917H117.26C117.527 582.917 117.787 583.009 117.995 583.177C118.203 583.346 118.346 583.581 118.401 583.843L118.997 586.671C118.999 586.681 119.001 586.692 119.003 586.703L121.177 597.03C121.28 597.516 121.546 597.953 121.932 598.266C122.109 598.409 122.305 598.522 122.514 598.603C121.673 598.731 121.028 599.457 121.028 600.333C121.028 601.3 121.812 602.083 122.778 602.083C123.745 602.083 124.528 601.3 124.528 600.333C124.528 599.634 124.118 599.03 123.525 598.75H130.365C129.772 599.03 129.362 599.634 129.362 600.333C129.362 601.3 130.145 602.083 131.112 602.083C132.078 602.083 132.862 601.3 132.862 600.333C132.862 599.634 132.451 599.03 131.858 598.75H132.778C133.054 598.75 133.278 598.526 133.278 598.25C133.278 597.974 133.054 597.75 132.778 597.75H123.297C123.03 597.75 122.77 597.658 122.562 597.489C122.354 597.321 122.211 597.086 122.156 596.824L122.035 596.25H131.702C132.361 596.25 133 596.033 133.523 595.634C134.046 595.234 134.423 594.674 134.596 594.039L136.307 587.767C136.361 587.569 136.369 587.362 136.329 587.161C136.29 586.959 136.205 586.77 136.08 586.607C135.956 586.444 135.795 586.312 135.612 586.221C135.428 586.131 135.226 586.083 135.021 586.083H119.895L119.38 583.637C119.278 583.151 119.011 582.714 118.625 582.401C118.239 582.088 117.757 581.917 117.26 581.917H116.945ZM120.105 587.083L121.825 595.25H131.702C132.141 595.25 132.568 595.106 132.916 594.839C133.265 594.573 133.516 594.199 133.632 593.776L135.342 587.504C135.356 587.455 135.358 587.403 135.348 587.353C135.338 587.302 135.317 587.255 135.286 587.214C135.255 587.174 135.215 587.141 135.169 587.118C135.123 587.095 135.072 587.083 135.021 587.083H120.105ZM122.778 599.583C122.364 599.583 122.028 599.919 122.028 600.333C122.028 600.748 122.364 601.083 122.778 601.083C123.192 601.083 123.528 600.748 123.528 600.333C123.528 599.919 123.192 599.583 122.778 599.583ZM130.362 600.333C130.362 599.919 130.697 599.583 131.112 599.583C131.526 599.583 131.862 599.919 131.862 600.333C131.862 600.748 131.526 601.083 131.112 601.083C130.697 601.083 130.362 600.748 130.362 600.333Z" fill="#F2F2F2"/>
<path d="M102.021 636.1C101.567 636.1 101.157 635.99 100.791 635.77C100.424 635.543 100.134 635.24 99.9208 634.86C99.7075 634.473 99.6008 634.04 99.6008 633.56C99.6008 633.08 99.7008 632.65 99.9008 632.27C100.107 631.89 100.384 631.59 100.731 631.37C101.077 631.15 101.464 631.04 101.891 631.04C102.324 631.04 102.707 631.15 103.041 631.37C103.381 631.583 103.647 631.877 103.841 632.25C104.041 632.617 104.141 633.033 104.141 633.5V633.72H100.311C100.337 634.053 100.427 634.353 100.581 634.62C100.741 634.88 100.947 635.087 101.201 635.24C101.461 635.387 101.744 635.46 102.051 635.46C102.304 635.46 102.547 635.417 102.781 635.33C103.021 635.237 103.224 635.113 103.391 634.96L103.851 635.45C103.571 635.67 103.281 635.833 102.981 635.94C102.681 636.047 102.361 636.1 102.021 636.1ZM100.331 633.2H103.421C103.387 632.907 103.297 632.647 103.151 632.42C103.011 632.187 102.831 632.003 102.611 631.87C102.397 631.737 102.157 631.67 101.891 631.67C101.624 631.67 101.381 631.737 101.161 631.87C100.941 631.997 100.757 632.177 100.611 632.41C100.471 632.637 100.377 632.9 100.331 633.2ZM108.757 636.11C108.257 636.11 107.791 636.02 107.357 635.84C106.931 635.653 106.554 635.397 106.227 635.07C105.901 634.737 105.647 634.353 105.467 633.92C105.287 633.48 105.197 633.007 105.197 632.5C105.197 631.993 105.287 631.523 105.467 631.09C105.647 630.65 105.901 630.267 106.227 629.94C106.554 629.607 106.931 629.35 107.357 629.17C107.791 628.983 108.257 628.89 108.757 628.89C109.104 628.89 109.434 628.937 109.747 629.03C110.067 629.117 110.367 629.247 110.647 629.42C110.927 629.587 111.177 629.793 111.397 630.04L110.887 630.57C110.627 630.257 110.307 630.017 109.927 629.85C109.554 629.677 109.164 629.59 108.757 629.59C108.364 629.59 107.997 629.663 107.657 629.81C107.317 629.957 107.021 630.163 106.767 630.43C106.521 630.697 106.327 631.007 106.187 631.36C106.047 631.707 105.977 632.087 105.977 632.5C105.977 632.907 106.047 633.287 106.187 633.64C106.327 633.993 106.521 634.303 106.767 634.57C107.021 634.837 107.317 635.043 107.657 635.19C107.997 635.337 108.364 635.41 108.757 635.41C109.164 635.41 109.554 635.323 109.927 635.15C110.307 634.977 110.627 634.737 110.887 634.43L111.397 634.96C111.177 635.207 110.927 635.417 110.647 635.59C110.367 635.757 110.067 635.887 109.747 635.98C109.434 636.067 109.104 636.11 108.757 636.11ZM114.657 636.08C114.203 636.08 113.797 635.97 113.437 635.75C113.077 635.53 112.793 635.23 112.587 634.85C112.38 634.47 112.277 634.04 112.277 633.56C112.277 633.08 112.38 632.65 112.587 632.27C112.793 631.89 113.077 631.59 113.437 631.37C113.797 631.15 114.203 631.04 114.657 631.04C115.103 631.04 115.503 631.15 115.857 631.37C116.217 631.59 116.5 631.89 116.707 632.27C116.913 632.65 117.017 633.08 117.017 633.56C117.017 634.04 116.913 634.47 116.707 634.85C116.5 635.23 116.217 635.53 115.857 635.75C115.503 635.97 115.103 636.08 114.657 636.08ZM114.647 635.44C114.967 635.44 115.25 635.36 115.497 635.2C115.743 635.033 115.937 634.807 116.077 634.52C116.223 634.233 116.297 633.913 116.297 633.56C116.297 633.2 116.223 632.88 116.077 632.6C115.937 632.313 115.743 632.09 115.497 631.93C115.25 631.763 114.967 631.68 114.647 631.68C114.327 631.68 114.043 631.763 113.797 631.93C113.55 632.09 113.353 632.313 113.207 632.6C113.067 632.88 112.997 633.2 112.997 633.56C112.997 633.913 113.067 634.233 113.207 634.52C113.353 634.807 113.55 635.033 113.797 635.2C114.043 635.36 114.327 635.44 114.647 635.44ZM118.297 636V631.12H119.027V631.88C119.214 631.6 119.427 631.39 119.667 631.25C119.907 631.11 120.177 631.04 120.477 631.04C120.824 631.04 121.127 631.127 121.387 631.3C121.647 631.467 121.844 631.697 121.977 631.99C122.171 631.677 122.401 631.44 122.667 631.28C122.941 631.12 123.254 631.04 123.607 631.04C123.934 631.04 124.221 631.117 124.467 631.27C124.721 631.423 124.917 631.637 125.057 631.91C125.197 632.177 125.267 632.49 125.267 632.85V636H124.537V633.03C124.537 632.603 124.431 632.267 124.217 632.02C124.004 631.773 123.711 631.65 123.337 631.65C123.084 631.65 122.854 631.713 122.647 631.84C122.447 631.967 122.271 632.16 122.117 632.42C122.131 632.487 122.141 632.557 122.147 632.63C122.154 632.703 122.157 632.777 122.157 632.85V636H121.427V633.03C121.427 632.603 121.317 632.267 121.097 632.02C120.884 631.773 120.591 631.65 120.217 631.65C119.717 631.65 119.321 631.89 119.027 632.37V636H118.297ZM126.745 636V631.12H127.475V631.88C127.661 631.6 127.875 631.39 128.115 631.25C128.355 631.11 128.625 631.04 128.925 631.04C129.271 631.04 129.575 631.127 129.835 631.3C130.095 631.467 130.291 631.697 130.425 631.99C130.618 631.677 130.848 631.44 131.115 631.28C131.388 631.12 131.701 631.04 132.055 631.04C132.381 631.04 132.668 631.117 132.915 631.27C133.168 631.423 133.365 631.637 133.505 631.91C133.645 632.177 133.715 632.49 133.715 632.85V636H132.985V633.03C132.985 632.603 132.878 632.267 132.665 632.02C132.451 631.773 132.158 631.65 131.785 631.65C131.531 631.65 131.301 631.713 131.095 631.84C130.895 631.967 130.718 632.16 130.565 632.42C130.578 632.487 130.588 632.557 130.595 632.63C130.601 632.703 130.605 632.777 130.605 632.85V636H129.875V633.03C129.875 632.603 129.765 632.267 129.545 632.02C129.331 631.773 129.038 631.65 128.665 631.65C128.165 631.65 127.768 631.89 127.475 632.37V636H126.745ZM137.392 636.1C136.939 636.1 136.529 635.99 136.162 635.77C135.795 635.543 135.505 635.24 135.292 634.86C135.079 634.473 134.972 634.04 134.972 633.56C134.972 633.08 135.072 632.65 135.272 632.27C135.479 631.89 135.755 631.59 136.102 631.37C136.449 631.15 136.835 631.04 137.262 631.04C137.695 631.04 138.079 631.15 138.412 631.37C138.752 631.583 139.019 631.877 139.212 632.25C139.412 632.617 139.512 633.033 139.512 633.5V633.72H135.682C135.709 634.053 135.799 634.353 135.952 634.62C136.112 634.88 136.319 635.087 136.572 635.24C136.832 635.387 137.115 635.46 137.422 635.46C137.675 635.46 137.919 635.417 138.152 635.33C138.392 635.237 138.595 635.113 138.762 634.96L139.222 635.45C138.942 635.67 138.652 635.833 138.352 635.94C138.052 636.047 137.732 636.1 137.392 636.1ZM135.702 633.2H138.792C138.759 632.907 138.669 632.647 138.522 632.42C138.382 632.187 138.202 632.003 137.982 631.87C137.769 631.737 137.529 631.67 137.262 631.67C136.995 631.67 136.752 631.737 136.532 631.87C136.312 631.997 136.129 632.177 135.982 632.41C135.842 632.637 135.749 632.9 135.702 633.2ZM140.758 636V631.12H141.488V632.12C141.615 631.78 141.795 631.517 142.028 631.33C142.268 631.137 142.542 631.04 142.848 631.04C142.935 631.04 143.015 631.047 143.088 631.06C143.162 631.067 143.235 631.083 143.308 631.11V631.77C143.228 631.743 143.142 631.723 143.048 631.71C142.962 631.69 142.878 631.68 142.798 631.68C142.498 631.68 142.235 631.767 142.008 631.94C141.788 632.113 141.615 632.357 141.488 632.67V636H140.758ZM146.161 636.08C145.708 636.08 145.298 635.97 144.931 635.75C144.571 635.523 144.285 635.22 144.071 634.84C143.858 634.453 143.751 634.027 143.751 633.56C143.751 633.087 143.858 632.66 144.071 632.28C144.285 631.9 144.571 631.6 144.931 631.38C145.298 631.153 145.708 631.04 146.161 631.04C146.521 631.04 146.865 631.107 147.191 631.24C147.518 631.373 147.801 631.56 148.041 631.8L147.571 632.31C147.398 632.117 147.188 631.967 146.941 631.86C146.695 631.753 146.445 631.7 146.191 631.7C145.871 631.7 145.581 631.783 145.321 631.95C145.068 632.117 144.865 632.34 144.711 632.62C144.558 632.9 144.481 633.213 144.481 633.56C144.481 633.907 144.558 634.22 144.711 634.5C144.865 634.78 145.068 635.003 145.321 635.17C145.581 635.337 145.871 635.42 146.191 635.42C146.445 635.42 146.695 635.367 146.941 635.26C147.188 635.147 147.398 634.997 147.571 634.81L148.041 635.32C147.801 635.56 147.518 635.747 147.191 635.88C146.865 636.013 146.521 636.08 146.161 636.08ZM151.113 636.1C150.659 636.1 150.249 635.99 149.883 635.77C149.516 635.543 149.226 635.24 149.013 634.86C148.799 634.473 148.693 634.04 148.693 633.56C148.693 633.08 148.793 632.65 148.993 632.27C149.199 631.89 149.476 631.59 149.823 631.37C150.169 631.15 150.556 631.04 150.983 631.04C151.416 631.04 151.799 631.15 152.133 631.37C152.473 631.583 152.739 631.877 152.933 632.25C153.133 632.617 153.233 633.033 153.233 633.5V633.72H149.403C149.429 634.053 149.519 634.353 149.673 634.62C149.833 634.88 150.039 635.087 150.293 635.24C150.553 635.387 150.836 635.46 151.143 635.46C151.396 635.46 151.639 635.417 151.873 635.33C152.113 635.237 152.316 635.113 152.483 634.96L152.943 635.45C152.663 635.67 152.373 635.833 152.073 635.94C151.773 636.047 151.453 636.1 151.113 636.1ZM149.423 633.2H152.513C152.479 632.907 152.389 632.647 152.243 632.42C152.103 632.187 151.923 632.003 151.703 631.87C151.489 631.737 151.249 631.67 150.983 631.67C150.716 631.67 150.473 631.737 150.253 631.87C150.033 631.997 149.849 632.177 149.703 632.41C149.563 632.637 149.469 632.9 149.423 633.2Z" fill="#7C868D"/>
<rect x="193.2" y="566" width="52" height="52" rx="12" fill="#2A4148"/>
<path fill-rule="evenodd" clip-rule="evenodd" d="M216.75 588.333C217.475 587.849 218.328 587.59 219.2 587.59C220.369 587.593 221.489 588.058 222.315 588.885C223.142 589.711 223.607 590.831 223.61 592C223.61 592.872 223.351 593.725 222.867 594.45C222.382 595.175 221.693 595.741 220.888 596.074C220.082 596.408 219.195 596.495 218.34 596.325C217.484 596.155 216.698 595.735 216.082 595.118C215.465 594.502 215.045 593.716 214.875 592.86C214.705 592.005 214.792 591.118 215.126 590.312C215.459 589.507 216.025 588.818 216.75 588.333ZM217.305 594.835C217.866 595.21 218.526 595.41 219.2 595.41C220.104 595.41 220.972 595.051 221.611 594.411C222.251 593.772 222.61 592.904 222.61 592C222.61 591.326 222.41 590.666 222.035 590.106C221.661 589.545 221.128 589.108 220.505 588.85C219.882 588.591 219.196 588.524 218.535 588.656C217.873 588.787 217.266 589.112 216.789 589.589C216.312 590.066 215.987 590.673 215.856 591.335C215.724 591.996 215.791 592.682 216.05 593.305C216.308 593.928 216.745 594.461 217.305 594.835Z" fill="#F2F2F2"/>
<path fill-rule="evenodd" clip-rule="evenodd" d="M227.2 589.6L228.28 590L228.3 590.01C228.71 590.16 229.063 590.432 229.313 590.79C229.563 591.148 229.697 591.574 229.697 592.01C229.697 592.446 229.563 592.872 229.313 593.23C229.063 593.588 228.71 593.86 228.3 594.01L227.2 594.4C227.057 594.452 226.926 594.532 226.815 594.636C226.703 594.74 226.614 594.865 226.553 595.004C226.491 595.144 226.458 595.294 226.456 595.446C226.454 595.598 226.482 595.749 226.54 595.89C226.536 595.927 226.536 595.963 226.54 596L227.04 597C227.22 597.392 227.277 597.83 227.202 598.256C227.128 598.681 226.926 599.074 226.624 599.382C226.321 599.69 225.932 599.898 225.508 599.98C225.084 600.062 224.645 600.013 224.25 599.84L223.2 599.34C223.06 599.262 222.905 599.214 222.745 599.2C222.586 599.186 222.425 599.206 222.274 599.259C222.122 599.312 221.984 599.396 221.868 599.507C221.752 599.617 221.66 599.751 221.6 599.9V600L221.19 601.1C221.04 601.51 220.767 601.863 220.41 602.113C220.052 602.363 219.626 602.497 219.19 602.497C218.754 602.497 218.328 602.363 217.97 602.113C217.612 601.863 217.34 601.51 217.19 601.1L216.8 600C216.749 599.862 216.671 599.736 216.571 599.628C216.471 599.52 216.35 599.433 216.217 599.372C216.083 599.31 215.938 599.276 215.791 599.271C215.644 599.265 215.498 599.289 215.36 599.34H215.26L214.2 599.84C213.802 600.03 213.356 600.092 212.922 600.017C212.488 599.943 212.087 599.736 211.776 599.424C211.464 599.113 211.257 598.712 211.183 598.278C211.108 597.844 211.17 597.397 211.36 597L211.86 596C211.937 595.86 211.983 595.705 211.996 595.546C212.01 595.386 211.989 595.226 211.936 595.075C211.884 594.924 211.8 594.786 211.69 594.67C211.58 594.554 211.447 594.462 211.3 594.4H211.2L210.12 594C209.71 593.85 209.356 593.578 209.107 593.22C208.857 592.862 208.723 592.436 208.723 592C208.723 591.564 208.857 591.138 209.107 590.78C209.356 590.422 209.71 590.15 210.12 590L211.2 589.6C211.343 589.552 211.475 589.476 211.588 589.376C211.701 589.277 211.794 589.156 211.86 589.02C211.917 588.884 211.946 588.738 211.946 588.59C211.946 588.442 211.917 588.296 211.86 588.16C211.864 588.123 211.864 588.087 211.86 588.05L211.36 587C211.17 586.603 211.108 586.156 211.183 585.722C211.257 585.288 211.464 584.887 211.776 584.576C212.087 584.264 212.488 584.057 212.922 583.983C213.356 583.908 213.802 583.97 214.2 584.16L215.29 584.64C215.562 584.767 215.873 584.782 216.156 584.68C216.439 584.579 216.67 584.371 216.8 584.1C216.804 584.067 216.804 584.033 216.8 584L217.2 582.92C217.392 582.395 217.782 581.965 218.286 581.722C218.79 581.479 219.369 581.443 219.9 581.62C220.199 581.727 220.471 581.899 220.696 582.124C220.921 582.349 221.093 582.621 221.2 582.92L221.6 584C221.648 584.143 221.724 584.275 221.824 584.388C221.923 584.501 222.044 584.594 222.18 584.66C222.315 584.719 222.462 584.75 222.61 584.75C222.758 584.75 222.904 584.719 223.04 584.66H223.14L224.2 584.16C224.452 584.038 224.725 583.967 225.005 583.951C225.284 583.936 225.564 583.975 225.828 584.068C226.092 584.161 226.335 584.306 226.543 584.493C226.751 584.68 226.92 584.907 227.04 585.16C227.178 585.447 227.25 585.761 227.25 586.08C227.25 586.399 227.178 586.713 227.04 587L226.56 588.09C226.433 588.362 226.418 588.673 226.52 588.956C226.621 589.239 226.829 589.47 227.1 589.6H227.2ZM228.368 592.812C228.485 592.692 228.575 592.548 228.63 592.39V592.38C228.718 592.095 228.692 591.786 228.555 591.521C228.419 591.255 228.183 591.054 227.9 590.96L226.8 590.57L226.59 590.49C226.337 590.37 226.11 590.201 225.923 589.993C225.735 589.785 225.591 589.542 225.498 589.278C225.405 589.014 225.365 588.734 225.381 588.455C225.397 588.176 225.468 587.902 225.59 587.65L226.09 586.65C226.167 586.495 226.208 586.324 226.208 586.15C226.208 585.976 226.167 585.805 226.09 585.65C225.958 585.383 225.729 585.176 225.45 585.07C225.171 584.955 224.859 584.955 224.58 585.07L223.53 585.57L223.33 585.66C223.066 585.755 222.786 585.795 222.506 585.78C222.226 585.764 221.952 585.693 221.7 585.57C221.446 585.453 221.218 585.285 221.031 585.077C220.844 584.869 220.7 584.625 220.61 584.36L220.22 583.26C220.163 583.103 220.071 582.96 219.951 582.842C219.832 582.725 219.688 582.635 219.53 582.58C219.391 582.529 219.243 582.507 219.095 582.513C218.947 582.52 218.802 582.556 218.668 582.619C218.534 582.683 218.414 582.772 218.315 582.882C218.216 582.992 218.139 583.12 218.09 583.26L217.69 584.36C217.669 584.429 217.643 584.496 217.61 584.56C217.366 585.069 216.929 585.46 216.397 585.648C215.864 585.835 215.279 585.804 214.77 585.56L213.77 585.06C213.554 584.945 213.306 584.904 213.064 584.942C212.822 584.98 212.599 585.096 212.428 585.272C212.258 585.448 212.15 585.675 212.119 585.918C212.089 586.161 212.138 586.407 212.26 586.62L212.76 587.62C212.791 587.685 212.818 587.752 212.84 587.82C212.939 588.083 212.983 588.363 212.969 588.643C212.955 588.924 212.884 589.198 212.76 589.45C212.531 589.957 212.11 590.353 211.59 590.55L210.49 590.94C210.27 591.018 210.079 591.162 209.945 591.353C209.81 591.544 209.738 591.772 209.738 592.005C209.738 592.238 209.81 592.466 209.945 592.657C210.079 592.848 210.27 592.992 210.49 593.07L211.59 593.46L211.79 593.55C212.043 593.67 212.27 593.839 212.457 594.047C212.644 594.255 212.789 594.498 212.882 594.762C212.975 595.026 213.014 595.306 212.999 595.585C212.983 595.864 212.912 596.138 212.79 596.39L212.29 597.44C212.187 597.651 212.153 597.889 212.192 598.121C212.231 598.353 212.341 598.566 212.507 598.732C212.674 598.899 212.887 599.009 213.119 599.048C213.351 599.087 213.589 599.053 213.8 598.95L214.8 598.45L215 598.36C215.232 598.281 215.475 598.241 215.72 598.24C216.035 598.24 216.346 598.312 216.63 598.45C216.884 598.568 217.112 598.735 217.299 598.943C217.486 599.151 217.629 599.395 217.72 599.66L218.12 600.76C218.174 600.918 218.263 601.061 218.381 601.179C218.499 601.297 218.642 601.386 218.8 601.44C219.082 601.54 219.393 601.525 219.664 601.398C219.936 601.27 220.146 601.041 220.25 600.76L220.64 599.66C220.662 599.588 220.689 599.518 220.72 599.45C220.964 598.941 221.4 598.55 221.933 598.362C222.465 598.175 223.051 598.206 223.56 598.45L224.61 598.95C224.766 599.025 224.937 599.063 225.11 599.063C225.283 599.063 225.454 599.025 225.61 598.95C225.745 598.887 225.866 598.797 225.966 598.687C226.066 598.576 226.143 598.447 226.192 598.306C226.242 598.166 226.262 598.017 226.253 597.868C226.244 597.719 226.206 597.574 226.14 597.44L225.64 596.39L225.55 596.18C225.364 595.648 225.397 595.064 225.64 594.557C225.884 594.049 226.319 593.658 226.85 593.47L227.95 593.08C228.107 593.023 228.25 592.931 228.368 592.812Z" fill="#F2F2F2"/>
<path d="M212.275 636.11C211.775 636.11 211.308 636.02 210.875 635.84C210.448 635.653 210.072 635.397 209.745 635.07C209.418 634.737 209.165 634.353 208.985 633.92C208.805 633.48 208.715 633.007 208.715 632.5C208.715 631.993 208.805 631.523 208.985 631.09C209.165 630.65 209.418 630.267 209.745 629.94C210.072 629.607 210.448 629.35 210.875 629.17C211.308 628.983 211.775 628.89 212.275 628.89C212.622 628.89 212.952 628.937 213.265 629.03C213.585 629.117 213.885 629.247 214.165 629.42C214.445 629.587 214.695 629.793 214.915 630.04L214.405 630.57C214.145 630.257 213.825 630.017 213.445 629.85C213.072 629.677 212.682 629.59 212.275 629.59C211.882 629.59 211.515 629.663 211.175 629.81C210.835 629.957 210.538 630.163 210.285 630.43C210.038 630.697 209.845 631.007 209.705 631.36C209.565 631.707 209.495 632.087 209.495 632.5C209.495 632.907 209.565 633.287 209.705 633.64C209.845 633.993 210.038 634.303 210.285 634.57C210.538 634.837 210.835 635.043 211.175 635.19C211.515 635.337 211.882 635.41 212.275 635.41C212.682 635.41 213.072 635.323 213.445 635.15C213.825 634.977 214.145 634.737 214.405 634.43L214.915 634.96C214.695 635.207 214.445 635.417 214.165 635.59C213.885 635.757 213.585 635.887 213.265 635.98C212.952 636.067 212.622 636.11 212.275 636.11ZM216.301 636V629H217.371L219.711 633.98L222.051 629H223.121V636H222.391V629.91L219.711 635.5L217.021 629.89V636H216.301ZM227.164 636.11C226.618 636.11 226.111 636.013 225.644 635.82C225.178 635.62 224.728 635.32 224.294 634.92L224.764 634.36C225.184 634.753 225.578 635.033 225.944 635.2C226.318 635.367 226.731 635.45 227.184 635.45C227.544 635.45 227.864 635.39 228.144 635.27C228.431 635.143 228.654 634.973 228.814 634.76C228.974 634.547 229.054 634.303 229.054 634.03C229.054 633.677 228.938 633.41 228.704 633.23C228.471 633.043 228.068 632.9 227.494 632.8L226.364 632.61C225.724 632.497 225.254 632.303 224.954 632.03C224.661 631.75 224.514 631.377 224.514 630.91C224.514 630.517 224.614 630.17 224.814 629.87C225.021 629.563 225.304 629.323 225.664 629.15C226.024 628.977 226.441 628.89 226.914 628.89C227.434 628.89 227.918 628.963 228.364 629.11C228.811 629.25 229.251 629.473 229.684 629.78L229.284 630.38C228.924 630.107 228.544 629.9 228.144 629.76C227.744 629.613 227.338 629.54 226.924 629.54C226.598 629.54 226.308 629.597 226.054 629.71C225.808 629.823 225.611 629.977 225.464 630.17C225.324 630.363 225.254 630.583 225.254 630.83C225.254 631.137 225.358 631.377 225.564 631.55C225.771 631.723 226.108 631.847 226.574 631.92L227.694 632.11C228.441 632.243 228.981 632.46 229.314 632.76C229.654 633.053 229.824 633.463 229.824 633.99C229.824 634.397 229.708 634.76 229.474 635.08C229.248 635.4 228.934 635.653 228.534 635.84C228.134 636.02 227.678 636.11 227.164 636.11Z" fill="#7C868D"/>
<rect x="286" y="566" width="52" height="52" rx="12" fill="#2A4148"/>
<path fill-rule="evenodd" clip-rule="evenodd" d="M316.632 597.34C315.07 598.735 313.009 599.583 310.75 599.583C305.871 599.583 301.917 595.628 301.917 590.75C301.917 585.871 305.871 581.917 310.75 581.917C315.628 581.917 319.583 585.871 319.583 590.75C319.583 593.009 318.735 595.071 317.34 596.633L321.937 601.23C322.132 601.425 322.132 601.742 321.937 601.937C321.741 602.132 321.425 602.132 321.23 601.937L316.632 597.34ZM302.917 590.75C302.917 586.424 306.424 582.917 310.75 582.917C315.076 582.917 318.583 586.424 318.583 590.75C318.583 592.91 317.709 594.866 316.295 596.283C316.293 596.285 316.291 596.287 316.289 596.289C316.287 596.291 316.285 596.293 316.283 596.295C314.866 597.709 312.91 598.583 310.75 598.583C306.424 598.583 302.917 595.076 302.917 590.75Z" fill="#F2F2F2"/>
<path d="M299.711 636.11C299.164 636.11 298.657 636.013 298.191 635.82C297.724 635.62 297.274 635.32 296.841 634.92L297.311 634.36C297.731 634.753 298.124 635.033 298.491 635.2C298.864 635.367 299.277 635.45 299.731 635.45C300.091 635.45 300.411 635.39 300.691 635.27C300.977 635.143 301.201 634.973 301.361 634.76C301.521 634.547 301.601 634.303 301.601 634.03C301.601 633.677 301.484 633.41 301.251 633.23C301.017 633.043 300.614 632.9 300.041 632.8L298.911 632.61C298.271 632.497 297.801 632.303 297.501 632.03C297.207 631.75 297.061 631.377 297.061 630.91C297.061 630.517 297.161 630.17 297.361 629.87C297.567 629.563 297.851 629.323 298.211 629.15C298.571 628.977 298.987 628.89 299.461 628.89C299.981 628.89 300.464 628.963 300.911 629.11C301.357 629.25 301.797 629.473 302.231 629.78L301.831 630.38C301.471 630.107 301.091 629.9 300.691 629.76C300.291 629.613 299.884 629.54 299.471 629.54C299.144 629.54 298.854 629.597 298.601 629.71C298.354 629.823 298.157 629.977 298.011 630.17C297.871 630.363 297.801 630.583 297.801 630.83C297.801 631.137 297.904 631.377 298.111 631.55C298.317 631.723 298.654 631.847 299.121 631.92L300.241 632.11C300.987 632.243 301.527 632.46 301.861 632.76C302.201 633.053 302.371 633.463 302.371 633.99C302.371 634.397 302.254 634.76 302.021 635.08C301.794 635.4 301.481 635.653 301.081 635.84C300.681 636.02 300.224 636.11 299.711 636.11ZM305.839 636.1C305.385 636.1 304.975 635.99 304.609 635.77C304.242 635.543 303.952 635.24 303.739 634.86C303.525 634.473 303.419 634.04 303.419 633.56C303.419 633.08 303.519 632.65 303.719 632.27C303.925 631.89 304.202 631.59 304.549 631.37C304.895 631.15 305.282 631.04 305.709 631.04C306.142 631.04 306.525 631.15 306.859 631.37C307.199 631.583 307.465 631.877 307.659 632.25C307.859 632.617 307.959 633.033 307.959 633.5V633.72H304.129C304.155 634.053 304.245 634.353 304.399 634.62C304.559 634.88 304.765 635.087 305.019 635.24C305.279 635.387 305.562 635.46 305.869 635.46C306.122 635.46 306.365 635.417 306.599 635.33C306.839 635.237 307.042 635.113 307.209 634.96L307.669 635.45C307.389 635.67 307.099 635.833 306.799 635.94C306.499 636.047 306.179 636.1 305.839 636.1ZM304.149 633.2H307.239C307.205 632.907 307.115 632.647 306.969 632.42C306.829 632.187 306.649 632.003 306.429 631.87C306.215 631.737 305.975 631.67 305.709 631.67C305.442 631.67 305.199 631.737 304.979 631.87C304.759 631.997 304.575 632.177 304.429 632.41C304.289 632.637 304.195 632.9 304.149 633.2ZM310.617 636.09C310.271 636.09 309.964 636.027 309.697 635.9C309.431 635.773 309.221 635.6 309.067 635.38C308.921 635.153 308.847 634.893 308.847 634.6C308.847 634.307 308.924 634.053 309.077 633.84C309.231 633.62 309.444 633.45 309.717 633.33C309.991 633.21 310.311 633.15 310.677 633.15C310.957 633.15 311.221 633.18 311.467 633.24C311.721 633.3 311.954 633.397 312.167 633.53V632.86C312.167 632.46 312.061 632.16 311.847 631.96C311.634 631.753 311.321 631.65 310.907 631.65C310.681 631.65 310.447 631.683 310.207 631.75C309.974 631.817 309.714 631.923 309.427 632.07L309.157 631.51C309.811 631.197 310.424 631.04 310.997 631.04C311.604 631.04 312.071 631.19 312.397 631.49C312.724 631.783 312.887 632.207 312.887 632.76V636H312.167V635.43C311.954 635.65 311.717 635.817 311.457 635.93C311.197 636.037 310.917 636.09 310.617 636.09ZM309.547 634.58C309.547 634.867 309.657 635.097 309.877 635.27C310.104 635.443 310.401 635.53 310.767 635.53C311.041 635.53 311.291 635.483 311.517 635.39C311.751 635.297 311.967 635.157 312.167 634.97V634.03C311.961 633.91 311.747 633.823 311.527 633.77C311.307 633.71 311.061 633.68 310.787 633.68C310.414 633.68 310.114 633.763 309.887 633.93C309.661 634.09 309.547 634.307 309.547 634.58ZM314.371 636V631.12H315.101V632.12C315.228 631.78 315.408 631.517 315.641 631.33C315.881 631.137 316.154 631.04 316.461 631.04C316.548 631.04 316.628 631.047 316.701 631.06C316.774 631.067 316.848 631.083 316.921 631.11V631.77C316.841 631.743 316.754 631.723 316.661 631.71C316.574 631.69 316.491 631.68 316.411 631.68C316.111 631.68 315.848 631.767 315.621 631.94C315.401 632.113 315.228 632.357 315.101 632.67V636H314.371ZM319.774 636.08C319.321 636.08 318.911 635.97 318.544 635.75C318.184 635.523 317.897 635.22 317.684 634.84C317.471 634.453 317.364 634.027 317.364 633.56C317.364 633.087 317.471 632.66 317.684 632.28C317.897 631.9 318.184 631.6 318.544 631.38C318.911 631.153 319.321 631.04 319.774 631.04C320.134 631.04 320.477 631.107 320.804 631.24C321.131 631.373 321.414 631.56 321.654 631.8L321.184 632.31C321.011 632.117 320.801 631.967 320.554 631.86C320.307 631.753 320.057 631.7 319.804 631.7C319.484 631.7 319.194 631.783 318.934 631.95C318.681 632.117 318.477 632.34 318.324 632.62C318.171 632.9 318.094 633.213 318.094 633.56C318.094 633.907 318.171 634.22 318.324 634.5C318.477 634.78 318.681 635.003 318.934 635.17C319.194 635.337 319.484 635.42 319.804 635.42C320.057 635.42 320.307 635.367 320.554 635.26C320.801 635.147 321.011 634.997 321.184 634.81L321.654 635.32C321.414 635.56 321.131 635.747 320.804 635.88C320.477 636.013 320.134 636.08 319.774 636.08ZM322.672 636V628.78L323.402 628.63V631.91C323.589 631.617 323.812 631.4 324.072 631.26C324.332 631.113 324.625 631.04 324.952 631.04C325.305 631.04 325.612 631.117 325.872 631.27C326.139 631.417 326.345 631.627 326.492 631.9C326.645 632.167 326.722 632.48 326.722 632.84V636H325.992V633.05C325.992 632.617 325.872 632.277 325.632 632.03C325.399 631.777 325.082 631.65 324.682 631.65C324.415 631.65 324.172 631.713 323.952 631.84C323.732 631.967 323.549 632.153 323.402 632.4V636H322.672Z" fill="#7C868D"/>
<rect x="378.8" y="566" width="52" height="52" rx="12" fill="#2A4148"/>
<path fill-rule="evenodd" clip-rule="evenodd" d="M407.868 589.514C408.089 589.679 408.135 589.993 407.969 590.214L405.068 594.089C404.961 594.232 404.824 594.35 404.666 594.436C404.509 594.521 404.335 594.572 404.157 594.585C403.978 594.597 403.799 594.571 403.631 594.509C403.463 594.446 403.311 594.348 403.184 594.222L401.684 592.722C401.489 592.526 401.489 592.21 401.684 592.015C401.88 591.819 402.196 591.819 402.391 592.015L403.891 593.514C403.917 593.54 403.947 593.559 403.981 593.572C404.014 593.584 404.05 593.59 404.086 593.587C404.122 593.585 404.157 593.574 404.189 593.557C404.22 593.54 404.247 593.516 404.269 593.488C404.269 593.488 404.269 593.488 404.269 593.488L407.169 589.614C407.334 589.393 407.647 589.348 407.868 589.514Z" fill="#F2F2F2"/>
<path fill-rule="evenodd" clip-rule="evenodd" d="M404.8 580C405.076 580 405.3 580.224 405.3 580.5V581.5C405.3 581.776 405.076 582 404.8 582C404.523 582 404.3 581.776 404.3 581.5V580.5C404.3 580.224 404.523 580 404.8 580Z" fill="#F2F2F2"/>
<path fill-rule="evenodd" clip-rule="evenodd" d="M399.06 581.463C399.303 581.331 399.607 581.421 399.739 581.663L400.217 582.541C400.349 582.784 400.259 583.087 400.017 583.219C399.774 583.352 399.47 583.262 399.338 583.019L398.86 582.141C398.728 581.899 398.818 581.595 399.06 581.463Z" fill="#F2F2F2"/>
<path fill-rule="evenodd" clip-rule="evenodd" d="M394.719 585.49C394.869 585.258 395.179 585.192 395.411 585.342L396.251 585.885C396.483 586.035 396.549 586.344 396.399 586.576C396.249 586.808 395.94 586.875 395.708 586.725L394.868 586.182C394.636 586.032 394.57 585.722 394.719 585.49Z" fill="#F2F2F2"/>
<path fill-rule="evenodd" clip-rule="evenodd" d="M410.538 581.463C410.781 581.595 410.87 581.899 410.738 582.141L410.26 583.019C410.128 583.262 409.824 583.352 409.582 583.219C409.339 583.087 409.25 582.784 409.382 582.541L409.86 581.663C409.992 581.421 410.296 581.331 410.538 581.463Z" fill="#F2F2F2"/>
<path fill-rule="evenodd" clip-rule="evenodd" d="M414.88 585.49C415.03 585.722 414.963 586.032 414.731 586.182L413.891 586.725C413.659 586.875 413.35 586.808 413.2 586.576C413.05 586.344 413.116 586.035 413.348 585.885L414.188 585.342C414.42 585.192 414.73 585.258 414.88 585.49Z" fill="#F2F2F2"/>
<path fill-rule="evenodd" clip-rule="evenodd" d="M404.8 602C405.076 602 405.3 602.224 405.3 602.5V603.5C405.3 603.776 405.076 604 404.8 604C404.523 604 404.3 603.776 404.3 603.5V602.5C404.3 602.224 404.523 602 404.8 602Z" fill="#F2F2F2"/>
<path fill-rule="evenodd" clip-rule="evenodd" d="M400.017 600.784C400.259 600.916 400.349 601.219 400.217 601.462L399.739 602.34C399.607 602.582 399.303 602.672 399.06 602.54C398.818 602.408 398.728 602.104 398.86 601.862L399.338 600.984C399.47 600.741 399.774 600.651 400.017 600.784Z" fill="#F2F2F2"/>
<path fill-rule="evenodd" clip-rule="evenodd" d="M396.399 597.424C396.549 597.656 396.482 597.966 396.25 598.115L395.41 598.657C395.178 598.807 394.869 598.74 394.719 598.508C394.57 598.276 394.636 597.967 394.868 597.817L395.708 597.275C395.94 597.125 396.25 597.192 396.399 597.424Z" fill="#F2F2F2"/>
<path fill-rule="evenodd" clip-rule="evenodd" d="M409.582 600.784C409.824 600.651 410.128 600.741 410.26 600.984L410.738 601.862C410.87 602.104 410.781 602.408 410.538 602.54C410.296 602.672 409.992 602.582 409.86 602.34L409.382 601.462C409.25 601.219 409.339 600.916 409.582 600.784Z" fill="#F2F2F2"/>
<path fill-rule="evenodd" clip-rule="evenodd" d="M413.2 597.424C413.349 597.192 413.659 597.125 413.891 597.275L414.731 597.817C414.963 597.967 415.03 598.276 414.88 598.508C414.73 598.74 414.421 598.807 414.189 598.657L413.349 598.115C413.117 597.966 413.05 597.656 413.2 597.424Z" fill="#F2F2F2"/>
<path fill-rule="evenodd" clip-rule="evenodd" d="M404.8 585.5C401.21 585.5 398.3 588.41 398.3 592C398.3 595.59 401.21 598.5 404.8 598.5C408.389 598.5 411.3 595.59 411.3 592C411.3 588.41 408.389 585.5 404.8 585.5ZM397.3 592C397.3 587.858 400.657 584.5 404.8 584.5C408.942 584.5 412.3 587.858 412.3 592C412.3 596.142 408.942 599.5 404.8 599.5C400.657 599.5 397.3 596.142 397.3 592Z" fill="#F2F2F2"/>
<path fill-rule="evenodd" clip-rule="evenodd" d="M393.927 592C394.071 592.185 394.284 592.449 394.56 592.766C395.118 593.408 395.928 594.264 396.936 595.119C398.963 596.839 401.725 598.5 404.8 598.5C407.874 598.5 410.636 596.839 412.664 595.119C413.671 594.264 414.481 593.408 415.039 592.766C415.315 592.449 415.528 592.185 415.672 592C415.528 591.815 415.315 591.551 415.039 591.234C414.481 590.592 413.671 589.736 412.664 588.881C410.636 587.161 407.874 585.5 404.8 585.5C401.725 585.5 398.963 587.161 396.936 588.881C395.928 589.736 395.118 590.592 394.56 591.234C394.284 591.551 394.071 591.815 393.927 592ZM416.3 592C416.706 591.709 416.706 591.709 416.706 591.709L416.705 591.707L416.701 591.702L416.689 591.685C416.678 591.671 416.663 591.65 416.643 591.623C416.602 591.569 416.543 591.49 416.466 591.392C416.312 591.194 416.086 590.914 415.794 590.578C415.212 589.908 414.366 589.014 413.311 588.119C411.213 586.339 408.225 584.5 404.8 584.5C401.374 584.5 398.386 586.339 396.289 588.119C395.233 589.014 394.387 589.908 393.805 590.578C393.513 590.914 393.287 591.194 393.133 591.392C393.056 591.49 392.997 591.569 392.956 591.623C392.936 591.65 392.921 591.671 392.91 591.685L392.898 591.702L392.894 591.707L392.893 591.709C392.893 591.709 392.893 591.709 393.3 592L392.893 591.709C392.769 591.882 392.768 592.117 392.893 592.291L393.3 592C392.893 592.291 392.893 592.29 392.893 592.291L392.894 592.293L392.898 592.298L392.91 592.315C392.921 592.329 392.936 592.35 392.956 592.377C392.997 592.431 393.056 592.51 393.133 592.608C393.287 592.806 393.513 593.086 393.805 593.422C394.387 594.092 395.233 594.986 396.289 595.881C398.386 597.661 401.374 599.5 404.8 599.5C408.225 599.5 411.213 597.661 413.311 595.881C414.366 594.986 415.212 594.092 415.794 593.422C416.086 593.086 416.312 592.806 416.466 592.608C416.543 592.51 416.602 592.431 416.643 592.377C416.663 592.35 416.678 592.329 416.689 592.315L416.701 592.298L416.705 592.293L416.706 592.291C416.706 592.291 416.706 592.291 416.3 592ZM416.3 592L416.706 592.291C416.83 592.118 416.83 591.883 416.706 591.709L416.3 592Z" fill="#F2F2F2"/>
<path d="M372.028 636L374.798 629H375.718L378.448 636H377.618L376.788 633.8H373.668L372.838 636H372.028ZM373.908 633.19H376.558L375.228 629.7L373.908 633.19ZM380.884 636.08C380.537 636.08 380.23 636.003 379.964 635.85C379.697 635.697 379.487 635.483 379.334 635.21C379.187 634.937 379.114 634.623 379.114 634.27V631.12H379.854V634.06C379.854 634.493 379.97 634.837 380.204 635.09C380.437 635.343 380.754 635.47 381.154 635.47C381.427 635.47 381.67 635.407 381.884 635.28C382.104 635.153 382.287 634.97 382.434 634.73V631.12H383.164V636H382.434V635.21C382.247 635.497 382.024 635.713 381.764 635.86C381.51 636.007 381.217 636.08 380.884 636.08ZM386.521 636.1C386.101 636.1 385.781 636 385.561 635.8C385.348 635.593 385.241 635.297 385.241 634.91V631.72H384.231V631.12H385.241V629.78L385.971 629.61V631.12H387.371V631.72H385.971V634.72C385.971 634.98 386.024 635.167 386.131 635.28C386.244 635.393 386.428 635.45 386.681 635.45C386.808 635.45 386.921 635.44 387.021 635.42C387.121 635.4 387.238 635.367 387.371 635.32V635.97C387.238 636.017 387.098 636.05 386.951 636.07C386.804 636.09 386.661 636.1 386.521 636.1ZM388.44 636V628.78L389.17 628.63V631.91C389.357 631.617 389.58 631.4 389.84 631.26C390.1 631.113 390.394 631.04 390.72 631.04C391.074 631.04 391.38 631.117 391.64 631.27C391.907 631.417 392.114 631.627 392.26 631.9C392.414 632.167 392.49 632.48 392.49 632.84V636H391.76V633.05C391.76 632.617 391.64 632.277 391.4 632.03C391.167 631.777 390.85 631.65 390.45 631.65C390.184 631.65 389.94 631.713 389.72 631.84C389.5 631.967 389.317 632.153 389.17 632.4V636H388.44ZM396.158 636.1C395.705 636.1 395.295 635.99 394.928 635.77C394.561 635.543 394.271 635.24 394.058 634.86C393.845 634.473 393.738 634.04 393.738 633.56C393.738 633.08 393.838 632.65 394.038 632.27C394.245 631.89 394.521 631.59 394.868 631.37C395.215 631.15 395.601 631.04 396.028 631.04C396.461 631.04 396.845 631.15 397.178 631.37C397.518 631.583 397.785 631.877 397.978 632.25C398.178 632.617 398.278 633.033 398.278 633.5V633.72H394.448C394.475 634.053 394.565 634.353 394.718 634.62C394.878 634.88 395.085 635.087 395.338 635.24C395.598 635.387 395.881 635.46 396.188 635.46C396.441 635.46 396.685 635.417 396.918 635.33C397.158 635.237 397.361 635.113 397.528 634.96L397.988 635.45C397.708 635.67 397.418 635.833 397.118 635.94C396.818 636.047 396.498 636.1 396.158 636.1ZM394.468 633.2H397.558C397.525 632.907 397.435 632.647 397.288 632.42C397.148 632.187 396.968 632.003 396.748 631.87C396.535 631.737 396.295 631.67 396.028 631.67C395.761 631.67 395.518 631.737 395.298 631.87C395.078 631.997 394.895 632.177 394.748 632.41C394.608 632.637 394.515 632.9 394.468 633.2ZM399.524 636V631.12H400.254V631.91C400.441 631.617 400.664 631.4 400.924 631.26C401.184 631.113 401.478 631.04 401.804 631.04C402.158 631.04 402.464 631.117 402.724 631.27C402.991 631.417 403.198 631.627 403.344 631.9C403.498 632.167 403.574 632.48 403.574 632.84V636H402.844V633.05C402.844 632.617 402.724 632.277 402.484 632.03C402.251 631.777 401.934 631.65 401.534 631.65C401.268 631.65 401.024 631.713 400.804 631.84C400.584 631.967 400.401 632.153 400.254 632.4V636H399.524ZM406.756 636.1C406.336 636.1 406.016 636 405.796 635.8C405.582 635.593 405.476 635.297 405.476 634.91V631.72H404.466V631.12H405.476V629.78L406.206 629.61V631.12H407.606V631.72H406.206V634.72C406.206 634.98 406.259 635.167 406.366 635.28C406.479 635.393 406.662 635.45 406.916 635.45C407.042 635.45 407.156 635.44 407.256 635.42C407.356 635.4 407.472 635.367 407.606 635.32V635.97C407.472 636.017 407.332 636.05 407.186 636.07C407.039 636.09 406.896 636.1 406.756 636.1ZM408.665 636V631.12H409.395V636H408.665ZM409.035 629.91C408.888 629.91 408.761 629.86 408.655 629.76C408.555 629.653 408.505 629.53 408.505 629.39C408.505 629.25 408.555 629.13 408.655 629.03C408.761 628.923 408.888 628.87 409.035 628.87C409.181 628.87 409.305 628.923 409.405 629.03C409.511 629.13 409.565 629.25 409.565 629.39C409.565 629.53 409.511 629.653 409.405 629.76C409.305 629.86 409.181 629.91 409.035 629.91ZM413.082 636.08C412.628 636.08 412.218 635.97 411.852 635.75C411.492 635.523 411.205 635.22 410.992 634.84C410.778 634.453 410.672 634.027 410.672 633.56C410.672 633.087 410.778 632.66 410.992 632.28C411.205 631.9 411.492 631.6 411.852 631.38C412.218 631.153 412.628 631.04 413.082 631.04C413.442 631.04 413.785 631.107 414.112 631.24C414.438 631.373 414.722 631.56 414.962 631.8L414.492 632.31C414.318 632.117 414.108 631.967 413.862 631.86C413.615 631.753 413.365 631.7 413.112 631.7C412.792 631.7 412.502 631.783 412.242 631.95C411.988 632.117 411.785 632.34 411.632 632.62C411.478 632.9 411.402 633.213 411.402 633.56C411.402 633.907 411.478 634.22 411.632 634.5C411.785 634.78 411.988 635.003 412.242 635.17C412.502 635.337 412.792 635.42 413.112 635.42C413.365 635.42 413.615 635.367 413.862 635.26C414.108 635.147 414.318 634.997 414.492 634.81L414.962 635.32C414.722 635.56 414.438 635.747 414.112 635.88C413.785 636.013 413.442 636.08 413.082 636.08ZM417.489 636.09C417.143 636.09 416.836 636.027 416.569 635.9C416.303 635.773 416.093 635.6 415.939 635.38C415.793 635.153 415.719 634.893 415.719 634.6C415.719 634.307 415.796 634.053 415.949 633.84C416.103 633.62 416.316 633.45 416.589 633.33C416.863 633.21 417.183 633.15 417.549 633.15C417.829 633.15 418.093 633.18 418.339 633.24C418.593 633.3 418.826 633.397 419.039 633.53V632.86C419.039 632.46 418.933 632.16 418.719 631.96C418.506 631.753 418.193 631.65 417.779 631.65C417.553 631.65 417.319 631.683 417.079 631.75C416.846 631.817 416.586 631.923 416.299 632.07L416.029 631.51C416.683 631.197 417.296 631.04 417.869 631.04C418.476 631.04 418.943 631.19 419.269 631.49C419.596 631.783 419.759 632.207 419.759 632.76V636H419.039V635.43C418.826 635.65 418.589 635.817 418.329 635.93C418.069 636.037 417.789 636.09 417.489 636.09ZM416.419 634.58C416.419 634.867 416.529 635.097 416.749 635.27C416.976 635.443 417.273 635.53 417.639 635.53C417.913 635.53 418.163 635.483 418.389 635.39C418.623 635.297 418.839 635.157 419.039 634.97V634.03C418.833 633.91 418.619 633.823 418.399 633.77C418.179 633.71 417.933 633.68 417.659 633.68C417.286 633.68 416.986 633.763 416.759 633.93C416.533 634.09 416.419 634.307 416.419 634.58ZM422.957 636.1C422.537 636.1 422.217 636 421.997 635.8C421.783 635.593 421.677 635.297 421.677 634.91V631.72H420.667V631.12H421.677V629.78L422.407 629.61V631.12H423.807V631.72H422.407V634.72C422.407 634.98 422.46 635.167 422.567 635.28C422.68 635.393 422.863 635.45 423.117 635.45C423.243 635.45 423.357 635.44 423.457 635.42C423.557 635.4 423.673 635.367 423.807 635.32V635.97C423.673 636.017 423.533 636.05 423.387 636.07C423.24 636.09 423.097 636.1 422.957 636.1ZM424.866 636V631.12H425.596V636H424.866ZM425.236 629.91C425.089 629.91 424.963 629.86 424.856 629.76C424.756 629.653 424.706 629.53 424.706 629.39C424.706 629.25 424.756 629.13 424.856 629.03C424.963 628.923 425.089 628.87 425.236 628.87C425.383 628.87 425.506 628.923 425.606 629.03C425.713 629.13 425.766 629.25 425.766 629.39C425.766 629.53 425.713 629.653 425.606 629.76C425.506 629.86 425.383 629.91 425.236 629.91ZM429.253 636.08C428.799 636.08 428.393 635.97 428.033 635.75C427.673 635.53 427.389 635.23 427.183 634.85C426.976 634.47 426.873 634.04 426.873 633.56C426.873 633.08 426.976 632.65 427.183 632.27C427.389 631.89 427.673 631.59 428.033 631.37C428.393 631.15 428.799 631.04 429.253 631.04C429.699 631.04 430.099 631.15 430.453 631.37C430.813 631.59 431.096 631.89 431.303 632.27C431.509 632.65 431.613 633.08 431.613 633.56C431.613 634.04 431.509 634.47 431.303 634.85C431.096 635.23 430.813 635.53 430.453 635.75C430.099 635.97 429.699 636.08 429.253 636.08ZM429.243 635.44C429.563 635.44 429.846 635.36 430.093 635.2C430.339 635.033 430.533 634.807 430.673 634.52C430.819 634.233 430.893 633.913 430.893 633.56C430.893 633.2 430.819 632.88 430.673 632.6C430.533 632.313 430.339 632.09 430.093 631.93C429.846 631.763 429.563 631.68 429.243 631.68C428.923 631.68 428.639 631.763 428.393 631.93C428.146 632.09 427.949 632.313 427.803 632.6C427.663 632.88 427.593 633.2 427.593 633.56C427.593 633.913 427.663 634.233 427.803 634.52C427.949 634.807 428.146 635.033 428.393 635.2C428.639 635.36 428.923 635.44 429.243 635.44ZM432.894 636V631.12H433.624V631.91C433.81 631.617 434.034 631.4 434.294 631.26C434.554 631.113 434.847 631.04 435.174 631.04C435.527 631.04 435.834 631.117 436.094 631.27C436.36 631.417 436.567 631.627 436.714 631.9C436.867 632.167 436.944 632.48 436.944 632.84V636H436.214V633.05C436.214 632.617 436.094 632.277 435.854 632.03C435.62 631.777 435.304 631.65 434.904 631.65C434.637 631.65 434.394 631.713 434.174 631.84C433.954 631.967 433.77 632.153 433.624 632.4V636H432.894Z" fill="#7C868D"/>
<rect x="471.6" y="566" width="52" height="52" rx="12" fill="#2A4148"/>
<path fill-rule="evenodd" clip-rule="evenodd" d="M487.517 592C487.517 590.573 488.673 589.417 490.1 589.417C491.527 589.417 492.683 590.573 492.683 592C492.683 593.427 491.527 594.583 490.1 594.583C488.673 594.583 487.517 593.427 487.517 592ZM490.1 590.417C489.225 590.417 488.517 591.126 488.517 592C488.517 592.874 489.225 593.583 490.1 593.583C490.974 593.583 491.683 592.874 491.683 592C491.683 591.126 490.974 590.417 490.1 590.417Z" fill="#F2F2F2"/>
<path fill-rule="evenodd" clip-rule="evenodd" d="M495.017 592C495.017 590.573 496.173 589.417 497.6 589.417C499.027 589.417 500.183 590.573 500.183 592C500.183 593.427 499.027 594.583 497.6 594.583C496.173 594.583 495.017 593.427 495.017 592ZM497.6 590.417C496.725 590.417 496.017 591.126 496.017 592C496.017 592.874 496.725 593.583 497.6 593.583C498.474 593.583 499.183 592.874 499.183 592C499.183 591.126 498.474 590.417 497.6 590.417Z" fill="#F2F2F2"/>
<path fill-rule="evenodd" clip-rule="evenodd" d="M505.1 589.417C503.673 589.417 502.517 590.573 502.517 592C502.517 593.427 503.673 594.583 505.1 594.583C506.527 594.583 507.683 593.427 507.683 592C507.683 590.573 506.527 589.417 505.1 589.417ZM503.517 592C503.517 591.126 504.225 590.417 505.1 590.417C505.974 590.417 506.683 591.126 506.683 592C506.683 592.874 505.974 593.583 505.1 593.583C504.225 593.583 503.517 592.874 503.517 592Z" fill="#F2F2F2"/>
<path d="M495.1 636.08C494.953 636.08 494.827 636.027 494.72 635.92C494.62 635.813 494.57 635.687 494.57 635.54C494.57 635.387 494.62 635.26 494.72 635.16C494.827 635.053 494.953 635 495.1 635C495.247 635 495.37 635.053 495.47 635.16C495.577 635.26 495.63 635.387 495.63 635.54C495.63 635.687 495.577 635.813 495.47 635.92C495.37 636.027 495.247 636.08 495.1 636.08ZM497.6 636.08C497.453 636.08 497.327 636.027 497.22 635.92C497.12 635.813 497.07 635.687 497.07 635.54C497.07 635.387 497.12 635.26 497.22 635.16C497.327 635.053 497.453 635 497.6 635C497.747 635 497.87 635.053 497.97 635.16C498.077 635.26 498.13 635.387 498.13 635.54C498.13 635.687 498.077 635.813 497.97 635.92C497.87 636.027 497.747 636.08 497.6 636.08ZM500.1 636.08C499.953 636.08 499.827 636.027 499.72 635.92C499.62 635.813 499.57 635.687 499.57 635.54C499.57 635.387 499.62 635.26 499.72 635.16C499.827 635.053 499.953 635 500.1 635C500.247 635 500.37 635.053 500.47 635.16C500.577 635.26 500.63 635.387 500.63 635.54C500.63 635.687 500.577 635.813 500.47 635.92C500.37 636.027 500.247 636.08 500.1 636.08Z" fill="#7C868D"/>
<path d="M123.579 515L120.572 521H126.572L123.579 515Z" fill="#19181B"/>
<path d="M123.572 523V550" stroke="#19181B" stroke-width="0.75" stroke-dasharray="2.6 2.6"/>
<path d="M123.579 558L126.572 552H120.572L123.579 558Z" fill="#19181B"/>
<path d="M217.792 515L214.786 521H220.786L217.792 515Z" fill="#19181B"/>
<path d="M217.786 523V550" stroke="#19181B" stroke-width="0.75" stroke-dasharray="2.6 2.6"/>
<path d="M217.792 558L220.786 552H214.786L217.792 558Z" fill="#19181B"/>
<path d="M312.006 515L309 521H315L312.006 515Z" fill="#19181B"/>
<path d="M312 523V550" stroke="#19181B" stroke-width="0.75" stroke-dasharray="2.6 2.6"/>
<path d="M312.006 558L315 552H309L312.006 558Z" fill="#19181B"/>
<path d="M406.22 515L403.214 521H409.214L406.22 515Z" fill="#19181B"/>
<path d="M406.214 523V550" stroke="#19181B" stroke-width="0.75" stroke-dasharray="2.6 2.6"/>
<path d="M406.22 558L409.214 552H403.214L406.22 558Z" fill="#19181B"/>
<path d="M500.434 515L497.428 521H503.428L500.434 515Z" fill="#19181B"/>
<path d="M500.428 523V550" stroke="#19181B" stroke-width="0.75" stroke-dasharray="2.6 2.6"/>
<path d="M500.434 558L503.428 552H497.428L500.434 558Z" fill="#19181B"/>
<path d="M123.579 515L120.572 521H126.572L123.579 515Z" fill="#7C868D"/>
<path d="M123.572 523V550" stroke="#7C868D" stroke-width="0.75" stroke-dasharray="2.6 2.6"/>
<path d="M123.579 558L126.572 552H120.572L123.579 558Z" fill="#7C868D"/>
<path d="M217.792 515L214.786 521H220.786L217.792 515Z" fill="#7C868D"/>
<path d="M217.786 523V550" stroke="#7C868D" stroke-width="0.75" stroke-dasharray="2.6 2.6"/>
<path d="M217.792 558L220.786 552H214.786L217.792 558Z" fill="#7C868D"/>
<path d="M312.006 515L309 521H315L312.006 515Z" fill="#7C868D"/>
<path d="M312 523V550" stroke="#7C868D" stroke-width="0.75" stroke-dasharray="2.6 2.6"/>
<path d="M312.006 558L315 552H309L312.006 558Z" fill="#7C868D"/>
<path d="M406.22 515L403.214 521H409.214L406.22 515Z" fill="#7C868D"/>
<path d="M406.214 523V550" stroke="#7C868D" stroke-width="0.75" stroke-dasharray="2.6 2.6"/>
<path d="M406.22 558L409.214 552H403.214L406.22 558Z" fill="#7C868D"/>
<path d="M500.434 515L497.428 521H503.428L500.434 515Z" fill="#7C868D"/>
<path d="M500.428 523V550" stroke="#7C868D" stroke-width="0.75" stroke-dasharray="2.6 2.6"/>
<path d="M500.434 558L503.428 552H497.428L500.434 558Z" fill="#7C868D"/>
<path d="M307.506 271L304.5 277H310.5L307.506 271Z" fill="#7C868D"/>
<path d="M307.5 279V302" stroke="#7C868D" stroke-width="0.75" stroke-dasharray="2.6 2.6"/>
<path d="M307.506 310L310.5 304H304.5L307.506 310Z" fill="#7C868D"/>
</svg>
