<svg width="40" height="40" viewBox="0 0 40 40" version="1.1" xmlns="http://www.w3.org/2000/svg" xmlns:xlink="http://www.w3.org/1999/xlink">
  <title>Instagram</title>
  <desc>Created using Figma</desc>
  <g id="Canvas" transform="translate(-6684 -1294)">
    <g id="Instagram">
      <g id="Combined Shape">
        <use xlink:href="#path0_fill" transform="translate(6684 1294)" fill="#BDBDBD"/>
      </g>
      <g id="Combined Shape">
        <use xlink:href="#path1_fill" transform="translate(6695.26 1305.26)" fill="#BDBDBD"/>
      </g>
      <g id="Shape">
        <use xlink:href="#path2_fill" transform="translate(6700.45 1310.44)" fill="#BDBDBD"/>
      </g>
    </g>
  </g>
  <defs>
    <path id="path0_fill" fill-rule="evenodd" d="M 20 0C 8.9541 0 0 8.95435 0 20C 0 31.0457 8.9541 40 20 40C 31.0459 40 40 31.0457 40 20C 40 8.95435 31.0459 0 20 0ZM 15.603 9.39783C 16.7407 9.34607 17.104 9.33337 20.001 9.33337C 22.8955 9.33337 23.2578 9.34607 24.3955 9.39783C 25.5312 9.44983 26.3066 9.62964 26.9868 9.89343C 27.689 10.1656 28.2822 10.53 28.8755 11.1234C 29.4692 11.7163 29.8335 12.3114 30.1069 13.0129C 30.3691 13.6912 30.5488 14.4663 30.6025 15.6019C 30.6533 16.7396 30.667 17.1033 30.667 20.0001C 30.667 22.8971 30.6533 23.2598 30.6025 24.3976C 30.5488 25.5327 30.3691 26.308 30.1069 26.9865C 29.8335 27.6877 29.4692 28.283 28.8755 28.8759C 28.2832 29.4691 27.689 29.8345 26.9873 30.1069C 26.3086 30.3707 25.5327 30.5505 24.397 30.6025C 23.2593 30.6543 22.897 30.6669 20 30.6669C 17.103 30.6669 16.7397 30.6543 15.6021 30.6025C 14.4668 30.5505 13.6914 30.3707 13.0127 30.1069C 12.3115 29.8345 11.7163 29.4691 11.1235 28.8759C 10.5308 28.283 10.166 27.6877 9.89355 26.9862C 9.62988 26.308 9.4502 25.5328 9.39795 24.3973C 9.34619 23.2595 9.3335 22.8971 9.3335 20.0001C 9.3335 17.1033 9.34668 16.7395 9.39795 15.6017C 9.44873 14.4666 9.62891 13.6912 9.89307 13.0127C 10.1665 12.3114 10.5312 11.7163 11.1245 11.1234C 11.7173 10.5303 12.3125 10.1658 13.0142 9.89343C 13.6924 9.62964 14.4673 9.44983 15.603 9.39783Z"/>
    <path id="path1_fill" fill-rule="evenodd" d="M 7.7876 1.2868e-05L 8.74463 1.2868e-05C 11.5928 1.2868e-05 11.9302 0.0102668 13.0547 0.0612922C 14.0947 0.1089 14.6592 0.282606 15.0352 0.428724C 15.5332 0.621961 15.8882 0.853162 16.2612 1.22645C 16.6343 1.59974 16.8657 1.95534 17.0591 2.45314C 17.2051 2.82875 17.3794 3.3932 17.4268 4.43312C 17.4775 5.55763 17.4888 5.8954 17.4888 8.74208C 17.4888 11.5888 17.4775 11.9265 17.4268 13.051C 17.3789 14.0911 17.2051 14.6555 17.0591 15.031C 16.8657 15.5288 16.6343 15.8833 16.2612 16.2564C 15.8877 16.6298 15.5332 16.8609 15.0352 17.0542C 14.6597 17.2008 14.0947 17.3742 13.0547 17.4218C 11.9302 17.4728 11.5928 17.4839 8.74463 17.4839C 5.89648 17.4839 5.55859 17.4728 4.43408 17.4218C 3.39404 17.3738 2.82959 17.2 2.45361 17.054C 1.95557 16.8606 1.6001 16.6295 1.22705 16.2561C 0.853516 15.8828 0.622559 15.5282 0.428711 15.0302C 0.282715 14.6546 0.108887 14.0901 0.0615234 13.0502C 0.0102539 11.9257 0 11.5879 0 8.73939C 0 5.891 0.0102539 5.55494 0.0615234 4.43043C 0.108887 3.39052 0.282715 2.82606 0.428711 2.44996C 0.62207 1.95228 0.853516 1.59669 1.22705 1.22328C 1.6001 0.849988 1.95557 0.618909 2.45361 0.425062C 2.82959 0.278455 3.39404 0.105115 4.43408 0.0573859C 5.41846 0.0128303 5.7998 -0.000475413 7.7876 1.2868e-05ZM 14.438 1.77113C 13.7314 1.77113 13.1582 2.34376 13.1582 3.05067C 13.1582 3.75734 13.7314 4.3307 14.438 4.3307C 15.145 4.3307 15.7183 3.75734 15.7183 3.05067C 15.7183 2.34401 15.145 1.77064 14.438 1.77113ZM 3.2666 8.74452C 3.2666 5.71937 5.71924 3.26674 8.74463 3.26674C 11.7695 3.26674 14.2212 5.71937 14.2212 8.74452C 14.2212 11.7697 11.7695 14.2213 8.74463 14.2213C 5.71924 14.2213 3.2666 11.7697 3.2666 8.74452Z"/>
    <path id="path2_fill" fill-rule="evenodd" d="M 3.55559 0C 5.51917 0 7.11119 1.59179 7.11119 3.55559C 7.11119 5.51917 5.51917 7.11119 3.55559 7.11119C 1.59179 7.11119 0 5.51917 0 3.55559C 0 1.59179 1.59179 1.579e-15 3.55559 1.579e-15L 3.55559 0Z"/>
  </defs>
</svg>
