<svg width="40" height="40" viewBox="0 0 40 40" version="1.1" xmlns="http://www.w3.org/2000/svg" xmlns:xlink="http://www.w3.org/1999/xlink">
  <title>Combined Shape</title>
  <desc>Created using Figma</desc>
  <g id="Canvas" transform="translate(-6744 -1294)">
    <g id="Combined Shape">
      <use xlink:href="#path0_fill" transform="translate(6744 1294)" fill="#BDBDBD"/>
    </g>
  </g>
  <defs>
    <path id="path0_fill" fill-rule="evenodd" d="M 0 19.9989C 0 31.0437 8.95264 40 20 40C 31.0454 40 40 31.0437 40 19.9989C 40 8.9541 31.0454 0 20 0C 8.95264 0 0 8.9541 0 19.9989ZM 13.3696 36.8771C 6.62793 34.2357 1.85059 27.6766 1.85059 19.9991C 1.85059 9.98682 9.96533 1.87463 19.9761 1.87463C 29.9868 1.87463 38.1016 9.98682 38.1016 19.9991C 38.1016 30.0094 29.9868 38.1238 19.9761 38.1238C 18.106 38.1238 16.3042 37.8409 14.6099 37.314C 15.3467 36.1101 16.4521 34.1372 16.8613 32.5627C 17.082 31.7145 17.9902 28.255 17.9902 28.255C 18.5815 29.3817 20.3081 30.3372 22.146 30.3372C 27.6108 30.3372 31.5508 25.3096 31.5508 19.0631C 31.5508 13.0758 26.6641 8.59448 20.3765 8.59448C 12.5552 8.59448 8.40137 13.847 8.40137 19.5643C 8.40137 22.2206 9.81543 25.5323 12.0776 26.5862C 12.4224 26.7448 12.6069 26.6741 12.686 26.342L 12.8516 25.6682C 12.9653 25.2057 13.1074 24.6292 13.1895 24.2877C 13.2324 24.1035 13.2109 23.9471 13.063 23.7672C 12.3135 22.8589 11.7158 21.1881 11.7158 19.6307C 11.7158 15.6335 14.7427 11.7649 19.8989 11.7649C 24.3525 11.7649 27.4697 14.7981 27.4697 19.1381C 27.4697 24.0414 24.9932 27.4388 21.7715 27.4388C 19.9932 27.4388 18.6606 25.9694 19.0869 24.1635C 19.272 23.3851 19.519 22.5848 19.7598 21.8065C 20.1851 20.4301 20.5889 19.1227 20.5889 18.1292C 20.5889 16.7367 19.8413 15.5757 18.2964 15.5757C 16.4756 15.5757 15.0166 17.4564 15.0166 19.9778C 15.0166 21.5823 15.5586 22.6683 15.5586 22.6683C 15.5586 22.6683 13.7612 30.2621 13.4336 31.6759C 13.0693 33.244 13.2109 35.444 13.3696 36.8771Z"/>
  </defs>
</svg>
