<svg width="40" height="40" viewBox="0 0 40 40" version="1.1" xmlns="http://www.w3.org/2000/svg" xmlns:xlink="http://www.w3.org/1999/xlink">
  <title>Youtube</title>
  <desc>Created using Figma</desc>
    <g id="Canvas" transform="translate(-6804 -1294)">
      <g id="Youtube">
        <g id="Combined Shape">
          <use xlink:href="#path0_fill" transform="translate(6804 1294)" fill="#BDBDBD"/>
        </g>
        <g id="Fill 2">
          <use xlink:href="#path1_fill" transform="translate(6822 1311.33)" fill="#BDBDBD"/>
        </g>
      </g>
    </g>
  <defs>
    <path id="path0_fill" fill-rule="evenodd" d="M 20 0C 8.9541 0 0 8.95435 0 20C 0 31.0457 8.9541 40 20 40C 31.0459 40 40 31.0457 40 20C 40 8.95435 31.0459 0 20 0ZM 28.335 13.1244C 29.2529 13.3763 29.9756 14.1185 30.2212 15.061C 30.667 16.7692 30.667 20.3333 30.667 20.3333C 30.667 20.3333 30.667 23.8973 30.2212 25.6056C 29.9756 26.5481 29.2529 27.2903 28.335 27.5424C 26.6714 28 20 28 20 28C 20 28 13.3291 28 11.6655 27.5424C 10.7476 27.2903 10.0244 26.5481 9.7793 25.6056C 9.3335 23.8973 9.3335 20.3333 9.3335 20.3333C 9.3335 20.3333 9.3335 16.7692 9.7793 15.061C 10.0244 14.1185 10.7476 13.3763 11.6655 13.1244C 13.3291 12.6666 20 12.6666 20 12.6666C 20 12.6666 26.6714 12.6666 28.335 13.1244Z"/>
    <path id="path1_fill" fill-rule="evenodd" d="M 0 6.66667L 0 0L 5.33333 3.33346L 0 6.66667Z"/>
  </defs>
</svg>
