<svg width="609" height="236" viewBox="0 0 609 236" fill="none" xmlns="http://www.w3.org/2000/svg">
<rect x="269" y="19" width="140" height="61" rx="12" fill="#02C652"/>
<path d="M314.159 55.72C313.065 55.72 312.032 55.5333 311.059 55.16C310.099 54.7733 309.172 54.2067 308.279 53.46L309.579 51.7C310.485 52.4333 311.292 52.96 311.999 53.28C312.719 53.5867 313.485 53.74 314.299 53.74C314.912 53.74 315.452 53.6467 315.919 53.46C316.399 53.26 316.765 52.9933 317.019 52.66C317.285 52.3267 317.419 51.94 317.419 51.5C317.419 50.9267 317.225 50.4933 316.839 50.2C316.465 49.8933 315.812 49.66 314.879 49.5L312.299 49.06C311.085 48.8467 310.179 48.44 309.579 47.84C308.992 47.2267 308.699 46.4467 308.699 45.5C308.699 44.66 308.912 43.9267 309.339 43.3C309.765 42.66 310.359 42.1667 311.119 41.82C311.892 41.46 312.805 41.28 313.859 41.28C314.912 41.28 315.912 41.4333 316.859 41.74C317.805 42.0467 318.679 42.4933 319.479 43.08L318.259 44.88C317.552 44.3467 316.825 43.9467 316.079 43.68C315.332 43.4 314.565 43.26 313.779 43.26C313.219 43.26 312.725 43.3467 312.299 43.52C311.885 43.6933 311.559 43.9333 311.319 44.24C311.092 44.5467 310.979 44.8867 310.979 45.26C310.979 45.7667 311.145 46.16 311.479 46.44C311.825 46.7067 312.379 46.9067 313.139 47.04L315.639 47.46C317.052 47.7133 318.092 48.1533 318.759 48.78C319.439 49.4067 319.779 50.2533 319.779 51.32C319.779 52.1733 319.539 52.9333 319.059 53.6C318.592 54.2667 317.939 54.7867 317.099 55.16C316.259 55.5333 315.279 55.72 314.159 55.72ZM326.789 55.7C325.829 55.7 324.962 55.4733 324.189 55.02C323.415 54.5533 322.802 53.9333 322.349 53.16C321.895 52.3733 321.669 51.4867 321.669 50.5C321.669 49.5133 321.882 48.6333 322.309 47.86C322.735 47.0867 323.315 46.4733 324.049 46.02C324.795 45.5533 325.622 45.32 326.529 45.32C327.462 45.32 328.282 45.5467 328.989 46C329.709 46.4533 330.269 47.0667 330.669 47.84C331.082 48.6133 331.289 49.5 331.289 50.5V51.04H323.889C323.969 51.5867 324.142 52.0733 324.409 52.5C324.689 52.9133 325.042 53.24 325.469 53.48C325.909 53.72 326.382 53.84 326.889 53.84C327.355 53.84 327.795 53.76 328.209 53.6C328.635 53.4267 328.989 53.1933 329.269 52.9L330.749 54.24C330.135 54.7467 329.509 55.12 328.869 55.36C328.242 55.5867 327.549 55.7 326.789 55.7ZM323.909 49.64H329.149C329.069 49.16 328.902 48.7333 328.649 48.36C328.409 47.9867 328.102 47.6933 327.729 47.48C327.369 47.2667 326.969 47.16 326.529 47.16C326.089 47.16 325.682 47.2667 325.309 47.48C324.949 47.68 324.649 47.9667 324.409 48.34C324.169 48.7133 324.002 49.1467 323.909 49.64ZM333.593 55.5V45.48L335.853 45.48V47.64C336.147 46.88 336.527 46.3 336.993 45.9C337.46 45.5 338 45.3 338.613 45.3C338.8 45.3133 338.967 45.3333 339.113 45.36C339.26 45.3733 339.42 45.42 339.593 45.5V47.48C339.42 47.4 339.22 47.34 338.993 47.3C338.78 47.26 338.567 47.24 338.353 47.24C337.807 47.24 337.313 47.3867 336.873 47.68C336.447 47.9733 336.107 48.38 335.853 48.9V55.5H333.593ZM344.638 55.5L340.558 45.48H343.018L345.818 52.76L348.598 45.48H350.958L346.838 55.5H344.638ZM356.945 55.7C355.985 55.7 355.118 55.4733 354.345 55.02C353.571 54.5533 352.958 53.9333 352.505 53.16C352.051 52.3733 351.825 51.4867 351.825 50.5C351.825 49.5133 352.038 48.6333 352.465 47.86C352.891 47.0867 353.471 46.4733 354.205 46.02C354.951 45.5533 355.778 45.32 356.685 45.32C357.618 45.32 358.438 45.5467 359.145 46C359.865 46.4533 360.425 47.0667 360.825 47.84C361.238 48.6133 361.445 49.5 361.445 50.5V51.04H354.045C354.125 51.5867 354.298 52.0733 354.565 52.5C354.845 52.9133 355.198 53.24 355.625 53.48C356.065 53.72 356.538 53.84 357.045 53.84C357.511 53.84 357.951 53.76 358.365 53.6C358.791 53.4267 359.145 53.1933 359.425 52.9L360.905 54.24C360.291 54.7467 359.665 55.12 359.025 55.36C358.398 55.5867 357.705 55.7 356.945 55.7ZM354.065 49.64H359.305C359.225 49.16 359.058 48.7333 358.805 48.36C358.565 47.9867 358.258 47.6933 357.885 47.48C357.525 47.2667 357.125 47.16 356.685 47.16C356.245 47.16 355.838 47.2667 355.465 47.48C355.105 47.68 354.805 47.9667 354.565 48.34C354.325 48.7133 354.158 49.1467 354.065 49.64ZM363.75 55.5V45.48H366.01V47.64C366.303 46.88 366.683 46.3 367.15 45.9C367.616 45.5 368.156 45.3 368.77 45.3C368.956 45.3133 369.123 45.3333 369.27 45.36C369.416 45.3733 369.576 45.42 369.75 45.5V47.48C369.576 47.4 369.376 47.34 369.15 47.3C368.936 47.26 368.723 47.24 368.51 47.24C367.963 47.24 367.47 47.3867 367.03 47.68C366.603 47.9733 366.263 48.38 366.01 48.9V55.5H363.75Z" fill="black"/>
<rect x="161" y="19" width="66" height="164" rx="12" fill="#531ED3"/>
<path d="M180.004 107.22C178.991 107.22 178.044 107.04 177.164 106.68C176.284 106.307 175.511 105.793 174.844 105.14C174.191 104.473 173.677 103.707 173.304 102.84C172.944 101.96 172.764 101.013 172.764 100C172.764 98.9867 172.944 98.0467 173.304 97.18C173.677 96.3 174.191 95.5333 174.844 94.88C175.511 94.2133 176.284 93.7 177.164 93.34C178.044 92.9667 178.991 92.78 180.004 92.78C180.724 92.78 181.417 92.88 182.084 93.08C182.751 93.28 183.371 93.5667 183.944 93.94C184.531 94.3 185.037 94.7467 185.464 95.28L183.864 96.84C183.371 96.2133 182.791 95.74 182.124 95.42C181.457 95.1 180.751 94.94 180.004 94.94C179.324 94.94 178.691 95.0667 178.104 95.32C177.531 95.5733 177.024 95.9333 176.584 96.4C176.157 96.8533 175.824 97.3867 175.584 98C175.344 98.6133 175.224 99.28 175.224 100C175.224 100.72 175.344 101.387 175.584 102C175.824 102.613 176.157 103.153 176.584 103.62C177.024 104.073 177.531 104.427 178.104 104.68C178.691 104.933 179.324 105.06 180.004 105.06C180.751 105.06 181.457 104.9 182.124 104.58C182.791 104.247 183.371 103.773 183.864 103.16L185.464 104.72C185.037 105.24 184.531 105.687 183.944 106.06C183.371 106.433 182.751 106.72 182.084 106.92C181.417 107.12 180.724 107.22 180.004 107.22ZM190.277 104.92H193.057C193.897 104.92 194.657 104.707 195.337 104.28C196.017 103.84 196.557 103.247 196.957 102.5C197.357 101.753 197.557 100.92 197.557 100C197.557 99.0667 197.357 98.2333 196.957 97.5C196.557 96.7533 196.017 96.1667 195.337 95.74C194.657 95.3 193.897 95.08 193.057 95.08H190.277V104.92ZM187.877 107V93H192.997C194.011 93 194.944 93.18 195.797 93.54C196.651 93.9 197.391 94.4 198.017 95.04C198.657 95.6667 199.151 96.4067 199.497 97.26C199.844 98.1 200.017 99.0133 200.017 100C200.017 100.987 199.844 101.907 199.497 102.76C199.151 103.6 198.657 104.34 198.017 104.98C197.391 105.607 196.651 106.1 195.797 106.46C194.944 106.82 194.011 107 192.997 107H187.877ZM202.721 107V93H205.061L212.361 103.18L212.321 93H214.581V107H212.441L204.941 96.54L204.981 107H202.721Z" fill="white"/>
<rect x="451" y="122" width="140" height="61" rx="12" fill="#DDDDDD"/>
<path d="M504.577 158.5L510.077 144.5H512.857L518.277 158.5H515.697L514.257 154.58H508.517L507.077 158.5H504.577ZM509.217 152.7H513.597L511.397 146.78L509.217 152.7ZM520.082 158.5V144.5H526.342C527.289 144.5 528.109 144.687 528.802 145.06C529.509 145.42 530.056 145.927 530.442 146.58C530.829 147.233 531.022 147.993 531.022 148.86C531.022 149.687 530.829 150.427 530.442 151.08C530.056 151.733 529.509 152.247 528.802 152.62C528.109 152.98 527.289 153.16 526.342 153.16H522.482V158.5H520.082ZM522.482 151.2H525.962C526.816 151.2 527.469 150.987 527.922 150.56C528.376 150.12 528.602 149.547 528.602 148.84C528.602 148.147 528.376 147.587 527.922 147.16C527.469 146.733 526.822 146.52 525.982 146.52H522.482V151.2ZM533.557 158.5V144.5H535.957V158.5H533.557Z" fill="black"/>
<rect x="269" y="122" width="140" height="61" rx="12" fill="#02C652"/>
<path d="M286.696 158.5V144.5H289.816L293.916 153L297.996 144.5H301.116V158.5H298.856V147.54L293.896 157.5L288.916 147.48V158.5H286.696ZM304.169 158.5V148.48H306.429V158.5H304.169ZM305.309 146.44C304.922 146.44 304.589 146.307 304.309 146.04C304.042 145.76 303.909 145.433 303.909 145.06C303.909 144.673 304.042 144.347 304.309 144.08C304.589 143.8 304.922 143.66 305.309 143.66C305.696 143.66 306.022 143.8 306.289 144.08C306.569 144.347 306.709 144.667 306.709 145.04C306.709 145.427 306.569 145.76 306.289 146.04C306.022 146.307 305.696 146.44 305.309 146.44ZM313.288 158.6C312.448 158.6 311.688 158.373 311.008 157.92C310.328 157.453 309.781 156.84 309.368 156.08C308.968 155.307 308.768 154.447 308.768 153.5C308.768 152.54 308.975 151.68 309.388 150.92C309.801 150.147 310.361 149.533 311.068 149.08C311.788 148.627 312.581 148.4 313.448 148.4C314.021 148.4 314.555 148.513 315.048 148.74C315.555 148.953 315.995 149.273 316.368 149.7V144.16L318.628 143.76V158.5H316.388V157.18C316.028 157.633 315.581 157.987 315.048 158.24C314.515 158.48 313.928 158.6 313.288 158.6ZM313.988 156.7C314.468 156.7 314.915 156.607 315.328 156.42C315.741 156.22 316.088 155.947 316.368 155.6V151.38C316.075 151.033 315.721 150.767 315.308 150.58C314.895 150.393 314.455 150.3 313.988 150.3C313.415 150.3 312.901 150.44 312.448 150.72C312.008 150.987 311.655 151.36 311.388 151.84C311.121 152.32 310.988 152.873 310.988 153.5C310.988 154.1 311.121 154.647 311.388 155.14C311.655 155.62 312.008 156 312.448 156.28C312.901 156.56 313.415 156.7 313.988 156.7ZM325.495 158.6C324.655 158.6 323.895 158.373 323.215 157.92C322.535 157.453 321.988 156.84 321.575 156.08C321.175 155.307 320.975 154.447 320.975 153.5C320.975 152.54 321.182 151.68 321.595 150.92C322.008 150.147 322.568 149.533 323.275 149.08C323.995 148.627 324.788 148.4 325.655 148.4C326.228 148.4 326.762 148.513 327.255 148.74C327.762 148.953 328.202 149.273 328.575 149.7V144.16L330.835 143.76V158.5H328.595V157.18C328.235 157.633 327.788 157.987 327.255 158.24C326.722 158.48 326.135 158.6 325.495 158.6ZM326.195 156.7C326.675 156.7 327.122 156.607 327.535 156.42C327.948 156.22 328.295 155.947 328.575 155.6V151.38C328.282 151.033 327.928 150.767 327.515 150.58C327.102 150.393 326.662 150.3 326.195 150.3C325.622 150.3 325.108 150.44 324.655 150.72C324.215 150.987 323.862 151.36 323.595 151.84C323.328 152.32 323.195 152.873 323.195 153.5C323.195 154.1 323.328 154.647 323.595 155.14C323.862 155.62 324.215 156 324.655 156.28C325.108 156.56 325.622 156.7 326.195 156.7ZM333.642 158.5V144.16L335.902 143.76V158.5H333.642ZM343.341 158.7C342.381 158.7 341.515 158.473 340.741 158.02C339.968 157.553 339.355 156.933 338.901 156.16C338.448 155.373 338.221 154.487 338.221 153.5C338.221 152.513 338.435 151.633 338.861 150.86C339.288 150.087 339.868 149.473 340.601 149.02C341.348 148.553 342.175 148.32 343.081 148.32C344.015 148.32 344.835 148.547 345.541 149C346.261 149.453 346.821 150.067 347.221 150.84C347.635 151.613 347.841 152.5 347.841 153.5V154.04H340.441C340.521 154.587 340.695 155.073 340.961 155.5C341.241 155.913 341.595 156.24 342.021 156.48C342.461 156.72 342.935 156.84 343.441 156.84C343.908 156.84 344.348 156.76 344.761 156.6C345.188 156.427 345.541 156.193 345.821 155.9L347.301 157.24C346.688 157.747 346.061 158.12 345.421 158.36C344.795 158.587 344.101 158.7 343.341 158.7ZM340.461 152.64H345.701C345.621 152.16 345.455 151.733 345.201 151.36C344.961 150.987 344.655 150.693 344.281 150.48C343.921 150.267 343.521 150.16 343.081 150.16C342.641 150.16 342.235 150.267 341.861 150.48C341.501 150.68 341.201 150.967 340.961 151.34C340.721 151.713 340.555 152.147 340.461 152.64ZM351.711 158.5L349.011 148.48H351.171L352.931 155.54L355.011 148.48H356.911L358.971 155.54L360.731 148.48H362.831L360.131 158.5H357.971L355.931 151.44L353.911 158.5H351.711ZM367.581 158.68C366.887 158.68 366.267 158.553 365.721 158.3C365.187 158.033 364.767 157.673 364.461 157.22C364.167 156.753 364.021 156.22 364.021 155.62C364.021 155.02 364.174 154.5 364.481 154.06C364.801 153.62 365.247 153.28 365.821 153.04C366.394 152.8 367.074 152.68 367.861 152.68C368.327 152.68 368.787 152.733 369.241 152.84C369.694 152.933 370.134 153.093 370.561 153.32V152.2C370.561 151.533 370.367 151.033 369.981 150.7C369.607 150.367 369.034 150.2 368.261 150.2C367.847 150.2 367.401 150.267 366.921 150.4C366.454 150.52 365.927 150.713 365.341 150.98L364.541 149.34C366.007 148.66 367.394 148.32 368.701 148.32C370.007 148.32 371.014 148.64 371.721 149.28C372.441 149.907 372.801 150.8 372.801 151.96V158.5H370.561V157.46C370.134 157.873 369.674 158.18 369.181 158.38C368.687 158.58 368.154 158.68 367.581 158.68ZM366.141 155.58C366.141 156.047 366.327 156.413 366.701 156.68C367.074 156.947 367.574 157.08 368.201 157.08C368.654 157.08 369.074 157.013 369.461 156.88C369.861 156.733 370.227 156.52 370.561 156.24V154.62C370.214 154.46 369.854 154.34 369.481 154.26C369.107 154.18 368.701 154.14 368.261 154.14C367.607 154.14 367.087 154.267 366.701 154.52C366.327 154.773 366.141 155.127 366.141 155.58ZM375.537 158.5V148.48H377.797V150.64C378.09 149.88 378.47 149.3 378.937 148.9C379.403 148.5 379.943 148.3 380.557 148.3C380.743 148.313 380.91 148.333 381.057 148.36C381.203 148.373 381.363 148.42 381.537 148.5V150.48C381.363 150.4 381.163 150.34 380.937 150.3C380.723 150.26 380.51 150.24 380.297 150.24C379.75 150.24 379.257 150.387 378.817 150.68C378.39 150.973 378.05 151.38 377.797 151.9V158.5H375.537ZM387.58 158.7C386.62 158.7 385.753 158.473 384.98 158.02C384.206 157.553 383.593 156.933 383.14 156.16C382.686 155.373 382.46 154.487 382.46 153.5C382.46 152.513 382.673 151.633 383.1 150.86C383.526 150.087 384.106 149.473 384.84 149.02C385.586 148.553 386.413 148.32 387.32 148.32C388.253 148.32 389.073 148.547 389.78 149C390.5 149.453 391.06 150.067 391.46 150.84C391.873 151.613 392.08 152.5 392.08 153.5V154.04H384.68C384.76 154.587 384.933 155.073 385.2 155.5C385.48 155.913 385.833 156.24 386.26 156.48C386.7 156.72 387.173 156.84 387.68 156.84C388.146 156.84 388.586 156.76 389 156.6C389.426 156.427 389.78 156.193 390.06 155.9L391.54 157.24C390.926 157.747 390.3 158.12 389.66 158.36C389.033 158.587 388.34 158.7 387.58 158.7ZM384.7 152.64H389.94C389.86 152.16 389.693 151.733 389.44 151.36C389.2 150.987 388.893 150.693 388.52 150.48C388.16 150.267 387.76 150.16 387.32 150.16C386.88 150.16 386.473 150.267 386.1 150.48C385.74 150.68 385.44 150.967 385.2 151.34C384.96 151.713 384.793 152.147 384.7 152.64Z" fill="#1E1E1E"/>
<rect x="12" y="19" width="107" height="164" rx="12" fill="#02C652"/>
<path d="M28.8011 107L28.8011 93H35.0411C35.9078 93 36.6744 93.1533 37.3411 93.46C38.0078 93.7667 38.5211 94.2 38.8811 94.76C39.2544 95.3067 39.4411 95.9467 39.4411 96.68C39.4411 97.4 39.2344 98.0333 38.8211 98.58C38.4078 99.1133 37.8544 99.5133 37.1611 99.78C38.0144 100.033 38.6878 100.453 39.1811 101.04C39.6744 101.613 39.9211 102.3 39.9211 103.1C39.9211 103.873 39.7278 104.553 39.3411 105.14C38.9544 105.727 38.4144 106.187 37.7211 106.52C37.0278 106.84 36.2211 107 35.3011 107H28.8011ZM31.2011 98.9H34.7811C35.4744 98.9 36.0211 98.72 36.4211 98.36C36.8344 98 37.0411 97.52 37.0411 96.92C37.0411 96.32 36.8344 95.8467 36.4211 95.5C36.0211 95.14 35.4744 94.96 34.7811 94.96H31.2011V98.9ZM31.2011 105.04H35.0011C35.7611 105.04 36.3678 104.847 36.8211 104.46C37.2744 104.06 37.5011 103.533 37.5011 102.88C37.5011 102.24 37.2744 101.727 36.8211 101.34C36.3811 100.94 35.7744 100.74 35.0011 100.74H31.2011L31.2011 105.04ZM42.4469 107V96.98H44.7069V99.14C45.0002 98.38 45.3802 97.8 45.8469 97.4C46.3135 97 46.8535 96.8 47.4669 96.8C47.6535 96.8133 47.8202 96.8333 47.9669 96.86C48.1135 96.8733 48.2735 96.92 48.4469 97V98.98C48.2735 98.9 48.0735 98.84 47.8469 98.8C47.6335 98.76 47.4202 98.74 47.2069 98.74C46.6602 98.74 46.1669 98.8867 45.7269 99.18C45.3002 99.4733 44.9602 99.88 44.7069 100.4V107H42.4469ZM54.4097 107.18C53.463 107.18 52.603 106.953 51.8297 106.5C51.0697 106.047 50.4697 105.433 50.0297 104.66C49.5897 103.873 49.3697 102.987 49.3697 102C49.3697 101.013 49.5897 100.133 50.0297 99.36C50.4697 98.5733 51.0697 97.9533 51.8297 97.5C52.5897 97.0467 53.4497 96.82 54.4097 96.82C55.3697 96.82 56.223 97.0467 56.9697 97.5C57.7297 97.9533 58.3297 98.5733 58.7697 99.36C59.2097 100.133 59.4297 101.013 59.4297 102C59.4297 102.987 59.2097 103.873 58.7697 104.66C58.3297 105.433 57.7297 106.047 56.9697 106.5C56.223 106.953 55.3697 107.18 54.4097 107.18ZM54.4097 105.26C54.9564 105.26 55.4364 105.12 55.8497 104.84C56.2764 104.56 56.6097 104.173 56.8497 103.68C57.0897 103.173 57.2097 102.613 57.2097 102C57.2097 101.373 57.0897 100.82 56.8497 100.34C56.6097 99.8467 56.2764 99.46 55.8497 99.18C55.4364 98.8867 54.9564 98.74 54.4097 98.74C53.863 98.74 53.3764 98.8867 52.9497 99.18C52.523 99.46 52.1897 99.8467 51.9497 100.34C51.7097 100.82 51.5897 101.373 51.5897 102C51.5897 102.627 51.7097 103.187 51.9497 103.68C52.1897 104.173 52.523 104.56 52.9497 104.84C53.3764 105.12 53.863 105.26 54.4097 105.26ZM63.328 107L60.628 96.98H62.788L64.548 104.04L66.628 96.98H68.528L70.588 104.04L72.348 96.98H74.448L71.748 107H69.588L67.548 99.94L65.528 107H63.328ZM79.6945 107.2C78.8412 107.2 78.0412 107.087 77.2945 106.86C76.5612 106.62 75.9279 106.28 75.3945 105.84L76.4545 104.34C77.1212 104.753 77.6945 105.047 78.1745 105.22C78.6679 105.393 79.1679 105.48 79.6745 105.48C80.2745 105.48 80.7612 105.353 81.1345 105.1C81.5079 104.847 81.6945 104.52 81.6945 104.12C81.6945 103.813 81.5812 103.573 81.3545 103.4C81.1412 103.213 80.7879 103.073 80.2945 102.98L78.5345 102.68C77.5612 102.493 76.8345 102.173 76.3545 101.72C75.8745 101.267 75.6345 100.667 75.6345 99.92C75.6345 99.2933 75.7945 98.7533 76.1145 98.3C76.4479 97.8333 76.9012 97.4733 77.4745 97.22C78.0612 96.9533 78.7412 96.82 79.5145 96.82C80.2079 96.82 80.8812 96.92 81.5345 97.12C82.1879 97.32 82.8279 97.62 83.4545 98.02L82.3945 99.52C81.8879 99.1867 81.3812 98.9467 80.8745 98.8C80.3812 98.64 79.8812 98.56 79.3745 98.56C78.8545 98.56 78.4345 98.6667 78.1145 98.88C77.8079 99.08 77.6545 99.36 77.6545 99.72C77.6545 100.04 77.7545 100.287 77.9545 100.46C78.1679 100.62 78.5345 100.74 79.0545 100.82L80.8345 101.16C81.8345 101.333 82.5745 101.653 83.0545 102.12C83.5479 102.573 83.7945 103.18 83.7945 103.94C83.7945 104.553 83.6145 105.107 83.2545 105.6C82.8945 106.093 82.4079 106.487 81.7945 106.78C81.1812 107.06 80.4812 107.2 79.6945 107.2ZM90.6225 107.2C89.6625 107.2 88.7958 106.973 88.0225 106.52C87.2492 106.053 86.6358 105.433 86.1825 104.66C85.7292 103.873 85.5025 102.987 85.5025 102C85.5025 101.013 85.7158 100.133 86.1425 99.36C86.5692 98.5867 87.1492 97.9733 87.8825 97.52C88.6292 97.0533 89.4558 96.82 90.3625 96.82C91.2958 96.82 92.1158 97.0467 92.8225 97.5C93.5425 97.9533 94.1025 98.5667 94.5025 99.34C94.9158 100.113 95.1225 101 95.1225 102V102.54H87.7225C87.8025 103.087 87.9758 103.573 88.2425 104C88.5225 104.413 88.8758 104.74 89.3025 104.98C89.7425 105.22 90.2158 105.34 90.7225 105.34C91.1892 105.34 91.6292 105.26 92.0425 105.1C92.4692 104.927 92.8225 104.693 93.1025 104.4L94.5825 105.74C93.9692 106.247 93.3425 106.62 92.7025 106.86C92.0758 107.087 91.3825 107.2 90.6225 107.2ZM87.7425 101.14H92.9825C92.9025 100.66 92.7358 100.233 92.4825 99.86C92.2425 99.4867 91.9358 99.1933 91.5625 98.98C91.2025 98.7667 90.8025 98.66 90.3625 98.66C89.9225 98.66 89.5158 98.7667 89.1425 98.98C88.7825 99.18 88.4825 99.4667 88.2425 99.84C88.0025 100.213 87.8358 100.647 87.7425 101.14ZM97.4273 107V96.98H99.6873V99.14C99.9807 98.38 100.361 97.8 100.827 97.4C101.294 97 101.834 96.8 102.447 96.8C102.634 96.8133 102.801 96.8333 102.947 96.86C103.094 96.8733 103.254 96.92 103.427 97V98.98C103.254 98.9 103.054 98.84 102.827 98.8C102.614 98.76 102.401 98.74 102.187 98.74C101.641 98.74 101.147 98.8867 100.707 99.18C100.281 99.4733 99.9407 99.88 99.6873 100.4V107H97.4273Z" fill="black"/>
<g filter="url(#filter0_d_4_34)">
<path d="M122.293 47.2929C121.902 47.6834 121.902 48.3166 122.293 48.7071L128.657 55.0711C129.047 55.4616 129.681 55.4616 130.071 55.0711C130.462 54.6805 130.462 54.0474 130.071 53.6569L124.414 48L130.071 42.3431C130.462 41.9526 130.462 41.3195 130.071 40.9289C129.681 40.5384 129.047 40.5384 128.657 40.9289L122.293 47.2929ZM263.707 48.7071C264.098 48.3166 264.098 47.6834 263.707 47.2929L257.343 40.9289C256.953 40.5384 256.319 40.5384 255.929 40.9289C255.538 41.3195 255.538 41.9526 255.929 42.3431L261.586 48L255.929 53.6569C255.538 54.0474 255.538 54.6805 255.929 55.0711C256.319 55.4616 256.953 55.4616 257.343 55.0711L263.707 48.7071ZM123 49L263 49V47L123 47V49Z" fill="#7C868D"/>
</g>
<g filter="url(#filter1_d_4_34)">
<path d="M122.293 150.293C121.902 150.683 121.902 151.317 122.293 151.707L128.657 158.071C129.047 158.462 129.681 158.462 130.071 158.071C130.462 157.681 130.462 157.047 130.071 156.657L124.414 151L130.071 145.343C130.462 144.953 130.462 144.319 130.071 143.929C129.681 143.538 129.047 143.538 128.657 143.929L122.293 150.293ZM263.707 151.707C264.098 151.317 264.098 150.683 263.707 150.293L257.343 143.929C256.953 143.538 256.319 143.538 255.929 143.929C255.538 144.319 255.538 144.953 255.929 145.343L261.586 151L255.929 156.657C255.538 157.047 255.538 157.681 255.929 158.071C256.319 158.462 256.953 158.462 257.343 158.071L263.707 151.707ZM123 152L263 152L263 150L123 150L123 152Z" fill="#7C868D"/>
</g>
<g filter="url(#filter2_d_4_34)">
<path d="M118.732 182.037C118.2 182.185 117.889 182.736 118.037 183.268L120.449 191.939C120.597 192.471 121.148 192.782 121.68 192.634C122.212 192.486 122.524 191.935 122.376 191.403L120.231 183.695L127.939 181.551C128.471 181.403 128.782 180.852 128.634 180.32C128.486 179.788 127.935 179.476 127.403 179.624L118.732 182.037ZM451.96 183.281C452.115 182.751 451.811 182.196 451.281 182.04L442.644 179.51C442.114 179.354 441.559 179.658 441.403 180.188C441.248 180.718 441.552 181.274 442.082 181.429L449.759 183.678L447.51 191.356C447.354 191.886 447.658 192.441 448.188 192.597C448.718 192.752 449.274 192.448 449.429 191.918L451.96 183.281ZM118.508 183.871C151.446 202.471 205.931 218.178 266.516 221.397C327.112 224.616 393.924 215.348 451.48 183.877L450.52 182.123C393.381 213.366 326.966 222.605 266.622 219.4C206.269 216.194 152.101 200.544 119.492 182.129L118.508 183.871Z" fill="#7C868D"/>
</g>
<g filter="url(#filter3_d_4_34)">
<path d="M414.293 151.293C413.902 151.683 413.902 152.317 414.293 152.707L420.657 159.071C421.047 159.462 421.681 159.462 422.071 159.071C422.462 158.681 422.462 158.047 422.071 157.657L416.414 152L422.071 146.343C422.462 145.953 422.462 145.319 422.071 144.929C421.681 144.538 421.047 144.538 420.657 144.929L414.293 151.293ZM445.707 152.707C446.098 152.317 446.098 151.683 445.707 151.293L439.343 144.929C438.953 144.538 438.319 144.538 437.929 144.929C437.538 145.319 437.538 145.953 437.929 146.343L443.586 152L437.929 157.657C437.538 158.047 437.538 158.681 437.929 159.071C438.319 159.462 438.953 159.462 439.343 159.071L445.707 152.707ZM415 153L445 153L445 151L415 151L415 153Z" fill="#7C868D"/>
</g>
<g filter="url(#filter4_d_4_34)">
<path d="M339.707 87.2929C339.317 86.9024 338.683 86.9024 338.293 87.2929L331.929 93.6569C331.538 94.0474 331.538 94.6805 331.929 95.0711C332.319 95.4616 332.953 95.4616 333.343 95.0711L339 89.4142L344.657 95.0711C345.047 95.4616 345.681 95.4616 346.071 95.0711C346.462 94.6805 346.462 94.0474 346.071 93.6569L339.707 87.2929ZM338.293 112.707C338.683 113.098 339.317 113.098 339.707 112.707L346.071 106.343C346.462 105.953 346.462 105.319 346.071 104.929C345.681 104.538 345.047 104.538 344.657 104.929L339 110.586L333.343 104.929C332.953 104.538 332.319 104.538 331.929 104.929C331.538 105.319 331.538 105.953 331.929 106.343L338.293 112.707ZM338 88L338 112L340 112L340 88L338 88Z" fill="#7C868D"/>
</g>
<defs>
<filter id="filter0_d_4_34" x="118" y="40.636" width="150" height="22.7279" filterUnits="userSpaceOnUse" color-interpolation-filters="sRGB">
<feFlood flood-opacity="0" result="BackgroundImageFix"/>
<feColorMatrix in="SourceAlpha" type="matrix" values="0 0 0 0 0 0 0 0 0 0 0 0 0 0 0 0 0 0 127 0" result="hardAlpha"/>
<feOffset dy="4"/>
<feGaussianBlur stdDeviation="2"/>
<feComposite in2="hardAlpha" operator="out"/>
<feColorMatrix type="matrix" values="0 0 0 0 0 0 0 0 0 0 0 0 0 0 0 0 0 0 0.25 0"/>
<feBlend mode="normal" in2="BackgroundImageFix" result="effect1_dropShadow_4_34"/>
<feBlend mode="normal" in="SourceGraphic" in2="effect1_dropShadow_4_34" result="shape"/>
</filter>
<filter id="filter1_d_4_34" x="118" y="143.636" width="150" height="22.7279" filterUnits="userSpaceOnUse" color-interpolation-filters="sRGB">
<feFlood flood-opacity="0" result="BackgroundImageFix"/>
<feColorMatrix in="SourceAlpha" type="matrix" values="0 0 0 0 0 0 0 0 0 0 0 0 0 0 0 0 0 0 127 0" result="hardAlpha"/>
<feOffset dy="4"/>
<feGaussianBlur stdDeviation="2"/>
<feComposite in2="hardAlpha" operator="out"/>
<feColorMatrix type="matrix" values="0 0 0 0 0 0 0 0 0 0 0 0 0 0 0 0 0 0 0.25 0"/>
<feBlend mode="normal" in2="BackgroundImageFix" result="effect1_dropShadow_4_34"/>
<feBlend mode="normal" in="SourceGraphic" in2="effect1_dropShadow_4_34" result="shape"/>
</filter>
<filter id="filter2_d_4_34" x="114" y="179.469" width="342.001" height="50.5309" filterUnits="userSpaceOnUse" color-interpolation-filters="sRGB">
<feFlood flood-opacity="0" result="BackgroundImageFix"/>
<feColorMatrix in="SourceAlpha" type="matrix" values="0 0 0 0 0 0 0 0 0 0 0 0 0 0 0 0 0 0 127 0" result="hardAlpha"/>
<feOffset dy="4"/>
<feGaussianBlur stdDeviation="2"/>
<feComposite in2="hardAlpha" operator="out"/>
<feColorMatrix type="matrix" values="0 0 0 0 0 0 0 0 0 0 0 0 0 0 0 0 0 0 0.25 0"/>
<feBlend mode="normal" in2="BackgroundImageFix" result="effect1_dropShadow_4_34"/>
<feBlend mode="normal" in="SourceGraphic" in2="effect1_dropShadow_4_34" result="shape"/>
</filter>
<filter id="filter3_d_4_34" x="410" y="144.636" width="40" height="22.7279" filterUnits="userSpaceOnUse" color-interpolation-filters="sRGB">
<feFlood flood-opacity="0" result="BackgroundImageFix"/>
<feColorMatrix in="SourceAlpha" type="matrix" values="0 0 0 0 0 0 0 0 0 0 0 0 0 0 0 0 0 0 127 0" result="hardAlpha"/>
<feOffset dy="4"/>
<feGaussianBlur stdDeviation="2"/>
<feComposite in2="hardAlpha" operator="out"/>
<feColorMatrix type="matrix" values="0 0 0 0 0 0 0 0 0 0 0 0 0 0 0 0 0 0 0.25 0"/>
<feBlend mode="normal" in2="BackgroundImageFix" result="effect1_dropShadow_4_34"/>
<feBlend mode="normal" in="SourceGraphic" in2="effect1_dropShadow_4_34" result="shape"/>
</filter>
<filter id="filter4_d_4_34" x="327.636" y="87" width="22.7279" height="34" filterUnits="userSpaceOnUse" color-interpolation-filters="sRGB">
<feFlood flood-opacity="0" result="BackgroundImageFix"/>
<feColorMatrix in="SourceAlpha" type="matrix" values="0 0 0 0 0 0 0 0 0 0 0 0 0 0 0 0 0 0 127 0" result="hardAlpha"/>
<feOffset dy="4"/>
<feGaussianBlur stdDeviation="2"/>
<feComposite in2="hardAlpha" operator="out"/>
<feColorMatrix type="matrix" values="0 0 0 0 0 0 0 0 0 0 0 0 0 0 0 0 0 0 0.25 0"/>
<feBlend mode="normal" in2="BackgroundImageFix" result="effect1_dropShadow_4_34"/>
<feBlend mode="normal" in="SourceGraphic" in2="effect1_dropShadow_4_34" result="shape"/>
</filter>
</defs>
</svg>
