<svg width="50" height="60" viewBox="0 0 50 60" xmlns="http://www.w3.org/2000/svg" xmlns:xlink="http://www.w3.org/1999/xlink"><g transform="translate(-784 -9459)"><use xlink:href="#path0_fill" transform="translate(788.266 9471.6)" fill="url(#paint0_linear)"/><use xlink:href="#path1_fill" transform="translate(784 9476.25)" fill="url(#paint1_linear)"/><use xlink:href="#path2_fill" transform="translate(787.593 9471.6)" fill="url(#paint2_linear)"/><use xlink:href="#path3_fill" transform="translate(796.799 9483.6)" fill="#FFF"/><use xlink:href="#path4_fill" transform="translate(795.751 9482.55)" fill="#1B2A3A"/><use xlink:href="#path3_fill" transform="translate(818.057 9483.6)" fill="#FFF"/><use xlink:href="#path4_fill" transform="translate(817.009 9482.55)" fill="#1B2A3A"/><use xlink:href="#path5_fill" transform="translate(797.249 9459)" fill="#1B2A3A"/><use xlink:href="#path6_fill" transform="matrix(1.33333 0 0 -1.33333 797.698 9510)" fill="#4DBA87"/><use xlink:href="#path7_fill" transform="matrix(1.33333 0 0 -1.33333 802.248 9502.02)" fill="#435466"/><clipPath id="a" clip-rule="evenodd"><path d="M797.698 9490.05h22.754V9510h-22.754v-19.95z" fill="#FFF"/></clipPath></g><defs><linearGradient id="paint0_linear" x2="1" gradientUnits="userSpaceOnUse" gradientTransform="matrix(0 -32.9251 38.3819 0 -.853 32.925)"><stop offset="0" stop-color="#41B883"/><stop offset="1" stop-color="#35495E"/></linearGradient><linearGradient id="paint1_linear" x2="1" gradientUnits="userSpaceOnUse" gradientTransform="matrix(16.2425 39.7502 -46.4912 19.0732 48.246 -9.537)"><stop offset="0" stop-color="#41B883"/><stop offset="1" stop-color="#35495E"/></linearGradient><linearGradient id="paint2_linear" x2="1" gradientUnits="userSpaceOnUse" gradientTransform="matrix(0 4.65002 -42.5898 0 42.59 0)"><stop offset="0" stop-color="#1B2A3A"/><stop offset="1" stop-color="#365061"/></linearGradient><path id="path0_fill" d="M41.617 35.7H0L2.99 0h35.512l3.115 35.7z"/><path id="path1_fill" d="M50 42.75H0L3.593 0h42.665L50 42.75z"/><path id="path2_fill" d="M5.464 2.55L0 4.65h42.59L37.5 2.325 39.222 0H3.592l1.872 2.55z"/><path id="path3_fill" d="M3.144 1.575c0 .87-.704 1.575-1.572 1.575A1.573 1.573 0 0 1 0 1.575C0 .705.704 0 1.572 0c.868 0 1.572.705 1.572 1.575z"/><path id="path4_fill" fill-rule="evenodd" d="M5.24 2.625A2.622 2.622 0 0 1 2.62 5.25 2.622 2.622 0 0 1 0 2.625 2.622 2.622 0 0 1 2.62 0a2.622 2.622 0 0 1 2.62 2.625zM2.62 4.2c.868 0 1.572-.705 1.572-1.575S3.488 1.05 2.62 1.05c-.868 0-1.572.705-1.572 1.575S1.752 4.2 2.62 4.2z"/><path id="path5_fill" fill-rule="evenodd" d="M5.146 8.8c-1.898 4.427-3.055 10.482-3.05 17.3A1.049 1.049 0 1 1 0 26.1c.005-7.017 1.244-13.487 3.22-18.126 1.004-2.342 2.268-4.345 3.629-5.702C8.26.874 9.919 0 11.75 0c1.833 0 3.491.874 4.903 2.272 1.361 1.357 2.625 3.36 3.63 5.702 1.975 4.639 3.214 11.11 3.219 18.126a1.049 1.049 0 1 1-2.096 0c.005-6.818-1.152-12.873-3.05-17.3-.933-2.192-1.976-3.856-3.176-5.034-1.148-1.138-2.306-1.666-3.43-1.666-1.123 0-2.28.528-3.43 1.666C7.122 4.944 6.08 6.608 5.147 8.8z"/><path id="path6_fill" d="M10.504 14.963l-1.971-3.456-1.97 3.456H0L8.533 0l8.533 14.963h-6.562z"/><path id="path7_fill" d="M7.09 8.978L5.12 5.522 3.15 8.978H0L5.12 0l5.12 8.978H7.09z"/></defs></svg>
