<?xml version="1.0" encoding="UTF-8"?>
<svg width="28px" height="28px" viewBox="0 0 28 28" version="1.1" xmlns="http://www.w3.org/2000/svg" xmlns:xlink="http://www.w3.org/1999/xlink">
    <g stroke="none" stroke-width="1" fill="none" fill-rule="evenodd">
        <g fill="#fff" fill-rule="nonzero">
            <path d="M19.75,25 L8.25,25 C7.83578644,25 7.5,24.6642136 7.5,24.25 C7.5,23.8703042 7.78215388,23.556509 8.14822944,23.5068466 L8.25,23.5 L10,23.4995602 L10,21.0015602 L4.25,21.0018356 C3.00735931,21.0018356 2,19.9944763 2,18.7518356 L2,5.24956021 C2,4.00691952 3.00735931,2.99956021 4.25,2.99956021 L23.748832,2.99956021 C24.9914727,2.99956021 25.998832,4.00691952 25.998832,5.24956021 L25.998832,18.7518356 C25.998832,19.9944763 24.9914727,21.0018356 23.748832,21.0018356 L17.998,21.0015602 L17.998,23.4995602 L19.75,23.5 C20.1296958,23.5 20.443491,23.7821539 20.4931534,24.1482294 L20.5,24.25 C20.5,24.6296958 20.2178461,24.943491 19.8517706,24.9931534 L19.75,25 L8.25,25 L19.75,25 Z M16.498,21.0015602 L11.5,21.0015602 L11.5,23.5 L16.498832,23.5 L16.498,21.0015602 Z M23.748832,4.49956021 L4.25,4.49956021 C3.83578644,4.49956021 3.5,4.83534665 3.5,5.24956021 L3.5,18.7518356 C3.5,19.1660492 3.83578644,19.5018356 4.25,19.5018356 L17.248832,19.5 L17.277,19.5015602 L23.748832,19.5018356 C24.1630456,19.5018356 24.498832,19.1660492 24.498832,18.7518356 L24.498832,5.24956021 C24.498832,4.83534665 24.1630456,4.49956021 23.748832,4.49956021 Z"></path>
        </g>
    </g>
</svg>