<svg width="24px" height="24px" viewBox="0 0 24 24" fill="none" xmlns="http://www.w3.org/2000/svg">
<path d="M15 22.75H9C8.00544 22.75 7.05161 22.3549 6.34835 21.6517C5.64509 20.9484 5.25 19.9946 5.25 19V5C5.25 4.00544 5.64509 3.05161 6.34835 2.34835C7.05161 1.64509 8.00544 1.25 9 1.25H15C15.9946 1.25 16.9484 1.64509 17.6517 2.34835C18.3549 3.05161 18.75 4.00544 18.75 5V19C18.75 19.9946 18.3549 20.9484 17.6517 21.6517C16.9484 22.3549 15.9946 22.75 15 22.75ZM9 2.75C8.40326 2.75 7.83097 2.98705 7.40901 3.40901C6.98705 3.83097 6.75 4.40326 6.75 5V19C6.75 19.5967 6.98705 20.169 7.40901 20.591C7.83097 21.0129 8.40326 21.25 9 21.25H15C15.5967 21.25 16.169 21.0129 16.591 20.591C17.0129 20.169 17.25 19.5967 17.25 19V5C17.25 4.40326 17.0129 3.83097 16.591 3.40901C16.169 2.98705 15.5967 2.75 15 2.75H9Z" fill="#fff"/>
<path d="M13 19.75H11C10.8011 19.75 10.6103 19.671 10.4697 19.5303C10.329 19.3897 10.25 19.1989 10.25 19C10.25 18.8011 10.329 18.6103 10.4697 18.4697C10.6103 18.329 10.8011 18.25 11 18.25H13C13.1989 18.25 13.3897 18.329 13.5303 18.4697C13.671 18.6103 13.75 18.8011 13.75 19C13.75 19.1989 13.671 19.3897 13.5303 19.5303C13.3897 19.671 13.1989 19.75 13 19.75Z" fill="#fff"/>
</svg>
