<svg width="211" height="143" fill="none" xmlns="http://www.w3.org/2000/svg"><path opacity=".1" d="M7.175 136.363v2.871l-5.74-.633v-2.238h5.74z" fill="#fff"/><path d="M11.814 97.215l33.084-5.416v31.508l-31.434-1.655-1.65-24.438z" fill="#5ECE7B"/><path opacity=".05" d="M11.814 97.215l33.084-5.416v31.508l-31.434-1.655-1.65-24.438z" fill="#000"/><path d="M44.899 91.799l39.385 2.986-2.18 27.42-37.205 1.102V91.799z" fill="#5ECE7B"/><path opacity=".1" d="M44.899 91.799l39.385 2.986-2.18 27.42-37.205 1.102V91.799z" fill="#000"/><path d="M56.972 82.346L44.9 91.963l39.27 2.986 6.417-9.841-33.614-2.762zM0 86.789l29.676-3.655L44.9 91.886l-32.964 5.427L0 86.789zM51.987 100.069V143l-15.435-1.594-6.714-.689-2.046-.216-6.71-.693-9.268-.956v-41.54L44.76 99.57l7.227.499zM84.283 94.95v41.816l-12.373 2.387-6.017 1.162-13.906 2.684V100.12l32.296-5.17z" fill="#5ECE7B"/><path opacity=".05" d="M84.283 94.95v41.816l-12.373 2.387-6.017 1.162-13.906 2.684V100.12l32.296-5.17z" fill="#000"/><path d="M0 106.221l11.904-8.909 40.085 2.718-5.901 9.886L0 106.221z" fill="#5ECE7B"/><path opacity=".1" d="M0 106.221l11.904-8.909 40.085 2.718-5.901 9.886L0 106.221z" fill="#fff"/><path d="M84.136 94.95l-32.149 5.287 10.464 9.679 34.436-5.966-12.751-9z" fill="#5ECE7B"/><path opacity=".1" d="M84.136 94.95l-32.149 5.287 10.464 9.679 34.436-5.966-12.751-9zM71.681 138.701l-5.513 1.148v-5.678l5.164-1.411.35 5.941zM78.77 137.914l-5.514 1.148v-8.829l5.165-1.412.35 9.093z" fill="#fff"/><path fill-rule="evenodd" clip-rule="evenodd" d="M24.975 119.148c-.68 1.949-2.788 3.37-5.283 3.37a6.164 6.164 0 01-2.975-.747 4.334 4.334 0 108.258-2.623z" fill="#F1F2F3"/><mask id="a" maskUnits="userSpaceOnUse" x="16" y="119" width="10" height="6"><path fill-rule="evenodd" clip-rule="evenodd" d="M24.975 119.148c-.68 1.949-2.788 3.37-5.283 3.37a6.164 6.164 0 01-2.975-.747 4.334 4.334 0 108.258-2.623z" fill="#fff"/></mask><g mask="url(#a)"><circle cx="22.054" cy="124.094" r="1.575" fill="#1D1F22"/><path d="M17.065 123.999H17l2.2.938a4.227 4.227 0 001.659.341h.757a2.911 2.911 0 002.662-1.722v-.15a.147.147 0 00-.123-.145 2.747 2.747 0 00-1.277.111l-.379.127-1.18.296a3.592 3.592 0 01-1.653.017l-.462-.104a2.123 2.123 0 00-1.306.119 2.09 2.09 0 01-.833.172z" fill="#4D9AF5"/></g><path fill-rule="evenodd" clip-rule="evenodd" d="M35.94 119.863c.485 2.033 2.485 3.66 5.001 3.871a6.193 6.193 0 002.938-.457 4.334 4.334 0 11-7.94-3.414z" fill="#F1F2F3"/><mask id="b" maskUnits="userSpaceOnUse" x="35" y="119" width="10" height="8"><path fill-rule="evenodd" clip-rule="evenodd" d="M36.24 119.367a4.726 4.726 0 007.79 3.339 4.334 4.334 0 11-7.79-3.339z" fill="#fff"/></mask><g mask="url(#b)"><circle r="1.575" transform="matrix(-1 0 0 1 38.598 125.413)" fill="#1D1F22"/><path d="M41.904 125.414l.598.024A1.562 1.562 0 0144 126.999h-3.55a5 5 0 01-2.53-.687L35 124.599c0-.713.77-1.16 1.39-.806l1.643.939c.306.175.653.267 1.006.267h.868c.392 0 .781.072 1.148.212l.157.06c.221.085.455.133.692.143z" fill="#4D9AF5"/></g><path fill-rule="evenodd" clip-rule="evenodd" d="M35.405 132.292c-1.217-2.235-3.457-3.79-6.09-3.929-2.636-.139-5.03 1.176-6.474 3.277a6.698 6.698 0 0112.564.652z" fill="#F1F2F3"/><path fill-rule="evenodd" clip-rule="evenodd" d="M36.35 132.515a.938.938 0 00-.896-.242.939.939 0 00-.648.636.848.848 0 011.543-.394zM22.06 131.661a.938.938 0 01.915.006.94.94 0 01.462.803.851.851 0 00-1.376-.809z" fill="#F1F2F3"/><path d="M114.956 39.108l.002.002.006.014a.31.31 0 00.103.138.352.352 0 00.124.06 6.898 6.898 0 002.862.044c.007 0 .011.003.016 0 .008-.001.015-.006.022-.007 1.894-.362 3.765-1.443 5.199-3.1 2.213-2.552 1.77-4.518.835-6.965l1.653-1.91a.338.338 0 00-.026-.478c-.15-.133-.351-.103-.476.04l-1.653 1.91c-2.544-.592-4.547-.759-6.761 1.796-2.177 2.506-2.924 5.822-1.906 8.456zm.238-2.501l1.707-.002-1.477 1.704a6.41 6.41 0 01-.23-1.702zm.477-2.682l3.558-.004-1.737 2.004-2.28.004c.064-.666.217-1.341.459-2.004zm1.567-2.678l4.313-.007-1.735 2.002-3.848.005a9.427 9.427 0 011.27-2zm3.608 6.255l-.528-3.822 1.737-2.004.593 4.288a9.147 9.147 0 01-1.802 1.538zm-2.54 1.125l-.314-2.266 1.736-2.004.489 3.535a7.83 7.83 0 01-1.911.735zm-2.38.12l1.478-1.706.235 1.699c-.578.079-1.152.08-1.713.006zm7.305-3.49l-.589-4.26.972-1.123c.718 1.946.989 3.493-.383 5.383zm-.118-5.817l-.972 1.123-4.287.007c1.682-1.63 3.245-1.574 5.259-1.13zM117.227 56.824l-.002.002-.015.004a.309.309 0 00-.143.096.354.354 0 00-.067.12 6.884 6.884 0 00-.207 2.855c0 .007-.003.01-.001.016.001.008.005.015.006.023.253 1.911 1.226 3.84 2.798 5.366 2.423 2.355 4.41 2.025 6.907 1.23l1.812 1.76c.137.133.35.133.479.001.142-.142.123-.344-.013-.477l-1.812-1.76c.736-2.506 1.016-4.495-1.408-6.852-2.378-2.316-5.647-3.25-8.334-2.384zm2.483.38l-.094 1.704-1.618-1.572a6.437 6.437 0 011.712-.132zm2.651.63l-.199 3.55-1.902-1.847.127-2.277a8.099 8.099 0 011.974.573zm2.585 1.716l-.239 4.306-1.9-1.846.214-3.842a9.427 9.427 0 011.925 1.382zm-6.452 3.245l3.847-.309 1.902 1.848-4.315.349a9.15 9.15 0 01-1.434-1.888zm-.978-2.6l2.28-.184 1.902 1.848-3.557.286a7.855 7.855 0 01-.625-1.95zm.017-2.383l1.619 1.574-1.71.137a6.418 6.418 0 01.091-1.71zm3.067 7.492l4.287-.345 1.066 1.035c-1.983.606-3.543.788-5.353-.69zm5.815.214l-1.066-1.034.238-4.28c1.53 1.772 1.386 3.329.828 5.314zM149.658 42.68v.003l-.01.012a.314.314 0 00-.066.16.363.363 0 00.013.137 6.895 6.895 0 001.422 2.483c.005.005.004.01.009.014.005.006.013.01.017.015 1.279 1.444 3.164 2.5 5.32 2.887 3.325.599 4.789-.785 6.416-2.84l2.486.446a.338.338 0 00.397-.266c.039-.197-.09-.355-.277-.389l-2.486-.446c-.791-2.49-1.67-4.296-4.997-4.895-3.266-.592-6.499.46-8.244 2.68zm2.272-1.072l.874 1.466-2.22-.4a6.451 6.451 0 011.346-1.066zm2.55-.96l1.82 3.057-2.61-.47-1.168-1.958a8.105 8.105 0 011.958-.629zm3.103-.02l2.208 3.704-2.607-.469-1.97-3.305a9.405 9.405 0 012.369.07zm-3.537 6.296l3.018-2.406 2.609.47-3.383 2.7a9.16 9.16 0 01-2.244-.764zm-2.264-1.61l1.788-1.426 2.61.47-2.79 2.224a7.859 7.859 0 01-1.608-1.267zm-1.318-1.984l2.222.4-1.341 1.069a6.471 6.471 0 01-.881-1.47zm6.731 4.498l3.362-2.682 1.462.263c-1.306 1.61-2.498 2.633-4.824 2.419zm4.941-3.072l-1.462-.263-2.194-3.681c2.259.614 3.01 1.986 3.656 3.944z" fill="#5ECE7B"/><path opacity=".3" d="M84.447 51.351c-.005.002-.013.005-.017.008-.002.001-.003 0-.005.002l-.003.003a.233.233 0 01-.014.013l-.014.016a.05.05 0 01-.006.009l-.003.003a5.072 5.072 0 00-.58 2.017c-.001.005-.004.008-.004.012l.002.017c-.105 1.404.312 2.909 1.223 4.2 1.263 1.787 3.036 2.54 5.271 2.246l1.116 1.58a.13.13 0 00.18.032.127.127 0 00.03-.178l-1.115-1.579c.699-1.325.884-2.618.55-3.863a5.71 5.71 0 00-.873-1.812c-1.383-1.959-3.623-3.032-5.704-2.736-.002 0-.003.002-.005.001l-.01.003c-.006 0-.012.003-.019.006zm1.969.352l-.44 1.63-1.246-1.764a4.95 4.95 0 011.686.134zm-1.897.014l1.246 1.763-1.696-.148a4.81 4.81 0 01.45-1.615zm-.468 1.869l1.906.167 1.313 1.858-3.037-.266a5.853 5.853 0 01-.182-1.76zm5.849.624l-.914 3.386-1.313-1.858.82-3.035a6.685 6.685 0 011.433 1.457.126.126 0 00-.026.05zm-4.648 3.222a.121.121 0 00-.056.01c-.4-.58-.698-1.201-.89-1.834l3.156.277 1.313 1.858-3.523-.31zm.132.268l3.583.314 1.163 1.646c-2.01.23-3.568-.413-4.746-1.96zm4.958 1.814l-1.162-1.647.929-3.444c1.063 1.627 1.141 3.297.233 5.092zm-2.073-6.968v.001l-.788 2.918-1.313-1.859.495-1.832c.558.17 1.1.43 1.606.772zM109.712 95.5c-.002.005-.006.013-.006.018l-.001.005-.001.005a.108.108 0 01.001.018c.001.007 0 .015.002.021a.022.022 0 01.003.01v.005c.234.66.616 1.262 1.108 1.783.002.004.004.008.007.01.003.005.008.007.013.011.971 1.019 2.367 1.719 3.937 1.909 2.171.26 3.92-.55 5.2-2.405l1.92.232a.13.13 0 00.144-.112.128.128 0 00-.11-.143l-1.92-.23c-.515-1.407-1.349-2.412-2.497-3a5.711 5.711 0 00-1.931-.567c-2.38-.286-4.678.655-5.854 2.398-.001.002 0 .003-.002.004l-.005.01c-.004.004-.006.01-.008.018zm1.581-1.224l.915 1.419-2.144-.259c.336-.45.752-.842 1.229-1.16zm-1.261 1.416l2.143.258-1.247 1.158a4.832 4.832 0 01-.897-1.416h.001zm1.072 1.6l1.403-1.302 2.258.272-2.233 2.075a5.85 5.85 0 01-1.428-1.045zm4.385-3.92l1.899 2.948-2.258-.272-1.703-2.642a6.684 6.684 0 012.043-.087.112.112 0 00.019.052zm-.726 5.609a.126.126 0 00-.031.047 6.65 6.65 0 01-1.957-.569l2.322-2.156 2.259.272-2.593 2.406zm.287.08l2.635-2.447 2.001.24c-1.176 1.647-2.698 2.37-4.636 2.208zm4.671-2.461l-2.001-.242-1.932-2.999c1.919.302 3.211 1.364 3.933 3.24zm-6.56-3.135l.001.002 1.636 2.54-2.259-.272-1.027-1.596a5.968 5.968 0 011.649-.674zM199.664 108.44a.06.06 0 00.012.015l.003.004.004.002.016.01.019.009.011.004c.001 0 .002.002.003.001a5.065 5.065 0 002.099.013h.013l.016-.006c1.379-.279 2.715-1.088 3.712-2.315 1.377-1.699 1.623-3.61.734-5.682l1.22-1.502a.13.13 0 00-.019-.181.124.124 0 00-.179.017l-1.218 1.502c-1.465-.314-2.76-.143-3.869.516a5.71 5.71 0 00-1.507 1.332c-1.511 1.862-1.938 4.308-1.089 6.231l.002.005.005.008c.002.007.007.012.011.017h.001zm-.194-1.99l1.688-.018-1.361 1.677a4.976 4.976 0 01-.327-1.659zm.526 1.822l1.361-1.677.316 1.673a4.82 4.82 0 01-1.677.004zm1.926-.055l-.355-1.881 1.433-1.767.567 2.996a5.848 5.848 0 01-1.645.652zm-.983-5.799l3.507-.038-1.433 1.767-3.143.033a6.686 6.686 0 011.014-1.774.139.139 0 00.055.012zm4.361 3.601a.118.118 0 00.024.052c-.45.541-.967.996-1.524 1.353l-.588-3.114 1.433-1.767.655 3.476zm.221-.199l-.667-3.534 1.269-1.566c.767 1.873.569 3.546-.602 5.1zm.405-5.265l-1.271 1.565-3.567.038c1.278-1.464 2.864-1.991 4.838-1.603zm-6.147 3.882l.001.001 3.022-.032-1.434 1.767-1.897.02a5.979 5.979 0 01.308-1.755v-.001zM120.196 3.93c-.003.005-.009.01-.011.016l-.003.004-.001.004a.138.138 0 01-.004.018c-.001.007-.004.015-.004.022a.02.02 0 010 .01v.004c.049.7.257 1.381.592 2.014l.004.012.011.014c.665 1.24 1.824 2.286 3.287 2.886 2.024.83 3.924.514 5.652-.935l1.79.735a.13.13 0 00.168-.07.128.128 0 00-.068-.167l-1.79-.733c-.121-1.493-.659-2.683-1.609-3.555a5.708 5.708 0 00-1.71-1.06c-2.219-.91-4.684-.613-6.281.754l-.003.004-.007.007c-.006.003-.009.01-.013.016zm1.85-.76l.504 1.611-1.998-.819a4.944 4.944 0 011.494-.792zm-1.593 1.03l1.998.819-1.511.785a4.802 4.802 0 01-.487-1.605zm.608 1.828l1.698-.882 2.105.863-2.705 1.406a5.848 5.848 0 01-1.098-1.387zm5.27-2.613l1.047 3.347-2.105-.863-.939-3a6.68 6.68 0 011.992.46.135.135 0 00.004.056h.001zm-2.192 5.214a.119.119 0 00-.042.037 6.646 6.646 0 01-1.735-1.069l2.811-1.46 2.106.862-3.14 1.63zm.255.154l3.192-1.658 1.864.764c-1.572 1.274-3.231 1.567-5.056.894zm5.158-1.13l-1.865-.766-1.065-3.405c1.77.802 2.732 2.17 2.93 4.17zm-5.49-4.767v.001l.902 2.885-2.106-.864-.566-1.811a5.986 5.986 0 011.77-.211zM54.504 66.658l.007.018c.002.002 0 .003.002.005l.003.003a.214.214 0 01.013.014l.015.015a.05.05 0 01.009.006c.001 0 .002.003.003.002a5.07 5.07 0 002 .64l.012.003.017-.001c1.4.145 2.916-.228 4.233-1.102 1.822-1.21 2.627-2.961 2.397-5.204l1.612-1.07a.13.13 0 00.037-.178.127.127 0 00-.177-.037l-1.61 1.07c-1.304-.736-2.592-.96-3.846-.662a5.708 5.708 0 00-1.837.821c-1.997 1.327-3.135 3.534-2.9 5.623l.002.005.002.01c0 .006.003.012.006.019zm.409-1.957l1.617.486-1.8 1.195a4.95 4.95 0 01.183-1.681zm-.042 1.896l1.8-1.195-.198 1.691a4.808 4.808 0 01-1.602-.496zm1.855.522l.223-1.9 1.895-1.26-.354 3.028a5.847 5.847 0 01-1.764.132zm.793-5.828l3.358 1.01-1.895 1.259-3.01-.906a6.685 6.685 0 011.498-1.391.126.126 0 00.049.028zm3.087 4.739a.12.12 0 00.007.056c-.59.382-1.22.662-1.858.836l.368-3.147 1.895-1.258-.412 3.513zm.27-.125l.418-3.572 1.68-1.115c.172 2.016-.517 3.554-2.097 4.687zm1.958-4.904l-1.68 1.115-3.416-1.029c1.657-1.015 3.329-1.045 5.096-.086zm-7.025 1.871c0 .001 0 .001 0 0l2.895.872-1.897 1.26-1.816-.549a5.983 5.983 0 01.818-1.583zM97.205 17.764c.002.006.004.014.007.018.002.002.001.003.002.005l.003.004a.214.214 0 01.013.013c.005.005.01.011.016.015l.008.006.003.003a5.073 5.073 0 002 .639l.012.003h.017c1.4.145 2.916-.229 4.233-1.103 1.822-1.21 2.627-2.96 2.397-5.204l1.612-1.069a.13.13 0 00.037-.178.128.128 0 00-.136-.055.15.15 0 00-.041.018l-1.61 1.07c-1.304-.737-2.592-.96-3.846-.662a5.71 5.71 0 00-1.837.82c-1.997 1.327-3.135 3.534-2.9 5.623.001.002.003.003.002.005l.002.01c0 .006.003.013.006.02zm.41-1.957l1.616.487-1.8 1.194a4.948 4.948 0 01.183-1.681zm-.042 1.896l1.799-1.194-.198 1.69a4.809 4.809 0 01-1.602-.496zm1.854.522l.223-1.9 1.895-1.259-.354 3.028a5.851 5.851 0 01-1.764.131zm.793-5.828l3.358 1.01-1.895 1.26-3.01-.907a6.692 6.692 0 011.498-1.39.126.126 0 00.049.027zm3.087 4.739a.134.134 0 00.007.056 6.64 6.64 0 01-1.858.837l.368-3.147 1.895-1.259-.412 3.513zm.271-.124l.417-3.573 1.679-1.115c.173 2.016-.515 3.554-2.096 4.688zm1.957-4.904l-1.68 1.114-3.415-1.028c1.656-1.016 3.328-1.046 5.095-.086zm-7.025 1.87v.001l2.895.872-1.896 1.258-1.817-.547a5.98 5.98 0 01.818-1.583zM175.405 21.555c0 .007-.002.015 0 .02v.005l.001.004.006.018c.003.006.005.014.009.02.003.003.005.005.006.008l.002.004a5.068 5.068 0 001.611 1.345l.01.008c.005.003.011.003.017.005 1.241.662 2.787.888 4.336.575 2.144-.435 3.549-1.753 4.181-3.918l1.896-.383a.13.13 0 00.101-.151.126.126 0 00-.149-.1l-1.896.383c-.93-1.173-2.038-1.865-3.312-2.062a5.71 5.71 0 00-2.011.069c-2.35.476-4.236 2.091-4.804 4.115l-.001.006-.001.01c-.003.005-.002.012-.003.02h.001zm1.116-1.659l1.314 1.06-2.116.429a4.96 4.96 0 01.802-1.489zm-.753 1.741l2.117-.428-.821 1.491a4.82 4.82 0 01-1.296-1.063zm1.521 1.183l.923-1.677 2.229-.452-1.468 2.672a5.863 5.863 0 01-1.684-.543zm2.931-5.1l2.73 2.201-2.23.452-2.447-1.973a6.693 6.693 0 011.912-.724.122.122 0 00.035.044zm1.074 5.553a.117.117 0 00-.015.054 6.643 6.643 0 01-2.036.075l1.526-2.777 2.23-.451-1.705 3.099zm.298-.014l1.732-3.151 1.975-.4c-.599 1.932-1.816 3.097-3.708 3.551h.001zm3.66-3.805l-1.976.4-2.776-2.24c1.917-.317 3.476.286 4.752 1.84zm-7.212-.914v.001l2.353 1.898-2.231.451-1.477-1.192a5.999 5.999 0 011.354-1.158h.001zM184.293 61.647c-.005.004-.012.008-.015.013l-.004.003-.002.004a.223.223 0 01-.01.016c-.003.006-.007.012-.009.02a.031.031 0 01-.004.01l-.001.002a5.067 5.067 0 00-.021 2.1v.013l.006.016c.274 1.38 1.078 2.719 2.302 3.72 1.693 1.384 3.604 1.636 5.679.755l1.497 1.225a.131.131 0 00.182-.018.128.128 0 00-.017-.179l-1.498-1.224c.32-1.463.153-2.759-.501-3.87a5.711 5.711 0 00-1.327-1.512c-1.856-1.518-4.301-1.954-6.227-1.112l-.004.002-.009.005c-.006.002-.011.007-.017.011zm1.991-.186l.012 1.688-1.672-1.367a4.946 4.946 0 011.66-.321zm-1.824.52l1.672 1.366-1.674.31a4.817 4.817 0 01.002-1.677zm.048 1.926l1.882-.348 1.761 1.44-2.997.555a5.843 5.843 0 01-.646-1.647zm5.803-.962l.025 3.507-1.762-1.44-.022-3.142a6.68 6.68 0 011.771 1.02.134.134 0 00-.012.055zm-3.618 4.348a.116.116 0 00-.051.023 6.654 6.654 0 01-1.348-1.529l3.116-.576 1.762 1.44-3.479.642zm.199.222l3.537-.655 1.56 1.275c-1.875.76-3.548.556-5.097-.62zm5.263.424l-1.56-1.277-.025-3.567c1.459 1.283 1.98 2.872 1.585 4.844zm-3.86-6.162v.002l.021 3.022-1.762-1.44-.013-1.898c.583.014 1.175.12 1.754.314zM153.415 77.582c.005.004.01.01.015.013.002 0 .002.002.004.003l.004.002a.29.29 0 01.018.006c.007.002.013.006.021.006.004 0 .007 0 .01.002h.004a5.07 5.07 0 002.068-.36c.004 0 .009 0 .012-.002.005-.001.01-.005.015-.008 1.308-.52 2.479-1.553 3.242-2.937 1.055-1.917.957-3.841-.285-5.723l.934-1.694a.13.13 0 00-.051-.175.126.126 0 00-.173.05l-.932 1.693c-1.497-.049-2.741.35-3.716 1.194a5.704 5.704 0 00-1.247 1.579c-1.157 2.1-1.143 4.583.033 6.326l.004.003.006.008c.003.006.009.01.014.014zm-.543-1.924l1.658-.317-1.042 1.891a4.951 4.951 0 01-.616-1.574zm.841 1.7l1.041-1.892.608 1.59c-.535.198-1.092.3-1.649.302zm1.886-.396l-.683-1.788 1.096-1.993 1.089 2.847c-.463.394-.97.709-1.502.934zm-1.997-5.533l3.445-.66-1.097 1.994-3.087.59a6.707 6.707 0 01.683-1.926.126.126 0 00.056.002zm4.931 2.77a.114.114 0 00.032.047 6.633 6.633 0 01-1.259 1.602l-1.131-2.96 1.096-1.993 1.262 3.305zm.182-.235l-1.284-3.36.972-1.765c1.087 1.707 1.188 3.389.312 5.125zm-.536-5.253l-.973 1.766-3.503.67c.998-1.667 2.466-2.468 4.476-2.436zm-5.36 4.912h.001l2.969-.568-1.098 1.994-1.864.356a5.941 5.941 0 01-.008-1.782z" fill="#5ECE7B"/></svg>