<svg width="176" height="176" viewBox="0 0 176 176" fill="none" xmlns="http://www.w3.org/2000/svg">
<path d="M79.2165 5.92401C77.6462 6.90053 76.1052 8.44147 73.0234 11.5234C69.9418 14.6048 68.4004 16.1463 67.424 17.7165C64.192 22.914 64.192 29.496 67.424 34.6935C68.4003 36.2635 69.9409 37.8041 73.0215 40.8848L73.023 40.8864C76.1049 43.9682 77.6462 45.5095 79.2165 46.486C84.414 49.718 90.996 49.718 96.1935 46.486C97.7638 45.5095 99.3048 43.9685 102.387 40.8867C105.469 37.8048 107.009 36.2638 107.986 34.6935C111.218 29.496 111.218 22.914 107.986 17.7165C107.009 16.1462 105.469 14.6053 102.387 11.5234C99.3048 8.44154 97.7638 6.90053 96.1935 5.92401C90.996 2.69202 84.414 2.69198 79.2165 5.92401Z" fill="#02C652"/>
<path d="M99.4928 102.341L135.353 66.4804C136.839 64.9946 138.603 63.8161 140.544 63.012C142.485 62.2079 144.566 61.7941 146.667 61.7941C148.768 61.7941 150.848 62.2079 152.79 63.012C154.731 63.8161 156.495 64.9946 157.98 66.4803L176 84.4998C175.891 84.608 88 172.5 88 172.5L0 84.4999C0.238745 84.2618 9.9816 74.5188 18.2092 66.291C19.6941 64.8059 21.4571 63.6279 23.3973 62.8242C25.3376 62.0205 27.4172 61.607 29.5173 61.6071C31.6174 61.6073 33.6969 62.0212 35.6371 62.8252C37.5772 63.6292 39.3399 64.8075 40.8246 66.2928L76.8743 102.342C78.3595 103.827 80.1227 105.005 82.0632 105.809C84.0037 106.613 86.0835 107.026 88.1838 107.026C90.2842 107.026 92.3639 106.612 94.3043 105.808C96.2447 105.004 98.0077 103.826 99.4928 102.341Z" fill="#02C652"/>
</svg>
