<svg xmlns="http://www.w3.org/2000/svg" viewBox="0 0 512.883 512.883"><path d="M256.441 0C115.2 0 .441 114.759.441 256c0 105.048 62.676 195.09 153.6 234.814-.883-17.655 0-39.724 4.414-59.145 5.297-21.186 32.662-139.476 32.662-139.476s-7.945-16.772-7.945-40.607c0-37.959 22.069-66.207 49.434-66.207 22.952 0 34.428 17.655 34.428 38.841 0 22.952-15.007 58.262-22.952 90.924-6.179 27.366 13.241 49.434 40.607 49.434 48.552 0 81.214-62.676 81.214-135.945 0-56.497-37.959-97.986-106.814-97.986-77.683 0-126.234 58.262-126.234 122.703 0 22.069 6.179 37.959 16.772 50.317 4.414 5.297 5.297 7.945 3.531 14.124-.883 4.414-4.414 15.89-5.297 20.303-1.766 6.179-7.062 8.828-13.241 6.179-36.193-15.007-52.083-53.848-52.083-97.986 0-72.386 60.91-159.779 182.731-159.779 97.986 0 162.428 70.621 162.428 146.538 0 100.634-55.614 175.669-137.71 175.669-27.366 0-53.848-15.007-62.676-31.779 0 0-15.007 59.145-17.655 70.621-5.297 19.421-15.89 39.724-25.6 54.731 22.952 7.062 47.669 10.593 72.386 10.593 141.241 0 256-114.759 256-256S397.683 0 256.441 0" fill="#cb1f24"/></svg>