<svg width="556" height="380" viewBox="0 0 556 380" fill="none" xmlns="http://www.w3.org/2000/svg">
<rect x="1" y="32" width="554" height="242" rx="23" stroke="#189EFF" stroke-width="2" stroke-dasharray="4 4"/>
<rect x="29" y="203" width="497" height="40" rx="12" fill="#531ED3"/>
<path d="M217.178 228V216.8H219.098V228H217.178ZM221.487 228V219.984H223.295V221.296C223.605 220.816 223.973 220.459 224.399 220.224C224.826 219.979 225.301 219.856 225.823 219.856C226.378 219.856 226.863 219.979 227.279 220.224C227.695 220.459 228.021 220.789 228.255 221.216C228.501 221.643 228.623 222.144 228.623 222.72V228H226.799V223.232C226.799 222.645 226.639 222.181 226.319 221.84C225.999 221.488 225.573 221.312 225.039 221.312C224.677 221.312 224.346 221.397 224.047 221.568C223.759 221.728 223.509 221.968 223.295 222.288V228H221.487ZM234.021 228.16C233.211 228.16 232.597 227.973 232.181 227.6C231.765 227.216 231.557 226.656 231.557 225.92V221.424H229.957V219.984H231.557V217.776L233.365 217.392V219.984H235.589V221.424H233.365V225.52C233.365 225.915 233.451 226.197 233.621 226.368C233.792 226.528 234.08 226.608 234.485 226.608C234.667 226.608 234.832 226.597 234.981 226.576C235.141 226.544 235.339 226.491 235.573 226.416V227.936C235.349 228.011 235.093 228.064 234.805 228.096C234.528 228.139 234.267 228.16 234.021 228.16ZM240.793 228.16C240.025 228.16 239.332 227.979 238.713 227.616C238.095 227.243 237.604 226.747 237.241 226.128C236.879 225.499 236.697 224.789 236.697 224C236.697 223.211 236.868 222.507 237.209 221.888C237.551 221.269 238.015 220.779 238.601 220.416C239.199 220.043 239.86 219.856 240.585 219.856C241.332 219.856 241.988 220.037 242.553 220.4C243.129 220.763 243.577 221.253 243.897 221.872C244.228 222.491 244.393 223.2 244.393 224V224.432H238.473C238.537 224.869 238.676 225.259 238.889 225.6C239.113 225.931 239.396 226.192 239.737 226.384C240.089 226.576 240.468 226.672 240.873 226.672C241.247 226.672 241.599 226.608 241.929 226.48C242.271 226.341 242.553 226.155 242.777 225.92L243.961 226.992C243.471 227.397 242.969 227.696 242.457 227.888C241.956 228.069 241.401 228.16 240.793 228.16ZM238.489 223.312H242.681C242.617 222.928 242.484 222.587 242.281 222.288C242.089 221.989 241.844 221.755 241.545 221.584C241.257 221.413 240.937 221.328 240.585 221.328C240.233 221.328 239.908 221.413 239.609 221.584C239.321 221.744 239.081 221.973 238.889 222.272C238.697 222.571 238.564 222.917 238.489 223.312ZM250.012 231.504C249.447 231.504 248.887 231.435 248.332 231.296C247.778 231.157 247.266 230.965 246.796 230.72L247.42 229.392C247.9 229.616 248.338 229.781 248.732 229.888C249.138 230.005 249.538 230.064 249.932 230.064C250.604 230.064 251.111 229.915 251.452 229.616C251.804 229.317 251.98 228.875 251.98 228.288V226.928C251.692 227.28 251.335 227.557 250.908 227.76C250.482 227.952 250.018 228.048 249.516 228.048C248.844 228.048 248.236 227.867 247.692 227.504C247.148 227.131 246.711 226.64 246.38 226.032C246.06 225.413 245.9 224.725 245.9 223.968C245.9 223.211 246.066 222.528 246.396 221.92C246.727 221.312 247.175 220.827 247.74 220.464C248.316 220.101 248.951 219.92 249.644 219.92C250.114 219.92 250.551 220.011 250.956 220.192C251.362 220.373 251.708 220.64 251.996 220.992V219.984H253.788V228.288C253.788 229.323 253.463 230.117 252.812 230.672C252.162 231.227 251.228 231.504 250.012 231.504ZM250.076 226.544C250.46 226.544 250.818 226.469 251.148 226.32C251.479 226.16 251.756 225.941 251.98 225.664V222.304C251.746 222.027 251.463 221.813 251.132 221.664C250.802 221.515 250.45 221.44 250.076 221.44C249.618 221.44 249.207 221.552 248.844 221.776C248.492 221.989 248.21 222.288 247.996 222.672C247.783 223.045 247.676 223.483 247.676 223.984C247.676 224.464 247.783 224.901 247.996 225.296C248.21 225.68 248.492 225.984 248.844 226.208C249.207 226.432 249.618 226.544 250.076 226.544ZM256.018 228V219.984H257.826V221.712C258.061 221.104 258.365 220.64 258.738 220.32C259.112 220 259.544 219.84 260.034 219.84C260.184 219.851 260.317 219.867 260.434 219.888C260.552 219.899 260.68 219.936 260.818 220V221.584C260.68 221.52 260.52 221.472 260.338 221.44C260.168 221.408 259.997 221.392 259.826 221.392C259.389 221.392 258.994 221.509 258.642 221.744C258.301 221.979 258.029 222.304 257.826 222.72V228H256.018ZM264.482 228.144C263.927 228.144 263.431 228.043 262.994 227.84C262.567 227.627 262.231 227.339 261.986 226.976C261.751 226.603 261.634 226.176 261.634 225.696C261.634 225.216 261.756 224.8 262.002 224.448C262.258 224.096 262.615 223.824 263.074 223.632C263.532 223.44 264.076 223.344 264.706 223.344C265.079 223.344 265.447 223.387 265.81 223.472C266.172 223.547 266.524 223.675 266.866 223.856V222.96C266.866 222.427 266.711 222.027 266.402 221.76C266.103 221.493 265.644 221.36 265.026 221.36C264.695 221.36 264.338 221.413 263.954 221.52C263.58 221.616 263.159 221.771 262.69 221.984L262.05 220.672C263.223 220.128 264.332 219.856 265.378 219.856C266.423 219.856 267.228 220.112 267.794 220.624C268.37 221.125 268.658 221.84 268.658 222.768V228H266.866V227.168C266.524 227.499 266.156 227.744 265.762 227.904C265.367 228.064 264.94 228.144 264.482 228.144ZM263.33 225.664C263.33 226.037 263.479 226.331 263.778 226.544C264.076 226.757 264.476 226.864 264.978 226.864C265.34 226.864 265.676 226.811 265.986 226.704C266.306 226.587 266.599 226.416 266.866 226.192V224.896C266.588 224.768 266.3 224.672 266.002 224.608C265.703 224.544 265.378 224.512 265.026 224.512C264.503 224.512 264.087 224.613 263.778 224.816C263.479 225.019 263.33 225.301 263.33 225.664ZM274.068 228.16C273.258 228.16 272.644 227.973 272.228 227.6C271.812 227.216 271.604 226.656 271.604 225.92V221.424H270.004V219.984H271.604V217.776L273.412 217.392V219.984H275.636V221.424H273.412V225.52C273.412 225.915 273.498 226.197 273.668 226.368C273.839 226.528 274.127 226.608 274.532 226.608C274.714 226.608 274.879 226.597 275.028 226.576C275.188 226.544 275.386 226.491 275.62 226.416V227.936C275.396 228.011 275.14 228.064 274.852 228.096C274.575 228.139 274.314 228.16 274.068 228.16ZM277.221 228V219.984H279.029V228H277.221ZM278.133 218.352C277.824 218.352 277.557 218.245 277.333 218.032C277.12 217.808 277.013 217.547 277.013 217.248C277.013 216.939 277.12 216.677 277.333 216.464C277.557 216.24 277.824 216.128 278.133 216.128C278.443 216.128 278.704 216.24 278.917 216.464C279.141 216.677 279.253 216.933 279.253 217.232C279.253 217.541 279.141 217.808 278.917 218.032C278.704 218.245 278.443 218.352 278.133 218.352ZM284.932 228.144C284.175 228.144 283.487 227.963 282.868 227.6C282.26 227.237 281.78 226.747 281.428 226.128C281.076 225.499 280.9 224.789 280.9 224C280.9 223.211 281.076 222.507 281.428 221.888C281.78 221.259 282.26 220.763 282.868 220.4C283.476 220.037 284.164 219.856 284.932 219.856C285.7 219.856 286.383 220.037 286.98 220.4C287.588 220.763 288.068 221.259 288.42 221.888C288.772 222.507 288.948 223.211 288.948 224C288.948 224.789 288.772 225.499 288.42 226.128C288.068 226.747 287.588 227.237 286.98 227.6C286.383 227.963 285.7 228.144 284.932 228.144ZM284.932 226.608C285.37 226.608 285.754 226.496 286.084 226.272C286.426 226.048 286.692 225.739 286.884 225.344C287.076 224.939 287.172 224.491 287.172 224C287.172 223.499 287.076 223.056 286.884 222.672C286.692 222.277 286.426 221.968 286.084 221.744C285.754 221.509 285.37 221.392 284.932 221.392C284.495 221.392 284.106 221.509 283.764 221.744C283.423 221.968 283.156 222.277 282.964 222.672C282.772 223.056 282.676 223.499 282.676 224C282.676 224.501 282.772 224.949 282.964 225.344C283.156 225.739 283.423 226.048 283.764 226.272C284.106 226.496 284.495 226.608 284.932 226.608ZM290.815 228V219.984H292.623V221.296C292.933 220.816 293.301 220.459 293.727 220.224C294.154 219.979 294.629 219.856 295.151 219.856C295.706 219.856 296.191 219.979 296.607 220.224C297.023 220.459 297.349 220.789 297.583 221.216C297.829 221.643 297.951 222.144 297.951 222.72V228H296.127V223.232C296.127 222.645 295.967 222.181 295.647 221.84C295.327 221.488 294.901 221.312 294.367 221.312C294.005 221.312 293.674 221.397 293.375 221.568C293.087 221.728 292.837 221.968 292.623 222.288V228H290.815ZM303.722 228V216.528L305.53 216.208V228H303.722ZM310.185 228.144C309.63 228.144 309.134 228.043 308.697 227.84C308.27 227.627 307.934 227.339 307.689 226.976C307.454 226.603 307.337 226.176 307.337 225.696C307.337 225.216 307.459 224.8 307.705 224.448C307.961 224.096 308.318 223.824 308.777 223.632C309.235 223.44 309.779 223.344 310.409 223.344C310.782 223.344 311.15 223.387 311.513 223.472C311.875 223.547 312.227 223.675 312.569 223.856V222.96C312.569 222.427 312.414 222.027 312.105 221.76C311.806 221.493 311.347 221.36 310.729 221.36C310.398 221.36 310.041 221.413 309.657 221.52C309.283 221.616 308.862 221.771 308.393 221.984L307.753 220.672C308.926 220.128 310.035 219.856 311.081 219.856C312.126 219.856 312.931 220.112 313.497 220.624C314.073 221.125 314.361 221.84 314.361 222.768V228H312.569V227.168C312.227 227.499 311.859 227.744 311.465 227.904C311.07 228.064 310.643 228.144 310.185 228.144ZM309.033 225.664C309.033 226.037 309.182 226.331 309.481 226.544C309.779 226.757 310.179 226.864 310.681 226.864C311.043 226.864 311.379 226.811 311.689 226.704C312.009 226.587 312.302 226.416 312.569 226.192V224.896C312.291 224.768 312.003 224.672 311.705 224.608C311.406 224.544 311.081 224.512 310.729 224.512C310.206 224.512 309.79 224.613 309.481 224.816C309.182 225.019 309.033 225.301 309.033 225.664ZM316.969 231.504C316.681 231.504 316.383 231.467 316.073 231.392V229.824C316.18 229.845 316.292 229.861 316.409 229.872C316.537 229.883 316.66 229.888 316.777 229.888C317.097 229.888 317.359 229.813 317.561 229.664C317.764 229.515 317.935 229.285 318.073 228.976L318.441 228.08L315.417 219.984H317.417L319.465 225.92L321.689 219.984H323.673L319.833 229.392C319.631 229.904 319.401 230.315 319.145 230.624C318.889 230.933 318.585 231.157 318.233 231.296C317.892 231.435 317.471 231.504 316.969 231.504ZM328.481 228.16C327.713 228.16 327.019 227.979 326.401 227.616C325.782 227.243 325.291 226.747 324.929 226.128C324.566 225.499 324.385 224.789 324.385 224C324.385 223.211 324.555 222.507 324.897 221.888C325.238 221.269 325.702 220.779 326.289 220.416C326.886 220.043 327.547 219.856 328.273 219.856C329.019 219.856 329.675 220.037 330.241 220.4C330.817 220.763 331.265 221.253 331.585 221.872C331.915 222.491 332.081 223.2 332.081 224V224.432H326.161C326.225 224.869 326.363 225.259 326.577 225.6C326.801 225.931 327.083 226.192 327.425 226.384C327.777 226.576 328.155 226.672 328.561 226.672C328.934 226.672 329.286 226.608 329.617 226.48C329.958 226.341 330.241 226.155 330.465 225.92L331.649 226.992C331.158 227.397 330.657 227.696 330.145 227.888C329.643 228.069 329.089 228.16 328.481 228.16ZM326.177 223.312H330.369C330.305 222.928 330.171 222.587 329.969 222.288C329.777 221.989 329.531 221.755 329.233 221.584C328.945 221.413 328.625 221.328 328.273 221.328C327.921 221.328 327.595 221.413 327.297 221.584C327.009 221.744 326.769 221.973 326.577 222.272C326.385 222.571 326.251 222.917 326.177 223.312ZM333.925 228V219.984H335.733V221.712C335.967 221.104 336.271 220.64 336.645 220.32C337.018 220 337.45 219.84 337.941 219.84C338.09 219.851 338.223 219.867 338.341 219.888C338.458 219.899 338.586 219.936 338.725 220V221.584C338.586 221.52 338.426 221.472 338.245 221.44C338.074 221.408 337.903 221.392 337.733 221.392C337.295 221.392 336.901 221.509 336.549 221.744C336.207 221.979 335.935 222.304 335.733 222.72V228H333.925Z" fill="white"/>
<rect x="29" y="114" width="497" height="40" rx="12" fill="#02BB4D"/>
<path d="M243.299 139.176C242.424 139.176 241.598 139.027 240.819 138.728C240.051 138.419 239.31 137.965 238.595 137.368L239.635 135.96C240.36 136.547 241.006 136.968 241.571 137.224C242.147 137.469 242.76 137.592 243.411 137.592C243.902 137.592 244.334 137.517 244.707 137.368C245.091 137.208 245.384 136.995 245.587 136.728C245.8 136.461 245.907 136.152 245.907 135.8C245.907 135.341 245.752 134.995 245.443 134.76C245.144 134.515 244.622 134.328 243.875 134.2L241.811 133.848C240.84 133.677 240.115 133.352 239.635 132.872C239.166 132.381 238.931 131.757 238.931 131C238.931 130.328 239.102 129.741 239.443 129.24C239.784 128.728 240.259 128.333 240.867 128.056C241.486 127.768 242.216 127.624 243.059 127.624C243.902 127.624 244.702 127.747 245.459 127.992C246.216 128.237 246.915 128.595 247.555 129.064L246.579 130.504C246.014 130.077 245.432 129.757 244.835 129.544C244.238 129.32 243.624 129.208 242.995 129.208C242.547 129.208 242.152 129.277 241.811 129.416C241.48 129.555 241.219 129.747 241.027 129.992C240.846 130.237 240.755 130.509 240.755 130.808C240.755 131.213 240.888 131.528 241.155 131.752C241.432 131.965 241.875 132.125 242.483 132.232L244.483 132.568C245.614 132.771 246.446 133.123 246.979 133.624C247.523 134.125 247.795 134.803 247.795 135.656C247.795 136.339 247.603 136.947 247.219 137.48C246.846 138.013 246.323 138.429 245.651 138.728C244.979 139.027 244.195 139.176 243.299 139.176ZM252.74 139.16C251.929 139.16 251.316 138.973 250.9 138.6C250.484 138.216 250.276 137.656 250.276 136.92V132.424H248.676V130.984H250.276V128.776L252.084 128.392V130.984H254.308V132.424H252.084V136.52C252.084 136.915 252.169 137.197 252.34 137.368C252.511 137.528 252.799 137.608 253.204 137.608C253.385 137.608 253.551 137.597 253.7 137.576C253.86 137.544 254.057 137.491 254.292 137.416V138.936C254.068 139.011 253.812 139.064 253.524 139.096C253.247 139.139 252.985 139.16 252.74 139.16ZM259.448 139.144C258.691 139.144 258.003 138.963 257.384 138.6C256.776 138.237 256.296 137.747 255.944 137.128C255.592 136.499 255.416 135.789 255.416 135C255.416 134.211 255.592 133.507 255.944 132.888C256.296 132.259 256.776 131.763 257.384 131.4C257.992 131.037 258.68 130.856 259.448 130.856C260.216 130.856 260.899 131.037 261.496 131.4C262.104 131.763 262.584 132.259 262.936 132.888C263.288 133.507 263.464 134.211 263.464 135C263.464 135.789 263.288 136.499 262.936 137.128C262.584 137.747 262.104 138.237 261.496 138.6C260.899 138.963 260.216 139.144 259.448 139.144ZM259.448 137.608C259.885 137.608 260.269 137.496 260.6 137.272C260.941 137.048 261.208 136.739 261.4 136.344C261.592 135.939 261.688 135.491 261.688 135C261.688 134.499 261.592 134.056 261.4 133.672C261.208 133.277 260.941 132.968 260.6 132.744C260.269 132.509 259.885 132.392 259.448 132.392C259.011 132.392 258.621 132.509 258.28 132.744C257.939 132.968 257.672 133.277 257.48 133.672C257.288 134.056 257.192 134.499 257.192 135C257.192 135.501 257.288 135.949 257.48 136.344C257.672 136.739 257.939 137.048 258.28 137.272C258.621 137.496 259.011 137.608 259.448 137.608ZM265.331 139V130.984H267.139V132.712C267.374 132.104 267.678 131.64 268.051 131.32C268.424 131 268.856 130.84 269.347 130.84C269.496 130.851 269.63 130.867 269.747 130.888C269.864 130.899 269.992 130.936 270.131 131V132.584C269.992 132.52 269.832 132.472 269.651 132.44C269.48 132.408 269.31 132.392 269.139 132.392C268.702 132.392 268.307 132.509 267.955 132.744C267.614 132.979 267.342 133.304 267.139 133.72V139H265.331ZM274.965 139.16C274.197 139.16 273.504 138.979 272.885 138.616C272.267 138.243 271.776 137.747 271.413 137.128C271.051 136.499 270.869 135.789 270.869 135C270.869 134.211 271.04 133.507 271.381 132.888C271.723 132.269 272.187 131.779 272.773 131.416C273.371 131.043 274.032 130.856 274.757 130.856C275.504 130.856 276.16 131.037 276.725 131.4C277.301 131.763 277.749 132.253 278.069 132.872C278.4 133.491 278.565 134.2 278.565 135V135.432H272.645C272.709 135.869 272.848 136.259 273.061 136.6C273.285 136.931 273.568 137.192 273.909 137.384C274.261 137.576 274.64 137.672 275.045 137.672C275.419 137.672 275.771 137.608 276.101 137.48C276.443 137.341 276.725 137.155 276.949 136.92L278.133 137.992C277.643 138.397 277.141 138.696 276.629 138.888C276.128 139.069 275.573 139.16 274.965 139.16ZM272.661 134.312H276.853C276.789 133.928 276.656 133.587 276.453 133.288C276.261 132.989 276.016 132.755 275.717 132.584C275.429 132.413 275.109 132.328 274.757 132.328C274.405 132.328 274.08 132.413 273.781 132.584C273.493 132.744 273.253 132.973 273.061 133.272C272.869 133.571 272.736 133.917 272.661 134.312ZM281.263 139V132.424H279.535V130.984H281.263V129.608C281.263 128.744 281.497 128.083 281.967 127.624C282.447 127.155 283.135 126.92 284.031 126.92C284.255 126.92 284.473 126.931 284.687 126.952C284.9 126.973 285.081 127.011 285.231 127.064V128.6C285.028 128.557 284.857 128.531 284.719 128.52C284.58 128.499 284.431 128.488 284.271 128.488C283.855 128.488 283.551 128.579 283.359 128.76C283.167 128.941 283.071 129.235 283.071 129.64V130.984H285.231V132.424H283.071V139H281.263ZM286.753 139V130.984H288.561V132.712C288.795 132.104 289.099 131.64 289.473 131.32C289.846 131 290.278 130.84 290.769 130.84C290.918 130.851 291.051 130.867 291.169 130.888C291.286 130.899 291.414 130.936 291.553 131V132.584C291.414 132.52 291.254 132.472 291.073 132.44C290.902 132.408 290.731 132.392 290.561 132.392C290.123 132.392 289.729 132.509 289.377 132.744C289.035 132.979 288.763 133.304 288.561 133.72V139H286.753ZM296.323 139.144C295.566 139.144 294.878 138.963 294.259 138.6C293.651 138.237 293.171 137.747 292.819 137.128C292.467 136.499 292.291 135.789 292.291 135C292.291 134.211 292.467 133.507 292.819 132.888C293.171 132.259 293.651 131.763 294.259 131.4C294.867 131.037 295.555 130.856 296.323 130.856C297.091 130.856 297.774 131.037 298.371 131.4C298.979 131.763 299.459 132.259 299.811 132.888C300.163 133.507 300.339 134.211 300.339 135C300.339 135.789 300.163 136.499 299.811 137.128C299.459 137.747 298.979 138.237 298.371 138.6C297.774 138.963 297.091 139.144 296.323 139.144ZM296.323 137.608C296.76 137.608 297.144 137.496 297.475 137.272C297.816 137.048 298.083 136.739 298.275 136.344C298.467 135.939 298.563 135.491 298.563 135C298.563 134.499 298.467 134.056 298.275 133.672C298.083 133.277 297.816 132.968 297.475 132.744C297.144 132.509 296.76 132.392 296.323 132.392C295.886 132.392 295.496 132.509 295.155 132.744C294.814 132.968 294.547 133.277 294.355 133.672C294.163 134.056 294.067 134.499 294.067 135C294.067 135.501 294.163 135.949 294.355 136.344C294.547 136.739 294.814 137.048 295.155 137.272C295.496 137.496 295.886 137.608 296.323 137.608ZM302.206 139V130.984H304.014V132.296C304.323 131.816 304.691 131.459 305.118 131.224C305.545 130.979 306.019 130.856 306.542 130.856C307.097 130.856 307.582 130.979 307.998 131.224C308.414 131.459 308.739 131.789 308.974 132.216C309.219 132.643 309.342 133.144 309.342 133.72V139H307.518V134.232C307.518 133.645 307.358 133.181 307.038 132.84C306.718 132.488 306.291 132.312 305.758 132.312C305.395 132.312 305.065 132.397 304.766 132.568C304.478 132.728 304.227 132.968 304.014 133.288V139H302.206ZM314.74 139.16C313.929 139.16 313.316 138.973 312.9 138.6C312.484 138.216 312.276 137.656 312.276 136.92V132.424H310.676V130.984H312.276V128.776L314.084 128.392V130.984H316.308V132.424H314.084V136.52C314.084 136.915 314.169 137.197 314.34 137.368C314.511 137.528 314.799 137.608 315.204 137.608C315.385 137.608 315.551 137.597 315.7 137.576C315.86 137.544 316.057 137.491 316.292 137.416V138.936C316.068 139.011 315.812 139.064 315.524 139.096C315.247 139.139 314.985 139.16 314.74 139.16Z" fill="white"/>
<rect x="29" y="65" width="497" height="40" rx="12" fill="#02BB4D"/>
<path d="M180.905 88.336H183.129C183.801 88.336 184.409 88.1653 184.953 87.824C185.497 87.472 185.929 86.9973 186.249 86.4C186.569 85.8027 186.729 85.136 186.729 84.4C186.729 83.6533 186.569 82.9867 186.249 82.4C185.929 81.8027 185.497 81.3333 184.953 80.992C184.409 80.64 183.801 80.464 183.129 80.464H180.905V88.336ZM178.985 90V78.8H183.081C183.891 78.8 184.638 78.944 185.321 79.232C186.003 79.52 186.595 79.92 187.097 80.432C187.609 80.9333 188.003 81.5253 188.281 82.208C188.558 82.88 188.697 83.6107 188.697 84.4C188.697 85.1893 188.558 85.9253 188.281 86.608C188.003 87.28 187.609 87.872 187.097 88.384C186.595 88.8853 186.003 89.28 185.321 89.568C184.638 89.856 183.891 90 183.081 90H178.985ZM194.364 90.16C193.596 90.16 192.902 89.9787 192.284 89.616C191.665 89.2427 191.174 88.7467 190.812 88.128C190.449 87.4987 190.268 86.7893 190.268 86C190.268 85.2107 190.438 84.5067 190.78 83.888C191.121 83.2693 191.585 82.7787 192.172 82.416C192.769 82.0427 193.43 81.856 194.156 81.856C194.902 81.856 195.558 82.0373 196.124 82.4C196.7 82.7627 197.148 83.2533 197.468 83.872C197.798 84.4907 197.964 85.2 197.964 86V86.432H192.044C192.108 86.8693 192.246 87.2587 192.46 87.6C192.684 87.9307 192.966 88.192 193.308 88.384C193.66 88.576 194.038 88.672 194.444 88.672C194.817 88.672 195.169 88.608 195.5 88.48C195.841 88.3413 196.124 88.1547 196.348 87.92L197.532 88.992C197.041 89.3973 196.54 89.696 196.028 89.888C195.526 90.0693 194.972 90.16 194.364 90.16ZM192.06 85.312H196.252C196.188 84.928 196.054 84.5867 195.852 84.288C195.66 83.9893 195.414 83.7547 195.116 83.584C194.828 83.4133 194.508 83.328 194.156 83.328C193.804 83.328 193.478 83.4133 193.18 83.584C192.892 83.744 192.652 83.9733 192.46 84.272C192.268 84.5707 192.134 84.9173 192.06 85.312ZM202.606 90.16C201.923 90.16 201.283 90.0693 200.686 89.888C200.099 89.696 199.592 89.424 199.166 89.072L200.014 87.872C200.547 88.2027 201.006 88.4373 201.39 88.576C201.784 88.7147 202.184 88.784 202.59 88.784C203.07 88.784 203.459 88.6827 203.758 88.48C204.056 88.2773 204.206 88.016 204.206 87.696C204.206 87.4507 204.115 87.2587 203.934 87.12C203.763 86.9707 203.48 86.8587 203.086 86.784L201.678 86.544C200.899 86.3947 200.318 86.1387 199.934 85.776C199.55 85.4133 199.358 84.9333 199.358 84.336C199.358 83.8347 199.486 83.4027 199.742 83.04C200.008 82.6667 200.371 82.3787 200.83 82.176C201.299 81.9627 201.843 81.856 202.462 81.856C203.016 81.856 203.555 81.936 204.078 82.096C204.6 82.256 205.112 82.496 205.614 82.816L204.766 84.016C204.36 83.7493 203.955 83.5573 203.55 83.44C203.155 83.312 202.755 83.248 202.35 83.248C201.934 83.248 201.598 83.3333 201.342 83.504C201.096 83.664 200.974 83.888 200.974 84.176C200.974 84.432 201.054 84.6293 201.214 84.768C201.384 84.896 201.678 84.992 202.094 85.056L203.518 85.328C204.318 85.4667 204.91 85.7227 205.294 86.096C205.688 86.4587 205.886 86.944 205.886 87.552C205.886 88.0427 205.742 88.4853 205.454 88.88C205.166 89.2747 204.776 89.5893 204.286 89.824C203.795 90.048 203.235 90.16 202.606 90.16ZM207.526 90V81.984H209.334V90H207.526ZM208.438 80.352C208.129 80.352 207.862 80.2453 207.638 80.032C207.425 79.808 207.318 79.5467 207.318 79.248C207.318 78.9387 207.425 78.6773 207.638 78.464C207.862 78.24 208.129 78.128 208.438 78.128C208.747 78.128 209.009 78.24 209.222 78.464C209.446 78.6773 209.558 78.9333 209.558 79.232C209.558 79.5413 209.446 79.808 209.222 80.032C209.009 80.2453 208.747 80.352 208.438 80.352ZM215.317 93.504C214.752 93.504 214.192 93.4347 213.637 93.296C213.082 93.1573 212.57 92.9653 212.101 92.72L212.725 91.392C213.205 91.616 213.642 91.7813 214.037 91.888C214.442 92.0053 214.842 92.064 215.237 92.064C215.909 92.064 216.416 91.9147 216.757 91.616C217.109 91.3173 217.285 90.8747 217.285 90.288V88.928C216.997 89.28 216.64 89.5573 216.213 89.76C215.786 89.952 215.322 90.048 214.821 90.048C214.149 90.048 213.541 89.8667 212.997 89.504C212.453 89.1307 212.016 88.64 211.685 88.032C211.365 87.4133 211.205 86.7253 211.205 85.968C211.205 85.2107 211.37 84.528 211.701 83.92C212.032 83.312 212.48 82.8267 213.045 82.464C213.621 82.1013 214.256 81.92 214.949 81.92C215.418 81.92 215.856 82.0107 216.261 82.192C216.666 82.3733 217.013 82.64 217.301 82.992V81.984H219.093V90.288C219.093 91.3227 218.768 92.1173 218.117 92.672C217.466 93.2267 216.533 93.504 215.317 93.504ZM215.381 88.544C215.765 88.544 216.122 88.4693 216.453 88.32C216.784 88.16 217.061 87.9413 217.285 87.664V84.304C217.05 84.0267 216.768 83.8133 216.437 83.664C216.106 83.5147 215.754 83.44 215.381 83.44C214.922 83.44 214.512 83.552 214.149 83.776C213.797 83.9893 213.514 84.288 213.301 84.672C213.088 85.0453 212.981 85.4827 212.981 85.984C212.981 86.464 213.088 86.9013 213.301 87.296C213.514 87.68 213.797 87.984 214.149 88.208C214.512 88.432 214.922 88.544 215.381 88.544ZM221.323 90V81.984H223.131V83.296C223.44 82.816 223.808 82.4587 224.235 82.224C224.662 81.9787 225.136 81.856 225.659 81.856C226.214 81.856 226.699 81.9787 227.115 82.224C227.531 82.4587 227.856 82.7893 228.091 83.216C228.336 83.6427 228.459 84.144 228.459 84.72V90H226.635V85.232C226.635 84.6453 226.475 84.1813 226.155 83.84C225.835 83.488 225.408 83.312 224.875 83.312C224.512 83.312 224.182 83.3973 223.883 83.568C223.595 83.728 223.344 83.968 223.131 84.288V90H221.323ZM238.197 90.176C237.323 90.176 236.496 90.0267 235.717 89.728C234.949 89.4187 234.208 88.9653 233.493 88.368L234.533 86.96C235.259 87.5467 235.904 87.968 236.469 88.224C237.045 88.4693 237.659 88.592 238.309 88.592C238.8 88.592 239.232 88.5173 239.605 88.368C239.989 88.208 240.283 87.9947 240.485 87.728C240.699 87.4613 240.805 87.152 240.805 86.8C240.805 86.3413 240.651 85.9947 240.341 85.76C240.043 85.5147 239.52 85.328 238.773 85.2L236.709 84.848C235.739 84.6773 235.013 84.352 234.533 83.872C234.064 83.3813 233.829 82.7573 233.829 82C233.829 81.328 234 80.7413 234.341 80.24C234.683 79.728 235.157 79.3333 235.765 79.056C236.384 78.768 237.115 78.624 237.957 78.624C238.8 78.624 239.6 78.7467 240.357 78.992C241.115 79.2373 241.813 79.5947 242.453 80.064L241.477 81.504C240.912 81.0773 240.331 80.7573 239.733 80.544C239.136 80.32 238.523 80.208 237.893 80.208C237.445 80.208 237.051 80.2773 236.709 80.416C236.379 80.5547 236.117 80.7467 235.925 80.992C235.744 81.2373 235.653 81.5093 235.653 81.808C235.653 82.2133 235.787 82.528 236.053 82.752C236.331 82.9653 236.773 83.1253 237.381 83.232L239.381 83.568C240.512 83.7707 241.344 84.1227 241.877 84.624C242.421 85.1253 242.693 85.8027 242.693 86.656C242.693 87.3387 242.501 87.9467 242.117 88.48C241.744 89.0133 241.221 89.4293 240.549 89.728C239.877 90.0267 239.093 90.176 238.197 90.176ZM244.759 93.504C244.471 93.504 244.172 93.4667 243.863 93.392V91.824C243.969 91.8453 244.081 91.8613 244.199 91.872C244.327 91.8827 244.449 91.888 244.567 91.888C244.887 91.888 245.148 91.8133 245.351 91.664C245.553 91.5147 245.724 91.2853 245.863 90.976L246.231 90.08L243.207 81.984H245.207L247.255 87.92L249.479 81.984H251.463L247.623 91.392C247.42 91.904 247.191 92.3147 246.935 92.624C246.679 92.9333 246.375 93.1573 246.023 93.296C245.681 93.4347 245.26 93.504 244.759 93.504ZM255.496 90.16C254.814 90.16 254.174 90.0693 253.576 89.888C252.99 89.696 252.483 89.424 252.056 89.072L252.904 87.872C253.438 88.2027 253.896 88.4373 254.28 88.576C254.675 88.7147 255.075 88.784 255.48 88.784C255.96 88.784 256.35 88.6827 256.648 88.48C256.947 88.2773 257.096 88.016 257.096 87.696C257.096 87.4507 257.006 87.2587 256.824 87.12C256.654 86.9707 256.371 86.8587 255.976 86.784L254.568 86.544C253.79 86.3947 253.208 86.1387 252.824 85.776C252.44 85.4133 252.248 84.9333 252.248 84.336C252.248 83.8347 252.376 83.4027 252.632 83.04C252.899 82.6667 253.262 82.3787 253.72 82.176C254.19 81.9627 254.734 81.856 255.352 81.856C255.907 81.856 256.446 81.936 256.968 82.096C257.491 82.256 258.003 82.496 258.504 82.816L257.656 84.016C257.251 83.7493 256.846 83.5573 256.44 83.44C256.046 83.312 255.646 83.248 255.24 83.248C254.824 83.248 254.488 83.3333 254.232 83.504C253.987 83.664 253.864 83.888 253.864 84.176C253.864 84.432 253.944 84.6293 254.104 84.768C254.275 84.896 254.568 84.992 254.984 85.056L256.408 85.328C257.208 85.4667 257.8 85.7227 258.184 86.096C258.579 86.4587 258.776 86.944 258.776 87.552C258.776 88.0427 258.632 88.4853 258.344 88.88C258.056 89.2747 257.667 89.5893 257.176 89.824C256.686 90.048 256.126 90.16 255.496 90.16ZM263.732 90.16C262.922 90.16 262.308 89.9733 261.892 89.6C261.476 89.216 261.268 88.656 261.268 87.92V83.424H259.668V81.984H261.268V79.776L263.076 79.392V81.984H265.3V83.424H263.076V87.52C263.076 87.9147 263.162 88.1973 263.332 88.368C263.503 88.528 263.791 88.608 264.196 88.608C264.378 88.608 264.543 88.5973 264.692 88.576C264.852 88.544 265.05 88.4907 265.284 88.416V89.936C265.06 90.0107 264.804 90.064 264.516 90.096C264.239 90.1387 263.978 90.16 263.732 90.16ZM270.504 90.16C269.736 90.16 269.043 89.9787 268.424 89.616C267.806 89.2427 267.315 88.7467 266.952 88.128C266.59 87.4987 266.408 86.7893 266.408 86C266.408 85.2107 266.579 84.5067 266.92 83.888C267.262 83.2693 267.726 82.7787 268.312 82.416C268.91 82.0427 269.571 81.856 270.296 81.856C271.043 81.856 271.699 82.0373 272.264 82.4C272.84 82.7627 273.288 83.2533 273.608 83.872C273.939 84.4907 274.104 85.2 274.104 86V86.432H268.184C268.248 86.8693 268.387 87.2587 268.6 87.6C268.824 87.9307 269.107 88.192 269.448 88.384C269.8 88.576 270.179 88.672 270.584 88.672C270.958 88.672 271.31 88.608 271.64 88.48C271.982 88.3413 272.264 88.1547 272.488 87.92L273.672 88.992C273.182 89.3973 272.68 89.696 272.168 89.888C271.667 90.0693 271.112 90.16 270.504 90.16ZM268.2 85.312H272.392C272.328 84.928 272.195 84.5867 271.992 84.288C271.8 83.9893 271.555 83.7547 271.256 83.584C270.968 83.4133 270.648 83.328 270.296 83.328C269.944 83.328 269.619 83.4133 269.32 83.584C269.032 83.744 268.792 83.9733 268.6 84.272C268.408 84.5707 268.275 84.9173 268.2 85.312ZM275.948 90V81.984H277.756V83.248C278.055 82.7893 278.401 82.4427 278.796 82.208C279.201 81.9733 279.644 81.856 280.124 81.856C280.679 81.856 281.159 81.9947 281.564 82.272C281.98 82.5493 282.289 82.9227 282.492 83.392C282.812 82.8907 283.191 82.512 283.628 82.256C284.076 81.9893 284.583 81.856 285.148 81.856C285.66 81.856 286.113 81.9787 286.508 82.224C286.913 82.4693 287.223 82.8107 287.436 83.248C287.66 83.6853 287.772 84.1867 287.772 84.752V90H285.964V85.152C285.964 84.5867 285.82 84.1387 285.532 83.808C285.244 83.4773 284.849 83.312 284.348 83.312C284.028 83.312 283.729 83.392 283.452 83.552C283.185 83.712 282.951 83.952 282.748 84.272C282.759 84.3467 282.764 84.4267 282.764 84.512C282.775 84.5867 282.78 84.6667 282.78 84.752V90H280.956V85.152C280.956 84.5867 280.812 84.1387 280.524 83.808C280.236 83.4773 279.841 83.312 279.34 83.312C278.689 83.312 278.161 83.6213 277.756 84.24V90H275.948ZM291.637 93.344L298.038 78.8H299.798L293.382 93.344H291.637ZM309.808 90.176C308.859 90.176 308.027 89.9733 307.312 89.568C306.608 89.1627 306.064 88.5867 305.68 87.84C305.296 87.0933 305.104 86.2133 305.104 85.2V78.8H307.024V85.2C307.024 85.8613 307.136 86.432 307.36 86.912C307.595 87.392 307.92 87.7707 308.336 88.048C308.752 88.3147 309.243 88.448 309.808 88.448C310.374 88.448 310.864 88.3147 311.28 88.048C311.707 87.7707 312.032 87.392 312.256 86.912C312.48 86.432 312.592 85.8613 312.592 85.2V78.8H314.512V85.2C314.512 86.2133 314.32 87.0933 313.936 87.84C313.563 88.5867 313.024 89.1627 312.32 89.568C311.616 89.9733 310.779 90.176 309.808 90.176ZM316.889 90V78.8H318.809V90H316.889ZM325.016 90V78.8H326.936V88.336H332.904V90H325.016ZM334.792 90V81.984H336.6V90H334.792ZM335.704 80.352C335.394 80.352 335.128 80.2453 334.904 80.032C334.69 79.808 334.584 79.5467 334.584 79.248C334.584 78.9387 334.69 78.6773 334.904 78.464C335.128 78.24 335.394 78.128 335.704 78.128C336.013 78.128 336.274 78.24 336.488 78.464C336.712 78.6773 336.824 78.9333 336.824 79.232C336.824 79.5413 336.712 79.808 336.488 80.032C336.274 80.2453 336.013 80.352 335.704 80.352ZM338.839 90V78.576L340.647 78.272V83.056C340.935 82.6933 341.287 82.416 341.703 82.224C342.129 82.0213 342.599 81.92 343.111 81.92C343.793 81.92 344.407 82.1013 344.951 82.464C345.495 82.8267 345.927 83.3173 346.247 83.936C346.567 84.5547 346.727 85.2427 346.727 86C346.727 86.7573 346.561 87.4453 346.231 88.064C345.9 88.6827 345.452 89.1733 344.887 89.536C344.321 89.8987 343.692 90.08 342.999 90.08C342.519 90.08 342.076 89.984 341.671 89.792C341.265 89.6 340.913 89.328 340.615 88.976V90H338.839ZM342.567 88.576C343.025 88.576 343.431 88.464 343.783 88.24C344.145 88.016 344.428 87.712 344.631 87.328C344.844 86.9333 344.951 86.4907 344.951 86C344.951 85.5093 344.844 85.072 344.631 84.688C344.428 84.304 344.145 84 343.783 83.776C343.431 83.552 343.025 83.44 342.567 83.44C342.172 83.44 341.809 83.52 341.479 83.68C341.148 83.8293 340.871 84.048 340.647 84.336V87.68C340.881 87.9573 341.164 88.176 341.495 88.336C341.825 88.496 342.183 88.576 342.567 88.576ZM348.62 90V81.984H350.428V83.712C350.663 83.104 350.967 82.64 351.34 82.32C351.713 82 352.145 81.84 352.636 81.84C352.785 81.8507 352.919 81.8667 353.036 81.888C353.153 81.8987 353.281 81.936 353.42 82V83.584C353.281 83.52 353.121 83.472 352.94 83.44C352.769 83.408 352.599 83.392 352.428 83.392C351.991 83.392 351.596 83.5093 351.244 83.744C350.903 83.9787 350.631 84.304 350.428 84.72V90H348.62ZM357.083 90.144C356.529 90.144 356.033 90.0427 355.595 89.84C355.169 89.6267 354.833 89.3387 354.587 88.976C354.353 88.6027 354.235 88.176 354.235 87.696C354.235 87.216 354.358 86.8 354.603 86.448C354.859 86.096 355.217 85.824 355.675 85.632C356.134 85.44 356.678 85.344 357.307 85.344C357.681 85.344 358.049 85.3867 358.411 85.472C358.774 85.5467 359.126 85.6747 359.467 85.856V84.96C359.467 84.4267 359.313 84.0267 359.003 83.76C358.705 83.4933 358.246 83.36 357.627 83.36C357.297 83.36 356.939 83.4133 356.555 83.52C356.182 83.616 355.761 83.7707 355.291 83.984L354.651 82.672C355.825 82.128 356.934 81.856 357.979 81.856C359.025 81.856 359.83 82.112 360.395 82.624C360.971 83.1253 361.259 83.84 361.259 84.768V90H359.467V89.168C359.126 89.4987 358.758 89.744 358.363 89.904C357.969 90.064 357.542 90.144 357.083 90.144ZM355.931 87.664C355.931 88.0373 356.081 88.3307 356.379 88.544C356.678 88.7573 357.078 88.864 357.579 88.864C357.942 88.864 358.278 88.8107 358.587 88.704C358.907 88.5867 359.201 88.416 359.467 88.192V86.896C359.19 86.768 358.902 86.672 358.603 86.608C358.305 86.544 357.979 86.512 357.627 86.512C357.105 86.512 356.689 86.6133 356.379 86.816C356.081 87.0187 355.931 87.3013 355.931 87.664ZM363.448 90V81.984H365.256V83.712C365.491 83.104 365.795 82.64 366.168 82.32C366.541 82 366.973 81.84 367.464 81.84C367.613 81.8507 367.747 81.8667 367.864 81.888C367.981 81.8987 368.109 81.936 368.248 82V83.584C368.109 83.52 367.949 83.472 367.768 83.44C367.597 83.408 367.427 83.392 367.256 83.392C366.819 83.392 366.424 83.5093 366.072 83.744C365.731 83.9787 365.459 84.304 365.256 84.72V90H363.448ZM370.462 93.504C370.174 93.504 369.875 93.4667 369.566 93.392V91.824C369.672 91.8453 369.784 91.8613 369.902 91.872C370.03 91.8827 370.152 91.888 370.27 91.888C370.59 91.888 370.851 91.8133 371.054 91.664C371.256 91.5147 371.427 91.2853 371.566 90.976L371.934 90.08L368.91 81.984H370.91L372.958 87.92L375.182 81.984H377.166L373.326 91.392C373.123 91.904 372.894 92.3147 372.638 92.624C372.382 92.9333 372.078 93.1573 371.726 93.296C371.384 93.4347 370.963 93.504 370.462 93.504Z" fill="white"/>
<rect x="66.2002" y="303" width="52" height="52" rx="12" fill="#2A4148"/>
<path fill-rule="evenodd" clip-rule="evenodd" d="M82.7451 318.917C82.469 318.917 82.2451 319.14 82.2451 319.417C82.2451 319.693 82.469 319.917 82.7451 319.917H83.0601C83.3278 319.917 83.5873 320.009 83.7951 320.177C84.003 320.346 84.1465 320.581 84.2017 320.843L84.7969 323.671C84.7988 323.681 84.8011 323.692 84.8037 323.703L86.9775 334.03C87.0799 334.516 87.3465 334.953 87.7325 335.266C87.9088 335.409 88.1052 335.522 88.3138 335.603C87.4729 335.731 86.8285 336.457 86.8285 337.333C86.8285 338.3 87.612 339.083 88.5785 339.083C89.545 339.083 90.3285 338.3 90.3285 337.333C90.3285 336.634 89.918 336.03 89.3248 335.75H96.1655C95.5723 336.03 95.1618 336.634 95.1618 337.333C95.1618 338.3 95.9453 339.083 96.9118 339.083C97.8783 339.083 98.6618 338.3 98.6618 337.333C98.6618 336.634 98.2513 336.03 97.6581 335.75H98.5784C98.8546 335.75 99.0784 335.526 99.0784 335.25C99.0784 334.974 98.8546 334.75 98.5784 334.75H89.0976C88.83 334.75 88.5704 334.658 88.3626 334.489C88.1547 334.321 88.0112 334.086 87.9561 333.824L87.8353 333.25H97.5027C98.1608 333.25 98.8006 333.033 99.3236 332.634C99.8466 332.234 100.224 331.674 100.397 331.039L102.108 324.767C102.161 324.569 102.169 324.362 102.13 324.161C102.09 323.959 102.005 323.77 101.881 323.607C101.756 323.444 101.596 323.312 101.412 323.221C101.228 323.131 101.026 323.083 100.821 323.083H85.6952L85.1802 320.637C85.0778 320.151 84.8113 319.714 84.4252 319.401C84.0392 319.088 83.5572 318.917 83.0601 318.917H82.7451ZM85.9057 324.083L87.6248 332.25H97.5026C97.9413 332.25 98.3679 332.106 98.7165 331.839C99.0651 331.573 99.3165 331.199 99.4319 330.776L101.143 324.504C101.156 324.455 101.158 324.403 101.148 324.353C101.138 324.302 101.117 324.255 101.086 324.214C101.055 324.174 101.015 324.141 100.969 324.118C100.923 324.095 100.872 324.083 100.821 324.083H85.9057ZM88.5785 336.583C88.1643 336.583 87.8285 336.919 87.8285 337.333C87.8285 337.748 88.1643 338.083 88.5785 338.083C88.9927 338.083 89.3285 337.748 89.3285 337.333C89.3285 336.919 88.9927 336.583 88.5785 336.583ZM96.1618 337.333C96.1618 336.919 96.4976 336.583 96.9118 336.583C97.326 336.583 97.6618 336.919 97.6618 337.333C97.6618 337.748 97.326 338.083 96.9118 338.083C96.4976 338.083 96.1618 337.748 96.1618 337.333Z" fill="#F2F2F2"/>
<path d="M66.9587 373.1C66.4787 373.1 66.0454 372.987 65.6587 372.76C65.272 372.527 64.9654 372.217 64.7387 371.83C64.512 371.437 64.3987 370.993 64.3987 370.5C64.3987 370.007 64.5054 369.567 64.7187 369.18C64.932 368.793 65.222 368.487 65.5887 368.26C65.962 368.027 66.3754 367.91 66.8287 367.91C67.2954 367.91 67.7054 368.023 68.0587 368.25C68.4187 368.477 68.6987 368.783 68.8987 369.17C69.1054 369.557 69.2087 370 69.2087 370.5V370.77H65.5087C65.5487 371.043 65.6354 371.287 65.7687 371.5C65.9087 371.707 66.0854 371.87 66.2987 371.99C66.5187 372.11 66.7554 372.17 67.0087 372.17C67.242 372.17 67.462 372.13 67.6687 372.05C67.882 371.963 68.0587 371.847 68.1987 371.7L68.9387 372.37C68.632 372.623 68.3187 372.81 67.9987 372.93C67.6854 373.043 67.3387 373.1 66.9587 373.1ZM65.5187 370.07H68.1387C68.0987 369.83 68.0154 369.617 67.8887 369.43C67.7687 369.243 67.6154 369.097 67.4287 368.99C67.2487 368.883 67.0487 368.83 66.8287 368.83C66.6087 368.83 66.4054 368.883 66.2187 368.99C66.0387 369.09 65.8887 369.233 65.7687 369.42C65.6487 369.607 65.5654 369.823 65.5187 370.07ZM73.7911 373.11C73.2845 373.11 72.8111 373.02 72.3711 372.84C71.9311 372.653 71.5445 372.397 71.2111 372.07C70.8845 371.737 70.6278 371.353 70.4411 370.92C70.2611 370.48 70.1711 370.007 70.1711 369.5C70.1711 368.993 70.2611 368.523 70.4411 368.09C70.6278 367.65 70.8845 367.267 71.2111 366.94C71.5445 366.607 71.9311 366.35 72.3711 366.17C72.8111 365.983 73.2845 365.89 73.7911 365.89C74.1511 365.89 74.4978 365.94 74.8311 366.04C75.1645 366.14 75.4745 366.283 75.7611 366.47C76.0545 366.65 76.3078 366.873 76.5211 367.14L75.7211 367.92C75.4745 367.607 75.1845 367.37 74.8511 367.21C74.5178 367.05 74.1645 366.97 73.7911 366.97C73.4511 366.97 73.1345 367.033 72.8411 367.16C72.5545 367.287 72.3011 367.467 72.0811 367.7C71.8678 367.927 71.7011 368.193 71.5811 368.5C71.4611 368.807 71.4011 369.14 71.4011 369.5C71.4011 369.86 71.4611 370.193 71.5811 370.5C71.7011 370.807 71.8678 371.077 72.0811 371.31C72.3011 371.537 72.5545 371.713 72.8411 371.84C73.1345 371.967 73.4511 372.03 73.7911 372.03C74.1645 372.03 74.5178 371.95 74.8511 371.79C75.1845 371.623 75.4745 371.387 75.7211 371.08L76.5211 371.86C76.3078 372.12 76.0545 372.343 75.7611 372.53C75.4745 372.717 75.1645 372.86 74.8311 372.96C74.4978 373.06 74.1511 373.11 73.7911 373.11ZM79.7312 373.09C79.2579 373.09 78.8279 372.977 78.4412 372.75C78.0612 372.523 77.7612 372.217 77.5412 371.83C77.3212 371.437 77.2112 370.993 77.2112 370.5C77.2112 370.007 77.3212 369.567 77.5412 369.18C77.7612 368.787 78.0612 368.477 78.4412 368.25C78.8212 368.023 79.2512 367.91 79.7312 367.91C80.2112 367.91 80.6379 368.023 81.0112 368.25C81.3912 368.477 81.6912 368.787 81.9112 369.18C82.1312 369.567 82.2412 370.007 82.2412 370.5C82.2412 370.993 82.1312 371.437 81.9112 371.83C81.6912 372.217 81.3912 372.523 81.0112 372.75C80.6379 372.977 80.2112 373.09 79.7312 373.09ZM79.7312 372.13C80.0045 372.13 80.2445 372.06 80.4512 371.92C80.6645 371.78 80.8312 371.587 80.9512 371.34C81.0712 371.087 81.1312 370.807 81.1312 370.5C81.1312 370.187 81.0712 369.91 80.9512 369.67C80.8312 369.423 80.6645 369.23 80.4512 369.09C80.2445 368.943 80.0045 368.87 79.7312 368.87C79.4579 368.87 79.2145 368.943 79.0012 369.09C78.7879 369.23 78.6212 369.423 78.5012 369.67C78.3812 369.91 78.3212 370.187 78.3212 370.5C78.3212 370.813 78.3812 371.093 78.5012 371.34C78.6212 371.587 78.7879 371.78 79.0012 371.92C79.2145 372.06 79.4579 372.13 79.7312 372.13ZM83.408 373V367.99H84.538V368.78C84.7247 368.493 84.9413 368.277 85.188 368.13C85.4413 367.983 85.718 367.91 86.018 367.91C86.3647 367.91 86.6647 367.997 86.918 368.17C87.178 368.343 87.3713 368.577 87.498 368.87C87.698 368.557 87.9347 368.32 88.208 368.16C88.488 367.993 88.8047 367.91 89.158 367.91C89.478 367.91 89.7613 367.987 90.008 368.14C90.2613 368.293 90.4547 368.507 90.588 368.78C90.728 369.053 90.798 369.367 90.798 369.72V373H89.668V369.97C89.668 369.617 89.578 369.337 89.398 369.13C89.218 368.923 88.9713 368.82 88.658 368.82C88.458 368.82 88.2713 368.87 88.098 368.97C87.9313 369.07 87.7847 369.22 87.658 369.42C87.6647 369.467 87.668 369.517 87.668 369.57C87.6747 369.617 87.678 369.667 87.678 369.72V373H86.538V369.97C86.538 369.617 86.448 369.337 86.268 369.13C86.088 368.923 85.8413 368.82 85.528 368.82C85.1213 368.82 84.7913 369.013 84.538 369.4V373H83.408ZM92.1678 373V367.99H93.2978V368.78C93.4844 368.493 93.7011 368.277 93.9478 368.13C94.2011 367.983 94.4778 367.91 94.7778 367.91C95.1244 367.91 95.4244 367.997 95.6778 368.17C95.9378 368.343 96.1311 368.577 96.2578 368.87C96.4578 368.557 96.6944 368.32 96.9678 368.16C97.2478 367.993 97.5644 367.91 97.9178 367.91C98.2378 367.91 98.5211 367.987 98.7678 368.14C99.0211 368.293 99.2144 368.507 99.3478 368.78C99.4878 369.053 99.5578 369.367 99.5578 369.72V373H98.4278V369.97C98.4278 369.617 98.3378 369.337 98.1578 369.13C97.9778 368.923 97.7311 368.82 97.4178 368.82C97.2178 368.82 97.0311 368.87 96.8578 368.97C96.6911 369.07 96.5444 369.22 96.4178 369.42C96.4244 369.467 96.4278 369.517 96.4278 369.57C96.4344 369.617 96.4378 369.667 96.4378 369.72V373H95.2978V369.97C95.2978 369.617 95.2078 369.337 95.0278 369.13C94.8478 368.923 94.6011 368.82 94.2878 368.82C93.8811 368.82 93.5511 369.013 93.2978 369.4V373H92.1678ZM103.258 373.1C102.778 373.1 102.344 372.987 101.958 372.76C101.571 372.527 101.264 372.217 101.038 371.83C100.811 371.437 100.698 370.993 100.698 370.5C100.698 370.007 100.804 369.567 101.018 369.18C101.231 368.793 101.521 368.487 101.888 368.26C102.261 368.027 102.674 367.91 103.128 367.91C103.594 367.91 104.004 368.023 104.358 368.25C104.718 368.477 104.998 368.783 105.198 369.17C105.404 369.557 105.508 370 105.508 370.5V370.77H101.808C101.848 371.043 101.934 371.287 102.068 371.5C102.208 371.707 102.384 371.87 102.598 371.99C102.818 372.11 103.054 372.17 103.308 372.17C103.541 372.17 103.761 372.13 103.968 372.05C104.181 371.963 104.358 371.847 104.498 371.7L105.238 372.37C104.931 372.623 104.618 372.81 104.298 372.93C103.984 373.043 103.638 373.1 103.258 373.1ZM101.818 370.07H104.438C104.398 369.83 104.314 369.617 104.188 369.43C104.068 369.243 103.914 369.097 103.728 368.99C103.548 368.883 103.348 368.83 103.128 368.83C102.908 368.83 102.704 368.883 102.518 368.99C102.338 369.09 102.188 369.233 102.068 369.42C101.948 369.607 101.864 369.823 101.818 370.07ZM106.66 373V367.99H107.79V369.07C107.937 368.69 108.127 368.4 108.36 368.2C108.593 368 108.863 367.9 109.17 367.9C109.263 367.907 109.347 367.917 109.42 367.93C109.493 367.937 109.573 367.96 109.66 368V368.99C109.573 368.95 109.473 368.92 109.36 368.9C109.253 368.88 109.147 368.87 109.04 368.87C108.767 368.87 108.52 368.943 108.3 369.09C108.087 369.237 107.917 369.44 107.79 369.7V373H106.66ZM112.651 373.09C112.178 373.09 111.748 372.977 111.361 372.75C110.981 372.517 110.678 372.203 110.451 371.81C110.231 371.417 110.121 370.98 110.121 370.5C110.121 370.013 110.231 369.577 110.451 369.19C110.678 368.797 110.981 368.487 111.361 368.26C111.748 368.027 112.178 367.91 112.651 367.91C113.038 367.91 113.405 367.983 113.751 368.13C114.105 368.277 114.405 368.487 114.651 368.76L113.951 369.49C113.778 369.297 113.585 369.15 113.371 369.05C113.158 368.95 112.931 368.9 112.691 368.9C112.418 368.9 112.171 368.973 111.951 369.12C111.738 369.26 111.568 369.45 111.441 369.69C111.315 369.93 111.251 370.2 111.251 370.5C111.251 370.8 111.315 371.073 111.441 371.32C111.568 371.56 111.738 371.75 111.951 371.89C112.171 372.03 112.418 372.1 112.691 372.1C112.931 372.1 113.158 372.05 113.371 371.95C113.585 371.85 113.778 371.707 113.951 371.52L114.651 372.24C114.405 372.513 114.105 372.723 113.751 372.87C113.405 373.017 113.038 373.09 112.651 373.09ZM117.769 373.1C117.289 373.1 116.856 372.987 116.469 372.76C116.083 372.527 115.776 372.217 115.549 371.83C115.323 371.437 115.209 370.993 115.209 370.5C115.209 370.007 115.316 369.567 115.529 369.18C115.743 368.793 116.033 368.487 116.399 368.26C116.773 368.027 117.186 367.91 117.639 367.91C118.106 367.91 118.516 368.023 118.869 368.25C119.229 368.477 119.509 368.783 119.709 369.17C119.916 369.557 120.019 370 120.019 370.5V370.77H116.319C116.359 371.043 116.446 371.287 116.579 371.5C116.719 371.707 116.896 371.87 117.109 371.99C117.329 372.11 117.566 372.17 117.819 372.17C118.053 372.17 118.273 372.13 118.479 372.05C118.693 371.963 118.869 371.847 119.009 371.7L119.749 372.37C119.443 372.623 119.129 372.81 118.809 372.93C118.496 373.043 118.149 373.1 117.769 373.1ZM116.329 370.07H118.949C118.909 369.83 118.826 369.617 118.699 369.43C118.579 369.243 118.426 369.097 118.239 368.99C118.059 368.883 117.859 368.83 117.639 368.83C117.419 368.83 117.216 368.883 117.029 368.99C116.849 369.09 116.699 369.233 116.579 369.42C116.459 369.607 116.376 369.823 116.329 370.07Z" fill="#7C868D"/>
<rect x="160.601" y="303" width="52" height="52" rx="12" fill="#2A4148"/>
<path fill-rule="evenodd" clip-rule="evenodd" d="M184.15 325.333C184.876 324.849 185.728 324.59 186.6 324.59C187.769 324.593 188.889 325.058 189.716 325.885C190.542 326.711 191.008 327.831 191.01 329C191.01 329.872 190.752 330.725 190.267 331.45C189.783 332.175 189.094 332.741 188.288 333.074C187.482 333.408 186.595 333.495 185.74 333.325C184.885 333.155 184.099 332.735 183.482 332.118C182.865 331.502 182.445 330.716 182.275 329.86C182.105 329.005 182.192 328.118 182.526 327.312C182.86 326.507 183.425 325.818 184.15 325.333ZM184.706 331.835C185.267 332.21 185.926 332.41 186.6 332.41C187.505 332.41 188.372 332.051 189.012 331.411C189.651 330.772 190.01 329.904 190.01 329C190.01 328.326 189.81 327.666 189.436 327.106C189.061 326.545 188.528 326.108 187.905 325.85C187.282 325.591 186.597 325.524 185.935 325.656C185.274 325.787 184.666 326.112 184.189 326.589C183.712 327.066 183.387 327.673 183.256 328.335C183.124 328.996 183.192 329.682 183.45 330.305C183.708 330.928 184.145 331.461 184.706 331.835Z" fill="#EAEAEA"/>
<path fill-rule="evenodd" clip-rule="evenodd" d="M194.6 326.6L195.68 327L195.7 327.01C196.11 327.16 196.464 327.432 196.714 327.79C196.964 328.148 197.098 328.574 197.098 329.01C197.098 329.446 196.964 329.872 196.714 330.23C196.464 330.588 196.11 330.86 195.7 331.01L194.6 331.4C194.457 331.452 194.326 331.532 194.215 331.636C194.104 331.74 194.015 331.865 193.953 332.004C193.891 332.144 193.858 332.294 193.856 332.446C193.854 332.598 193.883 332.749 193.94 332.89C193.936 332.927 193.936 332.963 193.94 333L194.44 334C194.62 334.392 194.677 334.83 194.603 335.256C194.528 335.681 194.327 336.074 194.024 336.382C193.722 336.69 193.332 336.898 192.909 336.98C192.485 337.062 192.046 337.013 191.65 336.84L190.6 336.34C190.46 336.262 190.306 336.214 190.146 336.2C189.986 336.186 189.825 336.206 189.674 336.259C189.523 336.312 189.384 336.396 189.268 336.507C189.152 336.617 189.061 336.751 189 336.9V337L188.59 338.1C188.44 338.51 188.168 338.863 187.81 339.113C187.452 339.363 187.027 339.497 186.59 339.497C186.154 339.497 185.728 339.363 185.37 339.113C185.013 338.863 184.74 338.51 184.59 338.1L184.2 337C184.149 336.862 184.071 336.736 183.971 336.628C183.871 336.52 183.751 336.433 183.617 336.372C183.483 336.31 183.339 336.276 183.192 336.271C183.045 336.265 182.898 336.289 182.76 336.34H182.66L181.6 336.84C181.203 337.03 180.756 337.092 180.322 337.017C179.888 336.943 179.488 336.736 179.176 336.424C178.865 336.113 178.658 335.712 178.583 335.278C178.509 334.844 178.57 334.397 178.76 334L179.26 333C179.337 332.86 179.384 332.705 179.397 332.546C179.41 332.386 179.39 332.226 179.337 332.075C179.284 331.924 179.2 331.786 179.09 331.67C178.981 331.554 178.848 331.462 178.7 331.4H178.6L177.52 331C177.111 330.85 176.757 330.578 176.507 330.22C176.257 329.862 176.123 329.436 176.123 329C176.123 328.564 176.257 328.138 176.507 327.78C176.757 327.422 177.111 327.15 177.52 327L178.6 326.6C178.743 326.552 178.875 326.476 178.988 326.376C179.102 326.277 179.194 326.156 179.26 326.02C179.317 325.884 179.346 325.738 179.346 325.59C179.346 325.442 179.317 325.296 179.26 325.16C179.264 325.123 179.264 325.087 179.26 325.05L178.76 324C178.57 323.603 178.509 323.156 178.583 322.722C178.658 322.288 178.865 321.887 179.176 321.576C179.488 321.264 179.888 321.057 180.322 320.983C180.756 320.908 181.203 320.97 181.6 321.16L182.69 321.64C182.962 321.767 183.274 321.782 183.556 321.68C183.839 321.579 184.07 321.371 184.2 321.1C184.204 321.067 184.204 321.033 184.2 321L184.6 319.92C184.793 319.395 185.182 318.965 185.687 318.722C186.191 318.479 186.77 318.443 187.3 318.62C187.6 318.727 187.871 318.899 188.096 319.124C188.321 319.349 188.493 319.621 188.6 319.92L189 321C189.049 321.143 189.125 321.275 189.224 321.388C189.324 321.501 189.445 321.594 189.58 321.66C189.716 321.719 189.862 321.75 190.01 321.75C190.158 321.75 190.305 321.719 190.44 321.66H190.54L191.6 321.16C191.852 321.038 192.126 320.967 192.405 320.951C192.685 320.936 192.965 320.975 193.229 321.068C193.493 321.161 193.736 321.306 193.944 321.493C194.152 321.68 194.32 321.907 194.44 322.16C194.579 322.447 194.65 322.761 194.65 323.08C194.65 323.399 194.579 323.713 194.44 324L193.96 325.09C193.833 325.362 193.819 325.673 193.92 325.956C194.021 326.239 194.23 326.47 194.5 326.6H194.6ZM195.768 329.812C195.886 329.692 195.975 329.548 196.03 329.39V329.38C196.119 329.095 196.092 328.786 195.955 328.521C195.819 328.255 195.584 328.054 195.3 327.96L194.2 327.57L193.99 327.49C193.737 327.37 193.511 327.201 193.323 326.993C193.136 326.785 192.992 326.542 192.899 326.278C192.806 326.014 192.766 325.734 192.782 325.455C192.797 325.176 192.868 324.902 192.99 324.65L193.49 323.65C193.568 323.495 193.608 323.324 193.608 323.15C193.608 322.976 193.568 322.805 193.49 322.65C193.358 322.383 193.129 322.176 192.85 322.07C192.572 321.955 192.259 321.955 191.98 322.07L190.93 322.57L190.73 322.66C190.466 322.755 190.186 322.795 189.906 322.78C189.626 322.764 189.352 322.693 189.1 322.57C188.846 322.453 188.619 322.285 188.431 322.077C188.244 321.869 188.101 321.625 188.01 321.36L187.62 320.26C187.563 320.103 187.471 319.96 187.352 319.842C187.233 319.725 187.089 319.635 186.93 319.58C186.791 319.529 186.643 319.507 186.495 319.513C186.347 319.52 186.202 319.556 186.068 319.619C185.934 319.683 185.814 319.772 185.715 319.882C185.616 319.992 185.54 320.12 185.49 320.26L185.09 321.36C185.07 321.429 185.043 321.496 185.01 321.56C184.766 322.069 184.33 322.46 183.797 322.648C183.265 322.835 182.68 322.804 182.17 322.56L181.17 322.06C180.954 321.945 180.706 321.904 180.464 321.942C180.222 321.98 179.999 322.096 179.829 322.272C179.658 322.448 179.55 322.675 179.52 322.918C179.489 323.161 179.539 323.407 179.66 323.62L180.16 324.62C180.191 324.685 180.218 324.752 180.24 324.82C180.339 325.083 180.383 325.363 180.37 325.643C180.356 325.924 180.285 326.198 180.16 326.45C179.931 326.957 179.511 327.353 178.99 327.55L177.89 327.94C177.67 328.018 177.48 328.162 177.345 328.353C177.21 328.544 177.138 328.772 177.138 329.005C177.138 329.238 177.21 329.466 177.345 329.657C177.48 329.848 177.67 329.992 177.89 330.07L178.99 330.46L179.19 330.55C179.443 330.67 179.67 330.839 179.857 331.047C180.045 331.255 180.189 331.498 180.282 331.762C180.375 332.026 180.415 332.306 180.399 332.585C180.383 332.864 180.312 333.138 180.19 333.39L179.69 334.44C179.588 334.651 179.554 334.889 179.593 335.121C179.632 335.353 179.742 335.566 179.908 335.732C180.074 335.899 180.288 336.009 180.519 336.048C180.751 336.087 180.989 336.053 181.2 335.95L182.2 335.45L182.4 335.36C182.632 335.281 182.875 335.241 183.12 335.24C183.436 335.24 183.747 335.312 184.03 335.45C184.284 335.568 184.512 335.735 184.699 335.943C184.887 336.151 185.03 336.395 185.12 336.66L185.52 337.76C185.574 337.918 185.663 338.061 185.781 338.179C185.899 338.297 186.043 338.386 186.2 338.44C186.483 338.54 186.793 338.525 187.065 338.398C187.336 338.27 187.547 338.041 187.65 337.76L188.04 336.66C188.063 336.588 188.089 336.518 188.12 336.45C188.365 335.941 188.801 335.55 189.333 335.362C189.866 335.175 190.451 335.206 190.96 335.45L192.01 335.95C192.166 336.025 192.337 336.063 192.51 336.063C192.683 336.063 192.854 336.025 193.01 335.95C193.145 335.887 193.266 335.797 193.366 335.687C193.466 335.576 193.543 335.447 193.593 335.306C193.642 335.166 193.663 335.017 193.654 334.868C193.645 334.719 193.606 334.574 193.54 334.44L193.04 333.39L192.95 333.18C192.765 332.648 192.797 332.064 193.041 331.557C193.284 331.049 193.719 330.658 194.25 330.47L195.35 330.08C195.508 330.023 195.65 329.931 195.768 329.812Z" fill="#EAEAEA"/>
<path d="M179.676 373.11C179.176 373.11 178.709 373.02 178.276 372.84C177.849 372.653 177.472 372.397 177.146 372.07C176.819 371.737 176.566 371.353 176.386 370.92C176.206 370.48 176.116 370.007 176.116 369.5C176.116 368.993 176.206 368.523 176.386 368.09C176.566 367.65 176.819 367.267 177.146 366.94C177.472 366.607 177.849 366.35 178.276 366.17C178.709 365.983 179.176 365.89 179.676 365.89C180.022 365.89 180.352 365.937 180.666 366.03C180.986 366.117 181.286 366.247 181.566 366.42C181.846 366.587 182.096 366.793 182.316 367.04L181.806 367.57C181.546 367.257 181.226 367.017 180.846 366.85C180.472 366.677 180.082 366.59 179.676 366.59C179.282 366.59 178.916 366.663 178.576 366.81C178.236 366.957 177.939 367.163 177.686 367.43C177.439 367.697 177.246 368.007 177.106 368.36C176.966 368.707 176.896 369.087 176.896 369.5C176.896 369.907 176.966 370.287 177.106 370.64C177.246 370.993 177.439 371.303 177.686 371.57C177.939 371.837 178.236 372.043 178.576 372.19C178.916 372.337 179.282 372.41 179.676 372.41C180.082 372.41 180.472 372.323 180.846 372.15C181.226 371.977 181.546 371.737 181.806 371.43L182.316 371.96C182.096 372.207 181.846 372.417 181.566 372.59C181.286 372.757 180.986 372.887 180.666 372.98C180.352 373.067 180.022 373.11 179.676 373.11ZM183.702 373V366H184.772L187.112 370.98L189.452 366H190.522V373H189.792V366.91L187.112 372.5L184.422 366.89V373H183.702ZM194.565 373.11C194.018 373.11 193.512 373.013 193.045 372.82C192.578 372.62 192.128 372.32 191.695 371.92L192.165 371.36C192.585 371.753 192.978 372.033 193.345 372.2C193.718 372.367 194.132 372.45 194.585 372.45C194.945 372.45 195.265 372.39 195.545 372.27C195.832 372.143 196.055 371.973 196.215 371.76C196.375 371.547 196.455 371.303 196.455 371.03C196.455 370.677 196.338 370.41 196.105 370.23C195.872 370.043 195.468 369.9 194.895 369.8L193.765 369.61C193.125 369.497 192.655 369.303 192.355 369.03C192.062 368.75 191.915 368.377 191.915 367.91C191.915 367.517 192.015 367.17 192.215 366.87C192.422 366.563 192.705 366.323 193.065 366.15C193.425 365.977 193.842 365.89 194.315 365.89C194.835 365.89 195.318 365.963 195.765 366.11C196.212 366.25 196.652 366.473 197.085 366.78L196.685 367.38C196.325 367.107 195.945 366.9 195.545 366.76C195.145 366.613 194.738 366.54 194.325 366.54C193.998 366.54 193.708 366.597 193.455 366.71C193.208 366.823 193.012 366.977 192.865 367.17C192.725 367.363 192.655 367.583 192.655 367.83C192.655 368.137 192.758 368.377 192.965 368.55C193.172 368.723 193.508 368.847 193.975 368.92L195.095 369.11C195.842 369.243 196.382 369.46 196.715 369.76C197.055 370.053 197.225 370.463 197.225 370.99C197.225 371.397 197.108 371.76 196.875 372.08C196.648 372.4 196.335 372.653 195.935 372.84C195.535 373.02 195.078 373.11 194.565 373.11Z" fill="#7C868D"/>
<rect x="255" y="303" width="52" height="52" rx="12" fill="#2A4148"/>
<path fill-rule="evenodd" clip-rule="evenodd" d="M285.633 334.34C284.071 335.735 282.01 336.583 279.75 336.583C274.872 336.583 270.917 332.628 270.917 327.75C270.917 322.871 274.872 318.917 279.75 318.917C284.629 318.917 288.584 322.871 288.584 327.75C288.584 330.009 287.735 332.071 286.34 333.633L290.937 338.23C291.132 338.425 291.132 338.742 290.937 338.937C290.742 339.132 290.425 339.132 290.23 338.937L285.633 334.34ZM271.917 327.75C271.917 323.424 275.424 319.917 279.75 319.917C284.077 319.917 287.584 323.424 287.584 327.75C287.584 329.91 286.709 331.866 285.296 333.283C285.293 333.285 285.291 333.287 285.289 333.289C285.287 333.291 285.285 333.293 285.283 333.295C283.866 334.709 281.91 335.583 279.75 335.583C275.424 335.583 271.917 332.076 271.917 327.75Z" fill="#EAEAEA"/>
<path d="M268.711 373.11C268.164 373.11 267.657 373.013 267.191 372.82C266.724 372.62 266.274 372.32 265.841 371.92L266.311 371.36C266.731 371.753 267.124 372.033 267.491 372.2C267.864 372.367 268.277 372.45 268.731 372.45C269.091 372.45 269.411 372.39 269.691 372.27C269.977 372.143 270.201 371.973 270.361 371.76C270.521 371.547 270.601 371.303 270.601 371.03C270.601 370.677 270.484 370.41 270.251 370.23C270.017 370.043 269.614 369.9 269.041 369.8L267.911 369.61C267.271 369.497 266.801 369.303 266.501 369.03C266.207 368.75 266.061 368.377 266.061 367.91C266.061 367.517 266.161 367.17 266.361 366.87C266.567 366.563 266.851 366.323 267.211 366.15C267.571 365.977 267.987 365.89 268.461 365.89C268.981 365.89 269.464 365.963 269.911 366.11C270.357 366.25 270.797 366.473 271.231 366.78L270.831 367.38C270.471 367.107 270.091 366.9 269.691 366.76C269.291 366.613 268.884 366.54 268.471 366.54C268.144 366.54 267.854 366.597 267.601 366.71C267.354 366.823 267.157 366.977 267.011 367.17C266.871 367.363 266.801 367.583 266.801 367.83C266.801 368.137 266.904 368.377 267.111 368.55C267.317 368.723 267.654 368.847 268.121 368.92L269.241 369.11C269.987 369.243 270.527 369.46 270.861 369.76C271.201 370.053 271.371 370.463 271.371 370.99C271.371 371.397 271.254 371.76 271.021 372.08C270.794 372.4 270.481 372.653 270.081 372.84C269.681 373.02 269.224 373.11 268.711 373.11ZM274.839 373.1C274.385 373.1 273.975 372.99 273.609 372.77C273.242 372.543 272.952 372.24 272.739 371.86C272.525 371.473 272.419 371.04 272.419 370.56C272.419 370.08 272.519 369.65 272.719 369.27C272.925 368.89 273.202 368.59 273.549 368.37C273.895 368.15 274.282 368.04 274.709 368.04C275.142 368.04 275.525 368.15 275.859 368.37C276.199 368.583 276.465 368.877 276.659 369.25C276.859 369.617 276.959 370.033 276.959 370.5V370.72H273.129C273.155 371.053 273.245 371.353 273.399 371.62C273.559 371.88 273.765 372.087 274.019 372.24C274.279 372.387 274.562 372.46 274.869 372.46C275.122 372.46 275.365 372.417 275.599 372.33C275.839 372.237 276.042 372.113 276.209 371.96L276.669 372.45C276.389 372.67 276.099 372.833 275.799 372.94C275.499 373.047 275.179 373.1 274.839 373.1ZM273.149 370.2H276.239C276.205 369.907 276.115 369.647 275.969 369.42C275.829 369.187 275.649 369.003 275.429 368.87C275.215 368.737 274.975 368.67 274.709 368.67C274.442 368.67 274.199 368.737 273.979 368.87C273.759 368.997 273.575 369.177 273.429 369.41C273.289 369.637 273.195 369.9 273.149 370.2ZM279.617 373.09C279.271 373.09 278.964 373.027 278.697 372.9C278.431 372.773 278.221 372.6 278.067 372.38C277.921 372.153 277.847 371.893 277.847 371.6C277.847 371.307 277.924 371.053 278.077 370.84C278.231 370.62 278.444 370.45 278.717 370.33C278.991 370.21 279.311 370.15 279.677 370.15C279.957 370.15 280.221 370.18 280.467 370.24C280.721 370.3 280.954 370.397 281.167 370.53V369.86C281.167 369.46 281.061 369.16 280.847 368.96C280.634 368.753 280.321 368.65 279.907 368.65C279.681 368.65 279.447 368.683 279.207 368.75C278.974 368.817 278.714 368.923 278.427 369.07L278.157 368.51C278.811 368.197 279.424 368.04 279.997 368.04C280.604 368.04 281.071 368.19 281.397 368.49C281.724 368.783 281.887 369.207 281.887 369.76V373H281.167V372.43C280.954 372.65 280.717 372.817 280.457 372.93C280.197 373.037 279.917 373.09 279.617 373.09ZM278.547 371.58C278.547 371.867 278.657 372.097 278.877 372.27C279.104 372.443 279.401 372.53 279.767 372.53C280.041 372.53 280.291 372.483 280.517 372.39C280.751 372.297 280.967 372.157 281.167 371.97V371.03C280.961 370.91 280.747 370.823 280.527 370.77C280.307 370.71 280.061 370.68 279.787 370.68C279.414 370.68 279.114 370.763 278.887 370.93C278.661 371.09 278.547 371.307 278.547 371.58ZM283.371 373V368.12H284.101V369.12C284.228 368.78 284.408 368.517 284.641 368.33C284.881 368.137 285.154 368.04 285.461 368.04C285.548 368.04 285.628 368.047 285.701 368.06C285.774 368.067 285.848 368.083 285.921 368.11V368.77C285.841 368.743 285.754 368.723 285.661 368.71C285.574 368.69 285.491 368.68 285.411 368.68C285.111 368.68 284.848 368.767 284.621 368.94C284.401 369.113 284.228 369.357 284.101 369.67V373H283.371ZM288.774 373.08C288.321 373.08 287.911 372.97 287.544 372.75C287.184 372.523 286.897 372.22 286.684 371.84C286.471 371.453 286.364 371.027 286.364 370.56C286.364 370.087 286.471 369.66 286.684 369.28C286.897 368.9 287.184 368.6 287.544 368.38C287.911 368.153 288.321 368.04 288.774 368.04C289.134 368.04 289.477 368.107 289.804 368.24C290.131 368.373 290.414 368.56 290.654 368.8L290.184 369.31C290.011 369.117 289.801 368.967 289.554 368.86C289.307 368.753 289.057 368.7 288.804 368.7C288.484 368.7 288.194 368.783 287.934 368.95C287.681 369.117 287.477 369.34 287.324 369.62C287.171 369.9 287.094 370.213 287.094 370.56C287.094 370.907 287.171 371.22 287.324 371.5C287.477 371.78 287.681 372.003 287.934 372.17C288.194 372.337 288.484 372.42 288.804 372.42C289.057 372.42 289.307 372.367 289.554 372.26C289.801 372.147 290.011 371.997 290.184 371.81L290.654 372.32C290.414 372.56 290.131 372.747 289.804 372.88C289.477 373.013 289.134 373.08 288.774 373.08ZM291.672 373V365.78L292.402 365.63V368.91C292.589 368.617 292.812 368.4 293.072 368.26C293.332 368.113 293.625 368.04 293.952 368.04C294.305 368.04 294.612 368.117 294.872 368.27C295.139 368.417 295.345 368.627 295.492 368.9C295.645 369.167 295.722 369.48 295.722 369.84V373H294.992V370.05C294.992 369.617 294.872 369.277 294.632 369.03C294.399 368.777 294.082 368.65 293.682 368.65C293.415 368.65 293.172 368.713 292.952 368.84C292.732 368.967 292.549 369.153 292.402 369.4V373H291.672Z" fill="#7C868D"/>
<rect x="349.4" y="303" width="52" height="52" rx="12" fill="#2A4148"/>
<path fill-rule="evenodd" clip-rule="evenodd" d="M378.469 326.514C378.69 326.679 378.735 326.993 378.57 327.214L375.669 331.089C375.561 331.232 375.424 331.35 375.267 331.436C375.11 331.521 374.936 331.572 374.757 331.585C374.579 331.597 374.4 331.571 374.232 331.509C374.064 331.446 373.912 331.348 373.785 331.222L372.285 329.722C372.09 329.526 372.09 329.21 372.285 329.015C372.48 328.819 372.797 328.819 372.992 329.015L374.492 330.514C374.517 330.54 374.548 330.559 374.581 330.572C374.615 330.584 374.651 330.59 374.687 330.587C374.723 330.585 374.758 330.574 374.789 330.557C374.821 330.54 374.848 330.516 374.87 330.488C374.87 330.488 374.869 330.488 374.87 330.488L377.769 326.614C377.935 326.393 378.248 326.348 378.469 326.514Z" fill="#EAEAEA"/>
<path fill-rule="evenodd" clip-rule="evenodd" d="M375.4 317C375.676 317 375.9 317.224 375.9 317.5V318.5C375.9 318.776 375.676 319 375.4 319C375.124 319 374.9 318.776 374.9 318.5V317.5C374.9 317.224 375.124 317 375.4 317Z" fill="#EAEAEA"/>
<path fill-rule="evenodd" clip-rule="evenodd" d="M369.661 318.463C369.904 318.331 370.207 318.421 370.339 318.663L370.817 319.541C370.949 319.784 370.86 320.087 370.617 320.219C370.375 320.352 370.071 320.262 369.939 320.019L369.461 319.141C369.329 318.899 369.418 318.595 369.661 318.463Z" fill="#EAEAEA"/>
<path fill-rule="evenodd" clip-rule="evenodd" d="M365.32 322.49C365.47 322.258 365.779 322.192 366.011 322.342L366.851 322.885C367.083 323.035 367.15 323.344 367 323.576C366.85 323.808 366.54 323.875 366.309 323.725L365.469 323.182C365.237 323.032 365.17 322.722 365.32 322.49Z" fill="#EAEAEA"/>
<path fill-rule="evenodd" clip-rule="evenodd" d="M381.139 318.463C381.381 318.595 381.471 318.899 381.339 319.141L380.861 320.019C380.729 320.262 380.425 320.352 380.183 320.219C379.94 320.087 379.85 319.784 379.982 319.541L380.46 318.663C380.592 318.421 380.896 318.331 381.139 318.463Z" fill="#EAEAEA"/>
<path fill-rule="evenodd" clip-rule="evenodd" d="M385.48 322.49C385.63 322.722 385.564 323.032 385.332 323.182L384.492 323.725C384.26 323.875 383.95 323.808 383.801 323.576C383.651 323.344 383.717 323.035 383.949 322.885L384.789 322.342C385.021 322.192 385.33 322.258 385.48 322.49Z" fill="#EAEAEA"/>
<path fill-rule="evenodd" clip-rule="evenodd" d="M375.4 339C375.676 339 375.9 339.224 375.9 339.5V340.5C375.9 340.776 375.676 341 375.4 341C375.124 341 374.9 340.776 374.9 340.5V339.5C374.9 339.224 375.124 339 375.4 339Z" fill="#EAEAEA"/>
<path fill-rule="evenodd" clip-rule="evenodd" d="M370.617 337.784C370.86 337.916 370.949 338.219 370.817 338.462L370.339 339.34C370.207 339.582 369.904 339.672 369.661 339.54C369.418 339.408 369.329 339.104 369.461 338.862L369.939 337.984C370.071 337.741 370.375 337.651 370.617 337.784Z" fill="#EAEAEA"/>
<path fill-rule="evenodd" clip-rule="evenodd" d="M367 334.424C367.15 334.656 367.083 334.966 366.851 335.115L366.011 335.657C365.779 335.807 365.47 335.74 365.32 335.508C365.17 335.276 365.237 334.967 365.469 334.817L366.309 334.275C366.541 334.125 366.85 334.192 367 334.424Z" fill="#EAEAEA"/>
<path fill-rule="evenodd" clip-rule="evenodd" d="M380.183 337.784C380.425 337.651 380.729 337.741 380.861 337.984L381.339 338.862C381.471 339.104 381.381 339.408 381.139 339.54C380.896 339.672 380.592 339.582 380.46 339.34L379.982 338.462C379.85 338.219 379.94 337.916 380.183 337.784Z" fill="#EAEAEA"/>
<path fill-rule="evenodd" clip-rule="evenodd" d="M383.8 334.424C383.95 334.192 384.259 334.125 384.491 334.275L385.331 334.817C385.564 334.967 385.63 335.276 385.481 335.508C385.331 335.74 385.021 335.807 384.789 335.657L383.949 335.115C383.717 334.966 383.651 334.656 383.8 334.424Z" fill="#EAEAEA"/>
<path fill-rule="evenodd" clip-rule="evenodd" d="M375.4 322.5C371.81 322.5 368.9 325.41 368.9 329C368.9 332.59 371.81 335.5 375.4 335.5C378.99 335.5 381.9 332.59 381.9 329C381.9 325.41 378.99 322.5 375.4 322.5ZM367.9 329C367.9 324.858 371.258 321.5 375.4 321.5C379.542 321.5 382.9 324.858 382.9 329C382.9 333.142 379.542 336.5 375.4 336.5C371.258 336.5 367.9 333.142 367.9 329Z" fill="#EAEAEA"/>
<path fill-rule="evenodd" clip-rule="evenodd" d="M364.527 329C364.672 329.185 364.885 329.449 365.16 329.766C365.718 330.408 366.529 331.264 367.536 332.119C369.564 333.839 372.325 335.5 375.4 335.5C378.475 335.5 381.236 333.839 383.264 332.119C384.272 331.264 385.082 330.408 385.64 329.766C385.915 329.449 386.128 329.185 386.273 329C386.128 328.815 385.915 328.551 385.64 328.234C385.082 327.592 384.272 326.736 383.264 325.881C381.236 324.161 378.475 322.5 375.4 322.5C372.325 322.5 369.564 324.161 367.536 325.881C366.529 326.736 365.718 327.592 365.16 328.234C364.885 328.551 364.672 328.815 364.527 329ZM386.9 329C387.307 328.709 387.307 328.709 387.307 328.709L387.305 328.707L387.302 328.702L387.29 328.685C387.279 328.671 387.263 328.65 387.243 328.623C387.203 328.569 387.144 328.49 387.067 328.392C386.912 328.194 386.686 327.914 386.395 327.578C385.812 326.908 384.966 326.014 383.911 325.119C381.814 323.339 378.825 321.5 375.4 321.5C371.975 321.5 368.986 323.339 366.889 325.119C365.834 326.014 364.988 326.908 364.406 327.578C364.114 327.914 363.888 328.194 363.734 328.392C363.656 328.49 363.597 328.569 363.557 328.623C363.537 328.65 363.521 328.671 363.511 328.685L363.498 328.702L363.495 328.707L363.494 328.709C363.494 328.709 363.493 328.709 363.9 329L363.494 328.709C363.37 328.882 363.369 329.117 363.493 329.291L363.9 329C363.493 329.291 363.493 329.29 363.493 329.291L363.495 329.293L363.498 329.298L363.511 329.315C363.521 329.329 363.537 329.35 363.557 329.377C363.597 329.431 363.656 329.51 363.734 329.608C363.888 329.806 364.114 330.086 364.406 330.422C364.988 331.092 365.834 331.986 366.889 332.881C368.986 334.661 371.975 336.5 375.4 336.5C378.825 336.5 381.814 334.661 383.911 332.881C384.966 331.986 385.812 331.092 386.395 330.422C386.686 330.086 386.912 329.806 387.067 329.608C387.144 329.51 387.203 329.431 387.243 329.377C387.263 329.35 387.279 329.329 387.29 329.315L387.302 329.298L387.305 329.293L387.306 329.291C387.307 329.291 387.307 329.291 386.9 329ZM386.9 329L387.306 329.291C387.431 329.118 387.431 328.883 387.307 328.709L386.9 329Z" fill="#EAEAEA"/>
<path d="M342.629 373L345.399 366H346.319L349.049 373H348.219L347.389 370.8H344.269L343.439 373H342.629ZM344.509 370.19H347.159L345.829 366.7L344.509 370.19ZM351.484 373.08C351.137 373.08 350.831 373.003 350.564 372.85C350.297 372.697 350.087 372.483 349.934 372.21C349.787 371.937 349.714 371.623 349.714 371.27V368.12H350.454V371.06C350.454 371.493 350.571 371.837 350.804 372.09C351.037 372.343 351.354 372.47 351.754 372.47C352.027 372.47 352.271 372.407 352.484 372.28C352.704 372.153 352.887 371.97 353.034 371.73V368.12H353.764V373H353.034V372.21C352.847 372.497 352.624 372.713 352.364 372.86C352.111 373.007 351.817 373.08 351.484 373.08ZM357.122 373.1C356.702 373.1 356.382 373 356.162 372.8C355.948 372.593 355.842 372.297 355.842 371.91V368.72H354.832V368.12H355.842V366.78L356.572 366.61V368.12H357.972V368.72H356.572V371.72C356.572 371.98 356.625 372.167 356.732 372.28C356.845 372.393 357.028 372.45 357.282 372.45C357.408 372.45 357.522 372.44 357.622 372.42C357.722 372.4 357.838 372.367 357.972 372.32V372.97C357.838 373.017 357.698 373.05 357.552 373.07C357.405 373.09 357.262 373.1 357.122 373.1ZM359.041 373V365.78L359.771 365.63V368.91C359.958 368.617 360.181 368.4 360.441 368.26C360.701 368.113 360.994 368.04 361.321 368.04C361.674 368.04 361.981 368.117 362.241 368.27C362.508 368.417 362.714 368.627 362.861 368.9C363.014 369.167 363.091 369.48 363.091 369.84V373H362.361V370.05C362.361 369.617 362.241 369.277 362.001 369.03C361.768 368.777 361.451 368.65 361.051 368.65C360.784 368.65 360.541 368.713 360.321 368.84C360.101 368.967 359.918 369.153 359.771 369.4V373H359.041ZM366.759 373.1C366.305 373.1 365.895 372.99 365.529 372.77C365.162 372.543 364.872 372.24 364.659 371.86C364.445 371.473 364.339 371.04 364.339 370.56C364.339 370.08 364.439 369.65 364.639 369.27C364.845 368.89 365.122 368.59 365.469 368.37C365.815 368.15 366.202 368.04 366.629 368.04C367.062 368.04 367.445 368.15 367.779 368.37C368.119 368.583 368.385 368.877 368.579 369.25C368.779 369.617 368.879 370.033 368.879 370.5V370.72H365.049C365.075 371.053 365.165 371.353 365.319 371.62C365.479 371.88 365.685 372.087 365.939 372.24C366.199 372.387 366.482 372.46 366.789 372.46C367.042 372.46 367.285 372.417 367.519 372.33C367.759 372.237 367.962 372.113 368.129 371.96L368.589 372.45C368.309 372.67 368.019 372.833 367.719 372.94C367.419 373.047 367.099 373.1 366.759 373.1ZM365.069 370.2H368.159C368.125 369.907 368.035 369.647 367.889 369.42C367.749 369.187 367.569 369.003 367.349 368.87C367.135 368.737 366.895 368.67 366.629 368.67C366.362 368.67 366.119 368.737 365.899 368.87C365.679 368.997 365.495 369.177 365.349 369.41C365.209 369.637 365.115 369.9 365.069 370.2ZM370.125 373V368.12H370.855V368.91C371.042 368.617 371.265 368.4 371.525 368.26C371.785 368.113 372.078 368.04 372.405 368.04C372.758 368.04 373.065 368.117 373.325 368.27C373.592 368.417 373.798 368.627 373.945 368.9C374.098 369.167 374.175 369.48 374.175 369.84V373H373.445V370.05C373.445 369.617 373.325 369.277 373.085 369.03C372.852 368.777 372.535 368.65 372.135 368.65C371.868 368.65 371.625 368.713 371.405 368.84C371.185 368.967 371.002 369.153 370.855 369.4V373H370.125ZM377.356 373.1C376.936 373.1 376.616 373 376.396 372.8C376.183 372.593 376.076 372.297 376.076 371.91V368.72H375.066V368.12H376.076V366.78L376.806 366.61V368.12H378.206V368.72H376.806V371.72C376.806 371.98 376.859 372.167 376.966 372.28C377.079 372.393 377.263 372.45 377.516 372.45C377.643 372.45 377.756 372.44 377.856 372.42C377.956 372.4 378.073 372.367 378.206 372.32V372.97C378.073 373.017 377.933 373.05 377.786 373.07C377.639 373.09 377.496 373.1 377.356 373.1ZM379.265 373V368.12H379.995V373H379.265ZM379.635 366.91C379.489 366.91 379.362 366.86 379.255 366.76C379.155 366.653 379.105 366.53 379.105 366.39C379.105 366.25 379.155 366.13 379.255 366.03C379.362 365.923 379.489 365.87 379.635 365.87C379.782 365.87 379.905 365.923 380.005 366.03C380.112 366.13 380.165 366.25 380.165 366.39C380.165 366.53 380.112 366.653 380.005 366.76C379.905 366.86 379.782 366.91 379.635 366.91ZM383.682 373.08C383.229 373.08 382.819 372.97 382.452 372.75C382.092 372.523 381.806 372.22 381.592 371.84C381.379 371.453 381.272 371.027 381.272 370.56C381.272 370.087 381.379 369.66 381.592 369.28C381.806 368.9 382.092 368.6 382.452 368.38C382.819 368.153 383.229 368.04 383.682 368.04C384.042 368.04 384.386 368.107 384.712 368.24C385.039 368.373 385.322 368.56 385.562 368.8L385.092 369.31C384.919 369.117 384.709 368.967 384.462 368.86C384.216 368.753 383.966 368.7 383.712 368.7C383.392 368.7 383.102 368.783 382.842 368.95C382.589 369.117 382.386 369.34 382.232 369.62C382.079 369.9 382.002 370.213 382.002 370.56C382.002 370.907 382.079 371.22 382.232 371.5C382.386 371.78 382.589 372.003 382.842 372.17C383.102 372.337 383.392 372.42 383.712 372.42C383.966 372.42 384.216 372.367 384.462 372.26C384.709 372.147 384.919 371.997 385.092 371.81L385.562 372.32C385.322 372.56 385.039 372.747 384.712 372.88C384.386 373.013 384.042 373.08 383.682 373.08ZM388.09 373.09C387.743 373.09 387.437 373.027 387.17 372.9C386.903 372.773 386.693 372.6 386.54 372.38C386.393 372.153 386.32 371.893 386.32 371.6C386.32 371.307 386.397 371.053 386.55 370.84C386.703 370.62 386.917 370.45 387.19 370.33C387.463 370.21 387.783 370.15 388.15 370.15C388.43 370.15 388.693 370.18 388.94 370.24C389.193 370.3 389.427 370.397 389.64 370.53V369.86C389.64 369.46 389.533 369.16 389.32 368.96C389.107 368.753 388.793 368.65 388.38 368.65C388.153 368.65 387.92 368.683 387.68 368.75C387.447 368.817 387.187 368.923 386.9 369.07L386.63 368.51C387.283 368.197 387.897 368.04 388.47 368.04C389.077 368.04 389.543 368.19 389.87 368.49C390.197 368.783 390.36 369.207 390.36 369.76V373H389.64V372.43C389.427 372.65 389.19 372.817 388.93 372.93C388.67 373.037 388.39 373.09 388.09 373.09ZM387.02 371.58C387.02 371.867 387.13 372.097 387.35 372.27C387.577 372.443 387.873 372.53 388.24 372.53C388.513 372.53 388.763 372.483 388.99 372.39C389.223 372.297 389.44 372.157 389.64 371.97V371.03C389.433 370.91 389.22 370.823 389 370.77C388.78 370.71 388.533 370.68 388.26 370.68C387.887 370.68 387.587 370.763 387.36 370.93C387.133 371.09 387.02 371.307 387.02 371.58ZM393.557 373.1C393.137 373.1 392.817 373 392.597 372.8C392.384 372.593 392.277 372.297 392.277 371.91V368.72H391.267V368.12H392.277V366.78L393.007 366.61V368.12H394.407V368.72H393.007V371.72C393.007 371.98 393.061 372.167 393.167 372.28C393.281 372.393 393.464 372.45 393.717 372.45C393.844 372.45 393.957 372.44 394.057 372.42C394.157 372.4 394.274 372.367 394.407 372.32V372.97C394.274 373.017 394.134 373.05 393.987 373.07C393.841 373.09 393.697 373.1 393.557 373.1ZM395.467 373V368.12H396.197V373H395.467ZM395.837 366.91C395.69 366.91 395.563 366.86 395.457 366.76C395.357 366.653 395.307 366.53 395.307 366.39C395.307 366.25 395.357 366.13 395.457 366.03C395.563 365.923 395.69 365.87 395.837 365.87C395.983 365.87 396.107 365.923 396.207 366.03C396.313 366.13 396.367 366.25 396.367 366.39C396.367 366.53 396.313 366.653 396.207 366.76C396.107 366.86 395.983 366.91 395.837 366.91ZM399.853 373.08C399.4 373.08 398.993 372.97 398.633 372.75C398.273 372.53 397.99 372.23 397.783 371.85C397.577 371.47 397.473 371.04 397.473 370.56C397.473 370.08 397.577 369.65 397.783 369.27C397.99 368.89 398.273 368.59 398.633 368.37C398.993 368.15 399.4 368.04 399.853 368.04C400.3 368.04 400.7 368.15 401.053 368.37C401.413 368.59 401.697 368.89 401.903 369.27C402.11 369.65 402.213 370.08 402.213 370.56C402.213 371.04 402.11 371.47 401.903 371.85C401.697 372.23 401.413 372.53 401.053 372.75C400.7 372.97 400.3 373.08 399.853 373.08ZM399.843 372.44C400.163 372.44 400.447 372.36 400.693 372.2C400.94 372.033 401.133 371.807 401.273 371.52C401.42 371.233 401.493 370.913 401.493 370.56C401.493 370.2 401.42 369.88 401.273 369.6C401.133 369.313 400.94 369.09 400.693 368.93C400.447 368.763 400.163 368.68 399.843 368.68C399.523 368.68 399.24 368.763 398.993 368.93C398.747 369.09 398.55 369.313 398.403 369.6C398.263 369.88 398.193 370.2 398.193 370.56C398.193 370.913 398.263 371.233 398.403 371.52C398.55 371.807 398.747 372.033 398.993 372.2C399.24 372.36 399.523 372.44 399.843 372.44ZM403.494 373V368.12H404.224V368.91C404.411 368.617 404.634 368.4 404.894 368.26C405.154 368.113 405.447 368.04 405.774 368.04C406.127 368.04 406.434 368.117 406.694 368.27C406.961 368.417 407.167 368.627 407.314 368.9C407.467 369.167 407.544 369.48 407.544 369.84V373H406.814V370.05C406.814 369.617 406.694 369.277 406.454 369.03C406.221 368.777 405.904 368.65 405.504 368.65C405.237 368.65 404.994 368.713 404.774 368.84C404.554 368.967 404.371 369.153 404.224 369.4V373H403.494Z" fill="#7C868D"/>
<rect x="443.8" y="303" width="52" height="52" rx="12" fill="#2A4148"/>
<path fill-rule="evenodd" clip-rule="evenodd" d="M459.717 329C459.717 327.573 460.873 326.417 462.3 326.417C463.727 326.417 464.883 327.573 464.883 329C464.883 330.427 463.727 331.583 462.3 331.583C460.873 331.583 459.717 330.427 459.717 329ZM462.3 327.417C461.426 327.417 460.717 328.126 460.717 329C460.717 329.874 461.426 330.583 462.3 330.583C463.175 330.583 463.883 329.874 463.883 329C463.883 328.126 463.175 327.417 462.3 327.417Z" fill="#F2F2F2"/>
<path fill-rule="evenodd" clip-rule="evenodd" d="M467.217 329C467.217 327.573 468.373 326.417 469.8 326.417C471.227 326.417 472.383 327.573 472.383 329C472.383 330.427 471.227 331.583 469.8 331.583C468.373 331.583 467.217 330.427 467.217 329ZM469.8 327.417C468.926 327.417 468.217 328.126 468.217 329C468.217 329.874 468.926 330.583 469.8 330.583C470.675 330.583 471.383 329.874 471.383 329C471.383 328.126 470.675 327.417 469.8 327.417Z" fill="#F2F2F2"/>
<path fill-rule="evenodd" clip-rule="evenodd" d="M477.3 326.417C475.873 326.417 474.717 327.573 474.717 329C474.717 330.427 475.873 331.583 477.3 331.583C478.727 331.583 479.883 330.427 479.883 329C479.883 327.573 478.727 326.417 477.3 326.417ZM475.717 329C475.717 328.126 476.426 327.417 477.3 327.417C478.175 327.417 478.883 328.126 478.883 329C478.883 329.874 478.175 330.583 477.3 330.583C476.426 330.583 475.717 329.874 475.717 329Z" fill="#F2F2F2"/>
<path d="M467.3 373.08C467.153 373.08 467.026 373.027 466.92 372.92C466.82 372.813 466.77 372.687 466.77 372.54C466.77 372.387 466.82 372.26 466.92 372.16C467.026 372.053 467.153 372 467.3 372C467.446 372 467.57 372.053 467.67 372.16C467.776 372.26 467.83 372.387 467.83 372.54C467.83 372.687 467.776 372.813 467.67 372.92C467.57 373.027 467.446 373.08 467.3 373.08ZM469.8 373.08C469.653 373.08 469.526 373.027 469.42 372.92C469.32 372.813 469.27 372.687 469.27 372.54C469.27 372.387 469.32 372.26 469.42 372.16C469.526 372.053 469.653 372 469.8 372C469.946 372 470.07 372.053 470.17 372.16C470.276 372.26 470.33 372.387 470.33 372.54C470.33 372.687 470.276 372.813 470.17 372.92C470.07 373.027 469.946 373.08 469.8 373.08ZM472.3 373.08C472.153 373.08 472.026 373.027 471.92 372.92C471.82 372.813 471.77 372.687 471.77 372.54C471.77 372.387 471.82 372.26 471.92 372.16C472.026 372.053 472.153 372 472.3 372C472.446 372 472.57 372.053 472.67 372.16C472.776 372.26 472.83 372.387 472.83 372.54C472.83 372.687 472.776 372.813 472.67 372.92C472.57 373.027 472.446 373.08 472.3 373.08Z" fill="#7C868D"/>
<path d="M92.5786 252L89.5723 258H95.5723L92.5786 252Z" fill="#19181B"/>
<path d="M92.5723 260V287" stroke="#19181B" stroke-width="0.75" stroke-dasharray="2.6 2.6"/>
<path d="M92.5786 295L95.5723 289H89.5723L92.5786 295Z" fill="#19181B"/>
<path d="M186.792 252L183.786 258H189.786L186.792 252Z" fill="#19181B"/>
<path d="M186.786 260V287" stroke="#19181B" stroke-width="0.75" stroke-dasharray="2.6 2.6"/>
<path d="M186.792 295L189.786 289H183.786L186.792 295Z" fill="#19181B"/>
<path d="M281.006 252L278 258H284L281.006 252Z" fill="#19181B"/>
<path d="M281 260V287" stroke="#19181B" stroke-width="0.75" stroke-dasharray="2.6 2.6"/>
<path d="M281.006 295L284 289H278L281.006 295Z" fill="#19181B"/>
<path d="M375.221 252L372.215 258H378.215L375.221 252Z" fill="#19181B"/>
<path d="M375.215 260V287" stroke="#19181B" stroke-width="0.75" stroke-dasharray="2.6 2.6"/>
<path d="M375.221 295L378.215 289H372.215L375.221 295Z" fill="#19181B"/>
<path d="M469.435 252L466.429 258H472.429L469.435 252Z" fill="#19181B"/>
<path d="M469.429 260V287" stroke="#19181B" stroke-width="0.75" stroke-dasharray="2.6 2.6"/>
<path d="M469.435 295L472.429 289H466.429L469.435 295Z" fill="#19181B"/>
<path d="M92.5786 252L89.5723 258H95.5723L92.5786 252Z" fill="#7C868D"/>
<path d="M92.5723 260V287" stroke="#7C868D" stroke-width="0.75" stroke-dasharray="2.6 2.6"/>
<path d="M92.5786 295L95.5723 289H89.5723L92.5786 295Z" fill="#7C868D"/>
<path d="M186.792 252L183.786 258H189.786L186.792 252Z" fill="#7C868D"/>
<path d="M186.786 260V287" stroke="#7C868D" stroke-width="0.75" stroke-dasharray="2.6 2.6"/>
<path d="M186.792 295L189.786 289H183.786L186.792 295Z" fill="#7C868D"/>
<path d="M281.006 252L278 258H284L281.006 252Z" fill="#7C868D"/>
<path d="M281 260V287" stroke="#7C868D" stroke-width="0.75" stroke-dasharray="2.6 2.6"/>
<path d="M281.006 295L284 289H278L281.006 295Z" fill="#7C868D"/>
<path d="M375.221 252L372.215 258H378.215L375.221 252Z" fill="#7C868D"/>
<path d="M375.215 260V287" stroke="#7C868D" stroke-width="0.75" stroke-dasharray="2.6 2.6"/>
<path d="M375.221 295L378.215 289H372.215L375.221 295Z" fill="#7C868D"/>
<path d="M469.435 252L466.429 258H472.429L469.435 252Z" fill="#7C868D"/>
<path d="M469.429 260V287" stroke="#7C868D" stroke-width="0.75" stroke-dasharray="2.6 2.6"/>
<path d="M469.435 295L472.429 289H466.429L469.435 295Z" fill="#7C868D"/>
<path d="M277.506 159L274.5 165H280.5L277.506 159Z" fill="#7C868D"/>
<path d="M277.5 167V190" stroke="#7C868D" stroke-width="0.75" stroke-dasharray="2.6 2.6"/>
<path d="M277.506 198L280.5 192H274.5L277.506 198Z" fill="#7C868D"/>
<path d="M223.702 13V1.8H225.622V13H223.702ZM228.011 13V4.984H229.819V6.296C230.128 5.816 230.496 5.45867 230.923 5.224C231.349 4.97867 231.824 4.856 232.347 4.856C232.901 4.856 233.387 4.97867 233.803 5.224C234.219 5.45867 234.544 5.78933 234.779 6.216C235.024 6.64267 235.147 7.144 235.147 7.72V13H233.323V8.232C233.323 7.64533 233.163 7.18133 232.843 6.84C232.523 6.488 232.096 6.312 231.563 6.312C231.2 6.312 230.869 6.39733 230.571 6.568C230.283 6.728 230.032 6.968 229.819 7.288V13H228.011ZM238.177 13V6.424H236.449V4.984H238.177V3.608C238.177 2.744 238.411 2.08267 238.881 1.624C239.361 1.15467 240.049 0.919999 240.945 0.919999C241.169 0.919999 241.387 0.930666 241.601 0.952C241.814 0.973333 241.995 1.01067 242.145 1.064V2.6C241.942 2.55733 241.771 2.53067 241.633 2.52C241.494 2.49867 241.345 2.488 241.185 2.488C240.769 2.488 240.465 2.57867 240.273 2.76C240.081 2.94133 239.985 3.23467 239.985 3.64V4.984H242.145V6.424H239.985V13H238.177ZM243.667 13V4.984H245.475V6.712C245.71 6.104 246.014 5.64 246.387 5.32C246.76 5 247.192 4.84 247.683 4.84C247.832 4.85067 247.966 4.86667 248.083 4.888C248.2 4.89867 248.328 4.936 248.467 5V6.584C248.328 6.52 248.168 6.472 247.987 6.44C247.816 6.408 247.646 6.392 247.475 6.392C247.038 6.392 246.643 6.50933 246.291 6.744C245.95 6.97867 245.678 7.304 245.475 7.72V13H243.667ZM252.13 13.144C251.575 13.144 251.079 13.0427 250.642 12.84C250.215 12.6267 249.879 12.3387 249.634 11.976C249.399 11.6027 249.282 11.176 249.282 10.696C249.282 10.216 249.405 9.8 249.65 9.448C249.906 9.096 250.263 8.824 250.722 8.632C251.181 8.44 251.725 8.344 252.354 8.344C252.727 8.344 253.095 8.38667 253.458 8.472C253.821 8.54667 254.173 8.67467 254.514 8.856V7.96C254.514 7.42667 254.359 7.02667 254.05 6.76C253.751 6.49333 253.293 6.36 252.674 6.36C252.343 6.36 251.986 6.41333 251.602 6.52C251.229 6.616 250.807 6.77067 250.338 6.984L249.698 5.672C250.871 5.128 251.981 4.856 253.026 4.856C254.071 4.856 254.877 5.112 255.442 5.624C256.018 6.12533 256.306 6.84 256.306 7.768V13H254.514V12.168C254.173 12.4987 253.805 12.744 253.41 12.904C253.015 13.064 252.589 13.144 252.13 13.144ZM250.978 10.664C250.978 11.0373 251.127 11.3307 251.426 11.544C251.725 11.7573 252.125 11.864 252.626 11.864C252.989 11.864 253.325 11.8107 253.634 11.704C253.954 11.5867 254.247 11.416 254.514 11.192V9.896C254.237 9.768 253.949 9.672 253.65 9.608C253.351 9.544 253.026 9.512 252.674 9.512C252.151 9.512 251.735 9.61333 251.426 9.816C251.127 10.0187 250.978 10.3013 250.978 10.664ZM261.215 13.16C260.532 13.16 259.892 13.0693 259.295 12.888C258.708 12.696 258.202 12.424 257.775 12.072L258.623 10.872C259.156 11.2027 259.615 11.4373 259.999 11.576C260.394 11.7147 260.794 11.784 261.199 11.784C261.679 11.784 262.068 11.6827 262.367 11.48C262.666 11.2773 262.815 11.016 262.815 10.696C262.815 10.4507 262.724 10.2587 262.543 10.12C262.372 9.97067 262.09 9.85867 261.695 9.784L260.287 9.544C259.508 9.39467 258.927 9.13867 258.543 8.776C258.159 8.41333 257.967 7.93333 257.967 7.336C257.967 6.83467 258.095 6.40267 258.351 6.04C258.618 5.66667 258.98 5.37867 259.439 5.176C259.908 4.96267 260.452 4.856 261.071 4.856C261.626 4.856 262.164 4.936 262.687 5.096C263.21 5.256 263.722 5.496 264.223 5.816L263.375 7.016C262.97 6.74933 262.564 6.55733 262.159 6.44C261.764 6.312 261.364 6.248 260.959 6.248C260.543 6.248 260.207 6.33333 259.951 6.504C259.706 6.664 259.583 6.888 259.583 7.176C259.583 7.432 259.663 7.62933 259.823 7.768C259.994 7.896 260.287 7.992 260.703 8.056L262.127 8.328C262.927 8.46667 263.519 8.72267 263.903 9.096C264.298 9.45867 264.495 9.944 264.495 10.552C264.495 11.0427 264.351 11.4853 264.063 11.88C263.775 12.2747 263.386 12.5893 262.895 12.824C262.404 13.048 261.844 13.16 261.215 13.16ZM269.451 13.16C268.64 13.16 268.027 12.9733 267.611 12.6C267.195 12.216 266.987 11.656 266.987 10.92V6.424H265.387V4.984H266.987V2.776L268.795 2.392V4.984H271.019V6.424H268.795V10.52C268.795 10.9147 268.88 11.1973 269.051 11.368C269.222 11.528 269.51 11.608 269.915 11.608C270.096 11.608 270.262 11.5973 270.411 11.576C270.571 11.544 270.768 11.4907 271.003 11.416V12.936C270.779 13.0107 270.523 13.064 270.235 13.096C269.958 13.1387 269.696 13.16 269.451 13.16ZM272.62 13V4.984H274.428V6.712C274.663 6.104 274.967 5.64 275.34 5.32C275.713 5 276.145 4.84 276.636 4.84C276.785 4.85067 276.919 4.86667 277.036 4.888C277.153 4.89867 277.281 4.936 277.42 5V6.584C277.281 6.52 277.121 6.472 276.94 6.44C276.769 6.408 276.599 6.392 276.428 6.392C275.991 6.392 275.596 6.50933 275.244 6.744C274.903 6.97867 274.631 7.304 274.428 7.72V13H272.62ZM281.559 13.128C281.004 13.128 280.519 13.0053 280.103 12.76C279.687 12.5147 279.356 12.1787 279.111 11.752C278.876 11.3253 278.759 10.8293 278.759 10.264V4.984H280.583V9.736C280.583 10.3333 280.738 10.808 281.047 11.16C281.367 11.5013 281.799 11.672 282.343 11.672C282.706 11.672 283.031 11.592 283.319 11.432C283.618 11.272 283.874 11.032 284.087 10.712V4.984H285.895V13H284.087V11.704C283.778 12.1733 283.41 12.5307 282.983 12.776C282.556 13.0107 282.082 13.128 281.559 13.128ZM291.816 13.144C291.058 13.144 290.37 12.9627 289.752 12.6C289.144 12.2267 288.658 11.7253 288.296 11.096C287.944 10.4667 287.768 9.768 287.768 9C287.768 8.22133 287.944 7.52267 288.296 6.904C288.658 6.27467 289.144 5.77867 289.752 5.416C290.37 5.04267 291.058 4.856 291.816 4.856C292.434 4.856 293.021 4.97333 293.576 5.208C294.141 5.44267 294.621 5.77867 295.016 6.216L293.896 7.384C293.618 7.07467 293.309 6.84 292.968 6.68C292.626 6.52 292.264 6.44 291.88 6.44C291.442 6.44 291.048 6.55733 290.696 6.792C290.354 7.016 290.082 7.32 289.88 7.704C289.677 8.088 289.576 8.52 289.576 9C289.576 9.48 289.677 9.91733 289.88 10.312C290.082 10.696 290.354 11 290.696 11.224C291.048 11.448 291.442 11.56 291.88 11.56C292.264 11.56 292.626 11.48 292.968 11.32C293.309 11.16 293.618 10.9307 293.896 10.632L295.016 11.784C294.621 12.2213 294.141 12.5573 293.576 12.792C293.021 13.0267 292.434 13.144 291.816 13.144ZM300.123 13.16C299.312 13.16 298.699 12.9733 298.283 12.6C297.867 12.216 297.659 11.656 297.659 10.92V6.424H296.059V4.984H297.659V2.776L299.467 2.392V4.984H301.691V6.424H299.467V10.52C299.467 10.9147 299.552 11.1973 299.723 11.368C299.894 11.528 300.182 11.608 300.587 11.608C300.768 11.608 300.934 11.5973 301.083 11.576C301.243 11.544 301.44 11.4907 301.675 11.416V12.936C301.451 13.0107 301.195 13.064 300.907 13.096C300.63 13.1387 300.368 13.16 300.123 13.16ZM306.028 13.128C305.473 13.128 304.988 13.0053 304.572 12.76C304.156 12.5147 303.825 12.1787 303.58 11.752C303.345 11.3253 303.228 10.8293 303.228 10.264V4.984H305.052V9.736C305.052 10.3333 305.207 10.808 305.516 11.16C305.836 11.5013 306.268 11.672 306.812 11.672C307.175 11.672 307.5 11.592 307.788 11.432C308.087 11.272 308.343 11.032 308.556 10.712V4.984L310.364 4.984V13H308.556V11.704C308.247 12.1733 307.879 12.5307 307.452 12.776C307.025 13.0107 306.551 13.128 306.028 13.128ZM312.604 13V4.984H314.412V6.712C314.647 6.104 314.951 5.64 315.324 5.32C315.698 5 316.13 4.84 316.62 4.84C316.77 4.85067 316.903 4.86667 317.02 4.888C317.138 4.89867 317.266 4.936 317.404 5V6.584C317.266 6.52 317.106 6.472 316.924 6.44C316.754 6.408 316.583 6.392 316.412 6.392C315.975 6.392 315.58 6.50933 315.228 6.744C314.887 6.97867 314.615 7.304 314.412 7.72V13H312.604ZM322.239 13.16C321.471 13.16 320.777 12.9787 320.159 12.616C319.54 12.2427 319.049 11.7467 318.687 11.128C318.324 10.4987 318.143 9.78933 318.143 9C318.143 8.21067 318.313 7.50667 318.655 6.888C318.996 6.26933 319.46 5.77867 320.047 5.416C320.644 5.04267 321.305 4.856 322.031 4.856C322.777 4.856 323.433 5.03733 323.999 5.4C324.575 5.76267 325.023 6.25333 325.343 6.872C325.673 7.49067 325.839 8.2 325.839 9V9.432L319.919 9.432C319.983 9.86933 320.121 10.2587 320.335 10.6C320.559 10.9307 320.841 11.192 321.183 11.384C321.535 11.576 321.913 11.672 322.319 11.672C322.692 11.672 323.044 11.608 323.375 11.48C323.716 11.3413 323.999 11.1547 324.223 10.92L325.407 11.992C324.916 12.3973 324.415 12.696 323.903 12.888C323.401 13.0693 322.847 13.16 322.239 13.16ZM319.935 8.312L324.127 8.312C324.063 7.928 323.929 7.58667 323.727 7.288C323.535 6.98933 323.289 6.75467 322.991 6.584C322.703 6.41333 322.383 6.328 322.031 6.328C321.679 6.328 321.353 6.41333 321.055 6.584C320.767 6.744 320.527 6.97333 320.335 7.272C320.143 7.57067 320.009 7.91733 319.935 8.312Z" fill="#189EFF"/>
</svg>
