<svg id="Layer_1" data-name="Layer 1" xmlns="http://www.w3.org/2000/svg" viewBox="0 0 131.1 96.1"><defs><style>.cls-1{fill:#4a4af4;}.cls-2{fill:#060809;}</style></defs><path class="cls-1" d="M261.44,442.39a52.72,52.72,0,1,1,88.2,0H364.4a65.55,65.55,0,1,0-117.7,0Zm0,0" transform="translate(-240 -348)"/><path class="cls-2" d="M306.43,382.4c-9.6,0-20.65,4.53-26.65,9.31l5.47,11.53c4.81-4.4,12.59-8.16,19.6-8.16,6.67,0,10.34,2.22,10.34,6.72,0,3-2.44,4.72-7.05,5.14-17.29,1.59-30.73,7-30.73,20.27,0,10.53,7.59,16.89,20.08,16.89a21.14,21.14,0,0,0,18.45-10.77v9.05h15.58V404.44c0-15.67-10.9-22-25.09-22Zm-4.55,49.53c-5,0-7.81-2.16-7.81-5.7,0-7.4,9-9.18,20.8-9.18,0,7.74-5.18,14.88-13,14.88Zm0,0" transform="translate(-240 -348)"/></svg>